M48
;Layer_Color=9474304
;FILE_FORMAT=2:5
INCH,LZ
;TYPE=PLATED
T1F00S00C0.01575
T3F00S00C0.02559
%
T01
X-0115059Y0008465
X-0114862Y001437
X-0108563Y0013976
X-0107972Y0008169
X-0103543Y0008071
X-0103248Y0014272
X-0095079Y0005906
X-0094882Y0002756
X-0084449Y0036319
Y0038878
Y0041142
X-008189
X-0081791Y0038878
X-0079429
Y0036417
X-0081791
X-0079528Y004124
X-0087894Y0054035
X-009498Y0054921
X-0095374Y0059449
X-0102264
X-0102362Y0066831
X-0102461Y006998
X-0102362Y0074606
X-0104823Y0054331
X-0048524Y0040059
X-004626
X-0043996
X-0041339
X-0039075
Y0037106
X-0041437
X-0043898
X-004626
X-0048622
X-0027264Y0071555
X-0017224Y0071358
X0012205Y007126
X0022244Y0071358
X0004921Y001565
X-0005118Y0015748
X0079331Y0008071
X0081988Y0006299
X0087106Y0005709
X0084744Y0010236
X0099606Y0011122
X0099016Y0005413
X0115354Y0004626
X0116043Y0011319
X0120669Y0020374
X0111909Y0027264
X010876Y0024902
X0105512Y002372
X0105315Y0027559
Y0032579
X0101279Y0032283
X0109941
X0105905Y0047047
X0103445Y0049213
X0100787Y0047047
X0100886Y0055807
X0105709Y0051772
X0108366Y0054134
X0114272Y0058169
X0114469Y0061319
X0124114Y0062008
X0124311Y005876
X0125591Y0055807
X0122638Y0051968
X0124311Y0049213
X0128839Y0045472
X0128543Y0037303
X0136024Y0037402
X0091043Y0031496
X0087205Y0031299
X0084449Y0029921
X0088878Y0027953
X0089272Y0023228
X0083465Y0054429
X0083268Y0066142
X0080118Y0063583
X0078642Y0068701
X0078543Y0071949
X0070669Y0071949
X0072244Y0068701
X0067323Y0064468
X0067126Y005187
X0063976
X0070669Y0052067
X0097146Y0074114
X0100394Y0081004
X009941Y0087205
X0096949Y0089961
Y0095079
X0099508Y0097933
X0106693Y009813
X0107283Y010689
X0116831Y010561
X0112697Y0118012
X0107677Y0129232
X0101575Y0126969
X0094784Y012815
X0099016Y0134055
X0095965Y0139961
X0105905Y0139862
X0113484Y013563
X0097146Y0119193
X009685Y0114961
Y0107874
X0081004Y0112402
X0075197
X0074705Y0119193
X008248
X0075886Y0104724
X0078051Y0102559
X0081398Y0096161
X0078445Y0092323
X0083084Y0084296
X0080315Y0077756
X0077559Y0077461
X0077067Y008002
X0056595Y0085827
X0053248Y0086122
X0056693Y0089665
X0053347Y0140453
X0066535Y0140748
X0079528Y0140847
X0074606Y0160728
X0059153Y0161122
X0131398Y0101378
X0132185Y0095866
X0136516Y0093701
X0139764Y0087795
X0131791Y0088976
X0135039Y0082972
X0132283Y0077559
X0139173Y0077264
X0124609
X0122835Y0089836
X0138976Y0101279
X0046358Y0095571
X0026378Y0094291
X0025Y0108858
X0028543Y0108957
X0025197Y0112697
X0021752Y0113386
X-0010039Y0120669
X-0026969Y0121555
X-0035236Y0120669
X-0035531Y0115945
X-0037795Y0113681
X-0041929Y0114392
X-0047933Y0115354
X-0052461Y0113484
Y0102264
X-0054057Y0097081
X-0056988Y0085433
X-0048819Y008376
X-0048031Y0086417
X-0045276
X-0044488Y0089272
X-0041535Y0085433
X-0037992Y0083858
X-0038484Y0079626
X-0029724Y0081595
X-0031004Y0107087
X-0037795Y0103937
X-0041732Y010374
X-0065256Y0118602
X-0065158Y0124803
X-0059449Y0126969
X-0059252Y0130905
X-0059646Y015187
X-00625Y0151772
X-0065453Y015187
X-0066831Y0154232
X-0066437Y015748
X-0073032Y0160138
X-0058071Y0154823
X-005561Y0152165
X-0046949Y0148524
X-0043307Y0157382
X-0038976Y0157283
Y0143405
X-0027362Y0143307
X-0009252Y0141929
X-0005118Y0140945
X-0003543Y0143701
X-0001673Y014626
X-0002657Y0151575
X-0002559Y0154724
X-0012992Y0162205
X-0012697Y0174409
X-0011024Y0185728
X-0010039Y020374
X-0012992Y0204429
X-0013583Y0208465
X-0013484Y0211417
Y0213779
X-0013386Y0216732
X-0012795Y0230413
X-0009154Y0230217
X-0007579Y0226575
X-0003642Y0227559
X-0000197Y0225098
X-0016437Y0230709
X-0003642Y0204035
X-0005906Y0201673
X0013287Y0202461
X0013681Y0204823
X0015748Y0206201
X0017323Y0208071
X0016142Y021063
X0015453Y0214075
X0012894Y0214961
X0017028Y0203839
X0019094Y0205413
X0017815Y0186122
X0016929Y0170571
X0029232Y0173031
X0024705Y0160925
X0015059Y0151673
X0011909Y0151181
X0010434Y0148137
X0012992Y0146161
X0010433Y0141929
X0040157Y0140453
X0043602Y0161122
X-0028248Y0162697
X-0029035Y0175886
X-003189Y0186319
X-0045669Y0174902
X-0080905Y0142028
X-0098622Y0143701
X-0098327Y0120669
X-0080315Y0122047
X-0094784Y0095669
X-0099213Y0096752
X-0099902Y0093701
Y0089272
X-0094587Y0089961
X-009479Y0085017
X-0095276Y0076876
X-009065Y0079429
X-0103937Y0092421
X-0104724Y0095866
X-0006594Y0094095
X-0006693Y0091732
X-0006299Y0088681
X-0006102Y0086024
X-0004134Y0087303
X-0003839Y0084646
X-0001575Y0088681
Y0092421
X-0001673Y0096063
X-0004528Y0096161
X-0106398Y0088976
X-0116339Y0099584
X-0115748Y0104724
X-0118701Y0104921
X-0122343Y0101772
X-0127165Y0101673
X-0126969Y0096063
X-0121752Y0096457
X-0115157Y0120768
X-0112303Y0135335
X-0016339Y0234842
X-0012894Y0234252
X-0009055Y0233366
X-0005906Y0232283
X-0006791Y0236122
X-001063Y0237402
X0017599Y0232382
X002185Y023189
T03
X-0011379Y0225702
X0011377
M30
