%FSLAX25Y25*%
%MOIN*%
G70*
G01*
G75*
%ADD10C,0.00787*%
%ADD11C,0.01181*%
%ADD12R,0.02756X0.04921*%
%ADD13O,0.07874X0.05906*%
%ADD14R,0.07874X0.05906*%
%ADD15C,0.11811*%
%ADD16R,0.01181X0.03347*%
%ADD17R,0.02362X0.03347*%
%ADD18R,0.03543X0.06693*%
%ADD19O,0.05906X0.07874*%
%ADD20R,0.05906X0.07874*%
%ADD21R,0.05512X0.02362*%
%ADD22R,0.03150X0.07874*%
%ADD23R,0.02362X0.07874*%
%ADD24O,0.07480X0.12992*%
%ADD25R,0.01575X0.04724*%
%ADD26R,0.03937X0.03543*%
%ADD27O,0.02362X0.05512*%
%ADD28R,0.02362X0.01969*%
%ADD29R,0.01969X0.02362*%
%ADD30R,0.04921X0.02756*%
%ADD31R,0.03543X0.03937*%
%ADD32R,0.05118X0.03150*%
%ADD33R,0.03150X0.05118*%
%ADD34R,0.03150X0.03150*%
%ADD35R,0.06693X0.03543*%
%ADD36R,0.03543X0.02362*%
G04:AMPARAMS|DCode=37|XSize=98.43mil|YSize=59.06mil|CornerRadius=14.76mil|HoleSize=0mil|Usage=FLASHONLY|Rotation=90.000|XOffset=0mil|YOffset=0mil|HoleType=Round|Shape=RoundedRectangle|*
%AMROUNDEDRECTD37*
21,1,0.09843,0.02953,0,0,90.0*
21,1,0.06890,0.05906,0,0,90.0*
1,1,0.02953,0.01476,0.03445*
1,1,0.02953,0.01476,-0.03445*
1,1,0.02953,-0.01476,-0.03445*
1,1,0.02953,-0.01476,0.03445*
%
%ADD37ROUNDEDRECTD37*%
%ADD38C,0.07874*%
%ADD39C,0.02559*%
G04:AMPARAMS|DCode=40|XSize=39.37mil|YSize=62.99mil|CornerRadius=17.72mil|HoleSize=0mil|Usage=FLASHONLY|Rotation=180.000|XOffset=0mil|YOffset=0mil|HoleType=Round|Shape=RoundedRectangle|*
%AMROUNDEDRECTD40*
21,1,0.03937,0.02756,0,0,180.0*
21,1,0.00394,0.06299,0,0,180.0*
1,1,0.03543,-0.00197,0.01378*
1,1,0.03543,0.00197,0.01378*
1,1,0.03543,0.00197,-0.01378*
1,1,0.03543,-0.00197,-0.01378*
%
%ADD40ROUNDEDRECTD40*%
G04:AMPARAMS|DCode=41|XSize=39.37mil|YSize=82.68mil|CornerRadius=17.72mil|HoleSize=0mil|Usage=FLASHONLY|Rotation=180.000|XOffset=0mil|YOffset=0mil|HoleType=Round|Shape=RoundedRectangle|*
%AMROUNDEDRECTD41*
21,1,0.03937,0.04724,0,0,180.0*
21,1,0.00394,0.08268,0,0,180.0*
1,1,0.03543,-0.00197,0.02362*
1,1,0.03543,0.00197,0.02362*
1,1,0.03543,0.00197,-0.02362*
1,1,0.03543,-0.00197,-0.02362*
%
%ADD41ROUNDEDRECTD41*%
%ADD42C,0.02362*%
%ADD43C,0.00394*%
%ADD44C,0.02362*%
%ADD45C,0.00984*%
%ADD46C,0.01969*%
%ADD47C,0.00197*%
%ADD48C,0.00500*%
%ADD49C,0.00800*%
%ADD50C,0.00591*%
%ADD51C,0.01000*%
G36*
X-44917Y100628D02*
X-46917Y98628D01*
Y102628D01*
X-44917Y100628D01*
D02*
G37*
G36*
X-88244Y67793D02*
X-92243D01*
X-90244Y69793D01*
X-88244Y67793D01*
D02*
G37*
G36*
X-46213Y159405D02*
X-49560D01*
X-47886Y161373D01*
X-46213Y159405D01*
D02*
G37*
G36*
X-50928Y160173D02*
Y160842D01*
X-50258D01*
X-50928Y160173D01*
D02*
G37*
G36*
X-62491Y159570D02*
X-64491Y161570D01*
X-60491D01*
X-62491Y159570D01*
D02*
G37*
D10*
X46063Y15748D02*
G03*
X46063Y15748I-6693J0D01*
G01*
X77559D02*
G03*
X77559Y15748I-6693J0D01*
G01*
X-32677D02*
G03*
X-32677Y15748I-6693J0D01*
G01*
X-64173D02*
G03*
X-64173Y15748I-6693J0D01*
G01*
X9764Y9885D02*
Y21696D01*
X-10000Y9885D02*
X9764D01*
X-10000D02*
Y21696D01*
X9764D01*
X95784Y109410D02*
X108874D01*
X95784Y75434D02*
X108874D01*
X95784D02*
Y109390D01*
X108874Y75434D02*
Y109390D01*
X75197Y46752D02*
X77953D01*
X75197D02*
Y49901D01*
Y58563D02*
X77953D01*
X75197Y55413D02*
Y58563D01*
X-112161Y98403D02*
X-92476D01*
Y85017D02*
X-92476Y98403D01*
X-112161Y85017D02*
X-92476Y85017D01*
X-112161Y98403D02*
X-112161Y85017D01*
X51508Y81502D02*
X54658D01*
X51508D02*
Y84258D01*
X60170Y81502D02*
X63319D01*
Y84258D01*
X-49705Y81693D02*
X-46555D01*
X-49705D02*
Y84449D01*
X-41043Y81693D02*
X-37894D01*
Y84449D01*
X38221Y81502D02*
X41371D01*
X38221D02*
Y84258D01*
X46882Y81502D02*
X50032D01*
Y84258D01*
X-62697Y81693D02*
X-59547D01*
X-62697D02*
Y84449D01*
X-54035Y81693D02*
X-50886D01*
Y84449D01*
X-9843Y64151D02*
X-9843Y50765D01*
X-29528Y64151D02*
X-9843Y64151D01*
X-29528Y50765D02*
X-29528Y64151D01*
Y50765D02*
X-9843D01*
X56135Y135729D02*
X59285D01*
Y132973D02*
Y135729D01*
X47474D02*
X50623D01*
X47474Y132973D02*
Y135729D01*
X82382Y151575D02*
X85532D01*
Y148819D02*
Y151575D01*
X73721D02*
X76870D01*
X73721Y148819D02*
Y151575D01*
X56135D02*
X59285D01*
Y148819D02*
Y151575D01*
X47474D02*
X50623D01*
X47474Y148819D02*
Y151575D01*
X82382Y135729D02*
X85532D01*
Y132973D02*
Y135729D01*
X73721D02*
X76870D01*
X73721Y132973D02*
Y135729D01*
X61024Y64151D02*
X61024Y50765D01*
X41339Y64151D02*
X61024Y64151D01*
X41339Y50765D02*
X41339Y64151D01*
Y50765D02*
X61024D01*
X29528Y64151D02*
X29528Y50765D01*
X9843Y64151D02*
X29528Y64151D01*
X9843Y50765D02*
X9843Y64151D01*
Y50765D02*
X29528D01*
X43012Y135729D02*
X46161D01*
Y132973D02*
Y135729D01*
X34350D02*
X37500D01*
X34350Y132973D02*
Y135729D01*
X69259Y151575D02*
X72408D01*
Y148819D02*
Y151575D01*
X60597D02*
X63747D01*
X60597Y148819D02*
Y151575D01*
X43012D02*
X46161D01*
Y148819D02*
Y151575D01*
X34350D02*
X37500D01*
X34350Y148819D02*
Y151575D01*
X69259Y135729D02*
X72408D01*
Y132973D02*
Y135729D01*
X60597D02*
X63747D01*
X60597Y132973D02*
Y135729D01*
X-41339Y64151D02*
X-41339Y50765D01*
X-61024Y64151D02*
X-41339Y64151D01*
X-61024Y50765D02*
X-61024Y64151D01*
Y50765D02*
X-41339D01*
X85751Y17761D02*
X88507D01*
X85751D02*
Y20910D01*
Y29572D02*
X88507D01*
X85751Y26422D02*
Y29572D01*
X13287Y15944D02*
X18535D01*
X-18701Y16140D02*
X-13453D01*
X-16077Y18764D02*
Y13517D01*
D43*
X5610Y213976D02*
G03*
X4626Y212992I0J-984D01*
G01*
Y207874D02*
G03*
X5610Y206890I984J0D01*
G01*
X16240Y212992D02*
G03*
X15256Y213976I-984J0D01*
G01*
Y206890D02*
G03*
X16240Y207874I0J984D01*
G01*
X63486Y33168D02*
G03*
X62205Y34449I-1281J0D01*
G01*
X62214Y25787D02*
G03*
X63495Y27068I0J1281D01*
G01*
X48022Y34449D02*
G03*
X46741Y33168I0J-1281D01*
G01*
X46750Y27068D02*
G03*
X48031Y25787I1281J0D01*
G01*
X-63486Y27068D02*
G03*
X-62205Y25787I1281J0D01*
G01*
X-62214Y34449D02*
G03*
X-63495Y33168I0J-1281D01*
G01*
X-48022Y25787D02*
G03*
X-46741Y27068I0J1281D01*
G01*
X-46750Y33168D02*
G03*
X-48031Y34449I-1281J0D01*
G01*
X-16064Y41690D02*
G03*
X-17345Y40409I0J-1281D01*
G01*
X-8683Y40418D02*
G03*
X-9964Y41699I-1281J0D01*
G01*
X-17345Y26226D02*
G03*
X-16064Y24945I1281J0D01*
G01*
X-9965Y24954D02*
G03*
X-8684Y26236I0J1281D01*
G01*
X-1734Y44562D02*
G03*
X-453Y45843I0J1281D01*
G01*
X-9115Y45834D02*
G03*
X-7834Y44553I1281J0D01*
G01*
X-453Y60026D02*
G03*
X-1734Y61307I-1281J0D01*
G01*
X-7834Y61298D02*
G03*
X-9115Y60017I0J-1281D01*
G01*
X-32579Y59428D02*
G03*
X-33346Y60195I-767J-0D01*
G01*
X-37520D02*
G03*
X-38287Y59428I0J-767D01*
G01*
X-33346Y49647D02*
G03*
X-32579Y50415I0J767D01*
G01*
X-38287D02*
G03*
X-37520Y49647I767J0D01*
G01*
X1284Y41840D02*
G03*
X3Y40558I0J-1281D01*
G01*
X8665Y40568D02*
G03*
X7384Y41849I-1281J0D01*
G01*
X3Y26376D02*
G03*
X1284Y25095I1281J0D01*
G01*
X7384Y25104D02*
G03*
X8665Y26385I0J1281D01*
G01*
X-7402Y41788D02*
G03*
X-8684Y40507I0J-1281D01*
G01*
X-22Y40517D02*
G03*
X-1303Y41798I-1281J0D01*
G01*
X-8684Y26325D02*
G03*
X-7403Y25043I1281J0D01*
G01*
X-1303Y25053D02*
G03*
X-22Y26334I0J1281D01*
G01*
X1714Y61298D02*
G03*
X433Y60017I0J-1281D01*
G01*
X9094Y60026D02*
G03*
X7813Y61307I-1281J0D01*
G01*
X432Y45834D02*
G03*
X1713Y44553I1281J0D01*
G01*
X7813Y44562D02*
G03*
X9094Y45843I0J1281D01*
G01*
X32579Y50415D02*
G03*
X33346Y49647I767J0D01*
G01*
X37520D02*
G03*
X38287Y50415I0J767D01*
G01*
X33346Y60195D02*
G03*
X32579Y59428I0J-767D01*
G01*
X38287D02*
G03*
X37520Y60195I-767J-0D01*
G01*
X9949Y41840D02*
G03*
X8668Y40558I0J-1281D01*
G01*
X17329Y40568D02*
G03*
X16048Y41849I-1281J0D01*
G01*
X8667Y26376D02*
G03*
X9948Y25095I1281J0D01*
G01*
X16048Y25104D02*
G03*
X17329Y26385I0J1281D01*
G01*
X-4784Y68875D02*
G03*
X-5768Y67891I0J-984D01*
G01*
Y62773D02*
G03*
X-4784Y61788I984J0D01*
G01*
X5846Y67891D02*
G03*
X4862Y68875I-984J0D01*
G01*
Y61788D02*
G03*
X5846Y62773I0J984D01*
G01*
X-4784Y76454D02*
G03*
X-5768Y75469I0J-984D01*
G01*
Y70351D02*
G03*
X-4784Y69367I984J0D01*
G01*
X5846Y75469D02*
G03*
X4862Y76454I-984J0D01*
G01*
Y69367D02*
G03*
X5846Y70351I0J984D01*
G01*
X-61756Y115180D02*
G03*
X-60772Y114196I984J0D01*
G01*
X-55654D02*
G03*
X-54670Y115180I0J984D01*
G01*
X-60772Y125810D02*
G03*
X-61756Y124826I0J-984D01*
G01*
X-54670D02*
G03*
X-55654Y125810I-984J0D01*
G01*
X-45615Y115377D02*
G03*
X-44631Y114392I984J0D01*
G01*
X-39512D02*
G03*
X-38528Y115377I0J984D01*
G01*
X-44631Y126007D02*
G03*
X-45615Y125022I0J-984D01*
G01*
X-38528D02*
G03*
X-39512Y126007I-984J0D01*
G01*
X-4921Y95472D02*
G03*
X-5906Y94488I0J-984D01*
G01*
Y89370D02*
G03*
X-4921Y88386I984J0D01*
G01*
X5709Y94488D02*
G03*
X4724Y95472I-984J0D01*
G01*
Y88386D02*
G03*
X5709Y89370I0J984D01*
G01*
X-4921Y84055D02*
G03*
X-5906Y83071I0J-984D01*
G01*
Y77953D02*
G03*
X-4921Y76968I984J0D01*
G01*
X5709Y83071D02*
G03*
X4724Y84055I-984J0D01*
G01*
Y76968D02*
G03*
X5709Y77953I0J984D01*
G01*
X-112653Y110214D02*
G03*
X-113637Y111198I-984J0D01*
G01*
X-118755D02*
G03*
X-119739Y110214I0J-984D01*
G01*
X-113637Y99584D02*
G03*
X-112653Y100568I0J984D01*
G01*
X-119739D02*
G03*
X-118755Y99584I984J0D01*
G01*
X5610Y213976D02*
X8661D01*
X4626Y207775D02*
Y212992D01*
X5610Y206890D02*
X8661D01*
X12205Y213976D02*
X15256D01*
X16240Y207874D02*
Y213090D01*
X12205Y206890D02*
X15256D01*
X17617Y221489D02*
Y250426D01*
X-17580Y221489D02*
Y250426D01*
X17617D01*
X63486Y26967D02*
Y33168D01*
X57480Y25786D02*
X62214Y25787D01*
X57480Y34450D02*
X62205Y34449D01*
X48031Y25787D02*
X52756Y25786D01*
X48022Y34449D02*
X52756Y34450D01*
X46750Y27068D02*
Y33269D01*
X-63486Y27068D02*
Y33269D01*
X-62214Y34449D02*
X-57480Y34450D01*
X-62205Y25787D02*
X-57480Y25786D01*
X-52756Y34450D02*
X-48031Y34449D01*
X-52756Y25786D02*
X-48022Y25787D01*
X-46750Y26967D02*
Y33168D01*
X-14036Y72418D02*
X-6949D01*
X-6949Y84032D02*
X-6949Y72418D01*
X-14036Y84032D02*
X-6949D01*
X-14036Y72418D02*
Y84032D01*
X-45117Y98628D02*
Y102528D01*
X-47117Y100628D02*
X-44717D01*
X-51403Y103482D02*
X-40068D01*
X-51403Y97774D02*
X-40068D01*
X-44358Y103482D02*
X-40835D01*
X-44358Y97774D02*
X-40835D01*
X-50636Y103482D02*
X-47114D01*
X-50636Y97774D02*
X-47114D01*
X-64491Y159770D02*
X-60591D01*
X-62491Y159370D02*
Y161770D01*
X-59636Y154722D02*
Y166057D01*
X-65345Y154722D02*
Y166057D01*
X-59636Y155489D02*
Y159011D01*
X-65345Y155489D02*
Y159011D01*
X-59636Y161767D02*
Y165289D01*
X-65345Y161767D02*
Y165289D01*
X-50317Y154484D02*
X-45593D01*
X-50317Y166295D02*
X-45593D01*
Y162358D02*
Y166295D01*
X-50317Y162358D02*
Y166295D01*
X-49924Y160716D02*
X-49307Y160254D01*
X-49519Y161201D02*
X-46233D01*
X-50593Y160507D02*
X-49924Y160005D01*
Y160716D01*
X-45593Y154484D02*
Y158421D01*
X-50317Y154484D02*
Y158421D01*
X-92143Y69593D02*
X-88244D01*
X-90244Y67593D02*
Y69993D01*
X-93098Y63306D02*
Y74641D01*
X-87389Y63306D02*
Y74641D01*
X-93098Y70352D02*
Y73874D01*
X-87389Y70352D02*
Y73874D01*
X-93098Y64074D02*
Y67596D01*
X-87389Y64074D02*
Y67596D01*
X-16064Y41690D02*
X-9863D01*
X-8683Y40418D02*
X-8682Y35684D01*
X-17346D02*
X-17345Y40409D01*
X-8683Y26236D02*
X-8682Y30960D01*
X-17346D02*
X-17345Y26226D01*
X-16165Y24954D02*
X-9965D01*
X-7935Y44562D02*
X-1734D01*
X-9116Y50568D02*
X-9115Y45834D01*
X-453Y45843D02*
X-452Y50568D01*
X-9116Y55292D02*
X-9115Y60017D01*
X-453Y60026D02*
X-452Y55292D01*
X-7834Y61298D02*
X-1633D01*
X-32579Y56988D02*
Y59428D01*
X-37520Y60195D02*
X-33366D01*
X-38287Y56988D02*
Y59428D01*
X-32579Y50415D02*
Y52854D01*
X-37500Y49647D02*
X-33346D01*
X-38287Y50415D02*
Y52854D01*
X1284Y41840D02*
X7485D01*
X8665Y40568D02*
X8666Y35834D01*
X2D02*
X3Y40558D01*
X8665Y26385D02*
X8666Y31110D01*
X2D02*
X3Y26376D01*
X1183Y25104D02*
X7384D01*
X-7402Y41788D02*
X-1202D01*
X-22Y40517D02*
X-21Y35783D01*
X-8685D02*
X-8684Y40507D01*
X-22Y26334D02*
X-21Y31058D01*
X-8685D02*
X-8684Y26325D01*
X-7504Y25053D02*
X-1303D01*
X1714Y61298D02*
X7914D01*
X9094Y60026D02*
X9095Y55292D01*
X431D02*
X432Y60017D01*
X9094Y45843D02*
X9095Y50568D01*
X431D02*
X432Y45834D01*
X1612Y44562D02*
X7813D01*
X32579Y50415D02*
Y52854D01*
X33366Y49647D02*
X37520D01*
X38287Y50415D02*
Y52854D01*
X32579Y56988D02*
Y59428D01*
X33346Y60195D02*
X37500D01*
X38287Y56988D02*
Y59428D01*
X9949Y41840D02*
X16149D01*
X17329Y40568D02*
X17330Y35834D01*
X8666D02*
X8667Y40558D01*
X17329Y26385D02*
X17330Y31110D01*
X8666D02*
X8667Y26376D01*
X9847Y25104D02*
X16048D01*
X-4784Y68875D02*
X-1733D01*
X-5768Y62674D02*
Y67891D01*
X-4784Y61788D02*
X-1733D01*
X1811Y68875D02*
X4862D01*
X5846Y62773D02*
Y67989D01*
X1811Y61788D02*
X4862D01*
X-4784Y76454D02*
X-1733D01*
X-5768Y70253D02*
Y75469D01*
X-4784Y69367D02*
X-1733D01*
X1811Y76454D02*
X4862D01*
X5846Y70351D02*
Y75568D01*
X1811Y69367D02*
X4862D01*
X-61757Y115180D02*
Y118231D01*
X-60772Y114196D02*
X-55556D01*
X-54670Y115180D02*
Y118231D01*
X-61757Y121774D02*
Y124826D01*
X-60871Y125810D02*
X-55654D01*
X-54670Y121774D02*
Y124826D01*
X-45615Y115377D02*
Y118428D01*
X-44631Y114392D02*
X-39414D01*
X-38528Y115377D02*
Y118428D01*
X-45615Y121971D02*
Y125022D01*
X-44729Y126006D02*
X-39512D01*
X-38528Y121971D02*
Y125022D01*
X-4921Y95472D02*
X-1870D01*
X-5906Y89271D02*
Y94488D01*
X-4921Y88386D02*
X-1870D01*
X1673Y95472D02*
X4724D01*
X5709Y89370D02*
Y94586D01*
X1673Y88386D02*
X4724D01*
X-4921Y84055D02*
X-1870D01*
X-5906Y77854D02*
Y83071D01*
X-4921Y76968D02*
X-1870D01*
X1673Y84055D02*
X4724D01*
X5709Y77953D02*
Y83169D01*
X1673Y76968D02*
X4724D01*
X-112653Y107163D02*
Y110214D01*
X-118854Y111198D02*
X-113637D01*
X-119740Y107163D02*
Y110214D01*
X-112653Y100568D02*
Y103620D01*
X-118755Y99584D02*
X-113539D01*
X-119740Y100568D02*
Y103620D01*
D44*
X103559Y79371D02*
G03*
X103559Y79371I-1181J0D01*
G01*
D45*
X112417Y74075D02*
G03*
X112417Y74075I-492J0D01*
G01*
X74409Y49311D02*
G03*
X74409Y49311I-492J0D01*
G01*
X61252Y80222D02*
G03*
X61252Y80222I-492J0D01*
G01*
X-39961Y80413D02*
G03*
X-39961Y80413I-492J0D01*
G01*
X47965Y80222D02*
G03*
X47965Y80222I-492J0D01*
G01*
X-52953Y80413D02*
G03*
X-52953Y80413I-492J0D01*
G01*
X50525Y137008D02*
G03*
X50525Y137008I-492J0D01*
G01*
X76772Y152855D02*
G03*
X76772Y152855I-492J0D01*
G01*
X50525D02*
G03*
X50525Y152855I-492J0D01*
G01*
X76772Y137008D02*
G03*
X76772Y137008I-492J0D01*
G01*
X37402D02*
G03*
X37402Y137008I-492J0D01*
G01*
X63648Y152855D02*
G03*
X63648Y152855I-492J0D01*
G01*
X37402D02*
G03*
X37402Y152855I-492J0D01*
G01*
X63648Y137008D02*
G03*
X63648Y137008I-492J0D01*
G01*
X84963Y20320D02*
G03*
X84963Y20320I-492J0D01*
G01*
D46*
X87876Y48152D02*
G03*
X87876Y48152I-423J0D01*
G01*
X-113736Y80686D02*
G03*
X-113736Y80686I-423J0D01*
G01*
X-7422Y68481D02*
G03*
X-7422Y68481I-423J0D01*
G01*
X63444D02*
G03*
X63444Y68481I-423J0D01*
G01*
X31948D02*
G03*
X31948Y68481I-423J0D01*
G01*
X-38918D02*
G03*
X-38918Y68481I-423J0D01*
G01*
D47*
X85384Y78149D02*
G03*
X85409Y81680I-2596J1784D01*
G01*
X78795Y81683D02*
G03*
X78804Y78101I2596J-1784D01*
G01*
X44712Y97790D02*
G03*
X44737Y101321I-2596J1784D01*
G01*
X38123Y101324D02*
G03*
X38133Y97742I2596J-1784D01*
G01*
X-55780Y97790D02*
G03*
X-55755Y101321I-2596J1784D01*
G01*
X-62369Y101324D02*
G03*
X-62359Y97742I2596J-1784D01*
G01*
X47414Y101256D02*
G03*
X47389Y97726I2596J-1784D01*
G01*
X54003Y97723D02*
G03*
X53993Y101305I-2596J1784D01*
G01*
X-49793Y116925D02*
G03*
X-46262Y116899I1784J2596D01*
G01*
X-46260Y123514D02*
G03*
X-49842Y123504I-1784J-2596D01*
G01*
X-2980Y87938D02*
G03*
X-3005Y84407I2596J-1784D01*
G01*
X3610Y84404D02*
G03*
X3600Y87987I-2596J1784D01*
G01*
X111582Y38949D02*
G03*
X108052Y38974I-1784J-2596D01*
G01*
X108049Y32360D02*
G03*
X111631Y32370I1784J2596D01*
G01*
X93275Y38850D02*
G03*
X89745Y38875I-1784J-2596D01*
G01*
X89742Y32261D02*
G03*
X93324Y32271I1784J2596D01*
G01*
X99584Y32399D02*
G03*
X103115Y32374I1784J2596D01*
G01*
X103118Y38988D02*
G03*
X99536Y38978I-1784J-2596D01*
G01*
X78736Y77647D02*
G03*
X78710Y74117I2596J-1784D01*
G01*
X85325Y74114D02*
G03*
X85315Y77696I-2596J1784D01*
G01*
X-110613Y68821D02*
G03*
X-110638Y65291I2596J-1784D01*
G01*
X-104024Y65288D02*
G03*
X-104034Y68870I-2596J1784D01*
G01*
X89141Y38850D02*
G03*
X85611Y38875I-1784J-2596D01*
G01*
X85608Y32261D02*
G03*
X89190Y32271I1784J2596D01*
G01*
X-100573Y64589D02*
G03*
X-100599Y61058I2596J-1784D01*
G01*
X-93984Y61056D02*
G03*
X-93994Y64638I-2596J1784D01*
G01*
X-100573Y72758D02*
G03*
X-100599Y69228I2596J-1784D01*
G01*
X-93984Y69225D02*
G03*
X-93994Y72807I-2596J1784D01*
G01*
X-100573Y110652D02*
G03*
X-100599Y107122I2596J-1784D01*
G01*
X-93984Y107119D02*
G03*
X-93994Y110701I-2596J1784D01*
G01*
X-117914Y91683D02*
G03*
X-114383Y91658I1784J2596D01*
G01*
X-114381Y98272D02*
G03*
X-117963Y98262I-1784J-2596D01*
G01*
X104283Y22234D02*
Y29034D01*
X100683Y22234D02*
X104283D01*
X100683D02*
Y29059D01*
X104274D01*
X79595Y89245D02*
X86395D01*
Y85646D02*
Y89245D01*
X79570Y85646D02*
X86395D01*
X79570D02*
Y89237D01*
X79595Y94265D02*
X86395D01*
Y90665D02*
Y94265D01*
X79570Y90665D02*
X86395D01*
X79570D02*
Y94257D01*
X79595Y99186D02*
X86395D01*
Y95587D02*
Y99186D01*
X79570Y95587D02*
X86395D01*
X79570D02*
Y99178D01*
X79496Y109226D02*
X86296D01*
Y105626D02*
Y109226D01*
X79471Y105626D02*
X86296D01*
X79471D02*
Y109217D01*
X79496Y104206D02*
X86296D01*
Y100606D02*
Y104206D01*
X79471Y100606D02*
X86296D01*
X79471D02*
Y104198D01*
X47387Y93481D02*
X54187D01*
X47387D02*
Y97081D01*
X54213D01*
Y93490D02*
Y97081D01*
X-54057Y93481D02*
X-47257D01*
X-54057D02*
Y97081D01*
X-47232D01*
Y93490D02*
Y97081D01*
X117784Y100606D02*
X124584D01*
X117784D02*
Y104206D01*
X124609D01*
Y100615D02*
Y104206D01*
X117784Y85646D02*
X124584D01*
X117784D02*
Y89245D01*
X124609D01*
Y85654D02*
Y89245D01*
X117809Y99482D02*
X124609D01*
Y95882D02*
Y99482D01*
X117784Y95882D02*
X124609D01*
X117784D02*
Y99473D01*
X56935Y97081D02*
X63735D01*
Y93481D02*
Y97081D01*
X56910Y93481D02*
X63735D01*
X56910D02*
Y97073D01*
X-44412Y97081D02*
X-37611D01*
Y93481D02*
Y97081D01*
X-44437Y93481D02*
X-37611D01*
X-44437D02*
Y97073D01*
X117784Y80626D02*
X124584D01*
X117784D02*
Y84226D01*
X124609D01*
Y80634D02*
Y84226D01*
X117784Y75606D02*
X124584D01*
X117784D02*
Y79206D01*
X124609D01*
Y75615D02*
Y79206D01*
X54868Y73102D02*
X61668D01*
X54868D02*
Y76702D01*
X61693D01*
Y73110D02*
Y76702D01*
X-47298Y73102D02*
X-40498D01*
X-47298D02*
Y76702D01*
X-40472D01*
Y73110D02*
Y76702D01*
X38069Y97081D02*
X44869D01*
Y93481D02*
Y97081D01*
X38044Y93481D02*
X44869D01*
X38044D02*
Y97073D01*
X-62423Y97081D02*
X-55623D01*
Y93481D02*
Y97081D01*
X-62448Y93481D02*
X-55623D01*
X-62448D02*
Y97073D01*
X40301Y76702D02*
X47101D01*
Y73102D02*
Y76702D01*
X40276Y73102D02*
X47101D01*
X40276D02*
Y76693D01*
X-61668Y76702D02*
X-54868D01*
Y73102D02*
Y76702D01*
X-61693Y73102D02*
X-54868D01*
X-61693D02*
Y76693D01*
X47584Y76702D02*
X54384D01*
Y73102D02*
Y76702D01*
X47559Y73102D02*
X54384D01*
X47559D02*
Y76693D01*
X-54483Y76702D02*
X-47683D01*
Y73102D02*
Y76702D01*
X-54508Y73102D02*
X-47683D01*
X-54508D02*
Y76693D01*
X11501Y72910D02*
X18301D01*
X11501D02*
Y76510D01*
X18326D01*
Y72919D02*
Y76510D01*
X21541D02*
X28340D01*
Y72910D02*
Y76510D01*
X21515Y72910D02*
X28340D01*
X21515D02*
Y76502D01*
X-41507Y146797D02*
Y153597D01*
X-45107Y146797D02*
X-41507D01*
X-45107D02*
Y153622D01*
X-41516D01*
X-41234Y156989D02*
Y163789D01*
X-44834Y156989D02*
X-41234D01*
X-44834D02*
Y163814D01*
X-41243D01*
X-50606Y116799D02*
Y123600D01*
X-54206Y116799D02*
X-50606D01*
X-54206D02*
Y123625D01*
X-50615D01*
X-40700Y156989D02*
Y163789D01*
X-37100D01*
Y156964D02*
Y163789D01*
X-40691Y156964D02*
X-37100D01*
X-54775Y156989D02*
Y163789D01*
X-51175D01*
Y156964D02*
Y163789D01*
X-54766Y156964D02*
X-51175D01*
X-55407Y156989D02*
Y163789D01*
X-59007Y156989D02*
X-55407D01*
X-59007D02*
Y163814D01*
X-55416D01*
X-40973Y146797D02*
Y153597D01*
X-37373D01*
Y146772D02*
Y153597D01*
X-40965Y146772D02*
X-37373D01*
X117784Y66649D02*
X124584D01*
X117784D02*
Y70249D01*
X124609D01*
Y66658D02*
Y70249D01*
X117784Y71079D02*
X124584D01*
X117784D02*
Y74679D01*
X124609D01*
Y71087D02*
Y74679D01*
X100247Y22234D02*
Y29034D01*
X96647Y22234D02*
X100247D01*
X96647D02*
Y29059D01*
X100239D01*
X-110738Y64671D02*
X-103938D01*
Y61071D02*
Y64671D01*
X-110763Y61071D02*
X-103938D01*
X-110763D02*
Y64663D01*
X107236Y32274D02*
Y39074D01*
X103636Y32274D02*
X107236D01*
X103636D02*
Y39099D01*
X107227D01*
X78610Y73793D02*
X85410D01*
Y70193D02*
Y73793D01*
X78585Y70193D02*
X85410D01*
X78585D02*
Y73784D01*
X95368Y32274D02*
Y39074D01*
X98968D01*
Y32249D02*
Y39074D01*
X95377Y32249D02*
X98968D01*
X-110738Y73276D02*
X-103938D01*
X-110738D02*
Y76876D01*
X-103913D01*
Y73285D02*
Y76876D01*
X-100699Y73276D02*
X-93899D01*
X-100699D02*
Y76876D01*
X-93873D01*
Y73285D02*
Y76876D01*
X-110738Y69241D02*
X-103938D01*
X-110738D02*
Y72841D01*
X-103913D01*
Y69249D02*
Y72841D01*
X81687Y32175D02*
Y38975D01*
X85287D01*
Y32150D02*
Y38975D01*
X81695Y32150D02*
X85287D01*
X-117996Y83586D02*
Y90386D01*
X-114396D01*
Y83560D02*
Y90386D01*
X-117988Y83560D02*
X-114396D01*
X-100699Y65304D02*
X-93899D01*
X-100699D02*
Y68904D01*
X-93873D01*
Y65312D02*
Y68904D01*
X78709Y66256D02*
X85509D01*
X78709D02*
Y69856D01*
X85534D01*
Y66265D02*
Y69856D01*
X-86544Y61265D02*
Y68065D01*
X-82944D01*
Y61240D02*
Y68065D01*
X-86535Y61240D02*
X-82944D01*
X-110738Y110636D02*
X-103938D01*
Y107036D02*
Y110636D01*
X-110763Y107036D02*
X-103938D01*
X-110763D02*
Y110627D01*
X-21510Y80483D02*
X-14710D01*
X-21510D02*
Y84083D01*
X-14685D01*
Y80492D02*
Y84083D01*
X78893Y78083D02*
X85337Y78082D01*
X78814Y81683D02*
X85411Y81683D01*
X38221Y97724D02*
X44665Y97723D01*
X38143Y101324D02*
X44739Y101324D01*
X-62271Y97724D02*
X-55827Y97723D01*
X-62350Y101324D02*
X-55753Y101324D01*
X47461Y101324D02*
X53905Y101323D01*
X47387Y97723D02*
X53983Y97723D01*
X-49860Y116971D02*
X-49860Y123415D01*
X-46260Y116897D02*
X-46260Y123494D01*
X-2933Y88005D02*
X3511Y88005D01*
X-3007Y84405D02*
X3590Y84404D01*
X111649Y32458D02*
X111649Y38902D01*
X108049Y32379D02*
X108049Y38976D01*
X93342Y32360D02*
X93342Y38804D01*
X89742Y32281D02*
X89742Y38878D01*
X99517Y32445D02*
X99518Y38890D01*
X103118Y32372D02*
X103118Y38968D01*
X78782Y77715D02*
X85226Y77714D01*
X78708Y74114D02*
X85305Y74114D01*
X-110566Y68888D02*
X-104122Y68888D01*
X-110640Y65288D02*
X-104043Y65288D01*
X89208Y32360D02*
X89208Y38804D01*
X85608Y32281D02*
X85608Y38878D01*
X-100527Y64656D02*
X-94083Y64656D01*
X-100601Y61056D02*
X-94004Y61056D01*
X-100527Y72825D02*
X-94083Y72825D01*
X-100601Y69225D02*
X-94004Y69225D01*
X-100527Y110719D02*
X-94083Y110719D01*
X-100601Y107119D02*
X-94004Y107119D01*
X-117981Y91730D02*
X-117981Y98174D01*
X-114381Y91656D02*
X-114381Y98252D01*
X-115409Y92990D02*
Y93554D01*
Y93272D01*
X-117101D01*
X-116819Y92990D01*
Y94400D02*
X-117101Y94682D01*
Y95246D01*
X-116819Y95528D01*
X-115691D01*
X-115409Y95246D01*
Y94682D01*
X-115691Y94400D01*
X-116819D01*
X-115409Y96938D02*
X-117101D01*
X-116255Y96092D01*
Y97220D01*
X-99464Y108246D02*
X-98900D01*
X-99182D01*
Y109938D01*
X-99464Y109656D01*
X-98054D02*
X-97772Y109938D01*
X-97207D01*
X-96925Y109656D01*
Y108528D01*
X-97207Y108246D01*
X-97772D01*
X-98054Y108528D01*
Y109656D01*
X-96361D02*
X-96079Y109938D01*
X-95515D01*
X-95233Y109656D01*
Y109374D01*
X-95515Y109092D01*
X-95797D01*
X-95515D01*
X-95233Y108810D01*
Y108528D01*
X-95515Y108246D01*
X-96079D01*
X-96361Y108528D01*
X-99464Y70352D02*
X-98900D01*
X-99182D01*
Y72044D01*
X-99464Y71762D01*
X-98054D02*
X-97772Y72044D01*
X-97207D01*
X-96925Y71762D01*
Y70634D01*
X-97207Y70352D01*
X-97772D01*
X-98054Y70634D01*
Y71762D01*
X-96361D02*
X-96079Y72044D01*
X-95515D01*
X-95233Y71762D01*
Y71480D01*
X-95515Y71198D01*
X-95797D01*
X-95515D01*
X-95233Y70916D01*
Y70634D01*
X-95515Y70352D01*
X-96079D01*
X-96361Y70634D01*
X-99858Y63593D02*
X-99576Y63875D01*
X-99011D01*
X-98729Y63593D01*
Y63311D01*
X-99011Y63029D01*
X-99294D01*
X-99011D01*
X-98729Y62747D01*
Y62464D01*
X-99011Y62182D01*
X-99576D01*
X-99858Y62464D01*
X-98165Y63593D02*
X-97883Y63875D01*
X-97319D01*
X-97037Y63593D01*
Y63311D01*
X-97319Y63029D01*
X-97601D01*
X-97319D01*
X-97037Y62747D01*
Y62464D01*
X-97319Y62182D01*
X-97883D01*
X-98165Y62464D01*
X-96473Y63593D02*
X-96191Y63875D01*
X-95627D01*
X-95345Y63593D01*
Y63311D01*
X-95627Y63029D01*
X-95909D01*
X-95627D01*
X-95345Y62747D01*
Y62464D01*
X-95627Y62182D01*
X-96191D01*
X-96473Y62464D01*
X-115212Y104059D02*
Y102930D01*
X-116340Y104059D01*
X-116622D01*
X-116904Y103777D01*
Y103213D01*
X-116622Y102930D01*
X-115212Y105751D02*
Y104623D01*
X-116340Y105751D01*
X-116622D01*
X-116904Y105469D01*
Y104905D01*
X-116622Y104623D01*
X-116904Y107443D02*
X-116622Y106879D01*
X-116058Y106315D01*
X-115494D01*
X-115212Y106597D01*
Y107161D01*
X-115494Y107443D01*
X-115776D01*
X-116058Y107161D01*
Y106315D01*
X88408Y33509D02*
Y34073D01*
Y33791D01*
X86716D01*
X86998Y33509D01*
Y34919D02*
X86716Y35201D01*
Y35765D01*
X86998Y36047D01*
X88126D01*
X88408Y35765D01*
Y35201D01*
X88126Y34919D01*
X86998D01*
Y36611D02*
X86716Y36893D01*
Y37457D01*
X86998Y37739D01*
X87280D01*
X87562Y37457D01*
Y37175D01*
Y37457D01*
X87844Y37739D01*
X88126D01*
X88408Y37457D01*
Y36893D01*
X88126Y36611D01*
X-109503Y66316D02*
X-108939D01*
X-109221D01*
Y68009D01*
X-109503Y67727D01*
X-108093D02*
X-107811Y68009D01*
X-107247D01*
X-106965Y67727D01*
Y66598D01*
X-107247Y66316D01*
X-107811D01*
X-108093Y66598D01*
Y67727D01*
X-105554Y66316D02*
Y68009D01*
X-106401Y67163D01*
X-105272D01*
X79724Y75098D02*
X80288D01*
X80006D01*
Y76791D01*
X79724Y76509D01*
X81135D02*
X81417Y76791D01*
X81981D01*
X82263Y76509D01*
Y75380D01*
X81981Y75098D01*
X81417D01*
X81135Y75380D01*
Y76509D01*
X82827D02*
X83109Y76791D01*
X83673D01*
X83955Y76509D01*
Y76227D01*
X83673Y75945D01*
X83391D01*
X83673D01*
X83955Y75662D01*
Y75380D01*
X83673Y75098D01*
X83109D01*
X82827Y75380D01*
X102089Y33804D02*
Y34368D01*
Y34086D01*
X100397D01*
X100679Y33804D01*
Y35214D02*
X100397Y35496D01*
Y36060D01*
X100679Y36342D01*
X101807D01*
X102089Y36060D01*
Y35496D01*
X101807Y35214D01*
X100679D01*
X102089Y37753D02*
X100397D01*
X101243Y36906D01*
Y38035D01*
X92444Y33410D02*
Y33974D01*
Y33692D01*
X90751D01*
X91033Y33410D01*
Y34820D02*
X90751Y35102D01*
Y35666D01*
X91033Y35949D01*
X92161D01*
X92444Y35666D01*
Y35102D01*
X92161Y34820D01*
X91033D01*
X92444Y37641D02*
Y36513D01*
X91315Y37641D01*
X91033D01*
X90751Y37359D01*
Y36795D01*
X91033Y36513D01*
X110652Y33509D02*
Y34073D01*
Y33791D01*
X108960D01*
X109242Y33509D01*
Y34919D02*
X108960Y35201D01*
Y35765D01*
X109242Y36047D01*
X110370D01*
X110652Y35765D01*
Y35201D01*
X110370Y34919D01*
X109242D01*
X110652Y37457D02*
X108960D01*
X109806Y36611D01*
Y37739D01*
X-5413Y79724D02*
X-4849D01*
X-5131D01*
Y81417D01*
X-5413Y81135D01*
X-4003D02*
X-3721Y81417D01*
X-3157D01*
X-2875Y81135D01*
Y80006D01*
X-3157Y79724D01*
X-3721D01*
X-4003Y80006D01*
Y81135D01*
X-1182Y81417D02*
X-1747Y81135D01*
X-2311Y80571D01*
Y80006D01*
X-2029Y79724D01*
X-1465D01*
X-1182Y80006D01*
Y80288D01*
X-1465Y80571D01*
X-2311D01*
X-618Y79724D02*
X510Y80853D01*
X1074Y79724D02*
X1638D01*
X1356D01*
Y81417D01*
X1074Y81135D01*
X3613Y81417D02*
X3048Y81135D01*
X2484Y80571D01*
Y80006D01*
X2766Y79724D01*
X3331D01*
X3613Y80006D01*
Y80288D01*
X3331Y80571D01*
X2484D01*
X4177Y81417D02*
Y80288D01*
X4741Y79724D01*
X5305Y80288D01*
Y81417D01*
X-5413Y91142D02*
X-4849D01*
X-5131D01*
Y92834D01*
X-5413Y92552D01*
X-4003D02*
X-3721Y92834D01*
X-3157D01*
X-2875Y92552D01*
Y91424D01*
X-3157Y91142D01*
X-3721D01*
X-4003Y91424D01*
Y92552D01*
X-1182Y92834D02*
X-1747Y92552D01*
X-2311Y91988D01*
Y91424D01*
X-2029Y91142D01*
X-1465D01*
X-1182Y91424D01*
Y91706D01*
X-1465Y91988D01*
X-2311D01*
X-618Y91142D02*
X510Y92270D01*
X1074Y91142D02*
X1638D01*
X1356D01*
Y92834D01*
X1074Y92552D01*
X3613Y92834D02*
X3048Y92552D01*
X2484Y91988D01*
Y91424D01*
X2766Y91142D01*
X3331D01*
X3613Y91424D01*
Y91706D01*
X3331Y91988D01*
X2484D01*
X4177Y92834D02*
Y91706D01*
X4741Y91142D01*
X5305Y91706D01*
Y92834D01*
X-1870Y85433D02*
X-1306D01*
X-1588D01*
Y87125D01*
X-1870Y86843D01*
X-460D02*
X-178Y87125D01*
X386D01*
X668Y86843D01*
Y85715D01*
X386Y85433D01*
X-178D01*
X-460Y85715D01*
Y86843D01*
X2079Y85433D02*
Y87125D01*
X1233Y86279D01*
X2361D01*
X-41339Y119042D02*
Y117913D01*
X-42467Y119042D01*
X-42749D01*
X-43031Y118760D01*
Y118195D01*
X-42749Y117913D01*
X-41339Y120734D02*
Y119606D01*
X-42467Y120734D01*
X-42749D01*
X-43031Y120452D01*
Y119888D01*
X-42749Y119606D01*
X-43031Y122426D02*
X-42749Y121862D01*
X-42185Y121298D01*
X-41621D01*
X-41339Y121580D01*
Y122144D01*
X-41621Y122426D01*
X-41903D01*
X-42185Y122144D01*
Y121298D01*
X-57382Y118746D02*
Y117618D01*
X-58510Y118746D01*
X-58792D01*
X-59074Y118464D01*
Y117900D01*
X-58792Y117618D01*
X-57382Y120439D02*
Y119310D01*
X-58510Y120439D01*
X-58792D01*
X-59074Y120157D01*
Y119592D01*
X-58792Y119310D01*
X-59074Y122131D02*
X-58792Y121567D01*
X-58228Y121003D01*
X-57664D01*
X-57382Y121285D01*
Y121849D01*
X-57664Y122131D01*
X-57946D01*
X-58228Y121849D01*
Y121003D01*
X-47146Y117126D02*
Y117690D01*
Y117408D01*
X-48838D01*
X-48556Y117126D01*
Y118536D02*
X-48838Y118818D01*
Y119383D01*
X-48556Y119665D01*
X-47428D01*
X-47146Y119383D01*
Y118818D01*
X-47428Y118536D01*
X-48556D01*
Y120229D02*
X-48838Y120511D01*
Y121075D01*
X-48556Y121357D01*
X-47428D01*
X-47146Y121075D01*
Y120511D01*
X-47428Y120229D01*
X-48556D01*
X-47146Y121921D02*
X-48838D01*
Y122767D01*
X-48556Y123049D01*
X-47992D01*
X-47710Y122767D01*
Y121921D01*
X-5276Y71926D02*
X-4712D01*
X-4994D01*
Y73619D01*
X-5276Y73336D01*
X-3866D02*
X-3584Y73619D01*
X-3020D01*
X-2737Y73336D01*
Y72208D01*
X-3020Y71926D01*
X-3584D01*
X-3866Y72208D01*
Y73336D01*
X-1045Y73619D02*
X-1609Y73336D01*
X-2173Y72772D01*
Y72208D01*
X-1891Y71926D01*
X-1327D01*
X-1045Y72208D01*
Y72490D01*
X-1327Y72772D01*
X-2173D01*
X-481Y71926D02*
X647Y73054D01*
X1211Y71926D02*
X1775D01*
X1493D01*
Y73619D01*
X1211Y73336D01*
X3750Y73619D02*
X3186Y73336D01*
X2622Y72772D01*
Y72208D01*
X2904Y71926D01*
X3468D01*
X3750Y72208D01*
Y72490D01*
X3468Y72772D01*
X2622D01*
X4314Y73619D02*
Y72490D01*
X4878Y71926D01*
X5442Y72490D01*
Y73619D01*
X-5276Y64446D02*
X-4712D01*
X-4994D01*
Y66138D01*
X-5276Y65856D01*
X-3866D02*
X-3584Y66138D01*
X-3020D01*
X-2737Y65856D01*
Y64728D01*
X-3020Y64446D01*
X-3584D01*
X-3866Y64728D01*
Y65856D01*
X-1045Y66138D02*
X-1609Y65856D01*
X-2173Y65292D01*
Y64728D01*
X-1891Y64446D01*
X-1327D01*
X-1045Y64728D01*
Y65010D01*
X-1327Y65292D01*
X-2173D01*
X-481Y64446D02*
X647Y65574D01*
X1211Y64446D02*
X1775D01*
X1493D01*
Y66138D01*
X1211Y65856D01*
X3750Y66138D02*
X3186Y65856D01*
X2622Y65292D01*
Y64728D01*
X2904Y64446D01*
X3468D01*
X3750Y64728D01*
Y65010D01*
X3468Y65292D01*
X2622D01*
X4314Y66138D02*
Y65010D01*
X4878Y64446D01*
X5442Y65010D01*
Y66138D01*
X13583Y27854D02*
Y28418D01*
Y28136D01*
X11890D01*
X12172Y27854D01*
Y29265D02*
X11890Y29547D01*
Y30111D01*
X12172Y30393D01*
X13301D01*
X13583Y30111D01*
Y29547D01*
X13301Y29265D01*
X12172D01*
X13583Y31803D02*
X11890D01*
X12736Y30957D01*
Y32085D01*
X13583Y32649D02*
X12454Y33778D01*
X11890Y35470D02*
Y34342D01*
X12736D01*
X12454Y34906D01*
Y35188D01*
X12736Y35470D01*
X13301D01*
X13583Y35188D01*
Y34624D01*
X13301Y34342D01*
X12172Y36034D02*
X11890Y36316D01*
Y36880D01*
X12172Y37162D01*
X13301D01*
X13583Y36880D01*
Y36316D01*
X13301Y36034D01*
X12172D01*
X11890Y37726D02*
X13019D01*
X13583Y38291D01*
X13019Y38855D01*
X11890D01*
X34449Y55761D02*
Y56890D01*
X35577Y55761D01*
X35859D01*
X36141Y56044D01*
Y56608D01*
X35859Y56890D01*
X34449Y54069D02*
Y55197D01*
X35577Y54069D01*
X35859D01*
X36141Y54351D01*
Y54915D01*
X35859Y55197D01*
Y53505D02*
X36141Y53223D01*
Y52659D01*
X35859Y52377D01*
X35577D01*
X35295Y52659D01*
Y52941D01*
Y52659D01*
X35013Y52377D01*
X34731D01*
X34449Y52659D01*
Y53223D01*
X34731Y53505D01*
X3779Y54164D02*
Y55292D01*
X4907Y54164D01*
X5189D01*
X5471Y54446D01*
Y55010D01*
X5189Y55292D01*
X3779Y52472D02*
Y53600D01*
X4907Y52472D01*
X5189D01*
X5471Y52754D01*
Y53318D01*
X5189Y53600D01*
Y51908D02*
X5471Y51626D01*
Y51061D01*
X5189Y50779D01*
X4907D01*
X4625Y51061D01*
Y51343D01*
Y51061D01*
X4343Y50779D01*
X4061D01*
X3779Y51061D01*
Y51626D01*
X4061Y51908D01*
X-3347Y28051D02*
Y28615D01*
Y28333D01*
X-5039D01*
X-4757Y28051D01*
Y29462D02*
X-5039Y29743D01*
Y30308D01*
X-4757Y30590D01*
X-3629D01*
X-3347Y30308D01*
Y29743D01*
X-3629Y29462D01*
X-4757D01*
X-3347Y32000D02*
X-5039D01*
X-4193Y31154D01*
Y32282D01*
X-3347Y32846D02*
X-4475Y33974D01*
X-5039Y35667D02*
Y34539D01*
X-4193D01*
X-4475Y35103D01*
Y35385D01*
X-4193Y35667D01*
X-3629D01*
X-3347Y35385D01*
Y34821D01*
X-3629Y34539D01*
X-4757Y36231D02*
X-5039Y36513D01*
Y37077D01*
X-4757Y37359D01*
X-3629D01*
X-3347Y37077D01*
Y36513D01*
X-3629Y36231D01*
X-4757D01*
X-5039Y37923D02*
X-3911D01*
X-3347Y38487D01*
X-3911Y39051D01*
X-5039D01*
X4921Y28701D02*
X3229D01*
X4075Y27854D01*
Y28983D01*
X3229Y29547D02*
Y30675D01*
X3511D01*
X4639Y29547D01*
X4921D01*
X3511Y31239D02*
X3229Y31521D01*
Y32085D01*
X3511Y32367D01*
X3793D01*
X4075Y32085D01*
Y31803D01*
Y32085D01*
X4357Y32367D01*
X4639D01*
X4921Y32085D01*
Y31521D01*
X4639Y31239D01*
X4921Y32931D02*
X3793Y34060D01*
X3229Y35752D02*
Y34624D01*
X4075D01*
X3793Y35188D01*
Y35470D01*
X4075Y35752D01*
X4639D01*
X4921Y35470D01*
Y34906D01*
X4639Y34624D01*
X3511Y36316D02*
X3229Y36598D01*
Y37162D01*
X3511Y37444D01*
X4639D01*
X4921Y37162D01*
Y36598D01*
X4639Y36316D01*
X3511D01*
X3229Y38008D02*
X4357D01*
X4921Y38573D01*
X4357Y39137D01*
X3229D01*
X-36220Y55466D02*
Y56595D01*
X-35092Y55466D01*
X-34810D01*
X-34528Y55748D01*
Y56312D01*
X-34810Y56595D01*
X-36220Y53774D02*
Y54902D01*
X-35092Y53774D01*
X-34810D01*
X-34528Y54056D01*
Y54620D01*
X-34810Y54902D01*
Y53210D02*
X-34528Y52928D01*
Y52364D01*
X-34810Y52082D01*
X-35092D01*
X-35374Y52364D01*
Y52646D01*
Y52364D01*
X-35656Y52082D01*
X-35938D01*
X-36220Y52364D01*
Y52928D01*
X-35938Y53210D01*
X-5670Y54164D02*
Y55292D01*
X-4542Y54164D01*
X-4259D01*
X-3977Y54446D01*
Y55010D01*
X-4259Y55292D01*
X-5670Y52472D02*
Y53600D01*
X-4542Y52472D01*
X-4259D01*
X-3977Y52754D01*
Y53318D01*
X-4259Y53600D01*
Y51908D02*
X-3977Y51626D01*
Y51061D01*
X-4259Y50779D01*
X-4542D01*
X-4824Y51061D01*
Y51343D01*
Y51061D01*
X-5106Y50779D01*
X-5388D01*
X-5670Y51061D01*
Y51626D01*
X-5388Y51908D01*
X-12106Y28051D02*
Y28615D01*
Y28333D01*
X-13799D01*
X-13517Y28051D01*
Y29462D02*
X-13799Y29743D01*
Y30308D01*
X-13517Y30590D01*
X-12388D01*
X-12106Y30308D01*
Y29743D01*
X-12388Y29462D01*
X-13517D01*
X-12106Y32000D02*
X-13799D01*
X-12953Y31154D01*
Y32282D01*
X-12106Y32846D02*
X-13235Y33974D01*
X-13799Y35667D02*
Y34539D01*
X-12953D01*
X-13235Y35103D01*
Y35385D01*
X-12953Y35667D01*
X-12388D01*
X-12106Y35385D01*
Y34821D01*
X-12388Y34539D01*
X-13517Y36231D02*
X-13799Y36513D01*
Y37077D01*
X-13517Y37359D01*
X-12388D01*
X-12106Y37077D01*
Y36513D01*
X-12388Y36231D01*
X-13517D01*
X-13799Y37923D02*
X-12670D01*
X-12106Y38487D01*
X-12670Y39051D01*
X-13799D01*
X52953Y100327D02*
X52389D01*
X52671D01*
Y98634D01*
X52953Y98916D01*
X51543D02*
X51260Y98634D01*
X50696D01*
X50414Y98916D01*
Y100044D01*
X50696Y100327D01*
X51260D01*
X51543Y100044D01*
Y98916D01*
X49004Y100327D02*
Y98634D01*
X49850Y99480D01*
X48722D01*
X-61417Y98425D02*
X-60853D01*
X-61135D01*
Y100118D01*
X-61417Y99836D01*
X-60007D02*
X-59725Y100118D01*
X-59161D01*
X-58879Y99836D01*
Y98707D01*
X-59161Y98425D01*
X-59725D01*
X-60007Y98707D01*
Y99836D01*
X-57186Y100118D02*
X-58315D01*
Y99272D01*
X-57750Y99554D01*
X-57468D01*
X-57186Y99272D01*
Y98707D01*
X-57468Y98425D01*
X-58033D01*
X-58315Y98707D01*
X39567Y98622D02*
X40131D01*
X39849D01*
Y100314D01*
X39567Y100032D01*
X40977D02*
X41259Y100314D01*
X41823D01*
X42105Y100032D01*
Y98904D01*
X41823Y98622D01*
X41259D01*
X40977Y98904D01*
Y100032D01*
X43798Y100314D02*
X42669D01*
Y99468D01*
X43234Y99750D01*
X43516D01*
X43798Y99468D01*
Y98904D01*
X43516Y98622D01*
X42952D01*
X42669Y98904D01*
X80216Y79232D02*
X80781D01*
X80499D01*
Y80925D01*
X80216Y80643D01*
X81627D02*
X81909Y80925D01*
X82473D01*
X82755Y80643D01*
Y79514D01*
X82473Y79232D01*
X81909D01*
X81627Y79514D01*
Y80643D01*
X84165Y79232D02*
Y80925D01*
X83319Y80079D01*
X84447D01*
X-89523Y60667D02*
X-91215D01*
X-90369Y59820D01*
Y60948D01*
X-89523Y61513D02*
Y62077D01*
Y61795D01*
X-91215D01*
X-90933Y61513D01*
X-89523Y63769D02*
X-91215D01*
X-90369Y62923D01*
Y64051D01*
X-90933Y64615D02*
X-91215Y64897D01*
Y65461D01*
X-90933Y65743D01*
X-90651D01*
X-90369Y65461D01*
X-90087Y65743D01*
X-89805D01*
X-89523Y65461D01*
Y64897D01*
X-89805Y64615D01*
X-90087D01*
X-90369Y64897D01*
X-90651Y64615D01*
X-90933D01*
X-90369Y64897D02*
Y65461D01*
X-48644Y153991D02*
X-46952D01*
Y153145D01*
X-47234Y152863D01*
X-47798D01*
X-48080Y153145D01*
Y153991D01*
Y153427D02*
X-48644Y152863D01*
Y151453D02*
Y152017D01*
X-48362Y152299D01*
X-47798D01*
X-47516Y152017D01*
Y151453D01*
X-47798Y151171D01*
X-48080D01*
Y152299D01*
X-46952Y149478D02*
X-48644D01*
Y150325D01*
X-48362Y150607D01*
X-47798D01*
X-47516Y150325D01*
Y149478D01*
X-61516Y153012D02*
X-63208D01*
X-62362Y152165D01*
Y153294D01*
X-61516Y153858D02*
Y154422D01*
Y154140D01*
X-63208D01*
X-62926Y153858D01*
X-61516Y156114D02*
X-63208D01*
X-62362Y155268D01*
Y156396D01*
X-62926Y156960D02*
X-63208Y157242D01*
Y157807D01*
X-62926Y158089D01*
X-62644D01*
X-62362Y157807D01*
X-62080Y158089D01*
X-61798D01*
X-61516Y157807D01*
Y157242D01*
X-61798Y156960D01*
X-62080D01*
X-62362Y157242D01*
X-62644Y156960D01*
X-62926D01*
X-62362Y157242D02*
Y157807D01*
X-53551Y99711D02*
Y101403D01*
X-54397Y100557D01*
X-53269D01*
X-52705Y99711D02*
X-52141D01*
X-52423D01*
Y101403D01*
X-52705Y101121D01*
X-50448Y99711D02*
Y101403D01*
X-51295Y100557D01*
X-50166D01*
X-49602Y101121D02*
X-49320Y101403D01*
X-48756D01*
X-48474Y101121D01*
Y100839D01*
X-48756Y100557D01*
X-48474Y100275D01*
Y99993D01*
X-48756Y99711D01*
X-49320D01*
X-49602Y99993D01*
Y100275D01*
X-49320Y100557D01*
X-49602Y100839D01*
Y101121D01*
X-49320Y100557D02*
X-48756D01*
X87349Y23031D02*
X86221D01*
X87349Y24160D01*
Y24442D01*
X87067Y24724D01*
X86502D01*
X86221Y24442D01*
X87913Y23031D02*
Y24724D01*
X89041Y23031D01*
Y24724D01*
X89605D02*
X90733D01*
Y24442D01*
X89605Y23314D01*
Y23031D01*
X91298Y24442D02*
X91580Y24724D01*
X92144D01*
X92426Y24442D01*
Y23314D01*
X92144Y23031D01*
X91580D01*
X91298Y23314D01*
Y24442D01*
X92990D02*
X93272Y24724D01*
X93836D01*
X94118Y24442D01*
Y23314D01*
X93836Y23031D01*
X93272D01*
X92990Y23314D01*
Y24442D01*
X95811Y23031D02*
X94682D01*
X95811Y24160D01*
Y24442D01*
X95528Y24724D01*
X94964D01*
X94682Y24442D01*
X-56364Y56572D02*
Y57700D01*
X-55800Y58264D01*
X-55235Y57700D01*
Y56572D01*
Y57418D01*
X-56364D01*
X-53825Y58264D02*
X-54389D01*
X-54671Y57982D01*
Y56854D01*
X-54389Y56572D01*
X-53825D01*
X-53543Y56854D01*
Y57982D01*
X-53825Y58264D01*
X-52133Y56572D02*
Y58264D01*
X-52979Y57418D01*
X-51851D01*
X-51287Y57982D02*
X-51004Y58264D01*
X-50440D01*
X-50158Y57982D01*
Y57700D01*
X-50440Y57418D01*
X-50158Y57136D01*
Y56854D01*
X-50440Y56572D01*
X-51004D01*
X-51287Y56854D01*
Y57136D01*
X-51004Y57418D01*
X-51287Y57700D01*
Y57982D01*
X-51004Y57418D02*
X-50440D01*
X-48748Y56572D02*
Y58264D01*
X-49594Y57418D01*
X-48466D01*
X-46774Y56572D02*
X-47902D01*
X-46774Y57700D01*
Y57982D01*
X-47056Y58264D01*
X-47620D01*
X-47902Y57982D01*
X62841Y130118D02*
X61713D01*
X62841Y131246D01*
Y131528D01*
X62559Y131810D01*
X61995D01*
X61713Y131528D01*
X63405Y130118D02*
Y131810D01*
X64533Y130118D01*
Y131810D01*
X65097Y131528D02*
X65379Y131810D01*
X65943D01*
X66226Y131528D01*
Y131246D01*
X65943Y130964D01*
X65661D01*
X65943D01*
X66226Y130682D01*
Y130400D01*
X65943Y130118D01*
X65379D01*
X65097Y130400D01*
X66790D02*
X67072Y130118D01*
X67636D01*
X67918Y130400D01*
Y131528D01*
X67636Y131810D01*
X67072D01*
X66790Y131528D01*
Y131246D01*
X67072Y130964D01*
X67918D01*
X68482Y131528D02*
X68764Y131810D01*
X69328D01*
X69610Y131528D01*
Y130400D01*
X69328Y130118D01*
X68764D01*
X68482Y130400D01*
Y131528D01*
X71303Y131810D02*
X70739Y131528D01*
X70174Y130964D01*
Y130400D01*
X70456Y130118D01*
X71021D01*
X71303Y130400D01*
Y130682D01*
X71021Y130964D01*
X70174D01*
X36364Y145571D02*
X35236D01*
X36364Y146699D01*
Y146981D01*
X36082Y147263D01*
X35518D01*
X35236Y146981D01*
X36929Y145571D02*
Y147263D01*
X38057Y145571D01*
Y147263D01*
X38621Y146981D02*
X38903Y147263D01*
X39467D01*
X39749Y146981D01*
Y146699D01*
X39467Y146417D01*
X39185D01*
X39467D01*
X39749Y146135D01*
Y145853D01*
X39467Y145571D01*
X38903D01*
X38621Y145853D01*
X40313D02*
X40595Y145571D01*
X41159D01*
X41442Y145853D01*
Y146981D01*
X41159Y147263D01*
X40595D01*
X40313Y146981D01*
Y146699D01*
X40595Y146417D01*
X41442D01*
X42006Y146981D02*
X42288Y147263D01*
X42852D01*
X43134Y146981D01*
Y145853D01*
X42852Y145571D01*
X42288D01*
X42006Y145853D01*
Y146981D01*
X44544Y145571D02*
Y147263D01*
X43698Y146417D01*
X44826D01*
X63038Y145669D02*
X61910D01*
X63038Y146798D01*
Y147080D01*
X62756Y147362D01*
X62191D01*
X61910Y147080D01*
X63602Y145669D02*
Y147362D01*
X64730Y145669D01*
Y147362D01*
X65294Y147080D02*
X65576Y147362D01*
X66140D01*
X66422Y147080D01*
Y146798D01*
X66140Y146516D01*
X65858D01*
X66140D01*
X66422Y146233D01*
Y145951D01*
X66140Y145669D01*
X65576D01*
X65294Y145951D01*
X66987D02*
X67269Y145669D01*
X67833D01*
X68115Y145951D01*
Y147080D01*
X67833Y147362D01*
X67269D01*
X66987Y147080D01*
Y146798D01*
X67269Y146516D01*
X68115D01*
X68679Y147080D02*
X68961Y147362D01*
X69525D01*
X69807Y147080D01*
Y145951D01*
X69525Y145669D01*
X68961D01*
X68679Y145951D01*
Y147080D01*
X71217Y145669D02*
Y147362D01*
X70371Y146516D01*
X71500D01*
X36364Y130217D02*
X35236D01*
X36364Y131345D01*
Y131627D01*
X36082Y131909D01*
X35518D01*
X35236Y131627D01*
X36929Y130217D02*
Y131909D01*
X38057Y130217D01*
Y131909D01*
X38621Y131627D02*
X38903Y131909D01*
X39467D01*
X39749Y131627D01*
Y131345D01*
X39467Y131063D01*
X39185D01*
X39467D01*
X39749Y130781D01*
Y130499D01*
X39467Y130217D01*
X38903D01*
X38621Y130499D01*
X40313D02*
X40595Y130217D01*
X41159D01*
X41442Y130499D01*
Y131627D01*
X41159Y131909D01*
X40595D01*
X40313Y131627D01*
Y131345D01*
X40595Y131063D01*
X41442D01*
X42006Y131627D02*
X42288Y131909D01*
X42852D01*
X43134Y131627D01*
Y130499D01*
X42852Y130217D01*
X42288D01*
X42006Y130499D01*
Y131627D01*
X44826Y131909D02*
X44262Y131627D01*
X43698Y131063D01*
Y130499D01*
X43980Y130217D01*
X44544D01*
X44826Y130499D01*
Y130781D01*
X44544Y131063D01*
X43698D01*
X17480Y56080D02*
Y57772D01*
X16634Y56926D01*
X17762D01*
X18326Y56362D02*
X18608Y56080D01*
X19173D01*
X19455Y56362D01*
Y57490D01*
X19173Y57772D01*
X18608D01*
X18326Y57490D01*
Y57208D01*
X18608Y56926D01*
X19455D01*
X21147Y57772D02*
X20019D01*
Y56926D01*
X20583Y57208D01*
X20865D01*
X21147Y56926D01*
Y56362D01*
X20865Y56080D01*
X20301D01*
X20019Y56362D01*
X21711Y57490D02*
X21993Y57772D01*
X22557D01*
X22839Y57490D01*
Y57208D01*
X22557Y56926D01*
X22275D01*
X22557D01*
X22839Y56644D01*
Y56362D01*
X22557Y56080D01*
X21993D01*
X21711Y56362D01*
X47121Y56277D02*
Y57405D01*
X47685Y57969D01*
X48250Y57405D01*
Y56277D01*
Y57123D01*
X47121D01*
X49660Y57969D02*
X49096D01*
X48814Y57687D01*
Y56559D01*
X49096Y56277D01*
X49660D01*
X49942Y56559D01*
Y57687D01*
X49660Y57969D01*
X51352Y56277D02*
Y57969D01*
X50506Y57123D01*
X51634D01*
X52198Y57687D02*
X52481Y57969D01*
X53045D01*
X53327Y57687D01*
Y57405D01*
X53045Y57123D01*
X53327Y56841D01*
Y56559D01*
X53045Y56277D01*
X52481D01*
X52198Y56559D01*
Y56841D01*
X52481Y57123D01*
X52198Y57405D01*
Y57687D01*
X52481Y57123D02*
X53045D01*
X54737Y56277D02*
Y57969D01*
X53891Y57123D01*
X55019D01*
X56711Y56277D02*
X55583D01*
X56711Y57405D01*
Y57687D01*
X56429Y57969D01*
X55865D01*
X55583Y57687D01*
X75931Y130217D02*
X74803D01*
X75931Y131345D01*
Y131627D01*
X75649Y131909D01*
X75085D01*
X74803Y131627D01*
X76495Y130217D02*
Y131909D01*
X77624Y130217D01*
Y131909D01*
X78188Y131627D02*
X78470Y131909D01*
X79034D01*
X79316Y131627D01*
Y131345D01*
X79034Y131063D01*
X78752D01*
X79034D01*
X79316Y130781D01*
Y130499D01*
X79034Y130217D01*
X78470D01*
X78188Y130499D01*
X79880D02*
X80162Y130217D01*
X80726D01*
X81008Y130499D01*
Y131627D01*
X80726Y131909D01*
X80162D01*
X79880Y131627D01*
Y131345D01*
X80162Y131063D01*
X81008D01*
X81573Y131627D02*
X81855Y131909D01*
X82419D01*
X82701Y131627D01*
Y130499D01*
X82419Y130217D01*
X81855D01*
X81573Y130499D01*
Y131627D01*
X84393Y131909D02*
X83829Y131627D01*
X83265Y131063D01*
Y130499D01*
X83547Y130217D01*
X84111D01*
X84393Y130499D01*
Y130781D01*
X84111Y131063D01*
X83265D01*
X49849Y145571D02*
X48720D01*
X49849Y146699D01*
Y146981D01*
X49567Y147263D01*
X49003D01*
X48720Y146981D01*
X50413Y145571D02*
Y147263D01*
X51541Y145571D01*
Y147263D01*
X52105Y146981D02*
X52387Y147263D01*
X52951D01*
X53233Y146981D01*
Y146699D01*
X52951Y146417D01*
X52669D01*
X52951D01*
X53233Y146135D01*
Y145853D01*
X52951Y145571D01*
X52387D01*
X52105Y145853D01*
X53798D02*
X54080Y145571D01*
X54644D01*
X54926Y145853D01*
Y146981D01*
X54644Y147263D01*
X54080D01*
X53798Y146981D01*
Y146699D01*
X54080Y146417D01*
X54926D01*
X55490Y146981D02*
X55772Y147263D01*
X56336D01*
X56618Y146981D01*
Y145853D01*
X56336Y145571D01*
X55772D01*
X55490Y145853D01*
Y146981D01*
X58028Y145571D02*
Y147263D01*
X57182Y146417D01*
X58311D01*
X76128Y145866D02*
X75000D01*
X76128Y146994D01*
Y147276D01*
X75846Y147558D01*
X75282D01*
X75000Y147276D01*
X76692Y145866D02*
Y147558D01*
X77821Y145866D01*
Y147558D01*
X78385Y147276D02*
X78667Y147558D01*
X79231D01*
X79513Y147276D01*
Y146994D01*
X79231Y146712D01*
X78949D01*
X79231D01*
X79513Y146430D01*
Y146148D01*
X79231Y145866D01*
X78667D01*
X78385Y146148D01*
X80077D02*
X80359Y145866D01*
X80923D01*
X81205Y146148D01*
Y147276D01*
X80923Y147558D01*
X80359D01*
X80077Y147276D01*
Y146994D01*
X80359Y146712D01*
X81205D01*
X81769Y147276D02*
X82051Y147558D01*
X82616D01*
X82898Y147276D01*
Y146148D01*
X82616Y145866D01*
X82051D01*
X81769Y146148D01*
Y147276D01*
X84308Y145866D02*
Y147558D01*
X83462Y146712D01*
X84590D01*
X49750Y130118D02*
X48622D01*
X49750Y131246D01*
Y131528D01*
X49468Y131810D01*
X48904D01*
X48622Y131528D01*
X50314Y130118D02*
Y131810D01*
X51443Y130118D01*
Y131810D01*
X52007Y131528D02*
X52289Y131810D01*
X52853D01*
X53135Y131528D01*
Y131246D01*
X52853Y130964D01*
X52571D01*
X52853D01*
X53135Y130682D01*
Y130400D01*
X52853Y130118D01*
X52289D01*
X52007Y130400D01*
X53699D02*
X53981Y130118D01*
X54545D01*
X54827Y130400D01*
Y131528D01*
X54545Y131810D01*
X53981D01*
X53699Y131528D01*
Y131246D01*
X53981Y130964D01*
X54827D01*
X55392Y131528D02*
X55674Y131810D01*
X56238D01*
X56520Y131528D01*
Y130400D01*
X56238Y130118D01*
X55674D01*
X55392Y130400D01*
Y131528D01*
X58212Y131810D02*
X57648Y131528D01*
X57084Y130964D01*
Y130400D01*
X57366Y130118D01*
X57930D01*
X58212Y130400D01*
Y130682D01*
X57930Y130964D01*
X57084D01*
X-23326Y56362D02*
X-23044Y56080D01*
X-22480D01*
X-22198Y56362D01*
Y57490D01*
X-22480Y57772D01*
X-23044D01*
X-23326Y57490D01*
Y57208D01*
X-23044Y56926D01*
X-22198D01*
X-21634Y56362D02*
X-21352Y56080D01*
X-20788D01*
X-20506Y56362D01*
Y57490D01*
X-20788Y57772D01*
X-21352D01*
X-21634Y57490D01*
Y57208D01*
X-21352Y56926D01*
X-20506D01*
X-18813Y56080D02*
X-19941D01*
X-18813Y57208D01*
Y57490D01*
X-19095Y57772D01*
X-19659D01*
X-19941Y57490D01*
X-17121Y57772D02*
X-17685Y57490D01*
X-18249Y56926D01*
Y56362D01*
X-17967Y56080D01*
X-17403D01*
X-17121Y56362D01*
Y56644D01*
X-17403Y56926D01*
X-18249D01*
X-60289Y85827D02*
X-61417D01*
X-60289Y86955D01*
Y87237D01*
X-60571Y87519D01*
X-61135D01*
X-61417Y87237D01*
X-59725Y85827D02*
Y87519D01*
X-58597Y85827D01*
Y87519D01*
X-58033Y87237D02*
X-57750Y87519D01*
X-57186D01*
X-56904Y87237D01*
Y86955D01*
X-57186Y86673D01*
X-57468D01*
X-57186D01*
X-56904Y86391D01*
Y86109D01*
X-57186Y85827D01*
X-57750D01*
X-58033Y86109D01*
X-56340D02*
X-56058Y85827D01*
X-55494D01*
X-55212Y86109D01*
Y87237D01*
X-55494Y87519D01*
X-56058D01*
X-56340Y87237D01*
Y86955D01*
X-56058Y86673D01*
X-55212D01*
X-54648Y87237D02*
X-54366Y87519D01*
X-53802D01*
X-53520Y87237D01*
Y86109D01*
X-53802Y85827D01*
X-54366D01*
X-54648Y86109D01*
Y87237D01*
X-51827Y87519D02*
X-52391Y87237D01*
X-52956Y86673D01*
Y86109D01*
X-52674Y85827D01*
X-52109D01*
X-51827Y86109D01*
Y86391D01*
X-52109Y86673D01*
X-52956D01*
X40597Y85532D02*
X39469D01*
X40597Y86660D01*
Y86942D01*
X40315Y87224D01*
X39751D01*
X39469Y86942D01*
X41161Y85532D02*
Y87224D01*
X42289Y85532D01*
Y87224D01*
X42853Y86942D02*
X43135Y87224D01*
X43699D01*
X43982Y86942D01*
Y86660D01*
X43699Y86378D01*
X43417D01*
X43699D01*
X43982Y86096D01*
Y85814D01*
X43699Y85532D01*
X43135D01*
X42853Y85814D01*
X44546D02*
X44828Y85532D01*
X45392D01*
X45674Y85814D01*
Y86942D01*
X45392Y87224D01*
X44828D01*
X44546Y86942D01*
Y86660D01*
X44828Y86378D01*
X45674D01*
X46238Y86942D02*
X46520Y87224D01*
X47084D01*
X47366Y86942D01*
Y85814D01*
X47084Y85532D01*
X46520D01*
X46238Y85814D01*
Y86942D01*
X49058Y87224D02*
X48494Y86942D01*
X47930Y86378D01*
Y85814D01*
X48212Y85532D01*
X48777D01*
X49058Y85814D01*
Y86096D01*
X48777Y86378D01*
X47930D01*
X-47297Y85728D02*
X-48425D01*
X-47297Y86857D01*
Y87139D01*
X-47579Y87421D01*
X-48143D01*
X-48425Y87139D01*
X-46733Y85728D02*
Y87421D01*
X-45605Y85728D01*
Y87421D01*
X-45041Y87139D02*
X-44758Y87421D01*
X-44194D01*
X-43912Y87139D01*
Y86857D01*
X-44194Y86575D01*
X-44476D01*
X-44194D01*
X-43912Y86292D01*
Y86010D01*
X-44194Y85728D01*
X-44758D01*
X-45041Y86010D01*
X-43348D02*
X-43066Y85728D01*
X-42502D01*
X-42220Y86010D01*
Y87139D01*
X-42502Y87421D01*
X-43066D01*
X-43348Y87139D01*
Y86857D01*
X-43066Y86575D01*
X-42220D01*
X-41656Y87139D02*
X-41374Y87421D01*
X-40810D01*
X-40527Y87139D01*
Y86010D01*
X-40810Y85728D01*
X-41374D01*
X-41656Y86010D01*
Y87139D01*
X-39117Y85728D02*
Y87421D01*
X-39963Y86575D01*
X-38835D01*
X53786Y85630D02*
X52658D01*
X53786Y86758D01*
Y87040D01*
X53504Y87322D01*
X52939D01*
X52658Y87040D01*
X54350Y85630D02*
Y87322D01*
X55478Y85630D01*
Y87322D01*
X56042Y87040D02*
X56324Y87322D01*
X56888D01*
X57170Y87040D01*
Y86758D01*
X56888Y86476D01*
X56606D01*
X56888D01*
X57170Y86194D01*
Y85912D01*
X56888Y85630D01*
X56324D01*
X56042Y85912D01*
X57735D02*
X58017Y85630D01*
X58581D01*
X58863Y85912D01*
Y87040D01*
X58581Y87322D01*
X58017D01*
X57735Y87040D01*
Y86758D01*
X58017Y86476D01*
X58863D01*
X59427Y87040D02*
X59709Y87322D01*
X60273D01*
X60555Y87040D01*
Y85912D01*
X60273Y85630D01*
X59709D01*
X59427Y85912D01*
Y87040D01*
X61966Y85630D02*
Y87322D01*
X61119Y86476D01*
X62248D01*
X-10958Y73819D02*
X-11240Y74101D01*
Y74665D01*
X-10958Y74947D01*
X-9829D01*
X-9547Y74665D01*
Y74101D01*
X-9829Y73819D01*
X-10958D01*
X-9547Y75511D02*
X-9829D01*
Y75793D01*
X-9547D01*
Y75511D01*
X-10958Y76922D02*
X-11240Y77204D01*
Y77768D01*
X-10958Y78050D01*
X-9829D01*
X-9547Y77768D01*
Y77204D01*
X-9829Y76922D01*
X-10958D01*
Y78614D02*
X-11240Y78896D01*
Y79460D01*
X-10958Y79742D01*
X-10676D01*
X-10393Y79460D01*
Y79178D01*
Y79460D01*
X-10111Y79742D01*
X-9829D01*
X-9547Y79460D01*
Y78896D01*
X-9829Y78614D01*
X-10958Y80306D02*
X-11240Y80588D01*
Y81152D01*
X-10958Y81435D01*
X-10676D01*
X-10393Y81152D01*
Y80870D01*
Y81152D01*
X-10111Y81435D01*
X-9829D01*
X-9547Y81152D01*
Y80588D01*
X-9829Y80306D01*
X-9547Y81999D02*
X-11240D01*
Y82845D01*
X-10958Y83127D01*
X-10393D01*
X-10111Y82845D01*
Y81999D01*
Y82563D02*
X-9547Y83127D01*
X-19390Y81299D02*
X-18826D01*
X-19108D01*
Y82992D01*
X-19390Y82709D01*
X-17979Y82992D02*
Y81299D01*
Y81863D01*
X-16851Y82992D01*
X-17697Y82145D01*
X-16851Y81299D01*
X-109602Y109656D02*
X-109320Y109938D01*
X-108756D01*
X-108474Y109656D01*
Y109374D01*
X-108756Y109092D01*
X-109038D01*
X-108756D01*
X-108474Y108810D01*
Y108528D01*
X-108756Y108246D01*
X-109320D01*
X-109602Y108528D01*
X-107909Y109656D02*
X-107627Y109938D01*
X-107063D01*
X-106781Y109656D01*
Y109374D01*
X-107063Y109092D01*
X-107345D01*
X-107063D01*
X-106781Y108810D01*
Y108528D01*
X-107063Y108246D01*
X-107627D01*
X-107909Y108528D01*
X-106217Y109938D02*
Y108246D01*
Y108810D01*
X-105089Y109938D01*
X-105935Y109092D01*
X-105089Y108246D01*
X-83760Y63287D02*
Y63851D01*
Y63569D01*
X-85452D01*
X-85170Y63287D01*
X-85452Y64698D02*
X-83760D01*
X-84324D01*
X-85452Y65826D01*
X-84606Y64980D01*
X-83760Y65826D01*
X80262Y67224D02*
X79134D01*
X80262Y68353D01*
Y68635D01*
X79980Y68917D01*
X79416D01*
X79134Y68635D01*
X80826Y67224D02*
Y67506D01*
X81108D01*
Y67224D01*
X80826D01*
X83365D02*
X82236D01*
X83365Y68353D01*
Y68635D01*
X83083Y68917D01*
X82519D01*
X82236Y68635D01*
X83929Y68917D02*
Y67224D01*
Y67788D01*
X85057Y68917D01*
X84211Y68071D01*
X85057Y67224D01*
X-99562Y67530D02*
X-99280Y67812D01*
X-98716D01*
X-98434Y67530D01*
Y67248D01*
X-98716Y66966D01*
X-98998D01*
X-98716D01*
X-98434Y66684D01*
Y66401D01*
X-98716Y66119D01*
X-99280D01*
X-99562Y66401D01*
X-97870Y67530D02*
X-97588Y67812D01*
X-97024D01*
X-96742Y67530D01*
Y67248D01*
X-97024Y66966D01*
X-97306D01*
X-97024D01*
X-96742Y66684D01*
Y66401D01*
X-97024Y66119D01*
X-97588D01*
X-97870Y66401D01*
X-96178Y67812D02*
Y66119D01*
Y66684D01*
X-95049Y67812D01*
X-95896Y66966D01*
X-95049Y66119D01*
X-115409Y84131D02*
Y84695D01*
Y84413D01*
X-117101D01*
X-116819Y84131D01*
Y85542D02*
X-117101Y85824D01*
Y86388D01*
X-116819Y86670D01*
X-115691D01*
X-115409Y86388D01*
Y85824D01*
X-115691Y85542D01*
X-116819D01*
Y87234D02*
X-117101Y87516D01*
Y88080D01*
X-116819Y88362D01*
X-115691D01*
X-115409Y88080D01*
Y87516D01*
X-115691Y87234D01*
X-116819D01*
X-117101Y88926D02*
X-115409D01*
X-115973D01*
X-117101Y90055D01*
X-116255Y89208D01*
X-115409Y90055D01*
X84176Y34099D02*
Y34663D01*
Y34381D01*
X82483D01*
X82766Y34099D01*
X82483Y35509D02*
X84176D01*
X83612D01*
X82483Y36638D01*
X83330Y35791D01*
X84176Y36638D01*
X-109503Y71664D02*
X-109221Y71946D01*
X-108657D01*
X-108375Y71664D01*
Y71382D01*
X-108657Y71100D01*
X-108939D01*
X-108657D01*
X-108375Y70818D01*
Y70535D01*
X-108657Y70253D01*
X-109221D01*
X-109503Y70535D01*
X-107811Y71664D02*
X-107529Y71946D01*
X-106965D01*
X-106683Y71664D01*
Y71382D01*
X-106965Y71100D01*
X-107247D01*
X-106965D01*
X-106683Y70818D01*
Y70535D01*
X-106965Y70253D01*
X-107529D01*
X-107811Y70535D01*
X-106119Y71946D02*
Y70253D01*
Y70818D01*
X-104990Y71946D01*
X-105837Y71100D01*
X-104990Y70253D01*
X-98040Y75981D02*
X-98605Y75699D01*
X-99169Y75135D01*
Y74571D01*
X-98887Y74289D01*
X-98322D01*
X-98040Y74571D01*
Y74853D01*
X-98322Y75135D01*
X-99169D01*
X-97476Y75699D02*
X-97194Y75981D01*
X-96630D01*
X-96348Y75699D01*
Y75417D01*
X-96630Y75135D01*
X-96348Y74853D01*
Y74571D01*
X-96630Y74289D01*
X-97194D01*
X-97476Y74571D01*
Y74853D01*
X-97194Y75135D01*
X-97476Y75417D01*
Y75699D01*
X-97194Y75135D02*
X-96630D01*
X-95784Y75981D02*
Y74289D01*
Y74853D01*
X-94656Y75981D01*
X-95502Y75135D01*
X-94656Y74289D01*
X-108617D02*
X-108053D01*
X-108335D01*
Y75981D01*
X-108617Y75699D01*
X-107207Y74289D02*
Y75981D01*
X-106643Y75417D01*
X-106079Y75981D01*
Y74289D01*
X97955Y33804D02*
Y34368D01*
Y34086D01*
X96263D01*
X96545Y33804D01*
Y35214D02*
X96263Y35496D01*
Y36060D01*
X96545Y36342D01*
X97673D01*
X97955Y36060D01*
Y35496D01*
X97673Y35214D01*
X96545D01*
X96263Y36906D02*
X97955D01*
X97391D01*
X96263Y38035D01*
X97109Y37189D01*
X97955Y38035D01*
X80413Y71161D02*
X80977D01*
X80695D01*
Y72854D01*
X80413Y72572D01*
X81824Y72854D02*
Y71161D01*
Y71725D01*
X82952Y72854D01*
X82106Y72008D01*
X82952Y71161D01*
X106223Y34296D02*
Y34860D01*
Y34578D01*
X104531D01*
X104813Y34296D01*
X104531Y35706D02*
X106223D01*
X105659D01*
X104531Y36834D01*
X105377Y35988D01*
X106223Y36834D01*
X-108474Y63973D02*
X-109038Y63691D01*
X-109602Y63127D01*
Y62563D01*
X-109320Y62281D01*
X-108756D01*
X-108474Y62563D01*
Y62845D01*
X-108756Y63127D01*
X-109602D01*
X-107909Y63691D02*
X-107627Y63973D01*
X-107063D01*
X-106781Y63691D01*
Y63409D01*
X-107063Y63127D01*
X-106781Y62845D01*
Y62563D01*
X-107063Y62281D01*
X-107627D01*
X-107909Y62563D01*
Y62845D01*
X-107627Y63127D01*
X-107909Y63409D01*
Y63691D01*
X-107627Y63127D02*
X-107063D01*
X-106217Y63973D02*
Y62281D01*
Y62845D01*
X-105089Y63973D01*
X-105935Y63127D01*
X-105089Y62281D01*
X99235Y23764D02*
Y24329D01*
Y24046D01*
X97543D01*
X97825Y23764D01*
Y25175D02*
X97543Y25457D01*
Y26021D01*
X97825Y26303D01*
X98953D01*
X99235Y26021D01*
Y25457D01*
X98953Y25175D01*
X97825D01*
X97543Y26867D02*
X99235D01*
X98671D01*
X97543Y27995D01*
X98389Y27149D01*
X99235Y27995D01*
X119350Y72244D02*
Y73936D01*
X118504Y73090D01*
X119632D01*
X120196Y73936D02*
X121325D01*
Y73654D01*
X120196Y72526D01*
Y72244D01*
X121889Y73654D02*
X122171Y73936D01*
X122735D01*
X123017Y73654D01*
Y72526D01*
X122735Y72244D01*
X122171D01*
X121889Y72526D01*
Y73654D01*
X119842Y67716D02*
Y69409D01*
X118996Y68563D01*
X120124D01*
X120688Y69409D02*
X121817D01*
Y69127D01*
X120688Y67999D01*
Y67716D01*
X122381Y69127D02*
X122663Y69409D01*
X123227D01*
X123509Y69127D01*
Y67999D01*
X123227Y67716D01*
X122663D01*
X122381Y67999D01*
Y69127D01*
X-38583Y148327D02*
Y148891D01*
Y148609D01*
X-40275D01*
X-39993Y148327D01*
Y149737D02*
X-40275Y150019D01*
Y150583D01*
X-39993Y150865D01*
X-38865D01*
X-38583Y150583D01*
Y150019D01*
X-38865Y149737D01*
X-39993D01*
X-40275Y151429D02*
X-38583D01*
X-39147D01*
X-40275Y152558D01*
X-39429Y151711D01*
X-38583Y152558D01*
X-56398Y158228D02*
X-58090D01*
X-57244Y157382D01*
Y158510D01*
X-56398Y159074D02*
X-56680D01*
Y159356D01*
X-56398D01*
Y159074D01*
X-58090Y160485D02*
Y161613D01*
X-57808D01*
X-56680Y160485D01*
X-56398D01*
X-58090Y162177D02*
X-56398D01*
X-56962D01*
X-58090Y163305D01*
X-57244Y162459D01*
X-56398Y163305D01*
X-52067Y158228D02*
X-53759D01*
X-52913Y157382D01*
Y158510D01*
X-52067Y159074D02*
X-52349D01*
Y159356D01*
X-52067D01*
Y159074D01*
X-53759Y160485D02*
Y161613D01*
X-53477D01*
X-52349Y160485D01*
X-52067D01*
X-53759Y162177D02*
X-52067D01*
X-52631D01*
X-53759Y163305D01*
X-52913Y162459D01*
X-52067Y163305D01*
X-38112Y158322D02*
Y158886D01*
Y158604D01*
X-39805D01*
X-39523Y158322D01*
Y159732D02*
X-39805Y160014D01*
Y160579D01*
X-39523Y160861D01*
X-38394D01*
X-38112Y160579D01*
Y160014D01*
X-38394Y159732D01*
X-39523D01*
X-39805Y161425D02*
X-38112D01*
X-38677D01*
X-39805Y162553D01*
X-38959Y161707D01*
X-38112Y162553D01*
X-51575Y117913D02*
Y118477D01*
Y118195D01*
X-53267D01*
X-52985Y117913D01*
Y119324D02*
X-53267Y119606D01*
Y120170D01*
X-52985Y120452D01*
X-51857D01*
X-51575Y120170D01*
Y119606D01*
X-51857Y119324D01*
X-52985D01*
X-51575Y121016D02*
X-53267D01*
Y121862D01*
X-52985Y122144D01*
X-52421D01*
X-52139Y121862D01*
Y121016D01*
Y121580D02*
X-51575Y122144D01*
X-42126Y158510D02*
Y157382D01*
X-43254Y158510D01*
X-43536D01*
X-43818Y158228D01*
Y157664D01*
X-43536Y157382D01*
X-42126Y159074D02*
X-42408D01*
Y159356D01*
X-42126D01*
Y159074D01*
Y161613D02*
Y160485D01*
X-43254Y161613D01*
X-43536D01*
X-43818Y161331D01*
Y160767D01*
X-43536Y160485D01*
X-43818Y162177D02*
X-42126D01*
X-42690D01*
X-43818Y163305D01*
X-42972Y162459D01*
X-42126Y163305D01*
X-42421Y148228D02*
Y148793D01*
Y148510D01*
X-44114D01*
X-43832Y148228D01*
Y149639D02*
X-44114Y149921D01*
Y150485D01*
X-43832Y150767D01*
X-42703D01*
X-42421Y150485D01*
Y149921D01*
X-42703Y149639D01*
X-43832D01*
X-44114Y151331D02*
X-42421D01*
X-42985D01*
X-44114Y152459D01*
X-43267Y151613D01*
X-42421Y152459D01*
X21988Y73825D02*
X22552D01*
X22270D01*
Y75517D01*
X21988Y75235D01*
X23398D02*
X23680Y75517D01*
X24244D01*
X24526Y75235D01*
Y74107D01*
X24244Y73825D01*
X23680D01*
X23398Y74107D01*
Y75235D01*
X25090D02*
X25372Y75517D01*
X25936D01*
X26219Y75235D01*
Y74107D01*
X25936Y73825D01*
X25372D01*
X25090Y74107D01*
Y75235D01*
X26783Y75517D02*
Y73825D01*
Y74389D01*
X27911Y75517D01*
X27065Y74671D01*
X27911Y73825D01*
X11948Y73923D02*
X12512D01*
X12230D01*
Y75615D01*
X11948Y75333D01*
X13359D02*
X13641Y75615D01*
X14205D01*
X14487Y75333D01*
Y74205D01*
X14205Y73923D01*
X13641D01*
X13359Y74205D01*
Y75333D01*
X15051D02*
X15333Y75615D01*
X15897D01*
X16179Y75333D01*
Y74205D01*
X15897Y73923D01*
X15333D01*
X15051Y74205D01*
Y75333D01*
X16743Y75615D02*
Y73923D01*
Y74487D01*
X17872Y75615D01*
X17025Y74769D01*
X17872Y73923D01*
X-53543Y74114D02*
X-52979D01*
X-53261D01*
Y75807D01*
X-53543Y75525D01*
X-52133D02*
X-51851Y75807D01*
X-51287D01*
X-51005Y75525D01*
Y74396D01*
X-51287Y74114D01*
X-51851D01*
X-52133Y74396D01*
Y75525D01*
X-50441Y75807D02*
Y74114D01*
Y74678D01*
X-49312Y75807D01*
X-50159Y74961D01*
X-49312Y74114D01*
X48622Y74114D02*
X49186D01*
X48904D01*
Y75807D01*
X48622Y75525D01*
X50032D02*
X50314Y75807D01*
X50879D01*
X51161Y75525D01*
Y74396D01*
X50879Y74114D01*
X50314D01*
X50032Y74396D01*
Y75525D01*
X51725Y75807D02*
Y74114D01*
Y74678D01*
X52853Y75807D01*
X52007Y74961D01*
X52853Y74114D01*
X-59350Y74016D02*
X-58786D01*
X-59068D01*
Y75708D01*
X-59350Y75426D01*
X-57940Y75708D02*
Y74016D01*
Y74580D01*
X-56812Y75708D01*
X-57658Y74862D01*
X-56812Y74016D01*
X42323Y74213D02*
X42887D01*
X42605D01*
Y75905D01*
X42323Y75623D01*
X43733Y75905D02*
Y74213D01*
Y74777D01*
X44861Y75905D01*
X44015Y75059D01*
X44861Y74213D01*
X-60696Y94494D02*
X-60132D01*
X-60414D01*
Y96186D01*
X-60696Y95904D01*
X-59286Y96186D02*
Y94494D01*
Y95058D01*
X-58158Y96186D01*
X-59004Y95340D01*
X-58158Y94494D01*
X39993Y94396D02*
X40557D01*
X40275D01*
Y96088D01*
X39993Y95806D01*
X41403Y96088D02*
Y94396D01*
Y94960D01*
X42531Y96088D01*
X41685Y95242D01*
X42531Y94396D01*
X-45906Y74114D02*
Y75806D01*
X-46752Y74960D01*
X-45624D01*
X-45060Y74114D02*
Y74396D01*
X-44778D01*
Y74114D01*
X-45060D01*
X-43649Y75806D02*
X-42521D01*
Y75524D01*
X-43649Y74396D01*
Y74114D01*
X-41957Y75806D02*
Y74114D01*
Y74678D01*
X-40829Y75806D01*
X-41675Y74960D01*
X-40829Y74114D01*
X56161D02*
Y75806D01*
X55315Y74960D01*
X56443D01*
X57007Y74114D02*
Y74396D01*
X57289D01*
Y74114D01*
X57007D01*
X58418Y75806D02*
X59546D01*
Y75524D01*
X58418Y74396D01*
Y74114D01*
X60110Y75806D02*
Y74114D01*
Y74678D01*
X61238Y75806D01*
X60392Y74960D01*
X61238Y74114D01*
X118209Y76673D02*
X118773D01*
X118491D01*
Y78366D01*
X118209Y78083D01*
X119619D02*
X119901Y78366D01*
X120465D01*
X120747Y78083D01*
Y76955D01*
X120465Y76673D01*
X119901D01*
X119619Y76955D01*
Y78083D01*
X121311D02*
X121593Y78366D01*
X122158D01*
X122440Y78083D01*
Y76955D01*
X122158Y76673D01*
X121593D01*
X121311Y76955D01*
Y78083D01*
X123004Y78366D02*
Y76673D01*
Y77237D01*
X124132Y78366D01*
X123286Y77519D01*
X124132Y76673D01*
X119587Y81595D02*
X120151D01*
X119869D01*
Y83287D01*
X119587Y83005D01*
X120997Y83287D02*
Y81595D01*
Y82159D01*
X122125Y83287D01*
X121279Y82441D01*
X122125Y81595D01*
X-43177Y94592D02*
X-42613D01*
X-42895D01*
Y96285D01*
X-43177Y96003D01*
X-41766D02*
X-41484Y96285D01*
X-40920D01*
X-40638Y96003D01*
Y94875D01*
X-40920Y94592D01*
X-41484D01*
X-41766Y94875D01*
Y96003D01*
X-40074Y96285D02*
Y94592D01*
Y95157D01*
X-38946Y96285D01*
X-39792Y95439D01*
X-38946Y94592D01*
X58268Y94199D02*
X58832D01*
X58550D01*
Y95891D01*
X58268Y95609D01*
X59678D02*
X59960Y95891D01*
X60524D01*
X60806Y95609D01*
Y94481D01*
X60524Y94199D01*
X59960D01*
X59678Y94481D01*
Y95609D01*
X61370Y95891D02*
Y94199D01*
Y94763D01*
X62498Y95891D01*
X61652Y95045D01*
X62498Y94199D01*
X119488Y96850D02*
X120052D01*
X119770D01*
Y98543D01*
X119488Y98261D01*
X120898Y98543D02*
Y96850D01*
Y97414D01*
X122027Y98543D01*
X121180Y97697D01*
X122027Y96850D01*
X118110Y86614D02*
X118674D01*
X118392D01*
Y88306D01*
X118110Y88024D01*
X119520D02*
X119803Y88306D01*
X120367D01*
X120649Y88024D01*
Y86896D01*
X120367Y86614D01*
X119803D01*
X119520Y86896D01*
Y88024D01*
X121213D02*
X121495Y88306D01*
X122059D01*
X122341Y88024D01*
Y86896D01*
X122059Y86614D01*
X121495D01*
X121213Y86896D01*
Y88024D01*
X122905Y88306D02*
Y86614D01*
Y87178D01*
X124033Y88306D01*
X123187Y87460D01*
X124033Y86614D01*
X119980Y101575D02*
X120544D01*
X120262D01*
Y103267D01*
X119980Y102985D01*
X121391Y103267D02*
Y101575D01*
Y102139D01*
X122519Y103267D01*
X121673Y102421D01*
X122519Y101575D01*
X-52921Y94297D02*
X-52357D01*
X-52639D01*
Y95990D01*
X-52921Y95707D01*
X-51511D02*
X-51228Y95990D01*
X-50664D01*
X-50382Y95707D01*
Y94579D01*
X-50664Y94297D01*
X-51228D01*
X-51511Y94579D01*
Y95707D01*
X-49818Y95990D02*
Y94297D01*
Y94861D01*
X-48690Y95990D01*
X-49536Y95143D01*
X-48690Y94297D01*
X48720Y94494D02*
X49285D01*
X49003D01*
Y96186D01*
X48720Y95904D01*
X50131D02*
X50413Y96186D01*
X50977D01*
X51259Y95904D01*
Y94776D01*
X50977Y94494D01*
X50413D01*
X50131Y94776D01*
Y95904D01*
X51823Y96186D02*
Y94494D01*
Y95058D01*
X52951Y96186D01*
X52105Y95340D01*
X52951Y94494D01*
X79823Y101575D02*
X80387D01*
X80105D01*
Y103267D01*
X79823Y102985D01*
X81233D02*
X81515Y103267D01*
X82079D01*
X82361Y102985D01*
Y101857D01*
X82079Y101575D01*
X81515D01*
X81233Y101857D01*
Y102985D01*
X82925D02*
X83208Y103267D01*
X83772D01*
X84054Y102985D01*
Y101857D01*
X83772Y101575D01*
X83208D01*
X82925Y101857D01*
Y102985D01*
X84618Y103267D02*
Y101575D01*
Y102139D01*
X85746Y103267D01*
X84900Y102421D01*
X85746Y101575D01*
X81693Y106693D02*
X82257D01*
X81975D01*
Y108385D01*
X81693Y108103D01*
X83103Y108385D02*
Y106693D01*
Y107257D01*
X84231Y108385D01*
X83385Y107539D01*
X84231Y106693D01*
X81496Y96457D02*
X82060D01*
X81778D01*
Y98149D01*
X81496Y97867D01*
X82906Y98149D02*
Y96457D01*
Y97021D01*
X84035Y98149D01*
X83188Y97303D01*
X84035Y96457D01*
X79921Y91634D02*
X80485D01*
X80203D01*
Y93326D01*
X79921Y93044D01*
X81332D02*
X81614Y93326D01*
X82178D01*
X82460Y93044D01*
Y91916D01*
X82178Y91634D01*
X81614D01*
X81332Y91916D01*
Y93044D01*
X83024D02*
X83306Y93326D01*
X83870D01*
X84152Y93044D01*
Y91916D01*
X83870Y91634D01*
X83306D01*
X83024Y91916D01*
Y93044D01*
X84716Y93326D02*
Y91634D01*
Y92198D01*
X85844Y93326D01*
X84998Y92480D01*
X85844Y91634D01*
X81398Y86614D02*
X81962D01*
X81680D01*
Y88306D01*
X81398Y88024D01*
X82808Y88306D02*
Y86614D01*
Y87178D01*
X83936Y88306D01*
X83090Y87460D01*
X83936Y86614D01*
X103172Y22583D02*
Y23147D01*
Y22865D01*
X101479D01*
X101761Y22583D01*
Y23994D02*
X101479Y24276D01*
Y24840D01*
X101761Y25122D01*
X102890D01*
X103172Y24840D01*
Y24276D01*
X102890Y23994D01*
X101761D01*
Y25686D02*
X101479Y25968D01*
Y26532D01*
X101761Y26814D01*
X102044D01*
X102326Y26532D01*
Y26250D01*
Y26532D01*
X102608Y26814D01*
X102890D01*
X103172Y26532D01*
Y25968D01*
X102890Y25686D01*
X101479Y28506D02*
Y27942D01*
Y28225D01*
X102890D01*
X103172Y27942D01*
Y27660D01*
X102890Y27378D01*
X-106058Y93402D02*
Y91710D01*
X-104930D01*
X-104366D02*
Y93402D01*
X-103802Y92838D01*
X-103238Y93402D01*
Y91710D01*
X-102674Y93120D02*
X-102392Y93402D01*
X-101828D01*
X-101546Y93120D01*
Y92838D01*
X-101828Y92556D01*
X-102110D01*
X-101828D01*
X-101546Y92274D01*
Y91992D01*
X-101828Y91710D01*
X-102392D01*
X-102674Y91992D01*
X-99853Y93402D02*
X-100981D01*
Y92556D01*
X-100417Y92838D01*
X-100135D01*
X-99853Y92556D01*
Y91992D01*
X-100135Y91710D01*
X-100699D01*
X-100981Y91992D01*
X-99289Y93120D02*
X-99007Y93402D01*
X-98443D01*
X-98161Y93120D01*
Y92838D01*
X-98443Y92556D01*
X-98161Y92274D01*
Y91992D01*
X-98443Y91710D01*
X-99007D01*
X-99289Y91992D01*
Y92274D01*
X-99007Y92556D01*
X-99289Y92838D01*
Y93120D01*
X-99007Y92556D02*
X-98443D01*
X76181Y53661D02*
X77309D01*
X76745D01*
Y51968D01*
X77873Y53661D02*
Y51968D01*
X79002D01*
X80412D02*
Y53661D01*
X79566Y52815D01*
X80694D01*
X81258Y53379D02*
X81540Y53661D01*
X82104D01*
X82386Y53379D01*
Y53097D01*
X82104Y52815D01*
X81822D01*
X82104D01*
X82386Y52533D01*
Y52251D01*
X82104Y51968D01*
X81540D01*
X81258Y52251D01*
X82951Y51968D02*
X83515D01*
X83233D01*
Y53661D01*
X82951Y53379D01*
X96850Y54626D02*
Y56318D01*
X97979Y54626D01*
Y56318D01*
X98543D02*
X99671D01*
Y56036D01*
X98543Y54908D01*
Y54626D01*
X101363Y56318D02*
X100799Y56036D01*
X100235Y55472D01*
Y54908D01*
X100517Y54626D01*
X101081D01*
X101363Y54908D01*
Y55190D01*
X101081Y55472D01*
X100235D01*
X103056Y56318D02*
X101927D01*
Y54626D01*
X103056D01*
X101927Y55472D02*
X102492D01*
X103620Y56036D02*
X103902Y56318D01*
X104466D01*
X104748Y56036D01*
Y54908D01*
X104466Y54626D01*
X103902D01*
X103620Y54908D01*
Y56036D01*
X105312D02*
X105594Y56318D01*
X106158D01*
X106440Y56036D01*
Y54908D01*
X106158Y54626D01*
X105594D01*
X105312Y54908D01*
Y56036D01*
X107004D02*
X107287Y56318D01*
X107851D01*
X108133Y56036D01*
Y55754D01*
X107851Y55472D01*
X107569D01*
X107851D01*
X108133Y55190D01*
Y54908D01*
X107851Y54626D01*
X107287D01*
X107004Y54908D01*
X-53347Y140078D02*
X-52218D01*
Y139796D01*
X-53347Y138668D01*
Y138386D01*
X-51654D02*
X-51090D01*
X-51372D01*
Y140078D01*
X-51654Y139796D01*
X-49116Y140078D02*
X-50244D01*
Y139232D01*
X-49680Y139514D01*
X-49398D01*
X-49116Y139232D01*
Y138668D01*
X-49398Y138386D01*
X-49962D01*
X-50244Y138668D01*
X-48551Y139796D02*
X-48269Y140078D01*
X-47705D01*
X-47423Y139796D01*
Y138668D01*
X-47705Y138386D01*
X-48269D01*
X-48551Y138668D01*
Y139796D01*
X103467Y90457D02*
X101775D01*
X102621Y89611D01*
Y90739D01*
X102057Y91303D02*
X101775Y91585D01*
Y92149D01*
X102057Y92431D01*
X103185D01*
X103467Y92149D01*
Y91585D01*
X103185Y91303D01*
X102057D01*
X101775Y94124D02*
X102057Y93560D01*
X102621Y92996D01*
X103185D01*
X103467Y93278D01*
Y93842D01*
X103185Y94124D01*
X102903D01*
X102621Y93842D01*
Y92996D01*
X103185Y94688D02*
X103467Y94970D01*
Y95534D01*
X103185Y95816D01*
X102057D01*
X101775Y95534D01*
Y94970D01*
X102057Y94688D01*
X102339D01*
X102621Y94970D01*
Y95816D01*
X-2854Y14708D02*
Y16400D01*
X-2008D01*
X-1726Y16118D01*
Y15554D01*
X-2008Y15272D01*
X-2854D01*
X-2290D02*
X-1726Y14708D01*
X-1162D02*
X-34Y15836D01*
X530Y16400D02*
Y14708D01*
X1377D01*
X1659Y14990D01*
Y15272D01*
X1377Y15554D01*
X530D01*
X1377D01*
X1659Y15836D01*
Y16118D01*
X1377Y16400D01*
X530D01*
X-60925Y29331D02*
X-60361D01*
X-60643D01*
Y31023D01*
X-60925Y30741D01*
X-59515D02*
X-59233Y31023D01*
X-58669D01*
X-58387Y30741D01*
Y29613D01*
X-58669Y29331D01*
X-59233D01*
X-59515Y29613D01*
Y30741D01*
X-56694Y29331D02*
X-57823D01*
X-56694Y30459D01*
Y30741D01*
X-56976Y31023D01*
X-57541D01*
X-57823Y30741D01*
X-56130Y29331D02*
X-55002Y30459D01*
X-53310Y31023D02*
X-54438D01*
Y30177D01*
X-53874Y30459D01*
X-53592D01*
X-53310Y30177D01*
Y29613D01*
X-53592Y29331D01*
X-54156D01*
X-54438Y29613D01*
X-52745Y30741D02*
X-52463Y31023D01*
X-51899D01*
X-51617Y30741D01*
Y29613D01*
X-51899Y29331D01*
X-52463D01*
X-52745Y29613D01*
Y30741D01*
X-51053Y31023D02*
Y29895D01*
X-50489Y29331D01*
X-49925Y29895D01*
Y31023D01*
X49409Y29232D02*
X49974D01*
X49692D01*
Y30925D01*
X49409Y30643D01*
X50820D02*
X51102Y30925D01*
X51666D01*
X51948Y30643D01*
Y29514D01*
X51666Y29232D01*
X51102D01*
X50820Y29514D01*
Y30643D01*
X53640Y29232D02*
X52512D01*
X53640Y30360D01*
Y30643D01*
X53358Y30925D01*
X52794D01*
X52512Y30643D01*
X54204Y29232D02*
X55333Y30360D01*
X57025Y30925D02*
X55897D01*
Y30079D01*
X56461Y30360D01*
X56743D01*
X57025Y30079D01*
Y29514D01*
X56743Y29232D01*
X56179D01*
X55897Y29514D01*
X57589Y30643D02*
X57871Y30925D01*
X58435D01*
X58717Y30643D01*
Y29514D01*
X58435Y29232D01*
X57871D01*
X57589Y29514D01*
Y30643D01*
X59281Y30925D02*
Y29796D01*
X59846Y29232D01*
X60410Y29796D01*
Y30925D01*
X-3937Y234369D02*
X-2809D01*
X-3373D01*
Y232677D01*
X-2245Y233805D02*
Y232959D01*
X-1963Y232677D01*
X-1116D01*
Y232395D01*
X-1398Y232113D01*
X-1681D01*
X-1116Y232677D02*
Y233805D01*
X-552Y232113D02*
Y233805D01*
X294D01*
X576Y233523D01*
Y232959D01*
X294Y232677D01*
X-552D01*
X1986D02*
X1422D01*
X1140Y232959D01*
Y233523D01*
X1422Y233805D01*
X1986D01*
X2268Y233523D01*
Y233241D01*
X1140D01*
X2832Y233805D02*
Y232677D01*
Y233241D01*
X3115Y233523D01*
X3396Y233805D01*
X3679D01*
X4525Y233523D02*
X5653D01*
X7345Y234087D02*
X7063Y234369D01*
X6499D01*
X6217Y234087D01*
Y232959D01*
X6499Y232677D01*
X7063D01*
X7345Y232959D01*
X136732Y54429D02*
X135039D01*
X135886D01*
Y53301D01*
X136732D01*
X135039D01*
Y51891D02*
Y52455D01*
X135321Y52737D01*
X135886D01*
X136168Y52455D01*
Y51891D01*
X135886Y51609D01*
X135603D01*
Y52737D01*
X136168Y50762D02*
Y50198D01*
X135886Y49916D01*
X135039D01*
Y50762D01*
X135321Y51044D01*
X135603Y50762D01*
Y49916D01*
X136732Y48224D02*
X135039D01*
Y49070D01*
X135321Y49352D01*
X135886D01*
X136168Y49070D01*
Y48224D01*
X135039Y46813D02*
Y47378D01*
X135321Y47660D01*
X135886D01*
X136168Y47378D01*
Y46813D01*
X135886Y46532D01*
X135603D01*
Y47660D01*
X136168Y45967D02*
X135039D01*
X135603D01*
X135886Y45685D01*
X136168Y45403D01*
Y45121D01*
X136732Y41454D02*
X136450Y42018D01*
X135886Y42583D01*
X135321D01*
X135039Y42301D01*
Y41736D01*
X135321Y41454D01*
X135603D01*
X135886Y41736D01*
Y42583D01*
X4921Y209449D02*
X5485D01*
X5203D01*
Y211141D01*
X4921Y210859D01*
X6332D02*
X6614Y211141D01*
X7178D01*
X7460Y210859D01*
Y209731D01*
X7178Y209449D01*
X6614D01*
X6332Y209731D01*
Y210859D01*
X9152Y211141D02*
X8588Y210859D01*
X8024Y210295D01*
Y209731D01*
X8306Y209449D01*
X8870D01*
X9152Y209731D01*
Y210013D01*
X8870Y210295D01*
X8024D01*
X9716Y209449D02*
X10845Y210577D01*
X11409Y209449D02*
X11973D01*
X11691D01*
Y211141D01*
X11409Y210859D01*
X13947Y211141D02*
X13383Y210859D01*
X12819Y210295D01*
Y209731D01*
X13101Y209449D01*
X13665D01*
X13947Y209731D01*
Y210013D01*
X13665Y210295D01*
X12819D01*
X14511Y211141D02*
Y210013D01*
X15075Y209449D01*
X15640Y210013D01*
Y211141D01*
D48*
X131102Y72835D02*
X140945D01*
Y25591D02*
Y72835D01*
X131102Y25591D02*
Y72835D01*
Y25591D02*
X140945D01*
D49*
X-41087Y143231D02*
X-41087Y133388D01*
X-59197D02*
Y143231D01*
Y133388D02*
X-58016D01*
X-42268D02*
X-41087D01*
X-54079D02*
X-52898D01*
X-47386Y133388D02*
X-46205Y133388D01*
X-45418Y143231D02*
X-41087Y143231D01*
X-59197Y143231D02*
X-54867D01*
D50*
X114825Y47266D02*
Y63801D01*
X89234D02*
X114825D01*
X89234Y47266D02*
Y63801D01*
Y47266D02*
X114825D01*
D51*
X-20093Y164469D02*
X-23425D01*
X-20093Y167801D01*
Y168634D01*
X-20926Y169467D01*
X-22592D01*
X-23425Y168634D01*
X-18427D02*
X-17594Y169467D01*
X-15928D01*
X-15095Y168634D01*
Y165302D01*
X-15928Y164469D01*
X-17594D01*
X-18427Y165302D01*
Y168634D01*
X-13428Y164469D02*
X-11762D01*
X-12595D01*
Y169467D01*
X-13428Y168634D01*
X-9263D02*
X-8430Y169467D01*
X-6764D01*
X-5931Y168634D01*
Y167801D01*
X-6764Y166968D01*
X-5931Y166135D01*
Y165302D01*
X-6764Y164469D01*
X-8430D01*
X-9263Y165302D01*
Y166135D01*
X-8430Y166968D01*
X-9263Y167801D01*
Y168634D01*
X-8430Y166968D02*
X-6764D01*
X-4265D02*
X-933D01*
X734Y168634D02*
X1567Y169467D01*
X3233D01*
X4066Y168634D01*
Y165302D01*
X3233Y164469D01*
X1567D01*
X734Y165302D01*
Y168634D01*
X5732D02*
X6565Y169467D01*
X8231D01*
X9064Y168634D01*
Y167801D01*
X8231Y166968D01*
X7398D01*
X8231D01*
X9064Y166135D01*
Y165302D01*
X8231Y164469D01*
X6565D01*
X5732Y165302D01*
X10730Y166968D02*
X14063D01*
X15729Y168634D02*
X16562Y169467D01*
X18228D01*
X19061Y168634D01*
Y165302D01*
X18228Y164469D01*
X16562D01*
X15729Y165302D01*
Y168634D01*
X24059Y169467D02*
X20727D01*
Y166968D01*
X22393Y167801D01*
X23226D01*
X24059Y166968D01*
Y165302D01*
X23226Y164469D01*
X21560D01*
X20727Y165302D01*
X-23425Y182361D02*
Y177362D01*
X-20926D01*
X-20093Y178195D01*
Y179028D01*
X-20926Y179861D01*
X-23425D01*
X-20926D01*
X-20093Y180694D01*
Y181527D01*
X-20926Y182361D01*
X-23425D01*
X-18427Y177362D02*
Y182361D01*
X-15928D01*
X-15095Y181527D01*
Y179861D01*
X-15928Y179028D01*
X-18427D01*
X-13428Y179861D02*
X-10096D01*
X-8430Y182361D02*
X-5098D01*
X-6764D01*
Y177362D01*
X-99D02*
X-3432D01*
X-99Y180694D01*
Y181527D01*
X-933Y182361D01*
X-2599D01*
X-3432Y181527D01*
X1567Y177362D02*
X3233D01*
X2400D01*
Y182361D01*
X1567Y181527D01*
X5732D02*
X6565Y182361D01*
X8231D01*
X9064Y181527D01*
Y178195D01*
X8231Y177362D01*
X6565D01*
X5732Y178195D01*
Y181527D01*
X10730Y182361D02*
X14063D01*
Y181527D01*
X10730Y178195D01*
Y177362D01*
X15729Y182361D02*
Y177362D01*
X17395Y179028D01*
X19061Y177362D01*
Y182361D01*
X24059D02*
X20727D01*
Y179861D01*
X22393Y180694D01*
X23226D01*
X24059Y179861D01*
Y178195D01*
X23226Y177362D01*
X21560D01*
X20727Y178195D01*
X25725Y177362D02*
Y180694D01*
X27392Y182361D01*
X29058Y180694D01*
Y177362D01*
Y179861D01*
X25725D01*
X30724Y177362D02*
Y180694D01*
X32390Y182361D01*
X34056Y180694D01*
Y177362D01*
Y179861D01*
X30724D01*
X35722Y181527D02*
X36555Y182361D01*
X38221D01*
X39055Y181527D01*
Y178195D01*
X38221Y177362D01*
X36555D01*
X35722Y178195D01*
Y181527D01*
M02*
