%FSLAX25Y25*%
%MOIN*%
G70*
G01*
G75*
G04 Layer_Color=2752767*
%ADD10C,0.00500*%
%ADD11C,0.00667*%
D10*
X-13379Y223702D02*
Y227702D01*
X-9379D01*
Y223702D01*
X-13379D01*
X-16970Y221733D02*
X-18970Y225733D01*
X-14970D01*
X-16970Y221733D01*
X17065D02*
X15066Y225733D01*
X19065D01*
X17065Y221733D01*
X9376Y223702D02*
Y227702D01*
X13376D01*
Y223702D01*
X9376D01*
X-38484Y77626D02*
X-37484Y78626D01*
X-36484D01*
X-37484Y79626D01*
X-36484Y80626D01*
X-37484D01*
X-38484Y81626D01*
X-39484Y80626D01*
X-40484D01*
X-39484Y79626D01*
X-40484Y78626D01*
X-39484D01*
X-38484Y77626D01*
X-44488Y87272D02*
X-43488Y88272D01*
X-42488D01*
X-43488Y89272D01*
X-42488Y90272D01*
X-43488D01*
X-44488Y91272D01*
X-45488Y90272D01*
X-46488D01*
X-45488Y89272D01*
X-46488Y88272D01*
X-45488D01*
X-44488Y87272D01*
X-94587Y87961D02*
X-93587Y88961D01*
X-92587D01*
X-93587Y89961D01*
X-92587Y90961D01*
X-93587D01*
X-94587Y91961D01*
X-95587Y90961D01*
X-96587D01*
X-95587Y89961D01*
X-96587Y88961D01*
X-95587D01*
X-94587Y87961D01*
X-94784Y93669D02*
X-93783Y94669D01*
X-92783D01*
X-93783Y95669D01*
X-92783Y96669D01*
X-93783D01*
X-94784Y97669D01*
X-95784Y96669D01*
X-96784D01*
X-95784Y95669D01*
X-96784Y94669D01*
X-95784D01*
X-94784Y93669D01*
X-104724Y93866D02*
X-103724Y94866D01*
X-102724D01*
X-103724Y95866D01*
X-102724Y96866D01*
X-103724D01*
X-104724Y97866D01*
X-105724Y96866D01*
X-106724D01*
X-105724Y95866D01*
X-106724Y94866D01*
X-105724D01*
X-104724Y93866D01*
X-94980Y52921D02*
X-93980Y53921D01*
X-92980D01*
X-93980Y54921D01*
X-92980Y55921D01*
X-93980D01*
X-94980Y56921D01*
X-95980Y55921D01*
X-96980D01*
X-95980Y54921D01*
X-96980Y53921D01*
X-95980D01*
X-94980Y52921D01*
X84449Y27921D02*
X85449Y28921D01*
X86449D01*
X85449Y29921D01*
X86449Y30921D01*
X85449D01*
X84449Y31921D01*
X83449Y30921D01*
X82449D01*
X83449Y29921D01*
X82449Y28921D01*
X83449D01*
X84449Y27921D01*
X128839Y43472D02*
X129839Y44472D01*
X130839D01*
X129839Y45472D01*
X130839Y46472D01*
X129839D01*
X128839Y47472D01*
X127839Y46472D01*
X126839D01*
X127839Y45472D01*
X126839Y44472D01*
X127839D01*
X128839Y43472D01*
X139764Y85795D02*
X140764Y86795D01*
X141764D01*
X140764Y87795D01*
X141764Y88795D01*
X140764D01*
X139764Y89795D01*
X138764Y88795D01*
X137764D01*
X138764Y87795D01*
X137764Y86795D01*
X138764D01*
X139764Y85795D01*
X131791Y86976D02*
X132791Y87976D01*
X133791D01*
X132791Y88976D01*
X133791Y89976D01*
X132791D01*
X131791Y90976D01*
X130791Y89976D01*
X129791D01*
X130791Y88976D01*
X129791Y87976D01*
X130791D01*
X131791Y86976D01*
X132283Y75559D02*
X133283Y76559D01*
X134283D01*
X133283Y77559D01*
X134283Y78559D01*
X133283D01*
X132283Y79559D01*
X131283Y78559D01*
X130283D01*
X131283Y77559D01*
X130283Y76559D01*
X131283D01*
X132283Y75559D01*
X139173Y75264D02*
X140173Y76264D01*
X141173D01*
X140173Y77264D01*
X141173Y78264D01*
X140173D01*
X139173Y79264D01*
X138173Y78264D01*
X137173D01*
X138173Y77264D01*
X137173Y76264D01*
X138173D01*
X139173Y75264D01*
X106693Y96130D02*
X107693Y97130D01*
X108693D01*
X107693Y98130D01*
X108693Y99130D01*
X107693D01*
X106693Y100130D01*
X105693Y99130D01*
X104693D01*
X105693Y98130D01*
X104693Y97130D01*
X105693D01*
X106693Y96130D01*
X107283Y104890D02*
X108283Y105890D01*
X109283D01*
X108283Y106890D01*
X109283Y107890D01*
X108283D01*
X107283Y108890D01*
X106283Y107890D01*
X105283D01*
X106283Y106890D01*
X105283Y105890D01*
X106283D01*
X107283Y104890D01*
X-56988Y83433D02*
X-55988Y84433D01*
X-54988D01*
X-55988Y85433D01*
X-54988Y86433D01*
X-55988D01*
X-56988Y87433D01*
X-57988Y86433D01*
X-58988D01*
X-57988Y85433D01*
X-58988Y84433D01*
X-57988D01*
X-56988Y83433D01*
X-26969Y119555D02*
X-25969Y120555D01*
X-24969D01*
X-25969Y121555D01*
X-24969Y122555D01*
X-25969D01*
X-26969Y123555D01*
X-27968Y122555D01*
X-28969D01*
X-27968Y121555D01*
X-28969Y120555D01*
X-27968D01*
X-26969Y119555D01*
X-10039Y118669D02*
X-9039Y119669D01*
X-8039D01*
X-9039Y120669D01*
X-8039Y121669D01*
X-9039D01*
X-10039Y122669D01*
X-11039Y121669D01*
X-12039D01*
X-11039Y120669D01*
X-12039Y119669D01*
X-11039D01*
X-10039Y118669D01*
X-9252Y139929D02*
X-8252Y140929D01*
X-7252D01*
X-8252Y141929D01*
X-7252Y142929D01*
X-8252D01*
X-9252Y143929D01*
X-10252Y142929D01*
X-11252D01*
X-10252Y141929D01*
X-11252Y140929D01*
X-10252D01*
X-9252Y139929D01*
X-27362Y141307D02*
X-26362Y142307D01*
X-25362D01*
X-26362Y143307D01*
X-25362Y144307D01*
X-26362D01*
X-27362Y145307D01*
X-28362Y144307D01*
X-29362D01*
X-28362Y143307D01*
X-29362Y142307D01*
X-28362D01*
X-27362Y141307D01*
X-12697Y172409D02*
X-11697Y173409D01*
X-10697D01*
X-11697Y174409D01*
X-10697Y175409D01*
X-11697D01*
X-12697Y176409D01*
X-13697Y175409D01*
X-14697D01*
X-13697Y174409D01*
X-14697Y173409D01*
X-13697D01*
X-12697Y172409D01*
X-29035Y173886D02*
X-28035Y174886D01*
X-27035D01*
X-28035Y175886D01*
X-27035Y176886D01*
X-28035D01*
X-29035Y177886D01*
X-30035Y176886D01*
X-31035D01*
X-30035Y175886D01*
X-31035Y174886D01*
X-30035D01*
X-29035Y173886D01*
X-11024Y183728D02*
X-10024Y184728D01*
X-9024D01*
X-10024Y185728D01*
X-9024Y186728D01*
X-10024D01*
X-11024Y187728D01*
X-12024Y186728D01*
X-13024D01*
X-12024Y185728D01*
X-13024Y184728D01*
X-12024D01*
X-11024Y183728D01*
X-31890Y184319D02*
X-30890Y185319D01*
X-29890D01*
X-30890Y186319D01*
X-29890Y187319D01*
X-30890D01*
X-31890Y188319D01*
X-32890Y187319D01*
X-33890D01*
X-32890Y186319D01*
X-33890Y185319D01*
X-32890D01*
X-31890Y184319D01*
X-12992Y160205D02*
X-11992Y161205D01*
X-10992D01*
X-11992Y162205D01*
X-10992Y163205D01*
X-11992D01*
X-12992Y164205D01*
X-13992Y163205D01*
X-14992D01*
X-13992Y162205D01*
X-14992Y161205D01*
X-13992D01*
X-12992Y160205D01*
X-28248Y160697D02*
X-27248Y161697D01*
X-26248D01*
X-27248Y162697D01*
X-26248Y163697D01*
X-27248D01*
X-28248Y164697D01*
X-29248Y163697D01*
X-30248D01*
X-29248Y162697D01*
X-30248Y161697D01*
X-29248D01*
X-28248Y160697D01*
X-80315Y120047D02*
X-79315Y121047D01*
X-78315D01*
X-79315Y122047D01*
X-78315Y123047D01*
X-79315D01*
X-80315Y124047D01*
X-81315Y123047D01*
X-82315D01*
X-81315Y122047D01*
X-82315Y121047D01*
X-81315D01*
X-80315Y120047D01*
X-80905Y140028D02*
X-79905Y141028D01*
X-78905D01*
X-79905Y142028D01*
X-78905Y143028D01*
X-79905D01*
X-80905Y144028D01*
X-81906Y143028D01*
X-82906D01*
X-81906Y142028D01*
X-82906Y141028D01*
X-81906D01*
X-80905Y140028D01*
X-98327Y118669D02*
X-97327Y119669D01*
X-96327D01*
X-97327Y120669D01*
X-96327Y121669D01*
X-97327D01*
X-98327Y122669D01*
X-99327Y121669D01*
X-100327D01*
X-99327Y120669D01*
X-100327Y119669D01*
X-99327D01*
X-98327Y118669D01*
X-115157Y118768D02*
X-114157Y119768D01*
X-113157D01*
X-114157Y120768D01*
X-113157Y121768D01*
X-114157D01*
X-115157Y122768D01*
X-116157Y121768D01*
X-117157D01*
X-116157Y120768D01*
X-117157Y119768D01*
X-116157D01*
X-115157Y118768D01*
X-112303Y133335D02*
X-111303Y134335D01*
X-110303D01*
X-111303Y135335D01*
X-110303Y136335D01*
X-111303D01*
X-112303Y137335D01*
X-113303Y136335D01*
X-114303D01*
X-113303Y135335D01*
X-114303Y134335D01*
X-113303D01*
X-112303Y133335D01*
X-98622Y141701D02*
X-97622Y142701D01*
X-96622D01*
X-97622Y143701D01*
X-96622Y144701D01*
X-97622D01*
X-98622Y145701D01*
X-99622Y144701D01*
X-100622D01*
X-99622Y143701D01*
X-100622Y142701D01*
X-99622D01*
X-98622Y141701D01*
X-73032Y158138D02*
X-72031Y159138D01*
X-71031D01*
X-72031Y160138D01*
X-71031Y161138D01*
X-72031D01*
X-73032Y162138D01*
X-74032Y161138D01*
X-75032D01*
X-74032Y160138D01*
X-75032Y159138D01*
X-74032D01*
X-73032Y158138D01*
X-45669Y172902D02*
X-44669Y173902D01*
X-43669D01*
X-44669Y174902D01*
X-43669Y175902D01*
X-44669D01*
X-45669Y176902D01*
X-46669Y175902D01*
X-47669D01*
X-46669Y174902D01*
X-47669Y173902D01*
X-46669D01*
X-45669Y172902D01*
X16929Y168571D02*
X17929Y169571D01*
X18929D01*
X17929Y170571D01*
X18929Y171571D01*
X17929D01*
X16929Y172571D01*
X15929Y171571D01*
X14929D01*
X15929Y170571D01*
X14929Y169571D01*
X15929D01*
X16929Y168571D01*
X17815Y184122D02*
X18815Y185122D01*
X19815D01*
X18815Y186122D01*
X19815Y187122D01*
X18815D01*
X17815Y188122D01*
X16815Y187122D01*
X15815D01*
X16815Y186122D01*
X15815Y185122D01*
X16815D01*
X17815Y184122D01*
X59153Y159122D02*
X60154Y160122D01*
X61154D01*
X60154Y161122D01*
X61154Y162122D01*
X60154D01*
X59153Y163122D01*
X58153Y162122D01*
X57153D01*
X58153Y161122D01*
X57153Y160122D01*
X58153D01*
X59153Y159122D01*
X43602D02*
X44602Y160122D01*
X45602D01*
X44602Y161122D01*
X45602Y162122D01*
X44602D01*
X43602Y163122D01*
X42602Y162122D01*
X41602D01*
X42602Y161122D01*
X41602Y160122D01*
X42602D01*
X43602Y159122D01*
X24705Y158925D02*
X25705Y159925D01*
X26705D01*
X25705Y160925D01*
X26705Y161925D01*
X25705D01*
X24705Y162925D01*
X23705Y161925D01*
X22705D01*
X23705Y160925D01*
X22705Y159925D01*
X23705D01*
X24705Y158925D01*
X74606Y158728D02*
X75606Y159728D01*
X76606D01*
X75606Y160728D01*
X76606Y161728D01*
X75606D01*
X74606Y162728D01*
X73606Y161728D01*
X72606D01*
X73606Y160728D01*
X72606Y159728D01*
X73606D01*
X74606Y158728D01*
X29232Y171031D02*
X30232Y172031D01*
X31232D01*
X30232Y173031D01*
X31232Y174031D01*
X30232D01*
X29232Y175031D01*
X28232Y174031D01*
X27232D01*
X28232Y173031D01*
X27232Y172031D01*
X28232D01*
X29232Y171031D01*
X113484Y133630D02*
X114484Y134630D01*
X115484D01*
X114484Y135630D01*
X115484Y136630D01*
X114484D01*
X113484Y137630D01*
X112484Y136630D01*
X111484D01*
X112484Y135630D01*
X111484Y134630D01*
X112484D01*
X113484Y133630D01*
X112697Y116012D02*
X113697Y117012D01*
X114697D01*
X113697Y118012D01*
X114697Y119012D01*
X113697D01*
X112697Y120012D01*
X111697Y119012D01*
X110697D01*
X111697Y118012D01*
X110697Y117012D01*
X111697D01*
X112697Y116012D01*
X97146Y117193D02*
X98146Y118193D01*
X99146D01*
X98146Y119193D01*
X99146Y120193D01*
X98146D01*
X97146Y121193D01*
X96146Y120193D01*
X95146D01*
X96146Y119193D01*
X95146Y118193D01*
X96146D01*
X97146Y117193D01*
X81004Y110402D02*
X82004Y111402D01*
X83004D01*
X82004Y112402D01*
X83004Y113402D01*
X82004D01*
X81004Y114402D01*
X80004Y113402D01*
X79004D01*
X80004Y112402D01*
X79004Y111402D01*
X80004D01*
X81004Y110402D01*
X75197D02*
X76197Y111402D01*
X77197D01*
X76197Y112402D01*
X77197Y113402D01*
X76197D01*
X75197Y114402D01*
X74197Y113402D01*
X73197D01*
X74197Y112402D01*
X73197Y111402D01*
X74197D01*
X75197Y110402D01*
X82480Y117193D02*
X83480Y118193D01*
X84480D01*
X83480Y119193D01*
X84480Y120193D01*
X83480D01*
X82480Y121193D01*
X81480Y120193D01*
X80480D01*
X81480Y119193D01*
X80480Y118193D01*
X81480D01*
X82480Y117193D01*
X74705D02*
X75705Y118193D01*
X76705D01*
X75705Y119193D01*
X76705Y120193D01*
X75705D01*
X74705Y121193D01*
X73705Y120193D01*
X72705D01*
X73705Y119193D01*
X72705Y118193D01*
X73705D01*
X74705Y117193D01*
X99606Y9122D02*
X100606Y10122D01*
X101606D01*
X100606Y11122D01*
X101606Y12122D01*
X100606D01*
X99606Y13122D01*
X98606Y12122D01*
X97606D01*
X98606Y11122D01*
X97606Y10122D01*
X98606D01*
X99606Y9122D01*
X116043Y9319D02*
X117043Y10319D01*
X118043D01*
X117043Y11319D01*
X118043Y12319D01*
X117043D01*
X116043Y13319D01*
X115043Y12319D01*
X114043D01*
X115043Y11319D01*
X114043Y10319D01*
X115043D01*
X116043Y9319D01*
X120669Y18374D02*
X121669Y19374D01*
X122669D01*
X121669Y20374D01*
X122669Y21374D01*
X121669D01*
X120669Y22374D01*
X119669Y21374D01*
X118669D01*
X119669Y20374D01*
X118669Y19374D01*
X119669D01*
X120669Y18374D01*
X115354Y2626D02*
X116354Y3626D01*
X117354D01*
X116354Y4626D01*
X117354Y5626D01*
X116354D01*
X115354Y6626D01*
X114354Y5626D01*
X113354D01*
X114354Y4626D01*
X113354Y3626D01*
X114354D01*
X115354Y2626D01*
X99016Y3413D02*
X100016Y4413D01*
X101016D01*
X100016Y5413D01*
X101016Y6413D01*
X100016D01*
X99016Y7413D01*
X98016Y6413D01*
X97016D01*
X98016Y5413D01*
X97016Y4413D01*
X98016D01*
X99016Y3413D01*
X89272Y21228D02*
X90272Y22228D01*
X91272D01*
X90272Y23228D01*
X91272Y24228D01*
X90272D01*
X89272Y25228D01*
X88272Y24228D01*
X87272D01*
X88272Y23228D01*
X87272Y22228D01*
X88272D01*
X89272Y21228D01*
X111909Y25264D02*
X112909Y26264D01*
X113909D01*
X112909Y27264D01*
X113909Y28264D01*
X112909D01*
X111909Y29264D01*
X110909Y28264D01*
X109909D01*
X110909Y27264D01*
X109909Y26264D01*
X110909D01*
X111909Y25264D01*
X108760Y22902D02*
X109760Y23902D01*
X110760D01*
X109760Y24902D01*
X110760Y25902D01*
X109760D01*
X108760Y26902D01*
X107760Y25902D01*
X106760D01*
X107760Y24902D01*
X106760Y23902D01*
X107760D01*
X108760Y22902D01*
X63976Y49870D02*
X64976Y50870D01*
X65976D01*
X64976Y51870D01*
X65976Y52870D01*
X64976D01*
X63976Y53870D01*
X62976Y52870D01*
X61976D01*
X62976Y51870D01*
X61976Y50870D01*
X62976D01*
X63976Y49870D01*
X56595Y83827D02*
X57595Y84827D01*
X58595D01*
X57595Y85827D01*
X58595Y86827D01*
X57595D01*
X56595Y87827D01*
X55594Y86827D01*
X54594D01*
X55594Y85827D01*
X54594Y84827D01*
X55594D01*
X56595Y83827D01*
X56693Y87665D02*
X57693Y88665D01*
X58693D01*
X57693Y89665D01*
X58693Y90665D01*
X57693D01*
X56693Y91665D01*
X55693Y90665D01*
X54693D01*
X55693Y89665D01*
X54693Y88665D01*
X55693D01*
X56693Y87665D01*
X-102264Y57449D02*
X-101264Y58449D01*
X-100264D01*
X-101264Y59449D01*
X-100264Y60449D01*
X-101264D01*
X-102264Y61449D01*
X-103264Y60449D01*
X-104264D01*
X-103264Y59449D01*
X-104264Y58449D01*
X-103264D01*
X-102264Y57449D01*
X-90650Y77429D02*
X-89650Y78429D01*
X-88650D01*
X-89650Y79429D01*
X-88650Y80429D01*
X-89650D01*
X-90650Y81429D01*
X-91650Y80429D01*
X-92650D01*
X-91650Y79429D01*
X-92650Y78429D01*
X-91650D01*
X-90650Y77429D01*
X-99902Y87272D02*
X-98902Y88272D01*
X-97902D01*
X-98902Y89272D01*
X-97902Y90272D01*
X-98902D01*
X-99902Y91272D01*
X-100902Y90272D01*
X-101902D01*
X-100902Y89272D01*
X-101902Y88272D01*
X-100902D01*
X-99902Y87272D01*
X-106398Y86976D02*
X-105398Y87976D01*
X-104398D01*
X-105398Y88976D01*
X-104398Y89976D01*
X-105398D01*
X-106398Y90976D01*
X-107398Y89976D01*
X-108398D01*
X-107398Y88976D01*
X-108398Y87976D01*
X-107398D01*
X-106398Y86976D01*
X-126969Y94063D02*
X-125969Y95063D01*
X-124969D01*
X-125969Y96063D01*
X-124969Y97063D01*
X-125969D01*
X-126969Y98063D01*
X-127969Y97063D01*
X-128969D01*
X-127969Y96063D01*
X-128969Y95063D01*
X-127969D01*
X-126969Y94063D01*
X-127165Y99673D02*
X-126165Y100673D01*
X-125165D01*
X-126165Y101673D01*
X-125165Y102673D01*
X-126165D01*
X-127165Y103673D01*
X-128165Y102673D01*
X-129165D01*
X-128165Y101673D01*
X-129165Y100673D01*
X-128165D01*
X-127165Y99673D01*
X-41535Y83433D02*
X-40535Y84433D01*
X-39535D01*
X-40535Y85433D01*
X-39535Y86433D01*
X-40535D01*
X-41535Y87433D01*
X-42535Y86433D01*
X-43535D01*
X-42535Y85433D01*
X-43535Y84433D01*
X-42535D01*
X-41535Y83433D01*
X-35236Y118669D02*
X-34236Y119669D01*
X-33236D01*
X-34236Y120669D01*
X-33236Y121669D01*
X-34236D01*
X-35236Y122669D01*
X-36236Y121669D01*
X-37236D01*
X-36236Y120669D01*
X-37236Y119669D01*
X-36236D01*
X-35236Y118669D01*
X-35531Y113945D02*
X-34532Y114945D01*
X-33531D01*
X-34532Y115945D01*
X-33531Y116945D01*
X-34532D01*
X-35531Y117945D01*
X-36531Y116945D01*
X-37532D01*
X-36531Y115945D01*
X-37532Y114945D01*
X-36531D01*
X-35531Y113945D01*
X-65158Y122803D02*
X-64157Y123803D01*
X-63157D01*
X-64157Y124803D01*
X-63157Y125803D01*
X-64157D01*
X-65158Y126803D01*
X-66158Y125803D01*
X-67158D01*
X-66158Y124803D01*
X-67158Y123803D01*
X-66158D01*
X-65158Y122803D01*
X-65256Y116602D02*
X-64256Y117602D01*
X-63256D01*
X-64256Y118602D01*
X-63256Y119602D01*
X-64256D01*
X-65256Y120602D01*
X-66256Y119602D01*
X-67256D01*
X-66256Y118602D01*
X-67256Y117602D01*
X-66256D01*
X-65256Y116602D01*
X-55610Y150165D02*
X-54610Y151165D01*
X-53610D01*
X-54610Y152165D01*
X-53610Y153165D01*
X-54610D01*
X-55610Y154165D01*
X-56610Y153165D01*
X-57610D01*
X-56610Y152165D01*
X-57610Y151165D01*
X-56610D01*
X-55610Y150165D01*
X72244Y66701D02*
X73244Y67701D01*
X74244D01*
X73244Y68701D01*
X74244Y69701D01*
X73244D01*
X72244Y70701D01*
X71244Y69701D01*
X70244D01*
X71244Y68701D01*
X70244Y67701D01*
X71244D01*
X72244Y66701D01*
X80315Y75756D02*
X81315Y76756D01*
X82315D01*
X81315Y77756D01*
X82315Y78756D01*
X81315D01*
X80315Y79756D01*
X79315Y78756D01*
X78315D01*
X79315Y77756D01*
X78315Y76756D01*
X79315D01*
X80315Y75756D01*
X81398Y94161D02*
X82398Y95161D01*
X83398D01*
X82398Y96161D01*
X83398Y97161D01*
X82398D01*
X81398Y98161D01*
X80398Y97161D01*
X79398D01*
X80398Y96161D01*
X79398Y95161D01*
X80398D01*
X81398Y94161D01*
X78543Y69949D02*
X79543Y70949D01*
X80543D01*
X79543Y71949D01*
X80543Y72949D01*
X79543D01*
X78543Y73949D01*
X77543Y72949D01*
X76543D01*
X77543Y71949D01*
X76543Y70949D01*
X77543D01*
X78543Y69949D01*
X78642Y66701D02*
X79642Y67701D01*
X80642D01*
X79642Y68701D01*
X80642Y69701D01*
X79642D01*
X78642Y70701D01*
X77642Y69701D01*
X76642D01*
X77642Y68701D01*
X76642Y67701D01*
X77642D01*
X78642Y66701D01*
X70669Y69949D02*
X71669Y70949D01*
X72669D01*
X71669Y71949D01*
X72669Y72949D01*
X71669D01*
X70669Y73949D01*
X69669Y72949D01*
X68669D01*
X69669Y71949D01*
X68669Y70949D01*
X69669D01*
X70669Y69949D01*
X67323Y62468D02*
X68323Y63468D01*
X69323D01*
X68323Y64468D01*
X69323Y65469D01*
X68323D01*
X67323Y66469D01*
X66323Y65469D01*
X65323D01*
X66323Y64468D01*
X65323Y63468D01*
X66323D01*
X67323Y62468D01*
X11909Y149181D02*
X12910Y150181D01*
X13909D01*
X12910Y151181D01*
X13909Y152181D01*
X12910D01*
X11909Y153181D01*
X10909Y152181D01*
X9910D01*
X10909Y151181D01*
X9910Y150181D01*
X10909D01*
X11909Y149181D01*
X-2559Y152724D02*
X-1559Y153724D01*
X-559D01*
X-1559Y154724D01*
X-559Y155724D01*
X-1559D01*
X-2559Y156724D01*
X-3559Y155724D01*
X-4559D01*
X-3559Y154724D01*
X-4559Y153724D01*
X-3559D01*
X-2559Y152724D01*
X-2657Y149575D02*
X-1657Y150575D01*
X-658D01*
X-1657Y151575D01*
X-658Y152575D01*
X-1657D01*
X-2657Y153575D01*
X-3658Y152575D01*
X-4657D01*
X-3658Y151575D01*
X-4657Y150575D01*
X-3658D01*
X-2657Y149575D01*
X-43307Y155382D02*
X-42307Y156382D01*
X-41307D01*
X-42307Y157382D01*
X-41307Y158382D01*
X-42307D01*
X-43307Y159382D01*
X-44307Y158382D01*
X-45307D01*
X-44307Y157382D01*
X-45307Y156382D01*
X-44307D01*
X-43307Y155382D01*
X84744Y8236D02*
X85744Y9236D01*
X86744D01*
X85744Y10236D01*
X86744Y11236D01*
X85744D01*
X84744Y12236D01*
X83744Y11236D01*
X82744D01*
X83744Y10236D01*
X82744Y9236D01*
X83744D01*
X84744Y8236D01*
X-95079Y3906D02*
X-94079Y4905D01*
X-93079D01*
X-94079Y5906D01*
X-93079Y6905D01*
X-94079D01*
X-95079Y7905D01*
X-96079Y6905D01*
X-97079D01*
X-96079Y5906D01*
X-97079Y4905D01*
X-96079D01*
X-95079Y3906D01*
X87106Y3709D02*
X88106Y4709D01*
X89106D01*
X88106Y5709D01*
X89106Y6709D01*
X88106D01*
X87106Y7709D01*
X86106Y6709D01*
X85106D01*
X86106Y5709D01*
X85106Y4709D01*
X86106D01*
X87106Y3709D01*
X81988Y4299D02*
X82988Y5299D01*
X83988D01*
X82988Y6299D01*
X83988Y7299D01*
X82988D01*
X81988Y8299D01*
X80988Y7299D01*
X79988D01*
X80988Y6299D01*
X79988Y5299D01*
X80988D01*
X81988Y4299D01*
X-94882Y756D02*
X-93882Y1756D01*
X-92882D01*
X-93882Y2756D01*
X-92882Y3756D01*
X-93882D01*
X-94882Y4756D01*
X-95882Y3756D01*
X-96882D01*
X-95882Y2756D01*
X-96882Y1756D01*
X-95882D01*
X-94882Y756D01*
X79331Y6071D02*
X80331Y7071D01*
X81331D01*
X80331Y8071D01*
X81331Y9071D01*
X80331D01*
X79331Y10071D01*
X78331Y9071D01*
X77331D01*
X78331Y8071D01*
X77331Y7071D01*
X78331D01*
X79331Y6071D01*
X12205Y69260D02*
X13205Y70260D01*
X14205D01*
X13205Y71260D01*
X14205Y72260D01*
X13205D01*
X12205Y73260D01*
X11205Y72260D01*
X10205D01*
X11205Y71260D01*
X10205Y70260D01*
X11205D01*
X12205Y69260D01*
X22244Y69358D02*
X23244Y70358D01*
X24244D01*
X23244Y71358D01*
X24244Y72358D01*
X23244D01*
X22244Y73358D01*
X21244Y72358D01*
X20244D01*
X21244Y71358D01*
X20244Y70358D01*
X21244D01*
X22244Y69358D01*
X-27264Y69555D02*
X-26264Y70555D01*
X-25264D01*
X-26264Y71555D01*
X-25264Y72555D01*
X-26264D01*
X-27264Y73555D01*
X-28264Y72555D01*
X-29264D01*
X-28264Y71555D01*
X-29264Y70555D01*
X-28264D01*
X-27264Y69555D01*
X-17224Y69358D02*
X-16224Y70358D01*
X-15224D01*
X-16224Y71358D01*
X-15224Y72358D01*
X-16224D01*
X-17224Y73358D01*
X-18224Y72358D01*
X-19224D01*
X-18224Y71358D01*
X-19224Y70358D01*
X-18224D01*
X-17224Y69358D01*
X-84449Y39142D02*
X-83449Y40142D01*
X-82449D01*
X-83449Y41142D01*
X-82449Y42142D01*
X-83449D01*
X-84449Y43142D01*
X-85449Y42142D01*
X-86449D01*
X-85449Y41142D01*
X-86449Y40142D01*
X-85449D01*
X-84449Y39142D01*
X-79528Y39240D02*
X-78528Y40240D01*
X-77528D01*
X-78528Y41240D01*
X-77528Y42240D01*
X-78528D01*
X-79528Y43240D01*
X-80528Y42240D01*
X-81528D01*
X-80528Y41240D01*
X-81528Y40240D01*
X-80528D01*
X-79528Y39240D01*
X-81890Y39142D02*
X-80890Y40142D01*
X-79890D01*
X-80890Y41142D01*
X-79890Y42142D01*
X-80890D01*
X-81890Y43142D01*
X-82890Y42142D01*
X-83890D01*
X-82890Y41142D01*
X-83890Y40142D01*
X-82890D01*
X-81890Y39142D01*
X-84449Y36878D02*
X-83449Y37878D01*
X-82449D01*
X-83449Y38878D01*
X-82449Y39878D01*
X-83449D01*
X-84449Y40878D01*
X-85449Y39878D01*
X-86449D01*
X-85449Y38878D01*
X-86449Y37878D01*
X-85449D01*
X-84449Y36878D01*
X-79429D02*
X-78429Y37878D01*
X-77429D01*
X-78429Y38878D01*
X-77429Y39878D01*
X-78429D01*
X-79429Y40878D01*
X-80429Y39878D01*
X-81429D01*
X-80429Y38878D01*
X-81429Y37878D01*
X-80429D01*
X-79429Y36878D01*
X-81791D02*
X-80791Y37878D01*
X-79791D01*
X-80791Y38878D01*
X-79791Y39878D01*
X-80791D01*
X-81791Y40878D01*
X-82791Y39878D01*
X-83791D01*
X-82791Y38878D01*
X-83791Y37878D01*
X-82791D01*
X-81791Y36878D01*
X-84449Y34319D02*
X-83449Y35319D01*
X-82449D01*
X-83449Y36319D01*
X-82449Y37319D01*
X-83449D01*
X-84449Y38319D01*
X-85449Y37319D01*
X-86449D01*
X-85449Y36319D01*
X-86449Y35319D01*
X-85449D01*
X-84449Y34319D01*
X-81791Y34417D02*
X-80791Y35417D01*
X-79791D01*
X-80791Y36417D01*
X-79791Y37417D01*
X-80791D01*
X-81791Y38417D01*
X-82791Y37417D01*
X-83791D01*
X-82791Y36417D01*
X-83791Y35417D01*
X-82791D01*
X-81791Y34417D01*
X-79429D02*
X-78429Y35417D01*
X-77429D01*
X-78429Y36417D01*
X-77429Y37417D01*
X-78429D01*
X-79429Y38417D01*
X-80429Y37417D01*
X-81429D01*
X-80429Y36417D01*
X-81429Y35417D01*
X-80429D01*
X-79429Y34417D01*
X4921Y13650D02*
X5921Y14650D01*
X6921D01*
X5921Y15650D01*
X6921Y16650D01*
X5921D01*
X4921Y17650D01*
X3921Y16650D01*
X2921D01*
X3921Y15650D01*
X2921Y14650D01*
X3921D01*
X4921Y13650D01*
X-5118Y13748D02*
X-4118Y14748D01*
X-3118D01*
X-4118Y15748D01*
X-3118Y16748D01*
X-4118D01*
X-5118Y17748D01*
X-6118Y16748D01*
X-7118D01*
X-6118Y15748D01*
X-7118Y14748D01*
X-6118D01*
X-5118Y13748D01*
X105905Y45047D02*
X106905Y46047D01*
X107905D01*
X106905Y47047D01*
X107905Y48047D01*
X106905D01*
X105905Y49047D01*
X104905Y48047D01*
X103905D01*
X104905Y47047D01*
X103905Y46047D01*
X104905D01*
X105905Y45047D01*
X105315Y30579D02*
X106315Y31579D01*
X107315D01*
X106315Y32579D01*
X107315Y33579D01*
X106315D01*
X105315Y34579D01*
X104315Y33579D01*
X103315D01*
X104315Y32579D01*
X103315Y31579D01*
X104315D01*
X105315Y30579D01*
Y25559D02*
X106315Y26559D01*
X107315D01*
X106315Y27559D01*
X107315Y28559D01*
X106315D01*
X105315Y29559D01*
X104315Y28559D01*
X103315D01*
X104315Y27559D01*
X103315Y26559D01*
X104315D01*
X105315Y25559D01*
X101279Y30283D02*
X102279Y31283D01*
X103279D01*
X102279Y32283D01*
X103279Y33283D01*
X102279D01*
X101279Y34283D01*
X100279Y33283D01*
X99279D01*
X100279Y32283D01*
X99279Y31283D01*
X100279D01*
X101279Y30283D01*
X109941D02*
X110941Y31283D01*
X111941D01*
X110941Y32283D01*
X111941Y33283D01*
X110941D01*
X109941Y34283D01*
X108941Y33283D01*
X107941D01*
X108941Y32283D01*
X107941Y31283D01*
X108941D01*
X109941Y30283D01*
X-52461Y100264D02*
X-51461Y101264D01*
X-50461D01*
X-51461Y102264D01*
X-50461Y103264D01*
X-51461D01*
X-52461Y104264D01*
X-53461Y103264D01*
X-54461D01*
X-53461Y102264D01*
X-54461Y101264D01*
X-53461D01*
X-52461Y100264D01*
X103445Y47213D02*
X104445Y48213D01*
X105445D01*
X104445Y49213D01*
X105445Y50213D01*
X104445D01*
X103445Y51213D01*
X102445Y50213D01*
X101445D01*
X102445Y49213D01*
X101445Y48213D01*
X102445D01*
X103445Y47213D01*
X105709Y49772D02*
X106709Y50772D01*
X107709D01*
X106709Y51772D01*
X107709Y52772D01*
X106709D01*
X105709Y53772D01*
X104709Y52772D01*
X103709D01*
X104709Y51772D01*
X103709Y50772D01*
X104709D01*
X105709Y49772D01*
X114272Y56169D02*
X115272Y57169D01*
X116272D01*
X115272Y58169D01*
X116272Y59169D01*
X115272D01*
X114272Y60169D01*
X113272Y59169D01*
X112272D01*
X113272Y58169D01*
X112272Y57169D01*
X113272D01*
X114272Y56169D01*
X80118Y61583D02*
X81118Y62583D01*
X82118D01*
X81118Y63583D01*
X82118Y64583D01*
X81118D01*
X80118Y65583D01*
X79118Y64583D01*
X78118D01*
X79118Y63583D01*
X78118Y62583D01*
X79118D01*
X80118Y61583D01*
X122638Y49968D02*
X123638Y50968D01*
X124638D01*
X123638Y51968D01*
X124638Y52969D01*
X123638D01*
X122638Y53969D01*
X121638Y52969D01*
X120638D01*
X121638Y51968D01*
X120638Y50968D01*
X121638D01*
X122638Y49968D01*
X124311Y47213D02*
X125311Y48213D01*
X126311D01*
X125311Y49213D01*
X126311Y50213D01*
X125311D01*
X124311Y51213D01*
X123311Y50213D01*
X122311D01*
X123311Y49213D01*
X122311Y48213D01*
X123311D01*
X124311Y47213D01*
X108366Y52134D02*
X109366Y53134D01*
X110366D01*
X109366Y54134D01*
X110366Y55134D01*
X109366D01*
X108366Y56134D01*
X107366Y55134D01*
X106366D01*
X107366Y54134D01*
X106366Y53134D01*
X107366D01*
X108366Y52134D01*
X125591Y53807D02*
X126591Y54807D01*
X127591D01*
X126591Y55807D01*
X127591Y56807D01*
X126591D01*
X125591Y57807D01*
X124591Y56807D01*
X123591D01*
X124591Y55807D01*
X123591Y54807D01*
X124591D01*
X125591Y53807D01*
X114469Y59319D02*
X115469Y60319D01*
X116469D01*
X115469Y61319D01*
X116469Y62319D01*
X115469D01*
X114469Y63319D01*
X113469Y62319D01*
X112469D01*
X113469Y61319D01*
X112469Y60319D01*
X113469D01*
X114469Y59319D01*
X124114Y60008D02*
X125114Y61008D01*
X126114D01*
X125114Y62008D01*
X126114Y63008D01*
X125114D01*
X124114Y64008D01*
X123114Y63008D01*
X122114D01*
X123114Y62008D01*
X122114Y61008D01*
X123114D01*
X124114Y60008D01*
X124311Y56760D02*
X125311Y57760D01*
X126311D01*
X125311Y58760D01*
X126311Y59760D01*
X125311D01*
X124311Y60760D01*
X123311Y59760D01*
X122311D01*
X123311Y58760D01*
X122311Y57760D01*
X123311D01*
X124311Y56760D01*
X100886Y53807D02*
X101886Y54807D01*
X102886D01*
X101886Y55807D01*
X102886Y56807D01*
X101886D01*
X100886Y57807D01*
X99886Y56807D01*
X98886D01*
X99886Y55807D01*
X98886Y54807D01*
X99886D01*
X100886Y53807D01*
X100787Y45047D02*
X101787Y46047D01*
X102787D01*
X101787Y47047D01*
X102787Y48047D01*
X101787D01*
X100787Y49047D01*
X99787Y48047D01*
X98787D01*
X99787Y47047D01*
X98787Y46047D01*
X99787D01*
X100787Y45047D01*
X83465Y52429D02*
X84465Y53429D01*
X85465D01*
X84465Y54429D01*
X85465Y55429D01*
X84465D01*
X83465Y56429D01*
X82465Y55429D01*
X81465D01*
X82465Y54429D01*
X81465Y53429D01*
X82465D01*
X83465Y52429D01*
X83268Y64142D02*
X84268Y65142D01*
X85268D01*
X84268Y66142D01*
X85268Y67142D01*
X84268D01*
X83268Y68142D01*
X82268Y67142D01*
X81268D01*
X82268Y66142D01*
X81268Y65142D01*
X82268D01*
X83268Y64142D01*
X83084Y82296D02*
X84084Y83296D01*
X85084D01*
X84084Y84296D01*
X85084Y85296D01*
X84084D01*
X83084Y86296D01*
X82085Y85296D01*
X81085D01*
X82085Y84296D01*
X81085Y83296D01*
X82085D01*
X83084Y82296D01*
X-52461Y111484D02*
X-51461Y112484D01*
X-50461D01*
X-51461Y113484D01*
X-50461Y114484D01*
X-51461D01*
X-52461Y115484D01*
X-53461Y114484D01*
X-54461D01*
X-53461Y113484D01*
X-54461Y112484D01*
X-53461D01*
X-52461Y111484D01*
X-38976Y155283D02*
X-37976Y156283D01*
X-36976D01*
X-37976Y157283D01*
X-36976Y158283D01*
X-37976D01*
X-38976Y159283D01*
X-39976Y158283D01*
X-40976D01*
X-39976Y157283D01*
X-40976Y156283D01*
X-39976D01*
X-38976Y155283D01*
X-4528Y94161D02*
X-3528Y95161D01*
X-2528D01*
X-3528Y96161D01*
X-2528Y97161D01*
X-3528D01*
X-4528Y98161D01*
X-5528Y97161D01*
X-6528D01*
X-5528Y96161D01*
X-6528Y95161D01*
X-5528D01*
X-4528Y94161D01*
X-4134Y85303D02*
X-3134Y86303D01*
X-2134D01*
X-3134Y87303D01*
X-2134Y88303D01*
X-3134D01*
X-4134Y89303D01*
X-5134Y88303D01*
X-6134D01*
X-5134Y87303D01*
X-6134Y86303D01*
X-5134D01*
X-4134Y85303D01*
X-3839Y82646D02*
X-2839Y83646D01*
X-1839D01*
X-2839Y84646D01*
X-1839Y85646D01*
X-2839D01*
X-3839Y86646D01*
X-4839Y85646D01*
X-5839D01*
X-4839Y84646D01*
X-5839Y83646D01*
X-4839D01*
X-3839Y82646D01*
X-1673Y94063D02*
X-673Y95063D01*
X327D01*
X-673Y96063D01*
X327Y97063D01*
X-673D01*
X-1673Y98063D01*
X-2673Y97063D01*
X-3673D01*
X-2673Y96063D01*
X-3673Y95063D01*
X-2673D01*
X-1673Y94063D01*
X-1575Y86681D02*
X-575Y87681D01*
X425D01*
X-575Y88681D01*
X425Y89681D01*
X-575D01*
X-1575Y90681D01*
X-2575Y89681D01*
X-3575D01*
X-2575Y88681D01*
X-3575Y87681D01*
X-2575D01*
X-1575Y86681D01*
X-48031Y84417D02*
X-47032Y85417D01*
X-46031D01*
X-47032Y86417D01*
X-46031Y87417D01*
X-47032D01*
X-48031Y88417D01*
X-49031Y87417D01*
X-50032D01*
X-49031Y86417D01*
X-50032Y85417D01*
X-49031D01*
X-48031Y84417D01*
X-54057Y95081D02*
X-53057Y96081D01*
X-52057D01*
X-53057Y97081D01*
X-52057Y98081D01*
X-53057D01*
X-54057Y99081D01*
X-55057Y98081D01*
X-56057D01*
X-55057Y97081D01*
X-56057Y96081D01*
X-55057D01*
X-54057Y95081D01*
X-45276Y84417D02*
X-44276Y85417D01*
X-43276D01*
X-44276Y86417D01*
X-43276Y87417D01*
X-44276D01*
X-45276Y88417D01*
X-46276Y87417D01*
X-47276D01*
X-46276Y86417D01*
X-47276Y85417D01*
X-46276D01*
X-45276Y84417D01*
X-102362Y64831D02*
X-101362Y65831D01*
X-100362D01*
X-101362Y66831D01*
X-100362Y67831D01*
X-101362D01*
X-102362Y68831D01*
X-103362Y67831D01*
X-104362D01*
X-103362Y66831D01*
X-104362Y65831D01*
X-103362D01*
X-102362Y64831D01*
X-102461Y67980D02*
X-101461Y68980D01*
X-100461D01*
X-101461Y69980D01*
X-100461Y70980D01*
X-101461D01*
X-102461Y71980D01*
X-103461Y70980D01*
X-104461D01*
X-103461Y69980D01*
X-104461Y68980D01*
X-103461D01*
X-102461Y67980D01*
X-102362Y72606D02*
X-101362Y73606D01*
X-100362D01*
X-101362Y74606D01*
X-100362Y75606D01*
X-101362D01*
X-102362Y76606D01*
X-103362Y75606D01*
X-104362D01*
X-103362Y74606D01*
X-104362Y73606D01*
X-103362D01*
X-102362Y72606D01*
X-95276Y74876D02*
X-94276Y75876D01*
X-93276D01*
X-94276Y76876D01*
X-93276Y77876D01*
X-94276D01*
X-95276Y78876D01*
X-96276Y77876D01*
X-97276D01*
X-96276Y76876D01*
X-97276Y75876D01*
X-96276D01*
X-95276Y74876D01*
X-94790Y83017D02*
X-93790Y84017D01*
X-92790D01*
X-93790Y85017D01*
X-92790Y86017D01*
X-93790D01*
X-94790Y87017D01*
X-95790Y86017D01*
X-96790D01*
X-95790Y85017D01*
X-96790Y84017D01*
X-95790D01*
X-94790Y83017D01*
X-116339Y97584D02*
X-115339Y98584D01*
X-114339D01*
X-115339Y99584D01*
X-114339Y100584D01*
X-115339D01*
X-116339Y101584D01*
X-117339Y100584D01*
X-118339D01*
X-117339Y99584D01*
X-118339Y98584D01*
X-117339D01*
X-116339Y97584D01*
X-122343Y99772D02*
X-121343Y100772D01*
X-120343D01*
X-121343Y101772D01*
X-120343Y102772D01*
X-121343D01*
X-122343Y103772D01*
X-123343Y102772D01*
X-124343D01*
X-123343Y101772D01*
X-124343Y100772D01*
X-123343D01*
X-122343Y99772D01*
X-121752Y94457D02*
X-120752Y95457D01*
X-119752D01*
X-120752Y96457D01*
X-119752Y97457D01*
X-120752D01*
X-121752Y98457D01*
X-122752Y97457D01*
X-123752D01*
X-122752Y96457D01*
X-123752Y95457D01*
X-122752D01*
X-121752Y94457D01*
X-95374Y57449D02*
X-94374Y58449D01*
X-93374D01*
X-94374Y59449D01*
X-93374Y60449D01*
X-94374D01*
X-95374Y61449D01*
X-96374Y60449D01*
X-97374D01*
X-96374Y59449D01*
X-97374Y58449D01*
X-96374D01*
X-95374Y57449D01*
X-104823Y52331D02*
X-103823Y53331D01*
X-102823D01*
X-103823Y54331D01*
X-102823Y55331D01*
X-103823D01*
X-104823Y56331D01*
X-105823Y55331D01*
X-106823D01*
X-105823Y54331D01*
X-106823Y53331D01*
X-105823D01*
X-104823Y52331D01*
X-87894Y52035D02*
X-86894Y53035D01*
X-85894D01*
X-86894Y54035D01*
X-85894Y55035D01*
X-86894D01*
X-87894Y56035D01*
X-88894Y55035D01*
X-89894D01*
X-88894Y54035D01*
X-89894Y53035D01*
X-88894D01*
X-87894Y52035D01*
X-62500Y149772D02*
X-61500Y150772D01*
X-60500D01*
X-61500Y151772D01*
X-60500Y152772D01*
X-61500D01*
X-62500Y153772D01*
X-63500Y152772D01*
X-64500D01*
X-63500Y151772D01*
X-64500Y150772D01*
X-63500D01*
X-62500Y149772D01*
X-46949Y146524D02*
X-45949Y147524D01*
X-44949D01*
X-45949Y148524D01*
X-44949Y149524D01*
X-45949D01*
X-46949Y150524D01*
X-47949Y149524D01*
X-48949D01*
X-47949Y148524D01*
X-48949Y147524D01*
X-47949D01*
X-46949Y146524D01*
X-59252Y128905D02*
X-58252Y129905D01*
X-57252D01*
X-58252Y130905D01*
X-57252Y131905D01*
X-58252D01*
X-59252Y132905D01*
X-60252Y131905D01*
X-61252D01*
X-60252Y130905D01*
X-61252Y129905D01*
X-60252D01*
X-59252Y128905D01*
X-59449Y124969D02*
X-58449Y125969D01*
X-57449D01*
X-58449Y126969D01*
X-57449Y127969D01*
X-58449D01*
X-59449Y128969D01*
X-60449Y127969D01*
X-61449D01*
X-60449Y126969D01*
X-61449Y125969D01*
X-60449D01*
X-59449Y124969D01*
X-47933Y113354D02*
X-46933Y114354D01*
X-45933D01*
X-46933Y115354D01*
X-45933Y116354D01*
X-46933D01*
X-47933Y117354D01*
X-48933Y116354D01*
X-49933D01*
X-48933Y115354D01*
X-49933Y114354D01*
X-48933D01*
X-47933Y113354D01*
X-41929Y112392D02*
X-40929Y113392D01*
X-39929D01*
X-40929Y114392D01*
X-39929Y115392D01*
X-40929D01*
X-41929Y116392D01*
X-42929Y115392D01*
X-43929D01*
X-42929Y114392D01*
X-43929Y113392D01*
X-42929D01*
X-41929Y112392D01*
X40157Y138453D02*
X41157Y139453D01*
X42158D01*
X41157Y140453D01*
X42158Y141453D01*
X41157D01*
X40157Y142453D01*
X39158Y141453D01*
X38157D01*
X39158Y140453D01*
X38157Y139453D01*
X39158D01*
X40157Y138453D01*
X53347D02*
X54347Y139453D01*
X55347D01*
X54347Y140453D01*
X55347Y141453D01*
X54347D01*
X53347Y142453D01*
X52346Y141453D01*
X51346D01*
X52346Y140453D01*
X51346Y139453D01*
X52346D01*
X53347Y138453D01*
X66535Y138748D02*
X67535Y139748D01*
X68535D01*
X67535Y140748D01*
X68535Y141748D01*
X67535D01*
X66535Y142748D01*
X65535Y141748D01*
X64535D01*
X65535Y140748D01*
X64535Y139748D01*
X65535D01*
X66535Y138748D01*
X79528Y138847D02*
X80528Y139847D01*
X81528D01*
X80528Y140847D01*
X81528Y141847D01*
X80528D01*
X79528Y142847D01*
X78528Y141847D01*
X77528D01*
X78528Y140847D01*
X77528Y139847D01*
X78528D01*
X79528Y138847D01*
X53248Y84122D02*
X54248Y85122D01*
X55248D01*
X54248Y86122D01*
X55248Y87122D01*
X54248D01*
X53248Y88122D01*
X52248Y87122D01*
X51248D01*
X52248Y86122D01*
X51248Y85122D01*
X52248D01*
X53248Y84122D01*
X46358Y93571D02*
X47358Y94571D01*
X48358D01*
X47358Y95571D01*
X48358Y96571D01*
X47358D01*
X46358Y97571D01*
X45358Y96571D01*
X44358D01*
X45358Y95571D01*
X44358Y94571D01*
X45358D01*
X46358Y93571D01*
X116831Y103610D02*
X117831Y104610D01*
X118831D01*
X117831Y105610D01*
X118831Y106610D01*
X117831D01*
X116831Y107610D01*
X115831Y106610D01*
X114831D01*
X115831Y105610D01*
X114831Y104610D01*
X115831D01*
X116831Y103610D01*
X122835Y87836D02*
X123835Y88836D01*
X124835D01*
X123835Y89836D01*
X124835Y90836D01*
X123835D01*
X122835Y91836D01*
X121835Y90836D01*
X120835D01*
X121835Y89836D01*
X120835Y88836D01*
X121835D01*
X122835Y87836D01*
X124609Y75264D02*
X125609Y76264D01*
X126609D01*
X125609Y77264D01*
X126609Y78264D01*
X125609D01*
X124609Y79264D01*
X123609Y78264D01*
X122609D01*
X123609Y77264D01*
X122609Y76264D01*
X123609D01*
X124609Y75264D01*
X70669Y50067D02*
X71669Y51067D01*
X72669D01*
X71669Y52067D01*
X72669Y53067D01*
X71669D01*
X70669Y54067D01*
X69669Y53067D01*
X68669D01*
X69669Y52067D01*
X68669Y51067D01*
X69669D01*
X70669Y50067D01*
X67126Y49870D02*
X68126Y50870D01*
X69126D01*
X68126Y51870D01*
X69126Y52870D01*
X68126D01*
X67126Y53870D01*
X66126Y52870D01*
X65126D01*
X66126Y51870D01*
X65126Y50870D01*
X66126D01*
X67126Y49870D01*
X77067Y78020D02*
X78067Y79020D01*
X79067D01*
X78067Y80020D01*
X79067Y81020D01*
X78067D01*
X77067Y82020D01*
X76067Y81020D01*
X75067D01*
X76067Y80020D01*
X75067Y79020D01*
X76067D01*
X77067Y78020D01*
X77559Y75461D02*
X78559Y76461D01*
X79559D01*
X78559Y77461D01*
X79559Y78461D01*
X78559D01*
X77559Y79461D01*
X76559Y78461D01*
X75559D01*
X76559Y77461D01*
X75559Y76461D01*
X76559D01*
X77559Y75461D01*
X87205Y29299D02*
X88205Y30299D01*
X89205D01*
X88205Y31299D01*
X89205Y32299D01*
X88205D01*
X87205Y33299D01*
X86205Y32299D01*
X85205D01*
X86205Y31299D01*
X85205Y30299D01*
X86205D01*
X87205Y29299D01*
X91043Y29496D02*
X92043Y30496D01*
X93043D01*
X92043Y31496D01*
X93043Y32496D01*
X92043D01*
X91043Y33496D01*
X90043Y32496D01*
X89043D01*
X90043Y31496D01*
X89043Y30496D01*
X90043D01*
X91043Y29496D01*
X88878Y25953D02*
X89878Y26953D01*
X90878D01*
X89878Y27953D01*
X90878Y28953D01*
X89878D01*
X88878Y29953D01*
X87878Y28953D01*
X86878D01*
X87878Y27953D01*
X86878Y26953D01*
X87878D01*
X88878Y25953D01*
X105512Y21721D02*
X106512Y22720D01*
X107512D01*
X106512Y23720D01*
X107512Y24721D01*
X106512D01*
X105512Y25721D01*
X104512Y24721D01*
X103512D01*
X104512Y23720D01*
X103512Y22720D01*
X104512D01*
X105512Y21721D01*
X136024Y35402D02*
X137024Y36402D01*
X138024D01*
X137024Y37402D01*
X138024Y38402D01*
X137024D01*
X136024Y39402D01*
X135024Y38402D01*
X134024D01*
X135024Y37402D01*
X134024Y36402D01*
X135024D01*
X136024Y35402D01*
X128543Y35303D02*
X129543Y36303D01*
X130543D01*
X129543Y37303D01*
X130543Y38303D01*
X129543D01*
X128543Y39303D01*
X127543Y38303D01*
X126543D01*
X127543Y37303D01*
X126543Y36303D01*
X127543D01*
X128543Y35303D01*
X-114862Y12370D02*
X-113862Y13370D01*
X-112862D01*
X-113862Y14370D01*
X-112862Y15370D01*
X-113862D01*
X-114862Y16370D01*
X-115862Y15370D01*
X-116862D01*
X-115862Y14370D01*
X-116862Y13370D01*
X-115862D01*
X-114862Y12370D01*
X-103248Y12272D02*
X-102248Y13272D01*
X-101248D01*
X-102248Y14272D01*
X-101248Y15272D01*
X-102248D01*
X-103248Y16272D01*
X-104248Y15272D01*
X-105248D01*
X-104248Y14272D01*
X-105248Y13272D01*
X-104248D01*
X-103248Y12272D01*
X-115059Y6465D02*
X-114059Y7465D01*
X-113059D01*
X-114059Y8465D01*
X-113059Y9465D01*
X-114059D01*
X-115059Y10465D01*
X-116059Y9465D01*
X-117059D01*
X-116059Y8465D01*
X-117059Y7465D01*
X-116059D01*
X-115059Y6465D01*
X-103543Y6071D02*
X-102543Y7071D01*
X-101543D01*
X-102543Y8071D01*
X-101543Y9071D01*
X-102543D01*
X-103543Y10071D01*
X-104543Y9071D01*
X-105543D01*
X-104543Y8071D01*
X-105543Y7071D01*
X-104543D01*
X-103543Y6071D01*
X-108563Y11976D02*
X-107563Y12976D01*
X-106563D01*
X-107563Y13976D01*
X-106563Y14976D01*
X-107563D01*
X-108563Y15976D01*
X-109563Y14976D01*
X-110563D01*
X-109563Y13976D01*
X-110563Y12976D01*
X-109563D01*
X-108563Y11976D01*
X-107972Y6169D02*
X-106972Y7169D01*
X-105972D01*
X-106972Y8169D01*
X-105972Y9169D01*
X-106972D01*
X-107972Y10169D01*
X-108972Y9169D01*
X-109972D01*
X-108972Y8169D01*
X-109972Y7169D01*
X-108972D01*
X-107972Y6169D01*
X17599Y230382D02*
X18599Y231382D01*
X19599D01*
X18599Y232382D01*
X19599Y233382D01*
X18599D01*
X17599Y234382D01*
X16599Y233382D01*
X15599D01*
X16599Y232382D01*
X15599Y231382D01*
X16599D01*
X17599Y230382D01*
X21850Y229890D02*
X22850Y230890D01*
X23850D01*
X22850Y231890D01*
X23850Y232890D01*
X22850D01*
X21850Y233890D01*
X20850Y232890D01*
X19850D01*
X20850Y231890D01*
X19850Y230890D01*
X20850D01*
X21850Y229890D01*
X-16339Y232842D02*
X-15339Y233842D01*
X-14339D01*
X-15339Y234842D01*
X-14339Y235842D01*
X-15339D01*
X-16339Y236842D01*
X-17339Y235842D01*
X-18339D01*
X-17339Y234842D01*
X-18339Y233842D01*
X-17339D01*
X-16339Y232842D01*
X-16437Y228709D02*
X-15437Y229709D01*
X-14437D01*
X-15437Y230709D01*
X-14437Y231709D01*
X-15437D01*
X-16437Y232709D01*
X-17437Y231709D01*
X-18437D01*
X-17437Y230709D01*
X-18437Y229709D01*
X-17437D01*
X-16437Y228709D01*
X15059Y149673D02*
X16059Y150673D01*
X17059D01*
X16059Y151673D01*
X17059Y152673D01*
X16059D01*
X15059Y153673D01*
X14059Y152673D01*
X13059D01*
X14059Y151673D01*
X13059Y150673D01*
X14059D01*
X15059Y149673D01*
X12992Y144161D02*
X13992Y145161D01*
X14992D01*
X13992Y146161D01*
X14992Y147161D01*
X13992D01*
X12992Y148161D01*
X11992Y147161D01*
X10992D01*
X11992Y146161D01*
X10992Y145161D01*
X11992D01*
X12992Y144161D01*
X-1673Y144260D02*
X-673Y145260D01*
X327D01*
X-673Y146260D01*
X327Y147260D01*
X-673D01*
X-1673Y148260D01*
X-2673Y147260D01*
X-3673D01*
X-2673Y146260D01*
X-3673Y145260D01*
X-2673D01*
X-1673Y144260D01*
X-3543Y141701D02*
X-2543Y142701D01*
X-1543D01*
X-2543Y143701D01*
X-1543Y144701D01*
X-2543D01*
X-3543Y145701D01*
X-4543Y144701D01*
X-5543D01*
X-4543Y143701D01*
X-5543Y142701D01*
X-4543D01*
X-3543Y141701D01*
X10434Y146137D02*
X11434Y147137D01*
X12434D01*
X11434Y148137D01*
X12434Y149137D01*
X11434D01*
X10434Y150137D01*
X9434Y149137D01*
X8434D01*
X9434Y148137D01*
X8434Y147137D01*
X9434D01*
X10434Y146137D01*
X10433Y139929D02*
X11433Y140929D01*
X12433D01*
X11433Y141929D01*
X12433Y142929D01*
X11433D01*
X10433Y143929D01*
X9433Y142929D01*
X8433D01*
X9433Y141929D01*
X8433Y140929D01*
X9433D01*
X10433Y139929D01*
X-5118Y138945D02*
X-4118Y139945D01*
X-3118D01*
X-4118Y140945D01*
X-3118Y141945D01*
X-4118D01*
X-5118Y142945D01*
X-6118Y141945D01*
X-7118D01*
X-6118Y140945D01*
X-7118Y139945D01*
X-6118D01*
X-5118Y138945D01*
X-37795Y111681D02*
X-36795Y112681D01*
X-35795D01*
X-36795Y113681D01*
X-35795Y114681D01*
X-36795D01*
X-37795Y115681D01*
X-38795Y114681D01*
X-39795D01*
X-38795Y113681D01*
X-39795Y112681D01*
X-38795D01*
X-37795Y111681D01*
Y101937D02*
X-36795Y102937D01*
X-35795D01*
X-36795Y103937D01*
X-35795Y104937D01*
X-36795D01*
X-37795Y105937D01*
X-38795Y104937D01*
X-39795D01*
X-38795Y103937D01*
X-39795Y102937D01*
X-38795D01*
X-37795Y101937D01*
X96850Y105874D02*
X97850Y106874D01*
X98850D01*
X97850Y107874D01*
X98850Y108874D01*
X97850D01*
X96850Y109874D01*
X95850Y108874D01*
X94850D01*
X95850Y107874D01*
X94850Y106874D01*
X95850D01*
X96850Y105874D01*
X28543Y106957D02*
X29543Y107957D01*
X30543D01*
X29543Y108957D01*
X30543Y109957D01*
X29543D01*
X28543Y110957D01*
X27543Y109957D01*
X26543D01*
X27543Y108957D01*
X26543Y107957D01*
X27543D01*
X28543Y106957D01*
X25000Y106858D02*
X26000Y107858D01*
X27000D01*
X26000Y108858D01*
X27000Y109858D01*
X26000D01*
X25000Y110858D01*
X24000Y109858D01*
X23000D01*
X24000Y108858D01*
X23000Y107858D01*
X24000D01*
X25000Y106858D01*
X25197Y110697D02*
X26197Y111697D01*
X27197D01*
X26197Y112697D01*
X27197Y113697D01*
X26197D01*
X25197Y114697D01*
X24197Y113697D01*
X23197D01*
X24197Y112697D01*
X23197Y111697D01*
X24197D01*
X25197Y110697D01*
X21752Y111386D02*
X22752Y112386D01*
X23752D01*
X22752Y113386D01*
X23752Y114386D01*
X22752D01*
X21752Y115386D01*
X20752Y114386D01*
X19752D01*
X20752Y113386D01*
X19752Y112386D01*
X20752D01*
X21752Y111386D01*
X-3642Y202035D02*
X-2642Y203035D01*
X-1642D01*
X-2642Y204035D01*
X-1642Y205035D01*
X-2642D01*
X-3642Y206035D01*
X-4642Y205035D01*
X-5642D01*
X-4642Y204035D01*
X-5642Y203035D01*
X-4642D01*
X-3642Y202035D01*
X-5906Y199673D02*
X-4905Y200673D01*
X-3906D01*
X-4905Y201673D01*
X-3906Y202673D01*
X-4905D01*
X-5906Y203673D01*
X-6905Y202673D01*
X-7905D01*
X-6905Y201673D01*
X-7905Y200673D01*
X-6905D01*
X-5906Y199673D01*
X-197Y223098D02*
X803Y224098D01*
X1803D01*
X803Y225098D01*
X1803Y226098D01*
X803D01*
X-197Y227098D01*
X-1197Y226098D01*
X-2197D01*
X-1197Y225098D01*
X-2197Y224098D01*
X-1197D01*
X-197Y223098D01*
X-3642Y225559D02*
X-2642Y226559D01*
X-1642D01*
X-2642Y227559D01*
X-1642Y228559D01*
X-2642D01*
X-3642Y229559D01*
X-4642Y228559D01*
X-5642D01*
X-4642Y227559D01*
X-5642Y226559D01*
X-4642D01*
X-3642Y225559D01*
X26378Y92291D02*
X27378Y93291D01*
X28378D01*
X27378Y94291D01*
X28378Y95291D01*
X27378D01*
X26378Y96291D01*
X25378Y95291D01*
X24378D01*
X25378Y94291D01*
X24378Y93291D01*
X25378D01*
X26378Y92291D01*
X-29724Y79594D02*
X-28724Y80594D01*
X-27724D01*
X-28724Y81595D01*
X-27724Y82595D01*
X-28724D01*
X-29724Y83595D01*
X-30724Y82595D01*
X-31724D01*
X-30724Y81595D01*
X-31724Y80594D01*
X-30724D01*
X-29724Y79594D01*
X-31004Y105087D02*
X-30004Y106087D01*
X-29004D01*
X-30004Y107087D01*
X-29004Y108087D01*
X-30004D01*
X-31004Y109087D01*
X-32004Y108087D01*
X-33004D01*
X-32004Y107087D01*
X-33004Y106087D01*
X-32004D01*
X-31004Y105087D01*
X-41732Y101740D02*
X-40732Y102740D01*
X-39732D01*
X-40732Y103740D01*
X-39732Y104740D01*
X-40732D01*
X-41732Y105740D01*
X-42732Y104740D01*
X-43732D01*
X-42732Y103740D01*
X-43732Y102740D01*
X-42732D01*
X-41732Y101740D01*
X-43996Y38059D02*
X-42996Y39059D01*
X-41996D01*
X-42996Y40059D01*
X-41996Y41059D01*
X-42996D01*
X-43996Y42059D01*
X-44996Y41059D01*
X-45996D01*
X-44996Y40059D01*
X-45996Y39059D01*
X-44996D01*
X-43996Y38059D01*
X-46260D02*
X-45260Y39059D01*
X-44260D01*
X-45260Y40059D01*
X-44260Y41059D01*
X-45260D01*
X-46260Y42059D01*
X-47260Y41059D01*
X-48260D01*
X-47260Y40059D01*
X-48260Y39059D01*
X-47260D01*
X-46260Y38059D01*
X-43898Y35106D02*
X-42898Y36106D01*
X-41898D01*
X-42898Y37106D01*
X-41898Y38106D01*
X-42898D01*
X-43898Y39106D01*
X-44898Y38106D01*
X-45898D01*
X-44898Y37106D01*
X-45898Y36106D01*
X-44898D01*
X-43898Y35106D01*
X-48524Y38059D02*
X-47524Y39059D01*
X-46524D01*
X-47524Y40059D01*
X-46524Y41059D01*
X-47524D01*
X-48524Y42059D01*
X-49524Y41059D01*
X-50524D01*
X-49524Y40059D01*
X-50524Y39059D01*
X-49524D01*
X-48524Y38059D01*
X-46260Y35106D02*
X-45260Y36106D01*
X-44260D01*
X-45260Y37106D01*
X-44260Y38106D01*
X-45260D01*
X-46260Y39106D01*
X-47260Y38106D01*
X-48260D01*
X-47260Y37106D01*
X-48260Y36106D01*
X-47260D01*
X-46260Y35106D01*
X-48622D02*
X-47622Y36106D01*
X-46622D01*
X-47622Y37106D01*
X-46622Y38106D01*
X-47622D01*
X-48622Y39106D01*
X-49622Y38106D01*
X-50622D01*
X-49622Y37106D01*
X-50622Y36106D01*
X-49622D01*
X-48622Y35106D01*
X-41437D02*
X-40437Y36106D01*
X-39437D01*
X-40437Y37106D01*
X-39437Y38106D01*
X-40437D01*
X-41437Y39106D01*
X-42437Y38106D01*
X-43437D01*
X-42437Y37106D01*
X-43437Y36106D01*
X-42437D01*
X-41437Y35106D01*
X-39075D02*
X-38075Y36106D01*
X-37075D01*
X-38075Y37106D01*
X-37075Y38106D01*
X-38075D01*
X-39075Y39106D01*
X-40075Y38106D01*
X-41075D01*
X-40075Y37106D01*
X-41075Y36106D01*
X-40075D01*
X-39075Y35106D01*
X-41339Y38059D02*
X-40339Y39059D01*
X-39339D01*
X-40339Y40059D01*
X-39339Y41059D01*
X-40339D01*
X-41339Y42059D01*
X-42339Y41059D01*
X-43339D01*
X-42339Y40059D01*
X-43339Y39059D01*
X-42339D01*
X-41339Y38059D01*
X-39075D02*
X-38075Y39059D01*
X-37075D01*
X-38075Y40059D01*
X-37075Y41059D01*
X-38075D01*
X-39075Y42059D01*
X-40075Y41059D01*
X-41075D01*
X-40075Y40059D01*
X-41075Y39059D01*
X-40075D01*
X-39075Y38059D01*
X-38976Y141405D02*
X-37976Y142405D01*
X-36976D01*
X-37976Y143405D01*
X-36976Y144405D01*
X-37976D01*
X-38976Y145405D01*
X-39976Y144405D01*
X-40976D01*
X-39976Y143405D01*
X-40976Y142405D01*
X-39976D01*
X-38976Y141405D01*
X96949Y87961D02*
X97949Y88961D01*
X98949D01*
X97949Y89961D01*
X98949Y90961D01*
X97949D01*
X96949Y91961D01*
X95949Y90961D01*
X94949D01*
X95949Y89961D01*
X94949Y88961D01*
X95949D01*
X96949Y87961D01*
Y93079D02*
X97949Y94079D01*
X98949D01*
X97949Y95079D01*
X98949Y96079D01*
X97949D01*
X96949Y97079D01*
X95949Y96079D01*
X94949D01*
X95949Y95079D01*
X94949Y94079D01*
X95949D01*
X96949Y93079D01*
X96850Y112961D02*
X97850Y113961D01*
X98850D01*
X97850Y114961D01*
X98850Y115961D01*
X97850D01*
X96850Y116961D01*
X95850Y115961D01*
X94850D01*
X95850Y114961D01*
X94850Y113961D01*
X95850D01*
X96850Y112961D01*
X99508Y95933D02*
X100508Y96933D01*
X101508D01*
X100508Y97933D01*
X101508Y98933D01*
X100508D01*
X99508Y99933D01*
X98508Y98933D01*
X97508D01*
X98508Y97933D01*
X97508Y96933D01*
X98508D01*
X99508Y95933D01*
X99410Y85205D02*
X100409Y86205D01*
X101409D01*
X100409Y87205D01*
X101409Y88205D01*
X100409D01*
X99410Y89205D01*
X98409Y88205D01*
X97409D01*
X98409Y87205D01*
X97409Y86205D01*
X98409D01*
X99410Y85205D01*
X13681Y202823D02*
X14681Y203823D01*
X15681D01*
X14681Y204823D01*
X15681Y205823D01*
X14681D01*
X13681Y206823D01*
X12681Y205823D01*
X11681D01*
X12681Y204823D01*
X11681Y203823D01*
X12681D01*
X13681Y202823D01*
X15748Y204201D02*
X16748Y205201D01*
X17748D01*
X16748Y206201D01*
X17748Y207201D01*
X16748D01*
X15748Y208201D01*
X14748Y207201D01*
X13748D01*
X14748Y206201D01*
X13748Y205201D01*
X14748D01*
X15748Y204201D01*
X17323Y206071D02*
X18323Y207071D01*
X19323D01*
X18323Y208071D01*
X19323Y209071D01*
X18323D01*
X17323Y210071D01*
X16323Y209071D01*
X15323D01*
X16323Y208071D01*
X15323Y207071D01*
X16323D01*
X17323Y206071D01*
X19094Y203413D02*
X20095Y204413D01*
X21094D01*
X20095Y205413D01*
X21094Y206413D01*
X20095D01*
X19094Y207413D01*
X18094Y206413D01*
X17095D01*
X18094Y205413D01*
X17095Y204413D01*
X18094D01*
X19094Y203413D01*
X17028Y201839D02*
X18028Y202839D01*
X19028D01*
X18028Y203839D01*
X19028Y204839D01*
X18028D01*
X17028Y205839D01*
X16028Y204839D01*
X15028D01*
X16028Y203839D01*
X15028Y202839D01*
X16028D01*
X17028Y201839D01*
X13287Y200461D02*
X14287Y201461D01*
X15287D01*
X14287Y202461D01*
X15287Y203461D01*
X14287D01*
X13287Y204461D01*
X12287Y203461D01*
X11287D01*
X12287Y202461D01*
X11287Y201461D01*
X12287D01*
X13287Y200461D01*
X12894Y212961D02*
X13894Y213961D01*
X14894D01*
X13894Y214961D01*
X14894Y215961D01*
X13894D01*
X12894Y216961D01*
X11894Y215961D01*
X10894D01*
X11894Y214961D01*
X10894Y213961D01*
X11894D01*
X12894Y212961D01*
X15453Y212075D02*
X16453Y213075D01*
X17453D01*
X16453Y214075D01*
X17453Y215075D01*
X16453D01*
X15453Y216075D01*
X14453Y215075D01*
X13453D01*
X14453Y214075D01*
X13453Y213075D01*
X14453D01*
X15453Y212075D01*
X16142Y208630D02*
X17142Y209630D01*
X18142D01*
X17142Y210630D01*
X18142Y211630D01*
X17142D01*
X16142Y212630D01*
X15142Y211630D01*
X14142D01*
X15142Y210630D01*
X14142Y209630D01*
X15142D01*
X16142Y208630D01*
X-58071Y152823D02*
X-57071Y153823D01*
X-56071D01*
X-57071Y154823D01*
X-56071Y155823D01*
X-57071D01*
X-58071Y156823D01*
X-59071Y155823D01*
X-60071D01*
X-59071Y154823D01*
X-60071Y153823D01*
X-59071D01*
X-58071Y152823D01*
X-59646Y149870D02*
X-58646Y150870D01*
X-57646D01*
X-58646Y151870D01*
X-57646Y152870D01*
X-58646D01*
X-59646Y153870D01*
X-60646Y152870D01*
X-61646D01*
X-60646Y151870D01*
X-61646Y150870D01*
X-60646D01*
X-59646Y149870D01*
X-66437Y155480D02*
X-65437Y156480D01*
X-64437D01*
X-65437Y157480D01*
X-64437Y158480D01*
X-65437D01*
X-66437Y159480D01*
X-67437Y158480D01*
X-68437D01*
X-67437Y157480D01*
X-68437Y156480D01*
X-67437D01*
X-66437Y155480D01*
X-66831Y152232D02*
X-65831Y153232D01*
X-64831D01*
X-65831Y154232D01*
X-64831Y155232D01*
X-65831D01*
X-66831Y156232D01*
X-67831Y155232D01*
X-68831D01*
X-67831Y154232D01*
X-68831Y153232D01*
X-67831D01*
X-66831Y152232D01*
X-65453Y149870D02*
X-64453Y150870D01*
X-63453D01*
X-64453Y151870D01*
X-63453Y152870D01*
X-64453D01*
X-65453Y153870D01*
X-66453Y152870D01*
X-67453D01*
X-66453Y151870D01*
X-67453Y150870D01*
X-66453D01*
X-65453Y149870D01*
X-37992Y81858D02*
X-36992Y82858D01*
X-35992D01*
X-36992Y83858D01*
X-35992Y84858D01*
X-36992D01*
X-37992Y85858D01*
X-38992Y84858D01*
X-39992D01*
X-38992Y83858D01*
X-39992Y82858D01*
X-38992D01*
X-37992Y81858D01*
X-48819Y81760D02*
X-47819Y82760D01*
X-46819D01*
X-47819Y83760D01*
X-46819Y84760D01*
X-47819D01*
X-48819Y85760D01*
X-49819Y84760D01*
X-50819D01*
X-49819Y83760D01*
X-50819Y82760D01*
X-49819D01*
X-48819Y81760D01*
X-1575Y90421D02*
X-575Y91421D01*
X425D01*
X-575Y92421D01*
X425Y93421D01*
X-575D01*
X-1575Y94421D01*
X-2575Y93421D01*
X-3575D01*
X-2575Y92421D01*
X-3575Y91421D01*
X-2575D01*
X-1575Y90421D01*
X-6594Y92094D02*
X-5595Y93094D01*
X-4594D01*
X-5595Y94095D01*
X-4594Y95095D01*
X-5595D01*
X-6594Y96095D01*
X-7594Y95095D01*
X-8595D01*
X-7594Y94095D01*
X-8595Y93094D01*
X-7594D01*
X-6594Y92094D01*
X-6693Y89732D02*
X-5693Y90732D01*
X-4693D01*
X-5693Y91732D01*
X-4693Y92732D01*
X-5693D01*
X-6693Y93732D01*
X-7693Y92732D01*
X-8693D01*
X-7693Y91732D01*
X-8693Y90732D01*
X-7693D01*
X-6693Y89732D01*
X-6299Y86681D02*
X-5299Y87681D01*
X-4299D01*
X-5299Y88681D01*
X-4299Y89681D01*
X-5299D01*
X-6299Y90681D01*
X-7299Y89681D01*
X-8299D01*
X-7299Y88681D01*
X-8299Y87681D01*
X-7299D01*
X-6299Y86681D01*
X-6102Y84024D02*
X-5102Y85024D01*
X-4102D01*
X-5102Y86024D01*
X-4102Y87024D01*
X-5102D01*
X-6102Y88024D01*
X-7102Y87024D01*
X-8102D01*
X-7102Y86024D01*
X-8102Y85024D01*
X-7102D01*
X-6102Y84024D01*
X-99902Y91701D02*
X-98902Y92701D01*
X-97902D01*
X-98902Y93701D01*
X-97902Y94701D01*
X-98902D01*
X-99902Y95701D01*
X-100902Y94701D01*
X-101902D01*
X-100902Y93701D01*
X-101902Y92701D01*
X-100902D01*
X-99902Y91701D01*
X-99213Y94752D02*
X-98213Y95752D01*
X-97213D01*
X-98213Y96752D01*
X-97213Y97752D01*
X-98213D01*
X-99213Y98752D01*
X-100213Y97752D01*
X-101213D01*
X-100213Y96752D01*
X-101213Y95752D01*
X-100213D01*
X-99213Y94752D01*
X-103937Y90421D02*
X-102937Y91421D01*
X-101937D01*
X-102937Y92421D01*
X-101937Y93421D01*
X-102937D01*
X-103937Y94421D01*
X-104937Y93421D01*
X-105937D01*
X-104937Y92421D01*
X-105937Y91421D01*
X-104937D01*
X-103937Y90421D01*
X-118701Y102921D02*
X-117701Y103921D01*
X-116701D01*
X-117701Y104921D01*
X-116701Y105921D01*
X-117701D01*
X-118701Y106921D01*
X-119701Y105921D01*
X-120701D01*
X-119701Y104921D01*
X-120701Y103921D01*
X-119701D01*
X-118701Y102921D01*
X-115748Y102724D02*
X-114748Y103724D01*
X-113748D01*
X-114748Y104724D01*
X-113748Y105724D01*
X-114748D01*
X-115748Y106724D01*
X-116748Y105724D01*
X-117748D01*
X-116748Y104724D01*
X-117748Y103724D01*
X-116748D01*
X-115748Y102724D01*
X135039Y80972D02*
X136039Y81972D01*
X137039D01*
X136039Y82972D01*
X137039Y83972D01*
X136039D01*
X135039Y84972D01*
X134039Y83972D01*
X133039D01*
X134039Y82972D01*
X133039Y81972D01*
X134039D01*
X135039Y80972D01*
X132185Y93866D02*
X133185Y94866D01*
X134185D01*
X133185Y95866D01*
X134185Y96866D01*
X133185D01*
X132185Y97866D01*
X131185Y96866D01*
X130185D01*
X131185Y95866D01*
X130185Y94866D01*
X131185D01*
X132185Y93866D01*
X138976Y99279D02*
X139976Y100279D01*
X140976D01*
X139976Y101279D01*
X140976Y102279D01*
X139976D01*
X138976Y103279D01*
X137976Y102279D01*
X136976D01*
X137976Y101279D01*
X136976Y100279D01*
X137976D01*
X138976Y99279D01*
X136516Y91701D02*
X137516Y92701D01*
X138516D01*
X137516Y93701D01*
X138516Y94701D01*
X137516D01*
X136516Y95701D01*
X135516Y94701D01*
X134516D01*
X135516Y93701D01*
X134516Y92701D01*
X135516D01*
X136516Y91701D01*
X131398Y99378D02*
X132398Y100378D01*
X133398D01*
X132398Y101378D01*
X133398Y102378D01*
X132398D01*
X131398Y103378D01*
X130398Y102378D01*
X129398D01*
X130398Y101378D01*
X129398Y100378D01*
X130398D01*
X131398Y99378D01*
X101575Y124969D02*
X102575Y125969D01*
X103575D01*
X102575Y126969D01*
X103575Y127969D01*
X102575D01*
X101575Y128969D01*
X100575Y127969D01*
X99575D01*
X100575Y126969D01*
X99575Y125969D01*
X100575D01*
X101575Y124969D01*
X99016Y132055D02*
X100016Y133055D01*
X101016D01*
X100016Y134055D01*
X101016Y135055D01*
X100016D01*
X99016Y136055D01*
X98016Y135055D01*
X97016D01*
X98016Y134055D01*
X97016Y133055D01*
X98016D01*
X99016Y132055D01*
X105905Y137862D02*
X106905Y138862D01*
X107905D01*
X106905Y139862D01*
X107905Y140862D01*
X106905D01*
X105905Y141862D01*
X104905Y140862D01*
X103905D01*
X104905Y139862D01*
X103905Y138862D01*
X104905D01*
X105905Y137862D01*
X107677Y127232D02*
X108677Y128232D01*
X109677D01*
X108677Y129232D01*
X109677Y130232D01*
X108677D01*
X107677Y131232D01*
X106677Y130232D01*
X105677D01*
X106677Y129232D01*
X105677Y128232D01*
X106677D01*
X107677Y127232D01*
X94784Y126150D02*
X95784Y127150D01*
X96784D01*
X95784Y128150D01*
X96784Y129150D01*
X95784D01*
X94784Y130150D01*
X93783Y129150D01*
X92783D01*
X93783Y128150D01*
X92783Y127150D01*
X93783D01*
X94784Y126150D01*
X95965Y137961D02*
X96965Y138961D01*
X97965D01*
X96965Y139961D01*
X97965Y140961D01*
X96965D01*
X95965Y141961D01*
X94965Y140961D01*
X93965D01*
X94965Y139961D01*
X93965Y138961D01*
X94965D01*
X95965Y137961D01*
X-13386Y214732D02*
X-12386Y215732D01*
X-11386D01*
X-12386Y216732D01*
X-11386Y217732D01*
X-12386D01*
X-13386Y218732D01*
X-14386Y217732D01*
X-15386D01*
X-14386Y216732D01*
X-15386Y215732D01*
X-14386D01*
X-13386Y214732D01*
X-13484Y211779D02*
X-12484Y212779D01*
X-11484D01*
X-12484Y213779D01*
X-11484Y214779D01*
X-12484D01*
X-13484Y215779D01*
X-14484Y214779D01*
X-15484D01*
X-14484Y213779D01*
X-15484Y212779D01*
X-14484D01*
X-13484Y211779D01*
Y209417D02*
X-12484Y210417D01*
X-11484D01*
X-12484Y211417D01*
X-11484Y212417D01*
X-12484D01*
X-13484Y213417D01*
X-14484Y212417D01*
X-15484D01*
X-14484Y211417D01*
X-15484Y210417D01*
X-14484D01*
X-13484Y209417D01*
X-13583Y206465D02*
X-12583Y207465D01*
X-11583D01*
X-12583Y208465D01*
X-11583Y209465D01*
X-12583D01*
X-13583Y210465D01*
X-14583Y209465D01*
X-15583D01*
X-14583Y208465D01*
X-15583Y207465D01*
X-14583D01*
X-13583Y206465D01*
X-12992Y202429D02*
X-11992Y203429D01*
X-10992D01*
X-11992Y204429D01*
X-10992Y205429D01*
X-11992D01*
X-12992Y206429D01*
X-13992Y205429D01*
X-14992D01*
X-13992Y204429D01*
X-14992Y203429D01*
X-13992D01*
X-12992Y202429D01*
X-10039Y201740D02*
X-9039Y202740D01*
X-8039D01*
X-9039Y203740D01*
X-8039Y204740D01*
X-9039D01*
X-10039Y205740D01*
X-11039Y204740D01*
X-12039D01*
X-11039Y203740D01*
X-12039Y202740D01*
X-11039D01*
X-10039Y201740D01*
X-12795Y228413D02*
X-11795Y229413D01*
X-10795D01*
X-11795Y230413D01*
X-10795Y231413D01*
X-11795D01*
X-12795Y232413D01*
X-13795Y231413D01*
X-14795D01*
X-13795Y230413D01*
X-14795Y229413D01*
X-13795D01*
X-12795Y228413D01*
X-12894Y232252D02*
X-11894Y233252D01*
X-10894D01*
X-11894Y234252D01*
X-10894Y235252D01*
X-11894D01*
X-12894Y236252D01*
X-13894Y235252D01*
X-14894D01*
X-13894Y234252D01*
X-14894Y233252D01*
X-13894D01*
X-12894Y232252D01*
X-9055Y231366D02*
X-8055Y232366D01*
X-7055D01*
X-8055Y233366D01*
X-7055Y234366D01*
X-8055D01*
X-9055Y235366D01*
X-10055Y234366D01*
X-11055D01*
X-10055Y233366D01*
X-11055Y232366D01*
X-10055D01*
X-9055Y231366D01*
X-9154Y228217D02*
X-8153Y229217D01*
X-7153D01*
X-8153Y230217D01*
X-7153Y231217D01*
X-8153D01*
X-9154Y232217D01*
X-10153Y231217D01*
X-11153D01*
X-10153Y230217D01*
X-11153Y229217D01*
X-10153D01*
X-9154Y228217D01*
X-7579Y224575D02*
X-6579Y225575D01*
X-5579D01*
X-6579Y226575D01*
X-5579Y227575D01*
X-6579D01*
X-7579Y228575D01*
X-8579Y227575D01*
X-9579D01*
X-8579Y226575D01*
X-9579Y225575D01*
X-8579D01*
X-7579Y224575D01*
X-5906Y230283D02*
X-4905Y231283D01*
X-3906D01*
X-4905Y232283D01*
X-3906Y233283D01*
X-4905D01*
X-5906Y234283D01*
X-6905Y233283D01*
X-7905D01*
X-6905Y232283D01*
X-7905Y231283D01*
X-6905D01*
X-5906Y230283D01*
X-6791Y234122D02*
X-5791Y235122D01*
X-4791D01*
X-5791Y236122D01*
X-4791Y237122D01*
X-5791D01*
X-6791Y238122D01*
X-7791Y237122D01*
X-8791D01*
X-7791Y236122D01*
X-8791Y235122D01*
X-7791D01*
X-6791Y234122D01*
X-10630Y235402D02*
X-9630Y236402D01*
X-8630D01*
X-9630Y237402D01*
X-8630Y238402D01*
X-9630D01*
X-10630Y239402D01*
X-11630Y238402D01*
X-12630D01*
X-11630Y237402D01*
X-12630Y236402D01*
X-11630D01*
X-10630Y235402D01*
X75886Y102724D02*
X76886Y103724D01*
X77886D01*
X76886Y104724D01*
X77886Y105724D01*
X76886D01*
X75886Y106724D01*
X74886Y105724D01*
X73886D01*
X74886Y104724D01*
X73886Y103724D01*
X74886D01*
X75886Y102724D01*
X78051Y100559D02*
X79051Y101559D01*
X80051D01*
X79051Y102559D01*
X80051Y103559D01*
X79051D01*
X78051Y104559D01*
X77051Y103559D01*
X76051D01*
X77051Y102559D01*
X76051Y101559D01*
X77051D01*
X78051Y100559D01*
X78445Y90323D02*
X79445Y91323D01*
X80445D01*
X79445Y92323D01*
X80445Y93323D01*
X79445D01*
X78445Y94323D01*
X77445Y93323D01*
X76445D01*
X77445Y92323D01*
X76445Y91323D01*
X77445D01*
X78445Y90323D01*
X100394Y79004D02*
X101394Y80004D01*
X102394D01*
X101394Y81004D01*
X102394Y82004D01*
X101394D01*
X100394Y83004D01*
X99394Y82004D01*
X98394D01*
X99394Y81004D01*
X98394Y80004D01*
X99394D01*
X100394Y79004D01*
X97146Y72114D02*
X98146Y73114D01*
X99146D01*
X98146Y74114D01*
X99146Y75114D01*
X98146D01*
X97146Y76114D01*
X96146Y75114D01*
X95146D01*
X96146Y74114D01*
X95146Y73114D01*
X96146D01*
X97146Y72114D01*
D11*
X19065Y240190D02*
G03*
X19065Y240190I-2000J0D01*
G01*
X-14990D02*
G03*
X-14990Y240190I-2000J0D01*
G01*
M02*
