%FSLAX25Y25*%
%MOIN*%
G70*
G01*
G75*
G04 Layer_Physical_Order=5*
G04 Layer_Color=16711680*
%ADD10C,0.00787*%
%ADD11C,0.01181*%
%ADD12R,0.02756X0.04921*%
%ADD13O,0.07874X0.05906*%
%ADD14R,0.07874X0.05906*%
%ADD15C,0.11811*%
%ADD16R,0.01181X0.03347*%
%ADD17R,0.02362X0.03347*%
%ADD18R,0.03543X0.06693*%
%ADD19O,0.05906X0.07874*%
%ADD20R,0.05906X0.07874*%
%ADD21R,0.05512X0.02362*%
%ADD22R,0.03150X0.07874*%
%ADD23R,0.02362X0.07874*%
%ADD24O,0.07480X0.12992*%
%ADD25R,0.01575X0.04724*%
%ADD26R,0.03937X0.03543*%
%ADD27O,0.02362X0.05512*%
%ADD28R,0.02362X0.01969*%
%ADD29R,0.01969X0.02362*%
%ADD30R,0.04921X0.02756*%
%ADD31R,0.03543X0.03937*%
%ADD32R,0.05118X0.03150*%
%ADD33R,0.03150X0.05118*%
%ADD34R,0.03150X0.03150*%
%ADD35R,0.06693X0.03543*%
%ADD36R,0.03543X0.02362*%
G04:AMPARAMS|DCode=37|XSize=98.43mil|YSize=59.06mil|CornerRadius=14.76mil|HoleSize=0mil|Usage=FLASHONLY|Rotation=90.000|XOffset=0mil|YOffset=0mil|HoleType=Round|Shape=RoundedRectangle|*
%AMROUNDEDRECTD37*
21,1,0.09843,0.02953,0,0,90.0*
21,1,0.06890,0.05906,0,0,90.0*
1,1,0.02953,0.01476,0.03445*
1,1,0.02953,0.01476,-0.03445*
1,1,0.02953,-0.01476,-0.03445*
1,1,0.02953,-0.01476,0.03445*
%
%ADD37ROUNDEDRECTD37*%
%ADD38C,0.07874*%
%ADD39C,0.02559*%
G04:AMPARAMS|DCode=40|XSize=39.37mil|YSize=62.99mil|CornerRadius=17.72mil|HoleSize=0mil|Usage=FLASHONLY|Rotation=180.000|XOffset=0mil|YOffset=0mil|HoleType=Round|Shape=RoundedRectangle|*
%AMROUNDEDRECTD40*
21,1,0.03937,0.02756,0,0,180.0*
21,1,0.00394,0.06299,0,0,180.0*
1,1,0.03543,-0.00197,0.01378*
1,1,0.03543,0.00197,0.01378*
1,1,0.03543,0.00197,-0.01378*
1,1,0.03543,-0.00197,-0.01378*
%
%ADD40ROUNDEDRECTD40*%
G04:AMPARAMS|DCode=41|XSize=39.37mil|YSize=82.68mil|CornerRadius=17.72mil|HoleSize=0mil|Usage=FLASHONLY|Rotation=180.000|XOffset=0mil|YOffset=0mil|HoleType=Round|Shape=RoundedRectangle|*
%AMROUNDEDRECTD41*
21,1,0.03937,0.04724,0,0,180.0*
21,1,0.00394,0.08268,0,0,180.0*
1,1,0.03543,-0.00197,0.02362*
1,1,0.03543,0.00197,0.02362*
1,1,0.03543,0.00197,-0.02362*
1,1,0.03543,-0.00197,-0.02362*
%
%ADD41ROUNDEDRECTD41*%
%ADD42C,0.02362*%
G36*
X40050Y246644D02*
D01*
X40050Y246644D01*
X44166Y242528D01*
Y192224D01*
X44166Y192224D01*
X44166D01*
X44273Y191687D01*
X44577Y191231D01*
X50877Y184932D01*
X51332Y184627D01*
X51870Y184520D01*
X139379D01*
X142296Y181603D01*
Y117913D01*
X142296Y117912D01*
Y3937D01*
X142309Y3871D01*
X142128Y2958D01*
X141573Y2128D01*
X140743Y1574D01*
X139830Y1392D01*
X139764Y1405D01*
X85159D01*
X84968Y1867D01*
X86614Y3513D01*
X86614D01*
X86623Y3503D01*
X86623D01*
X86623Y3503D01*
Y3503D01*
X86845Y3651D01*
X87102Y3702D01*
X87106Y3702D01*
X87874Y3854D01*
X88525Y4290D01*
X88961Y4941D01*
X89113Y5709D01*
X88961Y6477D01*
X88525Y7128D01*
X87874Y7563D01*
X87106Y7716D01*
X86338Y7563D01*
X85948Y7771D01*
Y8335D01*
X85962D01*
X86014Y8597D01*
X86160Y8815D01*
X86163Y8817D01*
X86598Y9468D01*
X86751Y10236D01*
X86598Y11004D01*
X86163Y11655D01*
X85512Y12090D01*
X84744Y12243D01*
X83976Y12090D01*
X83325Y11655D01*
X82890Y11004D01*
X82737Y10236D01*
X82890Y9468D01*
X83325Y8817D01*
X83328Y8815D01*
X83474Y8597D01*
X83526Y8335D01*
X83540D01*
Y8160D01*
X83099Y7925D01*
X82756Y8154D01*
X81988Y8306D01*
X81664Y8242D01*
X81248Y8520D01*
X81185Y8839D01*
X80750Y9490D01*
X80099Y9925D01*
X79331Y10078D01*
X78563Y9925D01*
X77912Y9490D01*
X77476Y8839D01*
X77324Y8071D01*
X75448Y7700D01*
X6503D01*
X6126Y8078D01*
Y14087D01*
X6340Y14230D01*
X6775Y14882D01*
X6928Y15650D01*
X6775Y16418D01*
X6340Y17069D01*
X5689Y17504D01*
X4921Y17657D01*
X4153Y17504D01*
X3502Y17069D01*
X3067Y16418D01*
X2644Y16289D01*
X2334Y16600D01*
X1943Y16861D01*
X1482Y16952D01*
X1482Y16952D01*
X-3217D01*
Y16966D01*
X-3478Y17018D01*
X-3697Y17164D01*
X-3699Y17167D01*
X-4350Y17602D01*
X-5118Y17755D01*
X-5886Y17602D01*
X-6537Y17167D01*
X-6972Y16516D01*
X-7125Y15748D01*
X-6972Y14980D01*
X-6537Y14329D01*
X-5886Y13894D01*
X-5118Y13741D01*
X-4350Y13894D01*
X-3699Y14329D01*
X-3697Y14332D01*
X-3478Y14478D01*
X-3217Y14530D01*
Y14540D01*
Y14544D01*
X983D01*
X2142Y13385D01*
Y6595D01*
X2142Y6595D01*
X2234Y6134D01*
X2495Y5743D01*
X3226Y5013D01*
X3034Y4551D01*
X-91529D01*
X-93118Y6140D01*
X-93225Y6674D01*
X-93660Y7325D01*
X-94311Y7760D01*
X-95079Y7913D01*
X-95847Y7760D01*
X-96498Y7325D01*
X-96933Y6674D01*
X-97086Y5906D01*
X-96933Y5137D01*
X-96498Y4486D01*
X-96498Y4486D01*
X-96301Y4175D01*
X-96736Y3524D01*
X-96889Y2756D01*
X-96736Y1988D01*
X-96641Y1846D01*
X-96877Y1405D01*
X-139764D01*
X-139829Y1392D01*
X-140743Y1574D01*
X-141573Y2128D01*
X-142127Y2958D01*
X-142309Y3871D01*
X-142296Y3937D01*
Y117222D01*
X-142197Y117717D01*
Y182095D01*
X-138887Y185406D01*
X-51279D01*
X-50742Y185513D01*
X-50286Y185818D01*
X-50286Y185818D01*
X-50286Y185818D01*
X-43987Y192117D01*
X-43682Y192573D01*
X-43575Y193110D01*
X-43575Y193110D01*
X-43575Y193110D01*
Y193110D01*
Y243414D01*
X-39674Y247316D01*
X39379D01*
X40050Y246644D01*
D02*
G37*
%LPC*%
G36*
X83268Y68149D02*
X82500Y67996D01*
X81849Y67561D01*
X81413Y66910D01*
X81261Y66142D01*
X81352Y65681D01*
X80936Y65403D01*
X80886Y65437D01*
X80118Y65590D01*
X79553Y65477D01*
X79398Y65581D01*
X78937Y65673D01*
X78937Y65673D01*
X78079D01*
X77980Y65686D01*
Y65673D01*
X76144D01*
X76079Y65679D01*
Y65673D01*
X69224D01*
Y65687D01*
X68962Y65738D01*
X68744Y65884D01*
X68742Y65888D01*
X68091Y66323D01*
X67323Y66476D01*
X66555Y66323D01*
X65904Y65888D01*
X65469Y65237D01*
X65316Y64468D01*
X65469Y63700D01*
X65904Y63049D01*
X66555Y62614D01*
X67323Y62461D01*
X68091Y62614D01*
X68742Y63049D01*
X68744Y63053D01*
X68962Y63199D01*
X69224Y63250D01*
Y63261D01*
Y63264D01*
X76117D01*
X77043Y63142D01*
X77942Y62770D01*
X78664Y62216D01*
X78699Y62164D01*
X79350Y61728D01*
X80118Y61576D01*
X80886Y61728D01*
X81537Y62164D01*
X81585Y62235D01*
X82064Y62090D01*
Y56805D01*
X82054D01*
X82064Y56735D01*
Y55883D01*
X82037Y55857D01*
X82037Y55857D01*
X82037Y55856D01*
X82036Y55855D01*
X82036Y55855D01*
X82036Y55835D01*
X81610Y55197D01*
X81458Y54429D01*
X81610Y53661D01*
X82045Y53010D01*
X82696Y52575D01*
X83465Y52422D01*
X84233Y52575D01*
X84884Y53010D01*
X85319Y53661D01*
X85472Y54429D01*
X85319Y55197D01*
X84884Y55848D01*
X84852Y55870D01*
X84577Y56282D01*
X84473Y56805D01*
X84472D01*
Y64241D01*
X84486D01*
X84538Y64502D01*
X84683Y64720D01*
X84687Y64723D01*
X85122Y65374D01*
X85275Y66142D01*
X85122Y66910D01*
X84687Y67561D01*
X84036Y67996D01*
X83268Y68149D01*
D02*
G37*
G36*
X78543Y73956D02*
X77775Y73803D01*
X77124Y73368D01*
X77122Y73364D01*
X76903Y73219D01*
X76642Y73167D01*
Y73153D01*
X72570D01*
Y73167D01*
X72309Y73219D01*
X72091Y73364D01*
X72088Y73368D01*
X71437Y73803D01*
X70669Y73956D01*
X69901Y73803D01*
X69250Y73368D01*
X68815Y72717D01*
X68662Y71949D01*
X68815Y71181D01*
X69250Y70529D01*
X69901Y70094D01*
X70260Y70023D01*
X70451Y69561D01*
X70390Y69469D01*
X70237Y68701D01*
X70390Y67933D01*
X70825Y67282D01*
X71476Y66847D01*
X72244Y66694D01*
X73012Y66847D01*
X73663Y67282D01*
X73666Y67285D01*
X73884Y67431D01*
X74145Y67483D01*
Y67493D01*
Y67497D01*
X76741D01*
Y67493D01*
Y67483D01*
X77002Y67431D01*
X77220Y67285D01*
X77223Y67282D01*
X77874Y66847D01*
X78642Y66694D01*
X79410Y66847D01*
X80061Y67282D01*
X80496Y67933D01*
X80649Y68701D01*
X80496Y69469D01*
X80061Y70120D01*
D01*
X79962Y70530D01*
D01*
X80398Y71181D01*
X80550Y71949D01*
X80398Y72717D01*
X79962Y73368D01*
X79311Y73803D01*
X78543Y73956D01*
D02*
G37*
G36*
X99508Y99940D02*
X98740Y99787D01*
X98089Y99352D01*
X97654Y98701D01*
X97501Y97933D01*
X97611Y97378D01*
X97258Y97024D01*
X96949Y97086D01*
X96181Y96933D01*
X95530Y96498D01*
X95095Y95847D01*
X94942Y95079D01*
X95095Y94311D01*
X95530Y93660D01*
X95533Y93657D01*
X95679Y93439D01*
X95731Y93178D01*
X95745D01*
Y91862D01*
X95731D01*
X95679Y91600D01*
X95533Y91382D01*
X95530Y91380D01*
X95095Y90729D01*
X94942Y89961D01*
X95095Y89193D01*
X95530Y88541D01*
X96181Y88106D01*
X96949Y87954D01*
X97135Y87991D01*
X97488Y87637D01*
X97402Y87205D01*
X97555Y86437D01*
X97990Y85786D01*
X98641Y85350D01*
X99410Y85198D01*
X100178Y85350D01*
X100829Y85786D01*
X101264Y86437D01*
X101417Y87205D01*
X101264Y87973D01*
X100932Y88469D01*
X100913Y88516D01*
Y88867D01*
X100913Y88868D01*
X100913D01*
Y96483D01*
X100935Y96506D01*
D01*
X100936Y96507D01*
X100936Y96507D01*
X100936Y96527D01*
X101362Y97165D01*
X101515Y97933D01*
X101362Y98701D01*
X100927Y99352D01*
X100276Y99787D01*
X99508Y99940D01*
D02*
G37*
G36*
X81398Y98168D02*
X80630Y98016D01*
X79979Y97581D01*
X79543Y96930D01*
X79391Y96161D01*
X79543Y95393D01*
X79979Y94742D01*
X79982Y94740D01*
X80128Y94522D01*
X80180Y94261D01*
X80194D01*
Y85983D01*
X80194Y85983D01*
X80285Y85522D01*
X80546Y85131D01*
X80889Y84789D01*
X80888Y84788D01*
X80879Y84779D01*
Y84779D01*
X80879Y84779D01*
X80879D01*
X81027Y84557D01*
X81078Y84300D01*
X81077Y84296D01*
X81230Y83528D01*
X81665Y82877D01*
X82316Y82442D01*
X83084Y82289D01*
X83853Y82442D01*
X84504Y82877D01*
X84939Y83528D01*
X85092Y84296D01*
X84939Y85064D01*
X84504Y85715D01*
X83853Y86150D01*
X83084Y86303D01*
X83080Y86302D01*
X82823Y86353D01*
X82602Y86501D01*
Y94261D01*
X82616D01*
X82668Y94522D01*
X82813Y94740D01*
X82817Y94742D01*
X83252Y95393D01*
X83405Y96161D01*
X83252Y96930D01*
X82817Y97581D01*
X82166Y98016D01*
X81398Y98168D01*
D02*
G37*
G36*
X105315Y34586D02*
X104547Y34433D01*
X103896Y33998D01*
X103461Y33347D01*
X103308Y32579D01*
X103461Y31811D01*
X103896Y31159D01*
X103899Y31157D01*
X104045Y30939D01*
X104097Y30678D01*
X104111D01*
Y29460D01*
X104097D01*
X104045Y29199D01*
X103899Y28981D01*
X103896Y28978D01*
X103461Y28327D01*
X103308Y27559D01*
X103461Y26791D01*
X103896Y26140D01*
X104547Y25705D01*
X105315Y25552D01*
X106083Y25705D01*
X106734Y26140D01*
X107169Y26791D01*
X107322Y27559D01*
X107169Y28327D01*
X106734Y28978D01*
X106731Y28981D01*
X106585Y29199D01*
X106533Y29460D01*
X106519D01*
Y30678D01*
X106533D01*
X106585Y30939D01*
X106731Y31157D01*
X106734Y31159D01*
X107169Y31811D01*
X107322Y32579D01*
X107169Y33347D01*
X106734Y33998D01*
X106083Y34433D01*
X105315Y34586D01*
D02*
G37*
G36*
X-94412Y50771D02*
X-122759D01*
X-123296Y50664D01*
X-123752Y50359D01*
X-124057Y49903D01*
X-124164Y49366D01*
Y21019D01*
X-124164Y21019D01*
X-124164D01*
X-124057Y20482D01*
X-123752Y20026D01*
X-123296Y19721D01*
X-122759Y19614D01*
X-94412D01*
X-93875Y19721D01*
X-93419Y20026D01*
X-93114Y20482D01*
X-93007Y21019D01*
Y49366D01*
X-93114Y49903D01*
X-93419Y50359D01*
X-93875Y50664D01*
X-94412Y50771D01*
D02*
G37*
G36*
X124114Y64015D02*
X123346Y63862D01*
X122695Y63427D01*
X122670Y63389D01*
X122074Y62932D01*
X121339Y62628D01*
X120550Y62524D01*
Y62523D01*
X116031D01*
X115888Y62738D01*
X115237Y63173D01*
X114469Y63326D01*
X113700Y63173D01*
X113049Y62738D01*
X112614Y62087D01*
X112461Y61319D01*
X112614Y60551D01*
X113049Y59900D01*
X113049Y59900D01*
X112852Y59588D01*
X112852Y59588D01*
X112852D01*
X112417Y58937D01*
X112265Y58169D01*
X112417Y57401D01*
X112852Y56750D01*
X113504Y56315D01*
X114272Y56162D01*
X115040Y56315D01*
X115691Y56750D01*
X116126Y57401D01*
X116256Y58057D01*
X116739Y58540D01*
X121942D01*
X122448Y58034D01*
X122457Y57992D01*
X122892Y57341D01*
X123543Y56906D01*
X123605Y56893D01*
X123736Y56575D01*
X123583Y55807D01*
X123360Y55535D01*
X121659D01*
X121659Y55535D01*
X121198Y55443D01*
X120808Y55182D01*
X119389Y53763D01*
X112248D01*
X110373Y54134D01*
X110220Y54902D01*
X109785Y55553D01*
X109134Y55988D01*
X108366Y56141D01*
X107598Y55988D01*
X106947Y55553D01*
X106512Y54902D01*
X106359Y54134D01*
X106372Y54071D01*
X106018Y53717D01*
X105709Y53779D01*
X104941Y53626D01*
X104289Y53191D01*
X103854Y52540D01*
X103702Y51772D01*
X103751Y51525D01*
X103445Y51220D01*
X102677Y51067D01*
X102433Y50904D01*
X101992Y51139D01*
Y53668D01*
X101999D01*
X102077Y54061D01*
X102287Y54376D01*
X102305Y54388D01*
X102740Y55039D01*
X102893Y55807D01*
X102740Y56575D01*
X102305Y57226D01*
X101654Y57661D01*
X100886Y57814D01*
X100118Y57661D01*
X99467Y57226D01*
X99032Y56575D01*
X98879Y55807D01*
X99032Y55039D01*
X99467Y54388D01*
X99489Y54373D01*
X99583Y54145D01*
Y53717D01*
X99577Y53668D01*
X99583D01*
Y48948D01*
X99569D01*
X99517Y48687D01*
X99372Y48469D01*
X99368Y48467D01*
X98933Y47815D01*
X98780Y47047D01*
X98933Y46279D01*
X99368Y45628D01*
X100019Y45193D01*
X100787Y45040D01*
X101556Y45193D01*
X102207Y45628D01*
X102642Y46279D01*
X102780Y46977D01*
X103196Y47255D01*
X103445Y47205D01*
X104213Y47358D01*
X104864Y47793D01*
X104885Y47825D01*
X105298Y48101D01*
X105821Y48205D01*
Y48205D01*
X121935D01*
Y48205D01*
X122458Y48101D01*
X122871Y47825D01*
X122892Y47793D01*
X123543Y47358D01*
X124311Y47205D01*
X125079Y47358D01*
X125730Y47793D01*
X126165Y48445D01*
X126318Y49213D01*
X126165Y49981D01*
X125730Y50632D01*
X125079Y51067D01*
X124500Y51182D01*
X124492Y51200D01*
X124645Y51968D01*
X124492Y52737D01*
X124492Y52737D01*
X124492Y52737D01*
X124508Y53127D01*
D01*
D01*
X124969Y53218D01*
X125359Y53479D01*
X125556Y53676D01*
X125568Y53664D01*
X125568Y53664D01*
X125615Y53735D01*
X125685Y53804D01*
X125751Y53832D01*
X126359Y53953D01*
X127010Y54388D01*
X127445Y55039D01*
X127598Y55807D01*
X127445Y56575D01*
X127010Y57226D01*
X126359Y57661D01*
X126297Y57674D01*
X126165Y57992D01*
X126318Y58760D01*
X126165Y59528D01*
X125730Y60179D01*
X125699Y60200D01*
X125601Y60690D01*
X125969Y61240D01*
X126121Y62008D01*
X125969Y62776D01*
X125533Y63427D01*
X124882Y63862D01*
X124114Y64015D01*
D02*
G37*
G36*
X-38091Y44060D02*
X-38091Y44060D01*
X-38091Y44060D01*
X-84802Y44012D01*
X-84805Y44013D01*
X-84923D01*
X-85040Y44025D01*
X-85079Y44013D01*
X-85118D01*
X-85520Y43933D01*
X-85520D01*
X-85690Y43863D01*
X-85809Y43813D01*
X-85809Y43813D01*
X-86168Y43574D01*
X-86168Y43574D01*
X-86278Y43463D01*
X-86389Y43353D01*
X-86389Y43353D01*
X-86628Y42994D01*
X-86628Y42994D01*
X-86678Y42875D01*
X-86748Y42705D01*
Y42705D01*
X-86832Y42283D01*
Y42202D01*
X-86848Y42122D01*
X-86826Y37302D01*
Y36462D01*
X-86831Y36451D01*
Y36333D01*
X-86843Y36216D01*
X-86831Y36178D01*
Y36138D01*
X-86737Y35663D01*
Y35663D01*
X-86617Y35374D01*
X-86334Y34950D01*
X-86113Y34729D01*
X-85689Y34446D01*
X-85400Y34326D01*
X-85400D01*
X-84901Y34227D01*
X-84821D01*
X-84744Y34212D01*
X-38134Y34236D01*
X-38111Y34227D01*
X-38032Y34227D01*
X-37955Y34212D01*
X-37877Y34227D01*
X-37798Y34227D01*
X-37725Y34257D01*
X-37647Y34273D01*
X-37308Y34413D01*
X-37204Y34483D01*
X-37048Y34587D01*
X-36874Y34848D01*
X-36718Y35224D01*
X-36717Y35227D01*
X-36716Y35228D01*
X-36687Y35381D01*
X-36657Y35531D01*
X-36657Y35534D01*
X-36657Y35536D01*
X-36696Y42473D01*
X-36683Y42506D01*
X-36683Y42585D01*
X-36667Y42663D01*
X-36683Y42741D01*
X-36683Y42820D01*
X-36713Y42893D01*
X-36728Y42970D01*
X-36897Y43377D01*
X-37071Y43638D01*
X-37331Y43812D01*
X-37783Y43999D01*
X-37784Y43999D01*
X-37784Y43999D01*
X-37938Y44030D01*
X-38091Y44060D01*
D02*
G37*
G36*
X-52461Y115491D02*
X-53229Y115339D01*
X-53880Y114903D01*
X-54315Y114252D01*
X-54468Y113484D01*
X-54315Y112716D01*
X-53880Y112065D01*
X-53876Y112063D01*
X-53731Y111845D01*
X-53679Y111583D01*
X-53665D01*
Y104165D01*
X-53679D01*
X-53731Y103903D01*
X-53876Y103685D01*
X-53880Y103683D01*
X-54315Y103032D01*
X-54468Y102264D01*
X-54315Y101496D01*
X-53880Y100845D01*
X-53229Y100409D01*
X-52461Y100257D01*
X-51693Y100409D01*
X-51041Y100845D01*
X-50606Y101496D01*
X-50454Y102264D01*
X-50606Y103032D01*
X-51041Y103683D01*
X-51045Y103685D01*
X-51191Y103903D01*
X-51243Y104165D01*
X-51256D01*
Y111583D01*
X-51243D01*
X-51191Y111845D01*
X-51045Y112063D01*
X-51041Y112065D01*
X-50606Y112716D01*
X-50454Y113484D01*
X-50606Y114252D01*
X-51041Y114903D01*
X-51693Y115339D01*
X-52461Y115491D01*
D02*
G37*
G36*
X-3642Y229566D02*
X-4410Y229413D01*
X-5061Y228978D01*
X-5496Y228327D01*
X-5649Y227559D01*
X-5496Y226791D01*
X-5061Y226140D01*
X-5023Y226114D01*
X-4563Y225515D01*
X-4256Y224775D01*
X-4152Y223981D01*
X-4151D01*
Y208570D01*
X-6855Y205865D01*
X-7117Y205475D01*
X-7208Y205014D01*
X-7208Y205014D01*
Y203812D01*
X-7215D01*
X-7208Y203764D01*
Y203335D01*
X-7303Y203107D01*
X-7325Y203092D01*
X-7760Y202441D01*
X-7913Y201673D01*
X-7760Y200905D01*
X-7325Y200254D01*
X-6674Y199819D01*
X-5906Y199666D01*
X-5137Y199819D01*
X-4486Y200254D01*
X-4051Y200905D01*
X-3898Y201673D01*
X-3915Y201755D01*
X-3642Y202028D01*
X-2874Y202181D01*
X-2222Y202616D01*
X-1787Y203267D01*
X-1635Y204035D01*
X-1636Y204040D01*
X-1584Y204297D01*
X-1436Y204518D01*
X-1446Y204528D01*
X-1446Y204528D01*
X-521Y205453D01*
X-521Y205453D01*
X-364Y205688D01*
X-260Y205844D01*
X-168Y206305D01*
Y223097D01*
X571Y223244D01*
X1222Y223679D01*
X1657Y224330D01*
X1810Y225098D01*
X1657Y225867D01*
X1222Y226518D01*
X571Y226953D01*
X-197Y227105D01*
X-965Y226953D01*
X-1097Y226864D01*
X-1379D01*
X-1696Y227251D01*
X-1635Y227559D01*
X-1787Y228327D01*
X-2222Y228978D01*
X-2874Y229413D01*
X-3642Y229566D01*
D02*
G37*
G36*
X-2559Y156731D02*
X-3327Y156579D01*
X-3978Y156144D01*
X-4413Y155492D01*
X-4566Y154724D01*
X-4413Y153956D01*
X-3978Y153305D01*
D01*
X-4077Y152994D01*
X-4077D01*
X-4512Y152343D01*
X-4665Y151575D01*
X-4512Y150807D01*
X-4077Y150156D01*
X-3426Y149721D01*
X-2657Y149568D01*
X-1889Y149721D01*
X-1238Y150156D01*
X-1236Y150159D01*
X-1018Y150305D01*
X-757Y150357D01*
Y150367D01*
Y150371D01*
X672D01*
X863Y149909D01*
X-223Y148823D01*
X-856Y148400D01*
X-1599Y148252D01*
X-1673Y148267D01*
X-2441Y148114D01*
X-3092Y147679D01*
X-3528Y147028D01*
X-3680Y146260D01*
X-3570Y145703D01*
X-4311Y145555D01*
X-4963Y145120D01*
X-5398Y144469D01*
X-5550Y143701D01*
X-5460Y143245D01*
X-5737Y142829D01*
X-5886Y142799D01*
X-6537Y142364D01*
X-6972Y141713D01*
X-7125Y140945D01*
X-6972Y140177D01*
X-6537Y139526D01*
X-5886Y139091D01*
X-5118Y138938D01*
X-4350Y139091D01*
X-3699Y139526D01*
X-3697Y139529D01*
X-3478Y139675D01*
X-3217Y139727D01*
Y139737D01*
Y139741D01*
X-788D01*
X-787Y139741D01*
X-327Y139832D01*
X64Y140093D01*
X4337Y144367D01*
X6293D01*
X8237Y142422D01*
X8237Y142422D01*
X8235Y142419D01*
X8228Y142412D01*
X8376Y142191D01*
X8427Y141933D01*
X8426Y141929D01*
X8579Y141161D01*
X9014Y140510D01*
X9665Y140075D01*
X10433Y139922D01*
X11201Y140075D01*
X11852Y140510D01*
X12287Y141161D01*
X12440Y141929D01*
X12287Y142697D01*
X11852Y143348D01*
X11201Y143783D01*
X10433Y143936D01*
X10429Y143935D01*
X10370Y143947D01*
X10243Y144159D01*
X10136Y144418D01*
X10233Y144563D01*
X11840D01*
X12224Y144307D01*
X12992Y144154D01*
X13760Y144307D01*
X14411Y144742D01*
X14846Y145394D01*
X14999Y146161D01*
X14846Y146930D01*
X14411Y147581D01*
X13760Y148016D01*
X12992Y148169D01*
X12506Y148072D01*
X12441Y148137D01*
X12291Y148889D01*
X12569Y149305D01*
X12677Y149327D01*
X13329Y149762D01*
X13652Y150246D01*
X14291Y149819D01*
X15059Y149666D01*
X15827Y149819D01*
X16478Y150254D01*
X16913Y150905D01*
X17066Y151673D01*
X16913Y152441D01*
X16478Y153092D01*
X15827Y153527D01*
X15059Y153680D01*
X15055Y153680D01*
X14798Y153731D01*
X14576Y153879D01*
X14566Y153869D01*
X14566Y153869D01*
X14040Y154395D01*
X13650Y154656D01*
X13189Y154748D01*
X13189Y154747D01*
X-289D01*
X-623Y155082D01*
X-705Y155492D01*
X-1140Y156144D01*
X-1791Y156579D01*
X-2559Y156731D01*
D02*
G37*
G36*
X11377Y227809D02*
X10570Y227649D01*
X9886Y227192D01*
X9430Y226508D01*
X9269Y225702D01*
X9430Y224895D01*
X9886Y224212D01*
X10570Y223755D01*
X11377Y223594D01*
X12183Y223755D01*
X12867Y224212D01*
X13323Y224895D01*
X13484Y225702D01*
X13323Y226508D01*
X12867Y227192D01*
X12183Y227649D01*
X11377Y227809D01*
D02*
G37*
G36*
X-11379D02*
X-12186Y227649D01*
X-12870Y227192D01*
X-13326Y226508D01*
X-13487Y225702D01*
X-13326Y224895D01*
X-12870Y224212D01*
X-12186Y223755D01*
X-11379Y223594D01*
X-10573Y223755D01*
X-9889Y224212D01*
X-9432Y224895D01*
X-9272Y225702D01*
X-9432Y226508D01*
X-9889Y227192D01*
X-10573Y227649D01*
X-11379Y227809D01*
D02*
G37*
G36*
X-37795Y115688D02*
X-38563Y115535D01*
X-39215Y115100D01*
X-39650Y114449D01*
X-39802Y113681D01*
X-39650Y112913D01*
X-39215Y112262D01*
X-39211Y112259D01*
X-39065Y112041D01*
X-39013Y111780D01*
X-39000D01*
Y105838D01*
X-39013D01*
X-39065Y105577D01*
X-39211Y105359D01*
X-39215Y105356D01*
X-39580Y104810D01*
X-40080D01*
X-40313Y105159D01*
X-40964Y105594D01*
X-41732Y105747D01*
X-42500Y105594D01*
X-43152Y105159D01*
X-43587Y104508D01*
X-43739Y103740D01*
X-43587Y102972D01*
X-43152Y102321D01*
X-43005Y102223D01*
X-43001Y102194D01*
Y102194D01*
X-42960Y102176D01*
X-42838Y101883D01*
Y101870D01*
X-42838Y101870D01*
X-42838Y101868D01*
X-42838Y101868D01*
X-42838D01*
X-42746Y101407D01*
X-42485Y101016D01*
X-42478Y101011D01*
X-41993Y100526D01*
X-41603Y100265D01*
X-41142Y100174D01*
X-41142Y100174D01*
X-36024D01*
X-36024Y100174D01*
X-35563Y100265D01*
X-35172Y100526D01*
X-34582Y101117D01*
X-34321Y101508D01*
X-34229Y101969D01*
X-34229Y101969D01*
Y105604D01*
X-33852Y105981D01*
X-33143D01*
Y105974D01*
X-32750Y105896D01*
X-32435Y105685D01*
X-32423Y105667D01*
X-31772Y105232D01*
X-31004Y105079D01*
X-30236Y105232D01*
X-29585Y105667D01*
X-29150Y106318D01*
X-28997Y107087D01*
X-29150Y107855D01*
X-29585Y108506D01*
X-30236Y108941D01*
X-31004Y109094D01*
X-31772Y108941D01*
X-32423Y108506D01*
X-32438Y108484D01*
X-32666Y108389D01*
X-33094D01*
X-33143Y108396D01*
Y108389D01*
X-34350D01*
X-34811Y108298D01*
X-34968Y108193D01*
X-35202Y108037D01*
X-35202Y108036D01*
X-36129Y107109D01*
X-36591Y107301D01*
Y111780D01*
X-36577D01*
X-36525Y112041D01*
X-36380Y112259D01*
X-36376Y112262D01*
X-35941Y112913D01*
X-35788Y113681D01*
X-35941Y114449D01*
X-36376Y115100D01*
X-37027Y115535D01*
X-37795Y115688D01*
D02*
G37*
G36*
X21752Y115393D02*
X20984Y115240D01*
X20333Y114805D01*
X19898Y114154D01*
X19745Y113386D01*
X19746Y113382D01*
X19695Y113124D01*
X19547Y112903D01*
X19546D01*
X19546Y112903D01*
Y112903D01*
X19556Y112893D01*
X19556Y112893D01*
X18243Y111580D01*
X17982Y111189D01*
X17890Y110728D01*
X17890Y110728D01*
Y74501D01*
X15854Y72464D01*
X14106D01*
Y72467D01*
Y72478D01*
X13844Y72530D01*
X13626Y72676D01*
X13624Y72679D01*
X12973Y73114D01*
X12205Y73267D01*
X11437Y73114D01*
X10785Y72679D01*
X10350Y72028D01*
X9927Y71900D01*
X9617Y72210D01*
X9227Y72471D01*
X8766Y72562D01*
X8766Y72562D01*
X-15662D01*
X-15805Y72777D01*
X-16456Y73213D01*
X-17224Y73365D01*
X-17992Y73213D01*
X-18644Y72777D01*
X-19079Y72126D01*
X-19231Y71358D01*
X-19079Y70590D01*
X-19287Y70200D01*
X-24206D01*
X-25068Y71062D01*
X-25068Y71062D01*
X-25058Y71072D01*
X-25206Y71294D01*
X-25258Y71551D01*
X-25257Y71555D01*
X-25409Y72323D01*
X-25845Y72974D01*
X-26496Y73409D01*
X-27264Y73562D01*
X-28032Y73409D01*
X-28079Y73378D01*
X-28520Y73614D01*
Y79694D01*
X-28506D01*
X-28454Y79955D01*
X-28309Y80173D01*
X-28305Y80175D01*
X-27870Y80826D01*
X-27717Y81595D01*
X-27870Y82363D01*
X-28305Y83014D01*
X-28956Y83449D01*
X-29724Y83602D01*
X-30492Y83449D01*
X-31144Y83014D01*
X-31579Y82363D01*
X-31732Y81595D01*
X-31579Y80826D01*
X-31144Y80175D01*
X-31140Y80173D01*
X-30994Y79955D01*
X-30942Y79694D01*
X-30929D01*
Y69784D01*
X-30929Y69784D01*
X-30837Y69323D01*
X-30576Y68932D01*
X-28214Y66570D01*
X-28214Y66570D01*
X-27823Y66309D01*
X-27823Y66309D01*
X-27823Y66309D01*
D01*
X-27823Y66309D01*
X-27823Y66309D01*
X-27362Y66217D01*
X-27362Y66217D01*
X-15453D01*
X-15453Y66217D01*
X-14992Y66309D01*
X-14601Y66570D01*
X-14166Y67004D01*
X6962D01*
X9070Y64897D01*
X9070Y64897D01*
X9461Y64635D01*
X9461Y64635D01*
X9461Y64635D01*
D01*
X9461Y64635D01*
X9461Y64635D01*
X9922Y64544D01*
X9922Y64544D01*
X18529D01*
X18529Y64544D01*
X18990Y64635D01*
X19380Y64897D01*
X20701Y66217D01*
X23875D01*
X23875Y66217D01*
X24336Y66309D01*
X24726Y66570D01*
X27229Y69073D01*
X27229Y69073D01*
X27386Y69307D01*
X27490Y69463D01*
X27582Y69924D01*
Y73721D01*
X27582Y73721D01*
X27490Y74181D01*
X27229Y74572D01*
X27229Y74572D01*
X26598Y75204D01*
Y90074D01*
X26728Y91066D01*
X27135Y92047D01*
X27737Y92832D01*
X27797Y92872D01*
X28232Y93523D01*
X28385Y94291D01*
X28232Y95059D01*
X27797Y95710D01*
X27146Y96146D01*
X26378Y96298D01*
X25610Y96146D01*
X25464Y96048D01*
X25023Y96284D01*
Y103733D01*
X28051Y106761D01*
X28051Y106761D01*
X28053Y106758D01*
X28060Y106751D01*
X28282Y106899D01*
X28539Y106950D01*
X28543Y106950D01*
X29311Y107102D01*
X29963Y107537D01*
X30398Y108189D01*
X30550Y108957D01*
X30398Y109725D01*
X29963Y110376D01*
X29311Y110811D01*
X28543Y110964D01*
X27775Y110811D01*
X27124Y110376D01*
X26989Y110173D01*
X26489D01*
X26419Y110277D01*
X26143Y110462D01*
Y110962D01*
X26616Y111278D01*
X27051Y111929D01*
X27204Y112697D01*
X27051Y113465D01*
X26616Y114116D01*
X25965Y114551D01*
X25197Y114704D01*
X24429Y114551D01*
X23971Y114245D01*
X23480Y114342D01*
X23171Y114805D01*
X22520Y115240D01*
X21752Y115393D01*
D02*
G37*
G36*
X-38976Y159291D02*
X-39744Y159138D01*
X-40396Y158703D01*
X-40831Y158052D01*
X-40983Y157283D01*
X-40831Y156515D01*
X-40404Y155878D01*
X-40404Y155858D01*
D01*
D01*
Y155858D01*
D01*
D01*
X-40404Y155856D01*
Y155856D01*
X-40404Y155856D01*
D01*
D01*
X-40381Y155834D01*
Y144855D01*
X-40404Y144833D01*
X-40404Y144833D01*
X-40404Y144833D01*
X-40404Y144831D01*
X-40404Y144831D01*
X-40404Y144811D01*
X-40831Y144174D01*
X-40983Y143405D01*
X-40831Y142637D01*
X-40396Y141986D01*
X-39744Y141551D01*
X-38976Y141398D01*
X-38208Y141551D01*
X-37557Y141986D01*
X-37122Y142637D01*
X-36969Y143405D01*
X-37122Y144174D01*
X-37548Y144811D01*
X-37548Y144831D01*
Y144831D01*
X-37548D01*
D01*
D01*
D01*
D01*
D01*
D01*
D01*
D01*
X-37549Y144833D01*
X-37549D01*
D01*
D01*
D01*
X-37571Y144855D01*
Y155834D01*
X-37549Y155856D01*
D01*
X-37548Y155858D01*
X-37548Y155858D01*
X-37548Y155878D01*
X-37122Y156515D01*
X-36969Y157283D01*
X-37122Y158052D01*
X-37557Y158703D01*
X-38208Y159138D01*
X-38976Y159291D01*
D02*
G37*
G36*
X96850Y116968D02*
X96082Y116815D01*
X95431Y116380D01*
X94996Y115729D01*
X94843Y114961D01*
X94996Y114193D01*
X95422Y113555D01*
X95422Y113535D01*
D01*
D01*
Y113535D01*
D01*
D01*
X95423Y113533D01*
Y113533D01*
X95423Y113533D01*
D01*
D01*
X95445Y113511D01*
Y109324D01*
X95423Y109301D01*
X95423Y109301D01*
X95423Y109301D01*
X95422Y109300D01*
X95422Y109300D01*
X95422Y109280D01*
X94996Y108642D01*
X94843Y107874D01*
X94996Y107106D01*
X95431Y106455D01*
X96082Y106020D01*
X96850Y105867D01*
X97619Y106020D01*
X98270Y106455D01*
X98705Y107106D01*
X98857Y107874D01*
X98705Y108642D01*
X98278Y109280D01*
X98278Y109300D01*
Y109300D01*
X98278D01*
D01*
D01*
D01*
D01*
D01*
D01*
D01*
D01*
X98278Y109301D01*
X98278D01*
D01*
D01*
D01*
X98255Y109324D01*
Y113511D01*
X98278Y113533D01*
D01*
X98278Y113535D01*
X98278Y113535D01*
X98278Y113555D01*
X98705Y114193D01*
X98857Y114961D01*
X98705Y115729D01*
X98270Y116380D01*
X97619Y116815D01*
X96850Y116968D01*
D02*
G37*
%LPD*%
G36*
X-37639Y43070D02*
X-37470Y42663D01*
X-37500Y42618D01*
X-37500D01*
X-37459Y35531D01*
X-37615Y35155D01*
X-37955Y35014D01*
X-37992Y35039D01*
Y35039D01*
X-84744Y35014D01*
X-85243Y35114D01*
X-85667Y35396D01*
X-85949Y35820D01*
X-86044Y36294D01*
X-86024Y36319D01*
X-86024D01*
Y37303D01*
X-86045Y42126D01*
X-85961Y42548D01*
X-85721Y42906D01*
X-85363Y43146D01*
X-84962Y43226D01*
X-84941Y43209D01*
Y43209D01*
X-38091Y43257D01*
X-37639Y43070D01*
D02*
G37*
D10*
X96949Y93178D02*
G03*
X96392Y94522I-1901J0D01*
G01*
X97506D02*
G03*
X96949Y93178I1344J-1344D01*
G01*
Y91862D02*
G03*
X97506Y90517I1901J0D01*
G01*
X96392D02*
G03*
X96949Y91862I-1344J1344D01*
G01*
X-41634Y101868D02*
G03*
X-42232Y103131I-1635J0D01*
G01*
X-41175Y103183D02*
G03*
X-41634Y102077I1106J-1106D01*
G01*
X-32667Y107185D02*
G03*
X-31561Y107643I0J1565D01*
G01*
Y106530D02*
G03*
X-33143Y107185I-1582J-1582D01*
G01*
X-29724Y79694D02*
G03*
X-30281Y81038I-1901J0D01*
G01*
X-29168D02*
G03*
X-29724Y79694I1344J-1344D01*
G01*
X26935Y93735D02*
G03*
X25394Y90014I3720J-3720D01*
G01*
X26378Y94291D02*
G03*
X25394Y91915I2376J-2376D01*
G01*
X-2947Y223981D02*
G03*
X-4199Y227002I-4273J0D01*
G01*
X-2947Y225882D02*
G03*
X-3642Y227559I-2372J0D01*
G01*
X-6004Y203812D02*
G03*
X-5349Y202230I2237J0D01*
G01*
X-6462Y202230D02*
G03*
X-6004Y203337I-1107J1107D01*
G01*
X-2298Y205380D02*
G03*
X-2854Y204035I1344J-1344D01*
G01*
X-3642Y204823D02*
G03*
X-2298Y205380I0J1901D01*
G01*
X20408Y112042D02*
G03*
X20965Y113386I-1344J1344D01*
G01*
X21752Y112598D02*
G03*
X20408Y112042I0J-1901D01*
G01*
X23853Y111353D02*
G03*
X24409Y112697I-1344J1344D01*
G01*
X25197Y111909D02*
G03*
X23853Y111353I0J-1901D01*
G01*
X23656Y107514D02*
G03*
X24213Y108858I-1344J1344D01*
G01*
X25000Y108071D02*
G03*
X23656Y107514I0J-1901D01*
G01*
X27199Y107613D02*
G03*
X27756Y108957I-1344J1344D01*
G01*
X28543Y108169D02*
G03*
X27199Y107613I0J-1901D01*
G01*
X-37795Y105838D02*
G03*
X-37238Y104494I1901J0D01*
G01*
X-38352D02*
G03*
X-37795Y105838I-1344J1344D01*
G01*
Y111780D02*
G03*
X-38352Y113124I-1901J0D01*
G01*
X-37238D02*
G03*
X-37795Y111780I1344J-1344D01*
G01*
X-3217Y140945D02*
G03*
X-4561Y140388I0J-1901D01*
G01*
Y141502D02*
G03*
X-3217Y140945I1344J1344D01*
G01*
X9089Y143273D02*
G03*
X10433Y142717I1344J1344D01*
G01*
X9646Y141929D02*
G03*
X9089Y143273I-1901J0D01*
G01*
X9244Y149417D02*
G03*
X10434Y148925I1189J1189D01*
G01*
X9646Y148137D02*
G03*
X9025Y149636I-2120J0D01*
G01*
X-1167Y143898D02*
G03*
X-2987Y143144I0J-2573D01*
G01*
X-2987Y144257D02*
G03*
X-2118Y143898I869J869D01*
G01*
X-1673Y147047D02*
G03*
X679Y148022I0J3327D01*
G01*
X13715Y153017D02*
G03*
X15059Y152461I1344J1344D01*
G01*
X14272Y151673D02*
G03*
X13715Y153017I-1901J0D01*
G01*
X-52461Y111583D02*
G03*
X-53017Y112927I-1901J0D01*
G01*
X-51904D02*
G03*
X-52461Y111583I1344J-1344D01*
G01*
X81740Y85640D02*
G03*
X83084Y85083I1344J1344D01*
G01*
X82297Y84296D02*
G03*
X81740Y85640I-1901J0D01*
G01*
X83268Y64241D02*
G03*
X82711Y65585I-1901J0D01*
G01*
X83824D02*
G03*
X83268Y64241I1344J-1344D01*
G01*
Y56805D02*
G03*
X84021Y54986I2573J0D01*
G01*
X82908Y54986D02*
G03*
X83268Y55855I-869J869D01*
G01*
X100787Y48948D02*
G03*
X101344Y47604I1901J0D01*
G01*
X100231D02*
G03*
X100787Y48948I-1344J1344D01*
G01*
Y54144D02*
G03*
X100329Y55250I-1565J0D01*
G01*
X101443D02*
G03*
X100787Y53668I1582J-1582D01*
G01*
X120550Y61319D02*
G03*
X123557Y62565I0J4253D01*
G01*
X122451Y61319D02*
G03*
X124114Y62008I0J2352D01*
G01*
X124705Y54528D02*
G03*
X124875Y55478I-598J598D01*
G01*
X125591Y55020D02*
G03*
X124918Y54741I0J-950D01*
G01*
X109710Y52790D02*
G03*
X108366Y53347I-1344J-1344D01*
G01*
X109153Y54134D02*
G03*
X109710Y52790I1901J0D01*
G01*
X122885Y49409D02*
G03*
X123754Y49769I0J1229D01*
G01*
X123754Y48656D02*
G03*
X121935Y49409I-1819J-1819D01*
G01*
X79561Y63026D02*
G03*
X76079Y64468I-3483J-3483D01*
G01*
X80118Y63583D02*
G03*
X77980Y64468I-2139J-2139D01*
G01*
X106265Y52328D02*
G03*
X109511Y50984I3245J3245D01*
G01*
X105709Y51772D02*
G03*
X107610Y50984I1901J1901D01*
G01*
X105821Y49409D02*
G03*
X104002Y48656I0J-2573D01*
G01*
Y49769D02*
G03*
X104871Y49409I869J869D01*
G01*
X-52461Y104165D02*
G03*
X-51904Y102821I1901J0D01*
G01*
X-53017D02*
G03*
X-52461Y104165I-1344J1344D01*
G01*
X105315Y29460D02*
G03*
X105872Y28116I1901J0D01*
G01*
X104758D02*
G03*
X105315Y29460I-1344J1344D01*
G01*
Y30678D02*
G03*
X104758Y32022I-1901J0D01*
G01*
X105872D02*
G03*
X105315Y30678I1344J-1344D01*
G01*
X-3217Y15748D02*
G03*
X-4561Y15191I0J-1901D01*
G01*
Y16305D02*
G03*
X-3217Y15748I1344J1344D01*
G01*
X-25920Y70211D02*
G03*
X-27264Y70768I-1344J-1344D01*
G01*
X-26476Y71555D02*
G03*
X-25920Y70211I1901J0D01*
G01*
X14106Y71260D02*
G03*
X12762Y70703I0J-1901D01*
G01*
Y71817D02*
G03*
X14106Y71260I1344J1344D01*
G01*
X77987Y6727D02*
G03*
X78543Y8071I-1344J1344D01*
G01*
X79331Y7284D02*
G03*
X77987Y6727I0J-1901D01*
G01*
X80644Y4955D02*
G03*
X81201Y6299I-1344J1344D01*
G01*
X81988Y5512D02*
G03*
X80644Y4955I0J-1901D01*
G01*
X85762Y4364D02*
G03*
X86319Y5709I-1344J1344D01*
G01*
X87106Y4921D02*
G03*
X85762Y4364I0J-1901D01*
G01*
X84744Y8335D02*
G03*
X84187Y9679I-1901J0D01*
G01*
X85301D02*
G03*
X84744Y8335I1344J-1344D01*
G01*
X-757Y151575D02*
G03*
X-2101Y151018I0J-1901D01*
G01*
Y152132D02*
G03*
X-757Y151575I1344J1344D01*
G01*
X-492Y153248D02*
G03*
X-2472Y153942I-1711J-1711D01*
G01*
X11353Y150624D02*
G03*
X9058Y151575I-2295J-2295D01*
G01*
X69224Y64468D02*
G03*
X67880Y63912I0J-1901D01*
G01*
Y65025D02*
G03*
X69224Y64468I1344J1344D01*
G01*
X72570Y71949D02*
G03*
X71226Y71392I0J-1901D01*
G01*
Y72505D02*
G03*
X72570Y71949I1344J1344D01*
G01*
X76741Y68701D02*
G03*
X78085Y69258I0J1901D01*
G01*
Y68144D02*
G03*
X76741Y68701I-1344J-1344D01*
G01*
X76642Y71949D02*
G03*
X77987Y72506I0J1902D01*
G01*
X77987Y71392D02*
G03*
X76643Y71949I-1344J-1344D01*
G01*
X81398Y94261D02*
G03*
X80841Y95605I-1901J0D01*
G01*
X81954D02*
G03*
X81398Y94261I1344J-1344D01*
G01*
X74145Y68701D02*
G03*
X72801Y68144I0J-1901D01*
G01*
Y69258D02*
G03*
X74145Y68701I1344J1344D01*
G01*
X67323Y64468D02*
X78937D01*
X70669Y71949D02*
X78543D01*
X72244Y68701D02*
X78642D01*
X84744Y5715D02*
Y10236D01*
X82517Y3487D02*
X84744Y5715D01*
X77756Y6496D02*
X79331Y8071D01*
X5020Y4921D02*
X80610D01*
X81988Y6299D01*
X3347Y6595D02*
X5020Y4921D01*
X3347Y6595D02*
Y13884D01*
X82517Y3347D02*
Y3487D01*
X-92028Y3347D02*
X82517D01*
X-94587Y5906D02*
X-92028Y3347D01*
X-95079Y5906D02*
X-94587D01*
X83169Y1772D02*
X87106Y5709D01*
X-93898Y1772D02*
X83169D01*
X1482Y15748D02*
X3347Y13884D01*
X-5118Y15748D02*
X1482D01*
X-94882Y2756D02*
X-93898Y1772D01*
X-24705Y68996D02*
X-16246D01*
X-27264Y71555D02*
X-24705Y68996D01*
X-16246D02*
X-15459Y69784D01*
X105315Y27559D02*
Y32579D01*
X103445Y49213D02*
X103642Y49409D01*
X-2559Y154724D02*
X-1969D01*
X103642Y49409D02*
X111620D01*
X118110D01*
X111620D02*
X124114D01*
X124311Y49213D01*
X105709Y51772D02*
X106496Y50984D01*
X121653D02*
X122638Y51968D01*
X106496Y50984D02*
X121653D01*
X108366Y54134D02*
X109941Y52559D01*
X119888D01*
X121659Y54331D02*
X124508D01*
X125492Y55315D01*
X119888Y52559D02*
X121659Y54331D01*
X114469Y61319D02*
X123425D01*
X124114Y62008D01*
X116240Y59744D02*
X122441D01*
X123425Y58760D01*
X124311D01*
X114665Y58169D02*
X116240Y59744D01*
X100787Y47047D02*
Y55709D01*
X78937Y64468D02*
X79971Y63435D01*
X83268Y54626D02*
Y66142D01*
Y54626D02*
X83465Y54429D01*
X81398Y85983D02*
Y96161D01*
Y85983D02*
X83084Y84296D01*
X4921Y7579D02*
Y15650D01*
Y7579D02*
X6004Y6496D01*
X77756D01*
X-52461Y102264D02*
Y113484D01*
X13189Y153543D02*
X15059Y151673D01*
X11516Y151575D02*
X11909Y151181D01*
X8957Y151575D02*
X11516D01*
X-2657D02*
X8957D01*
X10138D01*
X12598Y145768D02*
X12992Y146161D01*
X9350Y145768D02*
X12598D01*
X7185Y147933D02*
X9350Y145768D01*
X3341Y147933D02*
X7185D01*
X-695Y143898D02*
X3341Y147933D01*
X-591Y146752D02*
X2461Y149803D01*
X8858D01*
X-1969Y154724D02*
X-787Y153543D01*
X13189D01*
X-3543Y143898D02*
X-695D01*
X8858Y149803D02*
X10434Y148228D01*
Y148137D02*
Y148228D01*
X-1673Y146752D02*
X-591D01*
X6791Y145571D02*
X10433Y141929D01*
X3839Y145571D02*
X6791D01*
X-787Y140945D02*
X3839Y145571D01*
X-5118Y140945D02*
X-787D01*
X-37795Y103937D02*
Y113681D01*
X16443Y68898D02*
X20669Y73124D01*
X12205Y71260D02*
X16352D01*
X19094Y74002D01*
X24803Y70577D02*
Y72244D01*
X23819Y73228D02*
X24803Y72244D01*
X-15459Y69784D02*
X8113D01*
X-17224Y71358D02*
X8766D01*
X11226Y68898D01*
X16443D01*
X8113Y69784D02*
X10574Y67323D01*
X23819Y73228D02*
Y104232D01*
X28543Y108957D01*
X22244Y71358D02*
Y106102D01*
X25000Y108858D01*
X20669Y73124D02*
Y108169D01*
X25197Y112697D01*
X19094Y74002D02*
Y110728D01*
X21752Y113386D01*
X-6004Y201772D02*
X-5906Y201673D01*
X-3642Y227559D02*
X-2947Y226864D01*
X-6004Y201772D02*
Y205014D01*
X-2947Y208071D02*
Y226864D01*
X-6004Y205014D02*
X-2947Y208071D01*
X-3642Y204035D02*
X-1372Y206305D01*
Y223923D02*
X-197Y225098D01*
X-1372Y206305D02*
Y223923D01*
X25394Y93307D02*
X26378Y94291D01*
X25394Y74705D02*
Y93307D01*
Y74705D02*
X26378Y73721D01*
X7461Y68209D02*
X9922Y65748D01*
X-14665Y68209D02*
X7461D01*
X-15453Y67421D02*
X-14665Y68209D01*
X-27362Y67421D02*
X-15453D01*
X-29724Y69784D02*
X-27362Y67421D01*
X-29724Y69784D02*
Y81595D01*
X-41634Y101870D02*
X-41142Y101378D01*
X-36024D01*
X-35433Y101969D01*
Y106102D01*
X-34350Y107185D01*
X-31496D01*
X96949Y89961D02*
Y95079D01*
X23223Y68996D02*
X24803Y70577D01*
X19550Y68996D02*
X23223D01*
X17877Y67323D02*
X19550Y68996D01*
X10574Y67323D02*
X17877D01*
X26378Y69924D02*
Y73721D01*
X23875Y67421D02*
X26378Y69924D01*
X9922Y65748D02*
X18529D01*
X-41634Y101870D02*
Y104134D01*
X18529Y65748D02*
X20202Y67421D01*
X23875D01*
D11*
X99508Y88393D02*
G03*
X99827Y87622I1090J0D01*
G01*
X98992D02*
G03*
X99508Y88868I-1246J1246D01*
G01*
Y96507D02*
G03*
X99090Y97515I-1426J0D01*
G01*
X99926D02*
G03*
X99508Y96507I1008J-1008D01*
G01*
X96850Y113535D02*
G03*
X96433Y114543I-1426J0D01*
G01*
X97268D02*
G03*
X96850Y113535I1008J-1008D01*
G01*
X-38976Y144831D02*
G03*
X-38559Y143823I1426J0D01*
G01*
X-39394D02*
G03*
X-38976Y144831I-1008J1008D01*
G01*
X96850Y109300D02*
G03*
X97268Y108292I1426J0D01*
G01*
X96433D02*
G03*
X96850Y109300I-1008J1008D01*
G01*
X-38976Y155858D02*
G03*
X-39394Y156866I-1426J0D01*
G01*
X-38559D02*
G03*
X-38976Y155858I1008J-1008D01*
G01*
Y143405D02*
Y157283D01*
X96850Y107874D02*
Y114961D01*
X99508Y87303D02*
Y97933D01*
D39*
X-11379Y225702D02*
D03*
X11377D02*
D03*
D40*
X17065Y240190D02*
D03*
X-16990D02*
D03*
D41*
X-16970Y223733D02*
D03*
X17065D02*
D03*
D42*
X-38484Y79626D02*
D03*
X-44488Y89272D02*
D03*
X-94587Y89961D02*
D03*
X-94784Y95669D02*
D03*
X-104724Y95866D02*
D03*
X-94980Y54921D02*
D03*
X84449Y29921D02*
D03*
X128839Y45472D02*
D03*
X139764Y87795D02*
D03*
X131791Y88976D02*
D03*
X132283Y77559D02*
D03*
X139173Y77264D02*
D03*
X106693Y98130D02*
D03*
X107283Y106890D02*
D03*
X-56988Y85433D02*
D03*
X-26969Y121555D02*
D03*
X-10039Y120669D02*
D03*
X-9252Y141929D02*
D03*
X-27362Y143307D02*
D03*
X-12697Y174409D02*
D03*
X-29035Y175886D02*
D03*
X-11024Y185728D02*
D03*
X-31890Y186319D02*
D03*
X-12992Y162205D02*
D03*
X-28248Y162697D02*
D03*
X-80315Y122047D02*
D03*
X-80905Y142028D02*
D03*
X-98327Y120669D02*
D03*
X-115157Y120768D02*
D03*
X-112303Y135335D02*
D03*
X-98622Y143701D02*
D03*
X-73032Y160138D02*
D03*
X-45669Y174902D02*
D03*
X16929Y170571D02*
D03*
X17815Y186122D02*
D03*
X59153Y161122D02*
D03*
X43602D02*
D03*
X24705Y160925D02*
D03*
X74606Y160728D02*
D03*
X29232Y173031D02*
D03*
X113484Y135630D02*
D03*
X112697Y118012D02*
D03*
X97146Y119193D02*
D03*
X81004Y112402D02*
D03*
X75197D02*
D03*
X82480Y119193D02*
D03*
X74705D02*
D03*
X99606Y11122D02*
D03*
X116043Y11319D02*
D03*
X120669Y20374D02*
D03*
X115354Y4626D02*
D03*
X99016Y5413D02*
D03*
X89272Y23228D02*
D03*
X111909Y27264D02*
D03*
X108760Y24902D02*
D03*
X63976Y51870D02*
D03*
X56595Y85827D02*
D03*
X56693Y89665D02*
D03*
X-102264Y59449D02*
D03*
X-90650Y79429D02*
D03*
X-99902Y89272D02*
D03*
X-106398Y88976D02*
D03*
X-126969Y96063D02*
D03*
X-127165Y101673D02*
D03*
X-41535Y85433D02*
D03*
X-35236Y120669D02*
D03*
X-35531Y115945D02*
D03*
X-65158Y124803D02*
D03*
X-65256Y118602D02*
D03*
X-55610Y152165D02*
D03*
X72244Y68701D02*
D03*
X80315Y77756D02*
D03*
X81398Y96161D02*
D03*
X78543Y71949D02*
D03*
X78642Y68701D02*
D03*
X70669Y71949D02*
D03*
X67323Y64468D02*
D03*
X11909Y151181D02*
D03*
X-2559Y154724D02*
D03*
X-2657Y151575D02*
D03*
X-43307Y157382D02*
D03*
X84744Y10236D02*
D03*
X-95079Y5906D02*
D03*
X87106Y5709D02*
D03*
X81988Y6299D02*
D03*
X-94882Y2756D02*
D03*
X79331Y8071D02*
D03*
X12205Y71260D02*
D03*
X22244Y71358D02*
D03*
X-27264Y71555D02*
D03*
X-17224Y71358D02*
D03*
X-84449Y41142D02*
D03*
X-79528Y41240D02*
D03*
X-81890Y41142D02*
D03*
X-84449Y38878D02*
D03*
X-79429D02*
D03*
X-81791D02*
D03*
X-84449Y36319D02*
D03*
X-81791Y36417D02*
D03*
X-79429D02*
D03*
X4921Y15650D02*
D03*
X-5118Y15748D02*
D03*
X105905Y47047D02*
D03*
X105315Y32579D02*
D03*
Y27559D02*
D03*
X101279Y32283D02*
D03*
X109941D02*
D03*
X-52461Y102264D02*
D03*
X103445Y49213D02*
D03*
X105709Y51772D02*
D03*
X114272Y58169D02*
D03*
X80118Y63583D02*
D03*
X122638Y51968D02*
D03*
X124311Y49213D02*
D03*
X108366Y54134D02*
D03*
X125591Y55807D02*
D03*
X114469Y61319D02*
D03*
X124114Y62008D02*
D03*
X124311Y58760D02*
D03*
X100886Y55807D02*
D03*
X100787Y47047D02*
D03*
X83465Y54429D02*
D03*
X83268Y66142D02*
D03*
X83084Y84296D02*
D03*
X-52461Y113484D02*
D03*
X-38976Y157283D02*
D03*
X-4528Y96161D02*
D03*
X-4134Y87303D02*
D03*
X-3839Y84646D02*
D03*
X-1673Y96063D02*
D03*
X-1575Y88681D02*
D03*
X-48031Y86417D02*
D03*
X-54057Y97081D02*
D03*
X-45276Y86417D02*
D03*
X-102362Y66831D02*
D03*
X-102461Y69980D02*
D03*
X-102362Y74606D02*
D03*
X-95276Y76876D02*
D03*
X-94790Y85017D02*
D03*
X-116339Y99584D02*
D03*
X-122343Y101772D02*
D03*
X-121752Y96457D02*
D03*
X-95374Y59449D02*
D03*
X-104823Y54331D02*
D03*
X-87894Y54035D02*
D03*
X-62500Y151772D02*
D03*
X-46949Y148524D02*
D03*
X-59252Y130905D02*
D03*
X-59449Y126969D02*
D03*
X-47933Y115354D02*
D03*
X-41929Y114392D02*
D03*
X40157Y140453D02*
D03*
X53347D02*
D03*
X66535Y140748D02*
D03*
X79528Y140847D02*
D03*
X53248Y86122D02*
D03*
X46358Y95571D02*
D03*
X116831Y105610D02*
D03*
X122835Y89836D02*
D03*
X124609Y77264D02*
D03*
X70669Y52067D02*
D03*
X67126Y51870D02*
D03*
X77067Y80020D02*
D03*
X77559Y77461D02*
D03*
X87205Y31299D02*
D03*
X91043Y31496D02*
D03*
X88878Y27953D02*
D03*
X105512Y23720D02*
D03*
X136024Y37402D02*
D03*
X128543Y37303D02*
D03*
X-114862Y14370D02*
D03*
X-103248Y14272D02*
D03*
X-115059Y8465D02*
D03*
X-103543Y8071D02*
D03*
X-108563Y13976D02*
D03*
X-107972Y8169D02*
D03*
X17599Y232382D02*
D03*
X21850Y231890D02*
D03*
X-16339Y234842D02*
D03*
X-16437Y230709D02*
D03*
X15059Y151673D02*
D03*
X12992Y146161D02*
D03*
X-1673Y146260D02*
D03*
X-3543Y143701D02*
D03*
X10434Y148137D02*
D03*
X10433Y141929D02*
D03*
X-5118Y140945D02*
D03*
X-37795Y113681D02*
D03*
Y103937D02*
D03*
X96850Y107874D02*
D03*
X28543Y108957D02*
D03*
X25000Y108858D02*
D03*
X25197Y112697D02*
D03*
X21752Y113386D02*
D03*
X-3642Y204035D02*
D03*
X-5906Y201673D02*
D03*
X-197Y225098D02*
D03*
X-3642Y227559D02*
D03*
X26378Y94291D02*
D03*
X-29724Y81595D02*
D03*
X-31004Y107087D02*
D03*
X-41732Y103740D02*
D03*
X-43996Y40059D02*
D03*
X-46260D02*
D03*
X-43898Y37106D02*
D03*
X-48524Y40059D02*
D03*
X-46260Y37106D02*
D03*
X-48622D02*
D03*
X-41437D02*
D03*
X-39075D02*
D03*
X-41339Y40059D02*
D03*
X-39075D02*
D03*
X-38976Y143405D02*
D03*
X96949Y89961D02*
D03*
Y95079D02*
D03*
X96850Y114961D02*
D03*
X99508Y97933D02*
D03*
X99410Y87205D02*
D03*
X13681Y204823D02*
D03*
X15748Y206201D02*
D03*
X17323Y208071D02*
D03*
X19094Y205413D02*
D03*
X17028Y203839D02*
D03*
X13287Y202461D02*
D03*
X12894Y214961D02*
D03*
X15453Y214075D02*
D03*
X16142Y210630D02*
D03*
X-58071Y154823D02*
D03*
X-59646Y151870D02*
D03*
X-66437Y157480D02*
D03*
X-66831Y154232D02*
D03*
X-65453Y151870D02*
D03*
X-37992Y83858D02*
D03*
X-48819Y83760D02*
D03*
X-1575Y92421D02*
D03*
X-6594Y94095D02*
D03*
X-6693Y91732D02*
D03*
X-6299Y88681D02*
D03*
X-6102Y86024D02*
D03*
X-99902Y93701D02*
D03*
X-99213Y96752D02*
D03*
X-103937Y92421D02*
D03*
X-118701Y104921D02*
D03*
X-115748Y104724D02*
D03*
X135039Y82972D02*
D03*
X132185Y95866D02*
D03*
X138976Y101279D02*
D03*
X136516Y93701D02*
D03*
X131398Y101378D02*
D03*
X101575Y126969D02*
D03*
X99016Y134055D02*
D03*
X105905Y139862D02*
D03*
X107677Y129232D02*
D03*
X94784Y128150D02*
D03*
X95965Y139961D02*
D03*
X-13386Y216732D02*
D03*
X-13484Y213779D02*
D03*
Y211417D02*
D03*
X-13583Y208465D02*
D03*
X-12992Y204429D02*
D03*
X-10039Y203740D02*
D03*
X-12795Y230413D02*
D03*
X-12894Y234252D02*
D03*
X-9055Y233366D02*
D03*
X-9154Y230217D02*
D03*
X-7579Y226575D02*
D03*
X-5906Y232283D02*
D03*
X-6791Y236122D02*
D03*
X-10630Y237402D02*
D03*
X75886Y104724D02*
D03*
X78051Y102559D02*
D03*
X78445Y92323D02*
D03*
X100394Y81004D02*
D03*
X97146Y74114D02*
D03*
M02*
