%FSLAX25Y25*%
%MOIN*%
G70*
G01*
G75*
G04 Layer_Color=16711935*
%ADD10C,0.00787*%
%ADD11C,0.01181*%
%ADD12R,0.02756X0.04921*%
%ADD13O,0.07874X0.05906*%
%ADD14R,0.07874X0.05906*%
%ADD15C,0.11811*%
%ADD16R,0.01181X0.03347*%
%ADD17R,0.02362X0.03347*%
%ADD18R,0.03543X0.06693*%
%ADD19O,0.05906X0.07874*%
%ADD20R,0.05906X0.07874*%
%ADD21R,0.05512X0.02362*%
%ADD22R,0.03150X0.07874*%
%ADD23R,0.02362X0.07874*%
%ADD24O,0.07480X0.12992*%
%ADD25R,0.01575X0.04724*%
%ADD26R,0.03937X0.03543*%
%ADD27O,0.02362X0.05512*%
%ADD28R,0.02362X0.01969*%
%ADD29R,0.01969X0.02362*%
%ADD30R,0.04921X0.02756*%
%ADD31R,0.03543X0.03937*%
%ADD32R,0.05118X0.03150*%
%ADD33R,0.03150X0.05118*%
%ADD34R,0.03150X0.03150*%
%ADD35R,0.06693X0.03543*%
%ADD36R,0.03543X0.02362*%
G04:AMPARAMS|DCode=37|XSize=98.43mil|YSize=59.06mil|CornerRadius=14.76mil|HoleSize=0mil|Usage=FLASHONLY|Rotation=90.000|XOffset=0mil|YOffset=0mil|HoleType=Round|Shape=RoundedRectangle|*
%AMROUNDEDRECTD37*
21,1,0.09843,0.02953,0,0,90.0*
21,1,0.06890,0.05906,0,0,90.0*
1,1,0.02953,0.01476,0.03445*
1,1,0.02953,0.01476,-0.03445*
1,1,0.02953,-0.01476,-0.03445*
1,1,0.02953,-0.01476,0.03445*
%
%ADD37ROUNDEDRECTD37*%
%ADD38C,0.07874*%
%ADD39C,0.02559*%
G04:AMPARAMS|DCode=40|XSize=39.37mil|YSize=62.99mil|CornerRadius=17.72mil|HoleSize=0mil|Usage=FLASHONLY|Rotation=180.000|XOffset=0mil|YOffset=0mil|HoleType=Round|Shape=RoundedRectangle|*
%AMROUNDEDRECTD40*
21,1,0.03937,0.02756,0,0,180.0*
21,1,0.00394,0.06299,0,0,180.0*
1,1,0.03543,-0.00197,0.01378*
1,1,0.03543,0.00197,0.01378*
1,1,0.03543,0.00197,-0.01378*
1,1,0.03543,-0.00197,-0.01378*
%
%ADD40ROUNDEDRECTD40*%
G04:AMPARAMS|DCode=41|XSize=39.37mil|YSize=82.68mil|CornerRadius=17.72mil|HoleSize=0mil|Usage=FLASHONLY|Rotation=180.000|XOffset=0mil|YOffset=0mil|HoleType=Round|Shape=RoundedRectangle|*
%AMROUNDEDRECTD41*
21,1,0.03937,0.04724,0,0,180.0*
21,1,0.00394,0.08268,0,0,180.0*
1,1,0.03543,-0.00197,0.02362*
1,1,0.03543,0.00197,0.02362*
1,1,0.03543,0.00197,-0.02362*
1,1,0.03543,-0.00197,-0.02362*
%
%ADD41ROUNDEDRECTD41*%
%ADD42C,0.02362*%
%ADD43C,0.00394*%
%ADD44C,0.02362*%
%ADD45C,0.00984*%
%ADD46C,0.01969*%
%ADD47C,0.00197*%
%ADD48C,0.00500*%
%ADD49C,0.00800*%
%ADD50C,0.00591*%
%ADD51C,0.01000*%
%ADD52R,0.03556X0.05721*%
%ADD53O,0.08674X0.06706*%
%ADD54R,0.08674X0.06706*%
%ADD55C,0.12611*%
%ADD56R,0.01981X0.04147*%
%ADD57R,0.03162X0.04147*%
%ADD58R,0.04343X0.07493*%
%ADD59O,0.06706X0.08674*%
%ADD60R,0.06706X0.08674*%
%ADD61R,0.06312X0.03162*%
%ADD62R,0.03950X0.08674*%
%ADD63R,0.03162X0.08674*%
%ADD64O,0.08280X0.13792*%
%ADD65R,0.02375X0.05524*%
%ADD66R,0.04737X0.04343*%
%ADD67O,0.03162X0.06312*%
%ADD68R,0.03162X0.02769*%
%ADD69R,0.02769X0.03162*%
%ADD70R,0.05721X0.03556*%
%ADD71R,0.04343X0.04737*%
%ADD72R,0.05918X0.03950*%
%ADD73R,0.03950X0.05918*%
%ADD74R,0.03543X0.03543*%
%ADD75R,0.07493X0.04343*%
%ADD76R,0.04343X0.03162*%
G04:AMPARAMS|DCode=77|XSize=106.42mil|YSize=67.06mil|CornerRadius=18.76mil|HoleSize=0mil|Usage=FLASHONLY|Rotation=90.000|XOffset=0mil|YOffset=0mil|HoleType=Round|Shape=RoundedRectangle|*
%AMROUNDEDRECTD77*
21,1,0.10642,0.02953,0,0,90.0*
21,1,0.06890,0.06706,0,0,90.0*
1,1,0.03753,0.01476,0.03445*
1,1,0.03753,0.01476,-0.03445*
1,1,0.03753,-0.01476,-0.03445*
1,1,0.03753,-0.01476,0.03445*
%
%ADD77ROUNDEDRECTD77*%
%ADD78C,0.03359*%
G04:AMPARAMS|DCode=79|XSize=47.37mil|YSize=70.99mil|CornerRadius=21.72mil|HoleSize=0mil|Usage=FLASHONLY|Rotation=180.000|XOffset=0mil|YOffset=0mil|HoleType=Round|Shape=RoundedRectangle|*
%AMROUNDEDRECTD79*
21,1,0.04737,0.02756,0,0,180.0*
21,1,0.00394,0.07099,0,0,180.0*
1,1,0.04343,-0.00197,0.01378*
1,1,0.04343,0.00197,0.01378*
1,1,0.04343,0.00197,-0.01378*
1,1,0.04343,-0.00197,-0.01378*
%
%ADD79ROUNDEDRECTD79*%
G04:AMPARAMS|DCode=80|XSize=47.37mil|YSize=90.68mil|CornerRadius=21.72mil|HoleSize=0mil|Usage=FLASHONLY|Rotation=180.000|XOffset=0mil|YOffset=0mil|HoleType=Round|Shape=RoundedRectangle|*
%AMROUNDEDRECTD80*
21,1,0.04737,0.04724,0,0,180.0*
21,1,0.00394,0.09068,0,0,180.0*
1,1,0.04343,-0.00197,0.02362*
1,1,0.04343,0.00197,0.02362*
1,1,0.04343,0.00197,-0.02362*
1,1,0.04343,-0.00197,-0.02362*
%
%ADD80ROUNDEDRECTD80*%
%ADD81C,0.03162*%
D78*
X-11379Y225702D02*
D03*
X11377D02*
D03*
D79*
X17065Y240190D02*
D03*
X-16990D02*
D03*
D80*
X-16970Y223733D02*
D03*
X17065D02*
D03*
D81*
X-5118Y140945D02*
D03*
X-37795Y103937D02*
D03*
X96850Y107874D02*
D03*
X25000Y108858D02*
D03*
X25197Y112697D02*
D03*
X21752Y113386D02*
D03*
X-3642Y227559D02*
D03*
X-31004Y107087D02*
D03*
X-41732Y103740D02*
D03*
X-38976Y143405D02*
D03*
X96949Y89961D02*
D03*
Y95079D02*
D03*
X99508Y97933D02*
D03*
X99410Y87205D02*
D03*
M02*
