%FSLAX25Y25*%
%MOIN*%
G70*
G01*
G75*
%ADD10C,0.00500*%
%ADD11C,0.00667*%
D10*
X-12659Y225702D02*
X-10100D01*
X-11379Y224422D02*
Y226981D01*
X15884Y240190D02*
X18247D01*
X17065Y239009D02*
Y241371D01*
X-18171Y240190D02*
X-15809D01*
X-16990Y239009D02*
Y241371D01*
X-18151Y223733D02*
X-15789D01*
X-16970Y222552D02*
Y224914D01*
X15884Y223733D02*
X18247D01*
X17065Y222552D02*
Y224914D01*
X10097Y225702D02*
X12656D01*
X11377Y224422D02*
Y226981D01*
X-39272Y79626D02*
X-37697D01*
X-38484Y78839D02*
Y80413D01*
X-45276Y89272D02*
X-43701D01*
X-44488Y88484D02*
Y90059D01*
X-95374Y89961D02*
X-93799D01*
X-94587Y89173D02*
Y90748D01*
X-95571Y95669D02*
X-93996D01*
X-94784Y94882D02*
Y96457D01*
X-105512Y95866D02*
X-103937D01*
X-104724Y95079D02*
Y96653D01*
X-95768Y54921D02*
X-94193D01*
X-94980Y54134D02*
Y55709D01*
X83661Y29921D02*
X85236D01*
X84449Y29134D02*
Y30709D01*
X128051Y45472D02*
X129626D01*
X128839Y44685D02*
Y46260D01*
X138976Y87795D02*
X140551D01*
X139764Y87008D02*
Y88583D01*
X131004Y88976D02*
X132579D01*
X131791Y88189D02*
Y89764D01*
X131496Y77559D02*
X133071D01*
X132283Y76772D02*
Y78347D01*
X138386Y77264D02*
X139961D01*
X139173Y76476D02*
Y78051D01*
X105905Y98130D02*
X107480D01*
X106693Y97342D02*
Y98917D01*
X106496Y106890D02*
X108071D01*
X107283Y106102D02*
Y107677D01*
X-57776Y85433D02*
X-56201D01*
X-56988Y84646D02*
Y86221D01*
X-27756Y121555D02*
X-26181D01*
X-26969Y120768D02*
Y122343D01*
X-10827Y120669D02*
X-9252D01*
X-10039Y119882D02*
Y121457D01*
Y141929D02*
X-8465D01*
X-9252Y141142D02*
Y142717D01*
X-28150Y143307D02*
X-26575D01*
X-27362Y142520D02*
Y144095D01*
X-13484Y174409D02*
X-11909D01*
X-12697Y173622D02*
Y175197D01*
X-29823Y175886D02*
X-28248D01*
X-29035Y175098D02*
Y176673D01*
X-11811Y185728D02*
X-10236D01*
X-11024Y184941D02*
Y186516D01*
X-32677Y186319D02*
X-31102D01*
X-31890Y185531D02*
Y187106D01*
X-13780Y162205D02*
X-12205D01*
X-12992Y161417D02*
Y162992D01*
X-29035Y162697D02*
X-27461D01*
X-28248Y161909D02*
Y163484D01*
X-81102Y122047D02*
X-79528D01*
X-80315Y121260D02*
Y122835D01*
X-81693Y142028D02*
X-80118D01*
X-80905Y141240D02*
Y142815D01*
X-99114Y120669D02*
X-97539D01*
X-98327Y119882D02*
Y121457D01*
X-115945Y120768D02*
X-114370D01*
X-115157Y119980D02*
Y121555D01*
X-113091Y135335D02*
X-111516D01*
X-112303Y134547D02*
Y136122D01*
X-99410Y143701D02*
X-97835D01*
X-98622Y142913D02*
Y144488D01*
X-73819Y160138D02*
X-72244D01*
X-73032Y159350D02*
Y160925D01*
X-46457Y174902D02*
X-44882D01*
X-45669Y174114D02*
Y175689D01*
X16142Y170571D02*
X17717D01*
X16929Y169783D02*
Y171358D01*
X17028Y186122D02*
X18602D01*
X17815Y185335D02*
Y186909D01*
X58366Y161122D02*
X59941D01*
X59153Y160335D02*
Y161909D01*
X42815Y161122D02*
X44390D01*
X43602Y160335D02*
Y161909D01*
X23917Y160925D02*
X25492D01*
X24705Y160138D02*
Y161713D01*
X73819Y160728D02*
X75394D01*
X74606Y159941D02*
Y161516D01*
X28445Y173031D02*
X30020D01*
X29232Y172244D02*
Y173819D01*
X112697Y135630D02*
X114272D01*
X113484Y134843D02*
Y136417D01*
X111909Y118012D02*
X113484D01*
X112697Y117224D02*
Y118799D01*
X96358Y119193D02*
X97933D01*
X97146Y118405D02*
Y119980D01*
X80216Y112402D02*
X81791D01*
X81004Y111614D02*
Y113189D01*
X74410Y112402D02*
X75984D01*
X75197Y111614D02*
Y113189D01*
X81693Y119193D02*
X83268D01*
X82480Y118405D02*
Y119980D01*
X73917Y119193D02*
X75492D01*
X74705Y118405D02*
Y119980D01*
X98819Y11122D02*
X100394D01*
X99606Y10335D02*
Y11909D01*
X115256Y11319D02*
X116831D01*
X116043Y10531D02*
Y12106D01*
X119882Y20374D02*
X121457D01*
X120669Y19587D02*
Y21161D01*
X114567Y4626D02*
X116142D01*
X115354Y3839D02*
Y5413D01*
X98228Y5413D02*
X99803D01*
X99016Y4626D02*
Y6201D01*
X88484Y23228D02*
X90059D01*
X89272Y22441D02*
Y24016D01*
X111122Y27264D02*
X112697D01*
X111909Y26476D02*
Y28051D01*
X107972Y24902D02*
X109547D01*
X108760Y24114D02*
Y25689D01*
X63189Y51870D02*
X64764D01*
X63976Y51083D02*
Y52658D01*
X55807Y85827D02*
X57382D01*
X56595Y85039D02*
Y86614D01*
X55905Y89665D02*
X57480D01*
X56693Y88878D02*
Y90453D01*
X-103051Y59449D02*
X-101476D01*
X-102264Y58661D02*
Y60236D01*
X-91437Y79429D02*
X-89862D01*
X-90650Y78642D02*
Y80216D01*
X-100689Y89272D02*
X-99114D01*
X-99902Y88484D02*
Y90059D01*
X-107185Y88976D02*
X-105610D01*
X-106398Y88189D02*
Y89764D01*
X-127756Y96063D02*
X-126181D01*
X-126969Y95276D02*
Y96850D01*
X-127953Y101673D02*
X-126378D01*
X-127165Y100886D02*
Y102461D01*
X-42323Y85433D02*
X-40748D01*
X-41535Y84646D02*
Y86221D01*
X-36024Y120669D02*
X-34449D01*
X-35236Y119882D02*
Y121457D01*
X-36319Y115945D02*
X-34744D01*
X-35531Y115157D02*
Y116732D01*
X-65945Y124803D02*
X-64370D01*
X-65158Y124016D02*
Y125591D01*
X-66043Y118602D02*
X-64468D01*
X-65256Y117815D02*
Y119390D01*
X-56398Y152165D02*
X-54823D01*
X-55610Y151378D02*
Y152953D01*
X71457Y68701D02*
X73032D01*
X72244Y67913D02*
Y69488D01*
X79528Y77756D02*
X81102D01*
X80315Y76968D02*
Y78543D01*
X80610Y96161D02*
X82185D01*
X81398Y95374D02*
Y96949D01*
X77756Y71949D02*
X79331D01*
X78543Y71161D02*
Y72736D01*
X77854Y68701D02*
X79429D01*
X78642Y67913D02*
Y69488D01*
X69882Y71949D02*
X71457D01*
X70669Y71161D02*
Y72736D01*
X66535Y64468D02*
X68110D01*
X67323Y63681D02*
Y65256D01*
X11122Y151181D02*
X12697D01*
X11909Y150394D02*
Y151969D01*
X-3347Y154724D02*
X-1772D01*
X-2559Y153937D02*
Y155512D01*
X-3445Y151575D02*
X-1870D01*
X-2657Y150787D02*
Y152362D01*
X-44094Y157382D02*
X-42520D01*
X-43307Y156595D02*
Y158169D01*
X83957Y10236D02*
X85532D01*
X84744Y9449D02*
Y11024D01*
X-95866Y5906D02*
X-94291D01*
X-95079Y5118D02*
Y6693D01*
X86319Y5709D02*
X87894D01*
X87106Y4921D02*
Y6496D01*
X81201Y6299D02*
X82776D01*
X81988Y5512D02*
Y7087D01*
X-95669Y2756D02*
X-94095D01*
X-94882Y1969D02*
Y3543D01*
X78543Y8071D02*
X80118D01*
X79331Y7284D02*
Y8858D01*
X11417Y71260D02*
X12992D01*
X12205Y70472D02*
Y72047D01*
X21457Y71358D02*
X23031D01*
X22244Y70571D02*
Y72146D01*
X-28051Y71555D02*
X-26476D01*
X-27264Y70768D02*
Y72342D01*
X-18012Y71358D02*
X-16437D01*
X-17224Y70571D02*
Y72146D01*
X-85236Y41142D02*
X-83661D01*
X-84449Y40354D02*
Y41929D01*
X-80315Y41240D02*
X-78740D01*
X-79528Y40453D02*
Y42028D01*
X-82677Y41142D02*
X-81102D01*
X-81890Y40354D02*
Y41929D01*
X-85236Y38878D02*
X-83661D01*
X-84449Y38091D02*
Y39665D01*
X-80216Y38878D02*
X-78642D01*
X-79429Y38091D02*
Y39665D01*
X-82579Y38878D02*
X-81004D01*
X-81791Y38091D02*
Y39665D01*
X-85236Y36319D02*
X-83661D01*
X-84449Y35531D02*
Y37106D01*
X-82579Y36417D02*
X-81004D01*
X-81791Y35630D02*
Y37205D01*
X-80216Y36417D02*
X-78642D01*
X-79429Y35630D02*
Y37205D01*
X4134Y15650D02*
X5709D01*
X4921Y14862D02*
Y16437D01*
X-5906Y15748D02*
X-4331D01*
X-5118Y14961D02*
Y16535D01*
X105118Y47047D02*
X106693D01*
X105905Y46260D02*
Y47835D01*
X104528Y32579D02*
X106102D01*
X105315Y31791D02*
Y33366D01*
X104528Y27559D02*
X106102D01*
X105315Y26772D02*
Y28346D01*
X100492Y32283D02*
X102067D01*
X101279Y31496D02*
Y33071D01*
X109153Y32283D02*
X110728D01*
X109941Y31496D02*
Y33071D01*
X-53248Y102264D02*
X-51673D01*
X-52461Y101476D02*
Y103051D01*
X102657Y49213D02*
X104232D01*
X103445Y48425D02*
Y50000D01*
X104921Y51772D02*
X106496D01*
X105709Y50984D02*
Y52559D01*
X113484Y58169D02*
X115059D01*
X114272Y57382D02*
Y58957D01*
X79331Y63583D02*
X80905D01*
X80118Y62795D02*
Y64370D01*
X121850Y51968D02*
X123425D01*
X122638Y51181D02*
Y52756D01*
X123524Y49213D02*
X125098D01*
X124311Y48425D02*
Y50000D01*
X107579Y54134D02*
X109153D01*
X108366Y53347D02*
Y54921D01*
X124803Y55807D02*
X126378D01*
X125591Y55020D02*
Y56595D01*
X113681Y61319D02*
X115256D01*
X114469Y60532D02*
Y62106D01*
X123327Y62008D02*
X124902D01*
X124114Y61221D02*
Y62795D01*
X123524Y58760D02*
X125098D01*
X124311Y57972D02*
Y59547D01*
X100098Y55807D02*
X101673D01*
X100886Y55020D02*
Y56595D01*
X100000Y47047D02*
X101575D01*
X100787Y46260D02*
Y47835D01*
X82677Y54429D02*
X84252D01*
X83465Y53642D02*
Y55216D01*
X82480Y66142D02*
X84055D01*
X83268Y65354D02*
Y66929D01*
X82297Y84296D02*
X83872D01*
X83084Y83508D02*
Y85083D01*
X-53248Y113484D02*
X-51673D01*
X-52461Y112697D02*
Y114272D01*
X-39764Y157283D02*
X-38189D01*
X-38976Y156496D02*
Y158071D01*
X-5315Y96161D02*
X-3740D01*
X-4528Y95374D02*
Y96949D01*
X-4921Y87303D02*
X-3347D01*
X-4134Y86516D02*
Y88090D01*
X-4626Y84646D02*
X-3051D01*
X-3839Y83858D02*
Y85433D01*
X-2461Y96063D02*
X-886D01*
X-1673Y95276D02*
Y96850D01*
X-2362Y88681D02*
X-787D01*
X-1575Y87894D02*
Y89468D01*
X-48819Y86417D02*
X-47244D01*
X-48031Y85630D02*
Y87205D01*
X-54845Y97081D02*
X-53270D01*
X-54057Y96294D02*
Y97869D01*
X-46063Y86417D02*
X-44488D01*
X-45276Y85630D02*
Y87205D01*
X-103150Y66831D02*
X-101575D01*
X-102362Y66043D02*
Y67618D01*
X-103248Y69980D02*
X-101673D01*
X-102461Y69193D02*
Y70768D01*
X-103150Y74606D02*
X-101575D01*
X-102362Y73819D02*
Y75394D01*
X-96063Y76876D02*
X-94488D01*
X-95276Y76089D02*
Y77664D01*
X-95578Y85017D02*
X-94003D01*
X-94790Y84230D02*
Y85804D01*
X-117126Y99584D02*
X-115551D01*
X-116339Y98797D02*
Y100372D01*
X-123130Y101772D02*
X-121555D01*
X-122343Y100984D02*
Y102559D01*
X-122539Y96457D02*
X-120965D01*
X-121752Y95669D02*
Y97244D01*
X-96161Y59449D02*
X-94587D01*
X-95374Y58661D02*
Y60236D01*
X-105610Y54331D02*
X-104035D01*
X-104823Y53543D02*
Y55118D01*
X-88681Y54035D02*
X-87106D01*
X-87894Y53248D02*
Y54823D01*
X-63287Y151772D02*
X-61713D01*
X-62500Y150984D02*
Y152559D01*
X-47736Y148524D02*
X-46161D01*
X-46949Y147736D02*
Y149311D01*
X-60039Y130905D02*
X-58465D01*
X-59252Y130118D02*
Y131693D01*
X-60236Y126969D02*
X-58661D01*
X-59449Y126181D02*
Y127756D01*
X-48720Y115354D02*
X-47146D01*
X-47933Y114567D02*
Y116142D01*
X-42717Y114392D02*
X-41142D01*
X-41929Y113605D02*
Y115180D01*
X39370Y140453D02*
X40945D01*
X40157Y139665D02*
Y141240D01*
X52559Y140453D02*
X54134D01*
X53347Y139665D02*
Y141240D01*
X65748Y140748D02*
X67323D01*
X66535Y139961D02*
Y141535D01*
X78740Y140847D02*
X80315D01*
X79528Y140059D02*
Y141634D01*
X52461Y86122D02*
X54035D01*
X53248Y85335D02*
Y86910D01*
X45571Y95571D02*
X47146D01*
X46358Y94784D02*
Y96358D01*
X116043Y105610D02*
X117618D01*
X116831Y104823D02*
Y106398D01*
X122047Y89836D02*
X123622D01*
X122835Y89049D02*
Y90623D01*
X123821Y77264D02*
X125396D01*
X124609Y76476D02*
Y78051D01*
X69882Y52067D02*
X71457D01*
X70669Y51279D02*
Y52854D01*
X66339Y51870D02*
X67913D01*
X67126Y51083D02*
Y52658D01*
X76279Y80020D02*
X77854D01*
X77067Y79232D02*
Y80807D01*
X76772Y77461D02*
X78347D01*
X77559Y76673D02*
Y78248D01*
X86417Y31299D02*
X87992D01*
X87205Y30512D02*
Y32087D01*
X90256Y31496D02*
X91831D01*
X91043Y30709D02*
Y32283D01*
X88090Y27953D02*
X89665D01*
X88878Y27165D02*
Y28740D01*
X104724Y23720D02*
X106299D01*
X105512Y22933D02*
Y24508D01*
X135236Y37402D02*
X136811D01*
X136024Y36614D02*
Y38189D01*
X127756Y37303D02*
X129331D01*
X128543Y36516D02*
Y38091D01*
X-115650Y14370D02*
X-114075D01*
X-114862Y13583D02*
Y15157D01*
X-104035Y14272D02*
X-102461D01*
X-103248Y13484D02*
Y15059D01*
X-115847Y8465D02*
X-114272D01*
X-115059Y7677D02*
Y9252D01*
X-104331Y8071D02*
X-102756D01*
X-103543Y7283D02*
Y8858D01*
X-109350Y13976D02*
X-107776D01*
X-108563Y13189D02*
Y14764D01*
X-108760Y8169D02*
X-107185D01*
X-107972Y7382D02*
Y8957D01*
X16811Y232382D02*
X18386D01*
X17599Y231594D02*
Y233169D01*
X21063Y231890D02*
X22638D01*
X21850Y231102D02*
Y232677D01*
X-17126Y234842D02*
X-15551D01*
X-16339Y234055D02*
Y235630D01*
X-17224Y230709D02*
X-15650D01*
X-16437Y229921D02*
Y231496D01*
X14272Y151673D02*
X15846D01*
X15059Y150886D02*
Y152461D01*
X12205Y146161D02*
X13779D01*
X12992Y145374D02*
Y146949D01*
X-2461Y146260D02*
X-886D01*
X-1673Y145472D02*
Y147047D01*
X-4331Y143701D02*
X-2756D01*
X-3543Y142913D02*
Y144488D01*
X9646Y148137D02*
X11221D01*
X10434Y147350D02*
Y148925D01*
X9646Y141929D02*
X11220D01*
X10433Y141142D02*
Y142717D01*
X-5906Y140945D02*
X-4331D01*
X-5118Y140157D02*
Y141732D01*
X-38583Y113681D02*
X-37008D01*
X-37795Y112894D02*
Y114469D01*
X-38583Y103937D02*
X-37008D01*
X-37795Y103150D02*
Y104724D01*
X96063Y107874D02*
X97638D01*
X96850Y107087D02*
Y108661D01*
X27756Y108957D02*
X29331D01*
X28543Y108169D02*
Y109744D01*
X24213Y108858D02*
X25787D01*
X25000Y108071D02*
Y109646D01*
X24409Y112697D02*
X25984D01*
X25197Y111909D02*
Y113484D01*
X20965Y113386D02*
X22539D01*
X21752Y112598D02*
Y114173D01*
X-4429Y204035D02*
X-2854D01*
X-3642Y203248D02*
Y204823D01*
X-6693Y201673D02*
X-5118D01*
X-5906Y200886D02*
Y202461D01*
X-984Y225098D02*
X591D01*
X-197Y224311D02*
Y225886D01*
X-4429Y227559D02*
X-2854D01*
X-3642Y226772D02*
Y228346D01*
X25591Y94291D02*
X27165D01*
X26378Y93504D02*
Y95079D01*
X-30512Y81595D02*
X-28937D01*
X-29724Y80807D02*
Y82382D01*
X-31791Y107087D02*
X-30217D01*
X-31004Y106299D02*
Y107874D01*
X-42520Y103740D02*
X-40945D01*
X-41732Y102953D02*
Y104527D01*
X-44783Y40059D02*
X-43209D01*
X-43996Y39272D02*
Y40846D01*
X-47047Y40059D02*
X-45472D01*
X-46260Y39272D02*
Y40846D01*
X-44685Y37106D02*
X-43110D01*
X-43898Y36319D02*
Y37894D01*
X-49311Y40059D02*
X-47736D01*
X-48524Y39272D02*
Y40846D01*
X-47047Y37106D02*
X-45472D01*
X-46260Y36319D02*
Y37894D01*
X-49409Y37106D02*
X-47835D01*
X-48622Y36319D02*
Y37894D01*
X-42224Y37106D02*
X-40650D01*
X-41437Y36319D02*
Y37894D01*
X-39862Y37106D02*
X-38287D01*
X-39075Y36319D02*
Y37894D01*
X-42126Y40059D02*
X-40551D01*
X-41339Y39272D02*
Y40846D01*
X-39862Y40059D02*
X-38287D01*
X-39075Y39272D02*
Y40846D01*
X-39764Y143405D02*
X-38189D01*
X-38976Y142618D02*
Y144193D01*
X96161Y89961D02*
X97736D01*
X96949Y89173D02*
Y90748D01*
X96161Y95079D02*
X97736D01*
X96949Y94291D02*
Y95866D01*
X96063Y114961D02*
X97638D01*
X96850Y114173D02*
Y115748D01*
X98721Y97933D02*
X100295D01*
X99508Y97146D02*
Y98721D01*
X98622Y87205D02*
X100197D01*
X99410Y86417D02*
Y87992D01*
X12894Y204823D02*
X14469D01*
X13681Y204035D02*
Y205610D01*
X14961Y206201D02*
X16535D01*
X15748Y205413D02*
Y206988D01*
X16535Y208071D02*
X18110D01*
X17323Y207283D02*
Y208858D01*
X18307Y205413D02*
X19882D01*
X19094Y204626D02*
Y206201D01*
X16240Y203839D02*
X17815D01*
X17028Y203051D02*
Y204626D01*
X12500Y202461D02*
X14075D01*
X13287Y201673D02*
Y203248D01*
X12106Y214961D02*
X13681D01*
X12894Y214173D02*
Y215748D01*
X14665Y214075D02*
X16240D01*
X15453Y213287D02*
Y214862D01*
X15354Y210630D02*
X16929D01*
X16142Y209842D02*
Y211417D01*
X-58858Y154823D02*
X-57284D01*
X-58071Y154035D02*
Y155610D01*
X-60433Y151870D02*
X-58858D01*
X-59646Y151083D02*
Y152657D01*
X-67224Y157480D02*
X-65650D01*
X-66437Y156693D02*
Y158268D01*
X-67618Y154232D02*
X-66043D01*
X-66831Y153445D02*
Y155020D01*
X-66240Y151870D02*
X-64665D01*
X-65453Y151083D02*
Y152657D01*
X-38780Y83858D02*
X-37205D01*
X-37992Y83071D02*
Y84646D01*
X-49606Y83760D02*
X-48031D01*
X-48819Y82972D02*
Y84547D01*
X-2362Y92421D02*
X-787D01*
X-1575Y91634D02*
Y93209D01*
X-7382Y94095D02*
X-5807D01*
X-6594Y93307D02*
Y94882D01*
X-7480Y91732D02*
X-5906D01*
X-6693Y90945D02*
Y92520D01*
X-7087Y88681D02*
X-5512D01*
X-6299Y87894D02*
Y89468D01*
X-6890Y86024D02*
X-5315D01*
X-6102Y85236D02*
Y86811D01*
X-100689Y93701D02*
X-99114D01*
X-99902Y92913D02*
Y94488D01*
X-100000Y96752D02*
X-98425D01*
X-99213Y95965D02*
Y97539D01*
X-104724Y92421D02*
X-103150D01*
X-103937Y91634D02*
Y93209D01*
X-119488Y104921D02*
X-117913D01*
X-118701Y104134D02*
Y105709D01*
X-116535Y104724D02*
X-114961D01*
X-115748Y103937D02*
Y105512D01*
X134252Y82972D02*
X135827D01*
X135039Y82185D02*
Y83760D01*
X131398Y95866D02*
X132972D01*
X132185Y95079D02*
Y96653D01*
X138189Y101279D02*
X139764D01*
X138976Y100492D02*
Y102067D01*
X135728Y93701D02*
X137303D01*
X136516Y92913D02*
Y94488D01*
X130610Y101378D02*
X132185D01*
X131398Y100591D02*
Y102165D01*
X100787Y126969D02*
X102362D01*
X101575Y126181D02*
Y127756D01*
X98228Y134055D02*
X99803D01*
X99016Y133268D02*
Y134843D01*
X105118Y139862D02*
X106693D01*
X105905Y139075D02*
Y140650D01*
X106890Y129232D02*
X108465D01*
X107677Y128445D02*
Y130020D01*
X93996Y128150D02*
X95571D01*
X94784Y127362D02*
Y128937D01*
X95177Y139961D02*
X96752D01*
X95965Y139173D02*
Y140748D01*
X-14173Y216732D02*
X-12598D01*
X-13386Y215945D02*
Y217520D01*
X-14272Y213779D02*
X-12697D01*
X-13484Y212992D02*
Y214567D01*
X-14272Y211417D02*
X-12697D01*
X-13484Y210630D02*
Y212205D01*
X-14370Y208465D02*
X-12795D01*
X-13583Y207677D02*
Y209252D01*
X-13780Y204429D02*
X-12205D01*
X-12992Y203642D02*
Y205217D01*
X-10827Y203740D02*
X-9252D01*
X-10039Y202953D02*
Y204528D01*
X-13583Y230413D02*
X-12008D01*
X-12795Y229626D02*
Y231201D01*
X-13681Y234252D02*
X-12106D01*
X-12894Y233465D02*
Y235039D01*
X-9843Y233366D02*
X-8268D01*
X-9055Y232579D02*
Y234154D01*
X-9941Y230217D02*
X-8366D01*
X-9154Y229429D02*
Y231004D01*
X-8366Y226575D02*
X-6791D01*
X-7579Y225787D02*
Y227362D01*
X-6693Y232283D02*
X-5118D01*
X-5906Y231496D02*
Y233071D01*
X-7579Y236122D02*
X-6004D01*
X-6791Y235335D02*
Y236910D01*
X-11417Y237402D02*
X-9843D01*
X-10630Y236614D02*
Y238189D01*
X75098Y104724D02*
X76673D01*
X75886Y103937D02*
Y105512D01*
X77264Y102559D02*
X78839D01*
X78051Y101772D02*
Y103347D01*
X77658Y92323D02*
X79232D01*
X78445Y91535D02*
Y93110D01*
X99606Y81004D02*
X101181D01*
X100394Y80216D02*
Y81791D01*
X96358Y74114D02*
X97933D01*
X97146Y73327D02*
Y74902D01*
M02*
