%FSLAX25Y25*%
%MOIN*%
G70*
G01*
G75*
G04 Layer_Physical_Order=1*
G04 Layer_Color=255*
%ADD10C,0.00787*%
%ADD11C,0.01181*%
%ADD12R,0.02756X0.04921*%
%ADD13O,0.07874X0.05906*%
%ADD14R,0.07874X0.05906*%
%ADD15C,0.11811*%
%ADD16R,0.01181X0.03347*%
%ADD17R,0.02362X0.03347*%
%ADD18R,0.03543X0.06693*%
%ADD19O,0.05906X0.07874*%
%ADD20R,0.05906X0.07874*%
%ADD21R,0.05512X0.02362*%
%ADD22R,0.03150X0.07874*%
%ADD23R,0.02362X0.07874*%
%ADD24O,0.07480X0.12992*%
%ADD25R,0.01575X0.04724*%
%ADD26R,0.03937X0.03543*%
%ADD27O,0.02362X0.05512*%
%ADD28R,0.02362X0.01969*%
%ADD29R,0.01969X0.02362*%
%ADD30R,0.04921X0.02756*%
%ADD31R,0.03543X0.03937*%
%ADD32R,0.05118X0.03150*%
%ADD33R,0.03150X0.05118*%
%ADD34R,0.03150X0.03150*%
%ADD35R,0.06693X0.03543*%
%ADD36R,0.03543X0.02362*%
G04:AMPARAMS|DCode=37|XSize=98.43mil|YSize=59.06mil|CornerRadius=14.76mil|HoleSize=0mil|Usage=FLASHONLY|Rotation=90.000|XOffset=0mil|YOffset=0mil|HoleType=Round|Shape=RoundedRectangle|*
%AMROUNDEDRECTD37*
21,1,0.09843,0.02953,0,0,90.0*
21,1,0.06890,0.05906,0,0,90.0*
1,1,0.02953,0.01476,0.03445*
1,1,0.02953,0.01476,-0.03445*
1,1,0.02953,-0.01476,-0.03445*
1,1,0.02953,-0.01476,0.03445*
%
%ADD37ROUNDEDRECTD37*%
%ADD38C,0.07874*%
%ADD39C,0.02559*%
G04:AMPARAMS|DCode=40|XSize=39.37mil|YSize=62.99mil|CornerRadius=17.72mil|HoleSize=0mil|Usage=FLASHONLY|Rotation=180.000|XOffset=0mil|YOffset=0mil|HoleType=Round|Shape=RoundedRectangle|*
%AMROUNDEDRECTD40*
21,1,0.03937,0.02756,0,0,180.0*
21,1,0.00394,0.06299,0,0,180.0*
1,1,0.03543,-0.00197,0.01378*
1,1,0.03543,0.00197,0.01378*
1,1,0.03543,0.00197,-0.01378*
1,1,0.03543,-0.00197,-0.01378*
%
%ADD40ROUNDEDRECTD40*%
G04:AMPARAMS|DCode=41|XSize=39.37mil|YSize=82.68mil|CornerRadius=17.72mil|HoleSize=0mil|Usage=FLASHONLY|Rotation=180.000|XOffset=0mil|YOffset=0mil|HoleType=Round|Shape=RoundedRectangle|*
%AMROUNDEDRECTD41*
21,1,0.03937,0.04724,0,0,180.0*
21,1,0.00394,0.08268,0,0,180.0*
1,1,0.03543,-0.00197,0.02362*
1,1,0.03543,0.00197,0.02362*
1,1,0.03543,0.00197,-0.02362*
1,1,0.03543,-0.00197,-0.02362*
%
%ADD41ROUNDEDRECTD41*%
%ADD42C,0.02362*%
G36*
X-51083Y72933D02*
X-49885D01*
Y71619D01*
X-50100Y71475D01*
X-50535Y70824D01*
X-50688Y70056D01*
Y66906D01*
X-50535Y66138D01*
X-50100Y65487D01*
X-49449Y65052D01*
X-48681Y64899D01*
X-47913Y65052D01*
X-47262Y65487D01*
X-46827Y66138D01*
X-46674Y66906D01*
Y70056D01*
X-46827Y70824D01*
X-47262Y71475D01*
X-47477Y71619D01*
Y72933D01*
X-47441D01*
Y72933D01*
X-40354D01*
Y75752D01*
X-39913Y75987D01*
X-39696Y75842D01*
X-39438Y75456D01*
X-39352Y75023D01*
X-39370Y75000D01*
X-39370D01*
X-39354Y56964D01*
X-39707Y56610D01*
X-49902D01*
X-49902Y56610D01*
X-50062Y56578D01*
X-53064Y56573D01*
X-53248Y56610D01*
X-59386D01*
X-59768Y56686D01*
X-60289Y57034D01*
X-60637Y57555D01*
X-60753Y58139D01*
X-60728Y58169D01*
X-60728D01*
Y59842D01*
X-60752Y65601D01*
X-60274Y65747D01*
X-60100Y65487D01*
X-59449Y65052D01*
X-58681Y64899D01*
X-57913Y65052D01*
X-57262Y65487D01*
X-56827Y66138D01*
X-56674Y66906D01*
Y70056D01*
X-56827Y70824D01*
X-57262Y71475D01*
X-57286Y71720D01*
X-56072Y72933D01*
X-54724D01*
Y75164D01*
X-53829Y76060D01*
X-51083D01*
Y72933D01*
D02*
G37*
G36*
X-394Y75787D02*
Y56890D01*
X-673Y56610D01*
X-37811D01*
X-38189Y56988D01*
Y75886D01*
X-37402Y76673D01*
X-1280D01*
X-394Y75787D01*
D02*
G37*
G36*
X71885Y55349D02*
X71885Y55349D01*
X72275Y55088D01*
X72736Y54997D01*
X72736Y54997D01*
X77437D01*
Y49942D01*
X76976Y49751D01*
X76847Y49879D01*
X76587Y50053D01*
X76279Y50114D01*
X53150D01*
X52842Y50053D01*
X52582Y49879D01*
X52582Y49879D01*
X52544Y49841D01*
X52082Y50032D01*
Y53422D01*
X69094D01*
X69095Y53422D01*
X69555Y53513D01*
X69946Y53774D01*
X70930Y54759D01*
X71191Y55149D01*
X71236Y55374D01*
X71715Y55519D01*
X71885Y55349D01*
D02*
G37*
G36*
X63467Y77148D02*
X63560Y76925D01*
Y67028D01*
X63560Y67027D01*
X63595Y66850D01*
X63606Y57874D01*
X63514Y57413D01*
X63253Y57023D01*
X62862Y56761D01*
X62424Y56674D01*
X62402Y56693D01*
Y56693D01*
X42028Y56672D01*
X41605Y56756D01*
X41247Y56995D01*
X41008Y57353D01*
X40928Y57755D01*
X40945Y57776D01*
X40945D01*
Y59350D01*
X40914Y70472D01*
X41036Y71087D01*
X41384Y71608D01*
X41811Y71893D01*
X42289Y71748D01*
X42372Y71549D01*
X42262Y71475D01*
X41827Y70824D01*
X41674Y70056D01*
Y66906D01*
X41827Y66138D01*
X42262Y65487D01*
X42913Y65052D01*
X43681Y64899D01*
X44449Y65052D01*
X45100Y65487D01*
X45535Y66138D01*
X45688Y66906D01*
Y70056D01*
X45535Y70824D01*
X45299Y71178D01*
Y72148D01*
X46077Y72471D01*
X46680Y72933D01*
X47244D01*
Y73616D01*
X47313Y73706D01*
X47650Y74520D01*
X47765Y75394D01*
X47736D01*
X47732Y75554D01*
X48238Y76060D01*
X50187D01*
X50984Y75262D01*
Y72933D01*
X52477D01*
Y71619D01*
X52262Y71475D01*
X51827Y70824D01*
X51674Y70056D01*
Y66906D01*
X51827Y66138D01*
X52262Y65487D01*
X52913Y65052D01*
X53681Y64899D01*
X54449Y65052D01*
X55100Y65487D01*
X55535Y66138D01*
X55688Y66906D01*
Y70056D01*
X55535Y70824D01*
X55100Y71475D01*
X54885Y71619D01*
Y72933D01*
X61811D01*
Y76870D01*
X61811D01*
Y77301D01*
X63090Y77304D01*
X63467Y77148D01*
D02*
G37*
G36*
X40050Y246644D02*
X44166Y242528D01*
Y192224D01*
X44166Y192224D01*
X44166D01*
X44273Y191687D01*
X44577Y191231D01*
X50877Y184932D01*
X50877D01*
X50877Y184932D01*
X50877D01*
X50877Y184932D01*
Y184932D01*
X50877Y184932D01*
Y184932D01*
X51332Y184627D01*
X51870Y184520D01*
X139379D01*
X142296Y181603D01*
Y117913D01*
X142296Y117912D01*
Y3937D01*
X142309Y3871D01*
X142128Y2958D01*
X141573Y2128D01*
X140743Y1574D01*
X139830Y1392D01*
X139764Y1405D01*
X91520D01*
X91329Y1867D01*
X93076Y3614D01*
X93076Y3614D01*
X93337Y4005D01*
X93429Y4466D01*
X93429Y4466D01*
Y13773D01*
X93609Y13953D01*
X96986D01*
X96986Y13953D01*
X97447Y14045D01*
X97838Y14306D01*
X98907Y15375D01*
X110047D01*
X110047Y15375D01*
X110508Y15467D01*
X110898Y15728D01*
X121090Y25919D01*
X121090Y25919D01*
X121246Y26154D01*
X121351Y26310D01*
X121442Y26771D01*
Y28526D01*
X121904Y28717D01*
X121946Y28676D01*
X122336Y28415D01*
X122797Y28323D01*
X122797Y28323D01*
X128861D01*
Y28311D01*
X128984Y28323D01*
X130153Y28169D01*
X131356Y27671D01*
X132314Y26936D01*
X132372Y26860D01*
X133153Y26261D01*
X134063Y25884D01*
X135039Y25755D01*
X137008D01*
X137984Y25884D01*
X138894Y26261D01*
X139675Y26860D01*
X140275Y27641D01*
X140652Y28551D01*
X140780Y29528D01*
X140652Y30504D01*
X140275Y31414D01*
X139675Y32195D01*
X138894Y32795D01*
X137984Y33171D01*
X137008Y33300D01*
X135039D01*
X134063Y33171D01*
X133153Y32795D01*
X132372Y32195D01*
X132314Y32119D01*
X131356Y31385D01*
X130153Y30886D01*
X128984Y30732D01*
X128861Y30744D01*
Y30732D01*
X123296D01*
X123153Y30875D01*
Y47150D01*
X123543Y47358D01*
X124311Y47205D01*
X125079Y47358D01*
X125730Y47793D01*
X125733Y47797D01*
X125951Y47943D01*
X126212Y47995D01*
Y48005D01*
X126212Y48005D01*
X126212D01*
X126212Y48008D01*
X131582D01*
X131606Y47990D01*
X131728Y47868D01*
X132001Y47460D01*
X131772Y47162D01*
X131395Y46252D01*
X131267Y45276D01*
X131395Y44299D01*
X131772Y43389D01*
X132372Y42608D01*
X133153Y42009D01*
X134063Y41632D01*
X135039Y41503D01*
X137008D01*
X137984Y41632D01*
X138894Y42009D01*
X139675Y42608D01*
X140275Y43389D01*
X140652Y44299D01*
X140780Y45276D01*
X140652Y46252D01*
X140275Y47162D01*
X139675Y47943D01*
X138894Y48543D01*
X137984Y48919D01*
X137657Y48963D01*
Y49463D01*
X137984Y49506D01*
X138894Y49883D01*
X139675Y50482D01*
X140275Y51263D01*
X140652Y52173D01*
X140780Y53150D01*
X140652Y54126D01*
X140275Y55036D01*
X139675Y55817D01*
X138894Y56417D01*
X137984Y56793D01*
X137657Y56837D01*
Y57337D01*
X137984Y57380D01*
X138894Y57757D01*
X139675Y58356D01*
X140275Y59137D01*
X140652Y60047D01*
X140780Y61024D01*
X140652Y62000D01*
X140275Y62910D01*
X139675Y63691D01*
X138894Y64291D01*
X137985Y64667D01*
X138083Y65158D01*
X140748D01*
Y72638D01*
X131299D01*
Y66392D01*
X131041Y65768D01*
X130546Y65124D01*
X130546Y65124D01*
X130546Y65124D01*
Y65123D01*
X130054Y64631D01*
X129793Y64240D01*
X129701Y63779D01*
X129701Y63779D01*
Y60834D01*
X128832Y59964D01*
X126212D01*
Y59978D01*
X125951Y60030D01*
X125733Y60176D01*
X125730Y60179D01*
X125699Y60200D01*
X125601Y60690D01*
X125969Y61240D01*
X126121Y62008D01*
X125969Y62776D01*
X125533Y63427D01*
X124882Y63862D01*
X124589Y63920D01*
X124444Y64399D01*
X125972Y65928D01*
X126233Y66318D01*
X126325Y66779D01*
Y70713D01*
X126325Y70713D01*
X126233Y71174D01*
X125972Y71565D01*
X125972Y71565D01*
X125151Y72386D01*
X125154Y72388D01*
X125133Y72404D01*
X124761Y72776D01*
X124727Y72858D01*
Y74847D01*
X117640D01*
Y74137D01*
X112205D01*
X111744Y74046D01*
X111587Y73941D01*
X111353Y73785D01*
X111353Y73785D01*
X110135Y72566D01*
X110110Y72529D01*
X109631Y72674D01*
Y73523D01*
X110662Y74554D01*
X110662Y74554D01*
X110671Y74546D01*
X110725Y74617D01*
X111527Y75419D01*
X111610Y75453D01*
X116551D01*
Y76218D01*
X117640D01*
Y75438D01*
X121184D01*
Y79375D01*
X117640D01*
Y78626D01*
X116551D01*
Y79390D01*
X109767D01*
Y80453D01*
X116551D01*
Y81218D01*
X117640D01*
Y80457D01*
X124727D01*
Y82446D01*
X124761Y82529D01*
X125133Y82900D01*
X125154Y82916D01*
X125151Y82919D01*
X126396Y84163D01*
X126396Y84163D01*
X126657Y84554D01*
X126749Y85015D01*
X126749Y85015D01*
Y103693D01*
X126749Y103693D01*
X126657Y104154D01*
X126396Y104544D01*
X126396Y104544D01*
X118081Y112859D01*
X117690Y113120D01*
X117229Y113212D01*
X117229Y113212D01*
X98580D01*
X98344Y113653D01*
X98705Y114193D01*
X98857Y114961D01*
X98705Y115729D01*
X98270Y116380D01*
X97619Y116815D01*
X96850Y116968D01*
X96082Y116815D01*
X95431Y116380D01*
X95406Y116342D01*
X94810Y115885D01*
X94075Y115580D01*
X93309Y115480D01*
X92314D01*
X91366Y116428D01*
Y149705D01*
X91259Y150242D01*
X90954Y150698D01*
X87804Y153848D01*
X87348Y154153D01*
X86810Y154260D01*
X82477D01*
X82477Y154269D01*
X82477D01*
Y154269D01*
X82185Y154313D01*
Y155611D01*
X77067D01*
Y154313D01*
X76775Y154269D01*
Y154269D01*
X76775D01*
X76775Y154260D01*
X69354D01*
X69354Y154269D01*
X69354D01*
Y154269D01*
X69062Y154313D01*
Y155611D01*
X63944D01*
Y154313D01*
X63651Y154269D01*
Y154269D01*
X63651D01*
X63651Y154260D01*
X56231D01*
X56231Y154269D01*
X56231D01*
Y154269D01*
X55938Y154313D01*
Y155611D01*
X50820D01*
Y154313D01*
X50528Y154269D01*
Y154269D01*
X50528D01*
X50528Y154260D01*
X43107D01*
X43107Y154269D01*
X43107D01*
Y154269D01*
X42815Y154313D01*
Y155611D01*
X37697D01*
Y153879D01*
X37499Y153716D01*
X36434Y153147D01*
X35278Y152796D01*
X34144Y152684D01*
X20267D01*
X17529Y155423D01*
X17073Y155727D01*
X16535Y155834D01*
X11845D01*
X11239Y156085D01*
X11157Y156318D01*
D01*
Y156318D01*
X11238Y156724D01*
Y156764D01*
X11249Y156802D01*
X11238Y156919D01*
Y157037D01*
X11236Y157041D01*
X11254Y218458D01*
X11455D01*
Y223379D01*
X11455D01*
Y223610D01*
X12183Y223755D01*
X12867Y224212D01*
X13323Y224895D01*
X13484Y225702D01*
X13323Y226508D01*
X12867Y227192D01*
X12183Y227649D01*
X11377Y227809D01*
X10570Y227649D01*
X9886Y227192D01*
X9430Y226508D01*
X9269Y225702D01*
X9430Y224895D01*
X9886Y224212D01*
X10416Y223857D01*
X10271Y223379D01*
X4195D01*
Y227127D01*
X4195Y227127D01*
X4103Y227588D01*
X3842Y227979D01*
X3411Y228411D01*
X3020Y228672D01*
X2559Y228763D01*
X2559Y228763D01*
X-1741D01*
Y228777D01*
X-2002Y228829D01*
X-2220Y228975D01*
X-2222Y228978D01*
X-2874Y229413D01*
X-3642Y229566D01*
X-4410Y229413D01*
X-5061Y228978D01*
X-5496Y228327D01*
X-5649Y227559D01*
X-5496Y226791D01*
X-5061Y226140D01*
X-4410Y225705D01*
X-4160Y225655D01*
X-3969Y225193D01*
X-4027Y225105D01*
X-4119Y224644D01*
X-4119Y224644D01*
Y223379D01*
X-10274D01*
X-10419Y223857D01*
X-9889Y224212D01*
X-9432Y224895D01*
X-9272Y225702D01*
X-9432Y226508D01*
X-9889Y227192D01*
X-10573Y227649D01*
X-11379Y227809D01*
X-12186Y227649D01*
X-12870Y227192D01*
X-13326Y226508D01*
X-13487Y225702D01*
X-13326Y224895D01*
X-12870Y224212D01*
X-12186Y223755D01*
X-11379Y223594D01*
Y223379D01*
X-11379Y223379D01*
X-11379Y223379D01*
Y221285D01*
X-11395Y221207D01*
Y218669D01*
X-11406Y218613D01*
X-11437Y218459D01*
X-11454Y207088D01*
X-11439Y207010D01*
Y206930D01*
X-11355Y206508D01*
Y206508D01*
X-11284Y206338D01*
X-11235Y206218D01*
X-11235Y206218D01*
X-10995Y205860D01*
X-10995Y205860D01*
X-10885Y205749D01*
X-10774Y205639D01*
X-10774Y205639D01*
X-10416Y205399D01*
X-10416Y205399D01*
X-10296Y205350D01*
X-10126Y205279D01*
X-10126D01*
X-9725Y205200D01*
X-9685D01*
X-9647Y205188D01*
X-9529Y205200D01*
X-9411D01*
X-9405Y205202D01*
X-5722Y205224D01*
X-5496Y204803D01*
X-5649Y204035D01*
X-5632Y203953D01*
X-5906Y203680D01*
X-6674Y203527D01*
X-7325Y203092D01*
X-7760Y202441D01*
X-7913Y201673D01*
X-7760Y200905D01*
X-7325Y200254D01*
X-6674Y199819D01*
X-5906Y199666D01*
X-5694Y199493D01*
Y159358D01*
X-6072Y158980D01*
X-33638D01*
Y161939D01*
X-33638Y161939D01*
X-33730Y162400D01*
X-33991Y162791D01*
X-33991Y162791D01*
X-36378Y165178D01*
X-36769Y165439D01*
X-37230Y165530D01*
X-37230Y165530D01*
X-42473D01*
X-44822Y167879D01*
X-45213Y168140D01*
X-45674Y168232D01*
X-45674Y168232D01*
X-52340D01*
X-52341Y168232D01*
X-52801Y168140D01*
X-53192Y167879D01*
X-56715Y164356D01*
X-56717Y164359D01*
X-56733Y164338D01*
X-57104Y163967D01*
X-57187Y163932D01*
X-59176D01*
D01*
X-59176Y163932D01*
X-59176Y163932D01*
Y163932D01*
X-59203Y163915D01*
X-59638Y163735D01*
X-60160Y164258D01*
Y168263D01*
X-64884D01*
Y161570D01*
X-60879D01*
X-60618Y161309D01*
X-60227Y161048D01*
X-59766Y160957D01*
X-59176D01*
Y160389D01*
Y156846D01*
X-55239D01*
Y156846D01*
X-55239D01*
X-55239Y156846D01*
X-54944Y156846D01*
Y156846D01*
X-51140D01*
X-50599Y156431D01*
X-50317Y156064D01*
Y154484D01*
X-48071D01*
X-47955Y154460D01*
Y154460D01*
X-47950Y154464D01*
X-47323Y154340D01*
X-46829Y154010D01*
X-46799Y153970D01*
X-46790Y153978D01*
X-46790Y153978D01*
X-46587Y153774D01*
X-46587Y153774D01*
X-46196Y153513D01*
X-45735Y153422D01*
X-45735Y153422D01*
X-45276D01*
Y150197D01*
X-41339D01*
D01*
X-41339D01*
X-41142Y150000D01*
Y148561D01*
X-41169Y148425D01*
X-41169D01*
X-41167Y148424D01*
X-41265Y147681D01*
X-41435Y147272D01*
X-42251Y146835D01*
X-43460Y146468D01*
X-44717Y146345D01*
X-45974Y146468D01*
X-47182Y146835D01*
X-47883Y147210D01*
X-47890Y147198D01*
X-48037Y147259D01*
X-48050Y147268D01*
X-48064Y147271D01*
X-48960Y147642D01*
X-50142Y147798D01*
X-51324Y147642D01*
X-52426Y147186D01*
X-53371Y146460D01*
X-54097Y145514D01*
X-54553Y144413D01*
X-54709Y143231D01*
Y137719D01*
X-54553Y136537D01*
X-54097Y135436D01*
X-53371Y134490D01*
X-52504Y133825D01*
Y126302D01*
X-47780D01*
Y133825D01*
X-46913Y134490D01*
X-46679Y134795D01*
X-46205Y134635D01*
Y126302D01*
X-45441D01*
Y125711D01*
X-45441Y125711D01*
X-45349Y125250D01*
X-45320Y125206D01*
Y124355D01*
X-45359Y124304D01*
X-46078Y123752D01*
X-46091Y123758D01*
Y123758D01*
X-46091Y123758D01*
X-50028D01*
Y123743D01*
X-50438D01*
Y123743D01*
X-54375D01*
Y122088D01*
X-54386Y122029D01*
X-54416Y121999D01*
D01*
D01*
D01*
D01*
X-54416Y121999D01*
D01*
D01*
X-54423Y121981D01*
X-54423Y121981D01*
D01*
D01*
D01*
X-54428Y121971D01*
D01*
D01*
D01*
X-54428Y121971D01*
D01*
D01*
D01*
D01*
Y121971D01*
D01*
D01*
D01*
D01*
X-54421Y121954D01*
X-54421Y121954D01*
X-54420Y121953D01*
X-54619Y121754D01*
X-54627Y121748D01*
X-54626Y121747D01*
X-54626Y121747D01*
X-55677Y120695D01*
X-55696Y120713D01*
X-55817Y120556D01*
X-57022Y119351D01*
X-57029Y119358D01*
X-57073Y119300D01*
X-57551Y118822D01*
X-61461D01*
Y114491D01*
X-61022D01*
X-59425Y114280D01*
Y114280D01*
X-59417Y114280D01*
Y112955D01*
X-60145Y112228D01*
X-88827D01*
X-91882Y115282D01*
X-92272Y115543D01*
X-92733Y115635D01*
X-92733Y115635D01*
X-109093D01*
X-109554Y115543D01*
X-109710Y115438D01*
X-109945Y115282D01*
X-109945Y115282D01*
X-113726Y111501D01*
X-113726D01*
D01*
Y111501D01*
D01*
X-113726D01*
D01*
D01*
D01*
Y111501D01*
X-113726Y111501D01*
Y111501D01*
D01*
X-113726Y111501D01*
D01*
D01*
Y111501D01*
X-113765Y111462D01*
X-114358Y111065D01*
X-115103Y110917D01*
X-115114Y110926D01*
Y110926D01*
X-115230Y110903D01*
X-119444D01*
Y106572D01*
X-115230D01*
X-115114Y106549D01*
Y106549D01*
X-115105Y106556D01*
X-114409Y106418D01*
X-113848Y106043D01*
X-113037Y105231D01*
Y105209D01*
Y105209D01*
X-112941Y105135D01*
X-111825Y104020D01*
Y101159D01*
X-111673Y100391D01*
X-111238Y99740D01*
X-111234Y99737D01*
X-111088Y99519D01*
X-111036Y99258D01*
X-111022D01*
Y95405D01*
X-112021Y94406D01*
X-114212D01*
Y94974D01*
X-118149D01*
Y91430D01*
X-117401D01*
Y90529D01*
X-118165D01*
Y86986D01*
Y83442D01*
X-114228D01*
Y84010D01*
X-111548D01*
X-111312Y83569D01*
X-111673Y83029D01*
X-111825Y82261D01*
Y79112D01*
X-111673Y78344D01*
X-111238Y77692D01*
X-111234Y77690D01*
X-111088Y77472D01*
X-111036Y77211D01*
X-111022D01*
Y76509D01*
X-111026D01*
X-111022Y76480D01*
Y75785D01*
X-111022Y75785D01*
X-110931Y75324D01*
X-110881Y75250D01*
X-110881Y75250D01*
Y75056D01*
X-110915Y74973D01*
X-111287Y74602D01*
X-111308Y74586D01*
Y74586D01*
Y74581D01*
X-112127Y73762D01*
X-112388Y73372D01*
X-112479Y72911D01*
X-112479Y72911D01*
Y53102D01*
X-112802Y52779D01*
X-123055D01*
X-123055Y52779D01*
X-123516Y52687D01*
X-123907Y52426D01*
X-123907Y52426D01*
X-125382Y50951D01*
X-125643Y50560D01*
X-125734Y50099D01*
X-125734Y50099D01*
Y20285D01*
X-125734Y20285D01*
X-125643Y19825D01*
X-125382Y19434D01*
X-124344Y18396D01*
X-124344Y18396D01*
X-124110Y18239D01*
X-123953Y18135D01*
X-123493Y18043D01*
X-95556D01*
X-95420Y17907D01*
Y9858D01*
X-95539Y8947D01*
X-95904Y8066D01*
X-96447Y7359D01*
X-96498Y7325D01*
X-96933Y6674D01*
X-97086Y5906D01*
X-96933Y5137D01*
X-96498Y4486D01*
X-96498Y4486D01*
X-96301Y4175D01*
X-96736Y3524D01*
X-96889Y2756D01*
X-96736Y1988D01*
X-96641Y1846D01*
X-96877Y1405D01*
X-139764D01*
X-139829Y1392D01*
X-140743Y1574D01*
X-141573Y2128D01*
X-142127Y2958D01*
X-142309Y3871D01*
X-142296Y3937D01*
Y117222D01*
X-142197Y117717D01*
Y182095D01*
X-138887Y185406D01*
X-51279D01*
X-50742Y185513D01*
X-50286Y185818D01*
X-43987Y192117D01*
X-43682Y192573D01*
X-43575Y193110D01*
X-43575Y193110D01*
X-43575Y193110D01*
Y193110D01*
Y243414D01*
X-39674Y247316D01*
X39379D01*
X40050Y246644D01*
D02*
G37*
G36*
X76073Y86594D02*
X76073Y86594D01*
X76464Y86333D01*
X76925Y86241D01*
X76925Y86241D01*
X79451D01*
Y85477D01*
X81009D01*
X81230Y85064D01*
X81077Y84296D01*
X81230Y83528D01*
X81665Y82877D01*
X82316Y82442D01*
X82784Y82349D01*
X82735Y81851D01*
X82093D01*
Y77914D01*
D01*
Y77914D01*
X82061Y77883D01*
X82026D01*
Y73961D01*
X78467D01*
Y73941D01*
X77775Y73803D01*
X77385Y74011D01*
Y75197D01*
X77294Y75658D01*
X77033Y76048D01*
X77033Y76048D01*
X75417Y77664D01*
Y86597D01*
X75879Y86788D01*
X76073Y86594D01*
D02*
G37*
G36*
X-101529Y83880D02*
X-101432Y83390D01*
X-101673Y83029D01*
X-101825Y82261D01*
Y79112D01*
X-101673Y78344D01*
X-101237Y77692D01*
X-101234Y77690D01*
X-101088Y77472D01*
X-101036Y77211D01*
X-101023D01*
Y76604D01*
X-101028D01*
X-101023Y76566D01*
Y75824D01*
X-101023Y75824D01*
X-100931Y75363D01*
X-100931Y75363D01*
X-100931Y75363D01*
X-100860Y75257D01*
X-100842Y75230D01*
Y73108D01*
X-100826D01*
Y72993D01*
X-100826D01*
Y69056D01*
X-97299D01*
Y67023D01*
X-97322Y66907D01*
X-97334D01*
X-97392Y66613D01*
X-97559Y66364D01*
X-97559D01*
X-97559Y66364D01*
Y66364D01*
X-97550Y66356D01*
X-98830Y65075D01*
X-98830Y65075D01*
X-98831Y65076D01*
X-98838Y65068D01*
X-99036Y64870D01*
X-99039Y64871D01*
X-99054Y64877D01*
X-99070Y64871D01*
X-99082Y64866D01*
D01*
X-99082Y64866D01*
D01*
D01*
X-99112Y64836D01*
X-99171Y64824D01*
X-100826D01*
Y64076D01*
X-103795D01*
Y64840D01*
X-107322D01*
Y65119D01*
X-107322D01*
Y69056D01*
D01*
Y69056D01*
X-107306Y69072D01*
X-103795D01*
Y73009D01*
D01*
Y73009D01*
X-103795Y73009D01*
Y73108D01*
X-103795D01*
Y75230D01*
X-103706Y75363D01*
X-103614Y75824D01*
Y76566D01*
X-103609Y76604D01*
X-103614D01*
Y77211D01*
X-103600D01*
X-103548Y77472D01*
X-103403Y77690D01*
X-103399Y77692D01*
X-102964Y78344D01*
X-102811Y79112D01*
Y82261D01*
X-102964Y83029D01*
X-103324Y83569D01*
X-103089Y84010D01*
X-101723D01*
X-101529Y83880D01*
D02*
G37*
G36*
X18793Y49592D02*
X18855Y49550D01*
X19334Y49072D01*
X19375Y49010D01*
X19390Y48937D01*
X19390Y48937D01*
X19390D01*
Y42717D01*
Y35531D01*
X18913Y35055D01*
X-50787D01*
Y42207D01*
X-50326Y42399D01*
X-50076Y42149D01*
X-49815Y41975D01*
X-49508Y41914D01*
X-20488D01*
X-20181Y41975D01*
X-19920Y42149D01*
X-19746Y42409D01*
X-19685Y42717D01*
Y48838D01*
X-19670Y48911D01*
X-19629Y48973D01*
X-19052Y49550D01*
X-18990Y49592D01*
X-18917Y49606D01*
X18720D01*
X18793Y49592D01*
D02*
G37*
G36*
X-52165Y54724D02*
Y34252D01*
D01*
X-52165D01*
Y34252D01*
Y25984D01*
Y25984D01*
X-52165D01*
D01*
Y10020D01*
X-52180Y9947D01*
X-52221Y9885D01*
X-52995Y9111D01*
X-53057Y9070D01*
X-53130Y9055D01*
X-76496D01*
X-76569Y9070D01*
X-76631Y9111D01*
X-77208Y9688D01*
X-77249Y9750D01*
X-77264Y9823D01*
Y34252D01*
Y54724D01*
X-76181Y55807D01*
X-53248D01*
X-52165Y54724D01*
D02*
G37*
G36*
X51575Y33858D02*
Y2362D01*
X50617Y1405D01*
X-90775D01*
X-91142Y1772D01*
Y33465D01*
X-90354Y34252D01*
X-78067D01*
Y9744D01*
X-78005Y9437D01*
X-77832Y9176D01*
X-77143Y8487D01*
X-76882Y8313D01*
X-76575Y8252D01*
X-53051D01*
X-52744Y8313D01*
X-52483Y8487D01*
X-52483Y8488D01*
X-51598Y9373D01*
X-51424Y9634D01*
X-51363Y9941D01*
Y25984D01*
X-51363Y25984D01*
Y34252D01*
X-51363Y34252D01*
X51181D01*
X51575Y33858D01*
D02*
G37*
G36*
X77362Y48228D02*
Y8265D01*
X77324Y8071D01*
X77362Y7877D01*
Y2067D01*
X76700Y1405D01*
X53123D01*
X52461Y2067D01*
Y48622D01*
X53150Y49311D01*
X76279D01*
X77362Y48228D01*
D02*
G37*
G36*
X115884Y37445D02*
Y28611D01*
X108206Y20933D01*
X97443D01*
Y20949D01*
X97353Y20937D01*
X96676Y21072D01*
Y22091D01*
X100416D01*
Y25634D01*
X100514D01*
Y25634D01*
X104451D01*
Y25654D01*
X104547Y25705D01*
X105315Y25552D01*
X106083Y25705D01*
X106734Y26140D01*
X107169Y26791D01*
X107322Y27559D01*
X107169Y28327D01*
X107378Y28717D01*
X111614D01*
X111614Y28717D01*
X112075Y28809D01*
X112466Y29070D01*
X113450Y30054D01*
X113450Y30054D01*
X113606Y30288D01*
X113711Y30445D01*
X113803Y30906D01*
X113803Y30906D01*
X113803Y30906D01*
Y30906D01*
Y34973D01*
X113711Y35434D01*
X113606Y35590D01*
X113471Y35793D01*
X113507Y35882D01*
X113935Y36310D01*
X113973Y36317D01*
X114364Y36578D01*
X115422Y37637D01*
X115884Y37445D01*
D02*
G37*
G36*
X91739Y35537D02*
Y35537D01*
X91746Y35541D01*
X92045Y35418D01*
X92716Y34747D01*
Y30930D01*
X92700D01*
X92712Y30839D01*
X92577Y30162D01*
X91164D01*
Y25044D01*
X92577D01*
X92712Y24367D01*
X92700Y24276D01*
X92716D01*
Y24190D01*
X92716Y24190D01*
X92807Y23730D01*
X93068Y23339D01*
X93396Y23011D01*
X93396Y23011D01*
X93762Y22767D01*
X93617Y22288D01*
X91164D01*
Y17276D01*
X89798Y15911D01*
X89537Y15520D01*
X89445Y15059D01*
X89445Y15059D01*
Y6573D01*
X88961Y6477D01*
X88525Y7128D01*
X88522Y7130D01*
X88376Y7348D01*
X88324Y7610D01*
X88310D01*
Y17847D01*
X88219Y18308D01*
X87958Y18699D01*
X87958Y18699D01*
X86012Y20645D01*
X86203Y21107D01*
X87227D01*
Y26225D01*
X82526D01*
Y31140D01*
X82992Y31606D01*
X82997D01*
X82997D01*
X83013Y31626D01*
X83384Y31998D01*
X83467Y32032D01*
X85455D01*
Y35560D01*
X89377D01*
Y35560D01*
X89376D01*
X89377Y35560D01*
X89574Y35560D01*
Y35560D01*
X91623D01*
X91739Y35537D01*
D02*
G37*
G36*
X51279Y54823D02*
Y36811D01*
X50000Y35531D01*
X20193D01*
Y42717D01*
Y48937D01*
X20193D01*
X20177Y49093D01*
X20163Y49166D01*
Y49166D01*
X20132Y49239D01*
X20132Y49244D01*
X20129Y49248D01*
X20076Y49374D01*
X20076Y49379D01*
X20073Y49383D01*
X20063Y49406D01*
X20043Y49456D01*
X20043Y49456D01*
X20043Y49456D01*
X20001Y49518D01*
X19945Y49574D01*
X19902Y49639D01*
X19423Y50118D01*
X19357Y50162D01*
X19301Y50218D01*
X19239Y50259D01*
X19166Y50290D01*
X19162Y50292D01*
X19158Y50293D01*
X19078Y50326D01*
X19031Y50345D01*
X19027Y50348D01*
X19023Y50349D01*
X18950Y50379D01*
X18950Y50379D01*
D01*
D01*
X18877Y50394D01*
X18798D01*
X18720Y50409D01*
X-18917D01*
X-18994Y50394D01*
X-19074D01*
X-19147Y50379D01*
X-19147Y50379D01*
X-19147D01*
X-19220Y50349D01*
X-19224Y50348D01*
X-19228Y50345D01*
X-19285Y50322D01*
X-19355Y50293D01*
X-19359Y50292D01*
X-19363Y50290D01*
X-19436Y50259D01*
X-19436Y50259D01*
X-19436Y50259D01*
X-19498Y50218D01*
X-19554Y50162D01*
X-19620Y50118D01*
X-20197Y49541D01*
X-20241Y49475D01*
X-20297Y49419D01*
X-20338Y49357D01*
X-20368Y49284D01*
X-20371Y49281D01*
X-20372Y49276D01*
X-20405Y49196D01*
X-20424Y49149D01*
X-20427Y49145D01*
X-20428Y49141D01*
X-20458Y49068D01*
X-20458Y49068D01*
D01*
D01*
X-20472Y48995D01*
Y48916D01*
X-20488Y48838D01*
Y42796D01*
X-20501Y42730D01*
X-20567Y42717D01*
X-49429D01*
X-49502Y42731D01*
X-49564Y42772D01*
X-49758Y42966D01*
X-49932Y43083D01*
X-50018Y43141D01*
X-50223Y43181D01*
X-50326Y43202D01*
X-50326D01*
X-50326D01*
X-50326D01*
X-50434Y43214D01*
X-50787Y44991D01*
Y54921D01*
X-49902Y55807D01*
X50295D01*
X51279Y54823D01*
D02*
G37*
G36*
X-78067Y49326D02*
Y35055D01*
X-89862D01*
Y49705D01*
X-78445D01*
X-78067Y49326D01*
D02*
G37*
G36*
X103914Y88576D02*
Y79731D01*
X99898Y75716D01*
X99637Y75325D01*
X99546Y74864D01*
X99546Y74864D01*
Y70494D01*
X94277D01*
Y71199D01*
X94185Y71660D01*
X94081Y71816D01*
X93924Y72050D01*
X93924Y72050D01*
X93115Y72860D01*
X92724Y73121D01*
X92263Y73213D01*
X92263Y73213D01*
X85554D01*
Y73946D01*
X85569D01*
Y77883D01*
D01*
Y77883D01*
X85601Y77914D01*
X85636D01*
Y78678D01*
X87411D01*
X87502Y78587D01*
Y78587D01*
D01*
X87520Y78569D01*
X87864Y78054D01*
X87989Y77427D01*
X87985Y77422D01*
X87985D01*
X88008Y77306D01*
Y75453D01*
X95095D01*
Y76017D01*
X95631D01*
X96168Y76124D01*
X96624Y76428D01*
X96624Y76428D01*
X96624Y76428D01*
X97352Y77156D01*
X97656Y77612D01*
X97763Y78150D01*
X97763Y78150D01*
X97763Y78150D01*
Y78150D01*
Y85245D01*
X97917Y85398D01*
X98225Y85526D01*
X98441Y85437D01*
X98441Y85437D01*
X98441Y85437D01*
X98493Y85449D01*
X98641Y85350D01*
X99410Y85198D01*
X100178Y85350D01*
X100829Y85786D01*
X101264Y86437D01*
X101417Y87205D01*
X101264Y87973D01*
X100838Y88611D01*
X100908Y88743D01*
X101114Y89052D01*
X103438D01*
X103914Y88576D01*
D02*
G37*
G36*
X48238Y147401D02*
Y146930D01*
X48222D01*
X48234Y146839D01*
X48099Y146162D01*
X46883D01*
D01*
D01*
X46883Y146162D01*
X46752D01*
Y146162D01*
X41634D01*
Y140650D01*
X42850D01*
X42985Y139973D01*
X42973Y139883D01*
X42989D01*
Y131083D01*
X42973D01*
X42985Y130992D01*
X42850Y130315D01*
X41634D01*
Y124804D01*
X42850D01*
X42985Y124127D01*
X42973Y124036D01*
X42989D01*
Y121676D01*
X42316Y121003D01*
X33819D01*
X33358Y120912D01*
X33201Y120807D01*
X32967Y120651D01*
X32967Y120651D01*
X29072Y116755D01*
X23917D01*
X23917Y116755D01*
X23457Y116664D01*
X23066Y116403D01*
X23066Y116403D01*
X22245Y115582D01*
X22245Y115582D01*
X22235Y115591D01*
X22013Y115443D01*
X21756Y115392D01*
X21752Y115393D01*
X20984Y115240D01*
X20936Y115208D01*
X20496Y115444D01*
Y133138D01*
X21970Y134612D01*
X21971Y134612D01*
X22231Y135003D01*
X22323Y135464D01*
Y146014D01*
X23038Y146729D01*
X34695D01*
X34789Y146614D01*
X34575Y146162D01*
X33760D01*
Y140650D01*
X34976D01*
X35111Y139973D01*
X35099Y139883D01*
X35115D01*
Y131083D01*
X35099D01*
X35111Y130992D01*
X34976Y130315D01*
X33760D01*
Y124804D01*
X38878D01*
Y130315D01*
X37662D01*
X37527Y130992D01*
X37539Y131083D01*
X37523D01*
Y139883D01*
X37539D01*
X37527Y139973D01*
X37662Y140650D01*
X38878D01*
Y146162D01*
X37662D01*
X37527Y146839D01*
X37539Y146930D01*
X37523D01*
Y147244D01*
X37431Y147705D01*
X37326Y147863D01*
X37562Y148304D01*
X47336D01*
X48238Y147401D01*
D02*
G37*
G36*
X81004Y140650D02*
X82220D01*
X82355Y139973D01*
X82343Y139883D01*
X82359D01*
Y131083D01*
X82343D01*
X82355Y130992D01*
X82220Y130315D01*
X81004D01*
Y127479D01*
X80981Y127363D01*
X80981D01*
X80985Y127358D01*
X80860Y126731D01*
X80516Y126215D01*
X80130Y125829D01*
X80009Y125737D01*
X80023Y125723D01*
X79915Y125614D01*
X78248D01*
Y130315D01*
X77032D01*
X76897Y130992D01*
X76909Y131083D01*
X76893D01*
Y139883D01*
X76909D01*
X76897Y139973D01*
X77032Y140650D01*
X78248D01*
Y143487D01*
X78271Y143603D01*
X78271D01*
X78267Y143608D01*
X78392Y144235D01*
X78736Y144750D01*
X79122Y145136D01*
X79243Y145229D01*
X79229Y145243D01*
X79337Y145351D01*
X81004D01*
Y140650D01*
D02*
G37*
G36*
X-238Y108725D02*
Y91535D01*
X-213Y91350D01*
X-220Y77402D01*
X-682Y77211D01*
X-712Y77241D01*
X-972Y77415D01*
X-1280Y77476D01*
X-11387D01*
X-11654Y77744D01*
X-11703Y77807D01*
X-11711Y77800D01*
X-11711Y77800D01*
X-12420Y78509D01*
X-12810Y78770D01*
X-13271Y78862D01*
X-13271Y78862D01*
X-18760D01*
X-18811Y78938D01*
X-19006Y79303D01*
X-18769Y79657D01*
X-18678Y80118D01*
Y80315D01*
X-18110D01*
Y84252D01*
X-21654D01*
Y80436D01*
X-27662D01*
X-27870Y80826D01*
X-27717Y81595D01*
X-27870Y82363D01*
X-28305Y83014D01*
X-28956Y83449D01*
X-29724Y83602D01*
X-29729Y83601D01*
X-29986Y83652D01*
X-30207Y83800D01*
X-30217Y83790D01*
X-30217Y83790D01*
X-30292Y83865D01*
Y104094D01*
X-30129Y104914D01*
X-29658Y105618D01*
X-29585Y105667D01*
X-29150Y106318D01*
X-28997Y107087D01*
X-29150Y107855D01*
X-28941Y108245D01*
X-1870D01*
X-1870Y108245D01*
X-1409Y108336D01*
X-1019Y108597D01*
X-700Y108916D01*
X-238Y108725D01*
D02*
G37*
G36*
X85410Y112106D02*
X85410Y112106D01*
X85502Y111645D01*
X85763Y111255D01*
X87436Y109582D01*
X87436Y109581D01*
X87670Y109425D01*
X87827Y109320D01*
X88008Y109284D01*
Y108630D01*
X86440D01*
Y109394D01*
X79353D01*
Y108630D01*
X71593D01*
X66462Y113761D01*
X66071Y114022D01*
X65611Y114114D01*
X65611Y114114D01*
X63320D01*
X63128Y114576D01*
X71759Y123206D01*
X80413D01*
X80413Y123206D01*
X80874Y123297D01*
X81265Y123558D01*
X81726Y124020D01*
X81730Y124016D01*
X82266Y124428D01*
X82892Y124688D01*
X83563Y124776D01*
Y124780D01*
X83679Y124804D01*
X85410D01*
Y112106D01*
D02*
G37*
G36*
X-4711Y148022D02*
X-4255Y147718D01*
X-3717Y147611D01*
X-3668D01*
X-3433Y147170D01*
X-3528Y147028D01*
X-3680Y146260D01*
X-3570Y145703D01*
X-4311Y145555D01*
X-4963Y145120D01*
X-5398Y144469D01*
X-5550Y143701D01*
X-5460Y143245D01*
X-5737Y142829D01*
X-5886Y142799D01*
X-6537Y142364D01*
X-6972Y141713D01*
X-7125Y140945D01*
X-6972Y140177D01*
X-6537Y139526D01*
X-6477Y139486D01*
X-5875Y138700D01*
X-5469Y137720D01*
X-5338Y136728D01*
Y114278D01*
X-5420Y114196D01*
X-34231D01*
Y114197D01*
X-35020Y114301D01*
X-35755Y114605D01*
X-36351Y115063D01*
X-36376Y115100D01*
X-37027Y115535D01*
X-37795Y115688D01*
X-38563Y115535D01*
X-39215Y115100D01*
X-39650Y114449D01*
X-39802Y113681D01*
X-39650Y112913D01*
X-39486Y112669D01*
X-39722Y112228D01*
X-50402D01*
X-50638Y112669D01*
X-50606Y112716D01*
X-50454Y113484D01*
X-50606Y114252D01*
X-51041Y114903D01*
X-51081Y114930D01*
X-51202Y115222D01*
Y115478D01*
X-51197Y115517D01*
X-51202D01*
Y116656D01*
X-50438D01*
Y118198D01*
X-49871Y118765D01*
X-49837Y118791D01*
Y118791D01*
Y118799D01*
X-48562Y120074D01*
X-48264Y120197D01*
X-48256Y120192D01*
Y120192D01*
X-48140Y120215D01*
X-46091D01*
Y120783D01*
X-45022D01*
Y120771D01*
X-44932Y120783D01*
X-43631D01*
X-43631Y120783D01*
X-43567Y120795D01*
X-43503Y120783D01*
Y120780D01*
X-42724Y120883D01*
X-41997Y121184D01*
X-41741Y121381D01*
X-38824D01*
Y125711D01*
X-42266D01*
X-42510Y126076D01*
X-42461Y126253D01*
X-42268Y126302D01*
X-42268D01*
Y135751D01*
X-42832D01*
Y137563D01*
X-39008Y141387D01*
X-38976Y141387D01*
D01*
D01*
X-38975Y141387D01*
X-38975D01*
X-38961Y141402D01*
X-38208Y141551D01*
X-37557Y141986D01*
X-37122Y142637D01*
X-36969Y143405D01*
X-37122Y144174D01*
X-37557Y144825D01*
X-38208Y145260D01*
X-38491Y145316D01*
X-38636Y145794D01*
X-38306Y146124D01*
X-38168Y146238D01*
X-38180Y146250D01*
X-38180Y146251D01*
X-38111Y146354D01*
X-38007Y146424D01*
X-38009Y146426D01*
X-37834Y146653D01*
X-37205D01*
Y147059D01*
X-36864Y147127D01*
X-36408Y147432D01*
X-33965Y149875D01*
X-6563D01*
X-4711Y148022D01*
D02*
G37*
G36*
X-45013Y162100D02*
X-45002Y162044D01*
Y160389D01*
X-41065D01*
Y160389D01*
X-40868Y160389D01*
Y157861D01*
X-40983Y157283D01*
X-40831Y156515D01*
X-40668Y156271D01*
X-40903Y155830D01*
X-45193D01*
X-45449Y156214D01*
X-45574Y156841D01*
X-45570Y156846D01*
X-45570D01*
X-45593Y156962D01*
Y159208D01*
X-47979D01*
X-48068Y159226D01*
X-48099Y159220D01*
X-48152Y159260D01*
X-49187Y159689D01*
X-49209Y159692D01*
X-49266Y159730D01*
X-49727Y159822D01*
X-49727Y159822D01*
X-50195D01*
X-50298Y159835D01*
Y159822D01*
X-51007D01*
Y160389D01*
Y160957D01*
X-50298D01*
Y160943D01*
X-50195Y160957D01*
X-49727D01*
X-49727Y160957D01*
X-49266Y161048D01*
X-49266Y161048D01*
X-49209Y161086D01*
X-49187Y161089D01*
X-48152Y161518D01*
X-48099Y161559D01*
X-48068Y161553D01*
X-47979Y161570D01*
X-45593D01*
Y162188D01*
X-45364Y162310D01*
X-45013Y162100D01*
D02*
G37*
G36*
X-8906Y222291D02*
X-8613Y222095D01*
X-8417Y221802D01*
X-8357Y221499D01*
X-8392Y221457D01*
X-8392D01*
X-8289Y220674D01*
X-8230Y220531D01*
Y218458D01*
X-5564D01*
X-5367Y218432D01*
X-2505Y218439D01*
X-2151Y218085D01*
Y217679D01*
X-2151Y217679D01*
X-2059Y217218D01*
X-1798Y216827D01*
X-1245Y216274D01*
X-1245Y216274D01*
X-855Y216013D01*
X-394Y215922D01*
X-394Y215922D01*
X2165D01*
X2165Y215922D01*
X2626Y216013D01*
X3017Y216274D01*
X3842Y217100D01*
X4103Y217491D01*
X4195Y217951D01*
X4195Y217951D01*
Y218455D01*
Y218458D01*
X5512D01*
X5534Y218435D01*
X5705Y218458D01*
X8306D01*
Y220439D01*
X8389Y220639D01*
X8490Y221410D01*
X8465Y221555D01*
X8465Y221555D01*
X8465D01*
X8454Y221568D01*
X8505Y221824D01*
X8657Y222052D01*
X8885Y222204D01*
X9154Y222258D01*
X9449Y222244D01*
Y222244D01*
X9468Y222260D01*
X9833Y222187D01*
X10158Y221969D01*
X10376Y221644D01*
X10452Y221260D01*
X10433Y156901D01*
X10433D01*
X10450Y156880D01*
X10370Y156474D01*
X10128Y156112D01*
X9766Y155871D01*
X9339Y155786D01*
X-98Y155807D01*
D01*
D01*
D01*
X-125Y155785D01*
X-636Y155887D01*
X-1092Y156192D01*
X-1396Y156647D01*
X-1503Y157185D01*
X-1476Y204134D01*
Y204318D01*
X-1585Y204864D01*
X-1998Y205482D01*
X-2617Y205895D01*
X-3347Y206041D01*
X-9547Y206004D01*
X-9547Y206004D01*
Y206004D01*
X-9568Y205987D01*
X-9970Y206067D01*
X-10328Y206306D01*
X-10567Y206664D01*
X-10651Y207087D01*
X-10634Y218458D01*
X-10592D01*
Y221207D01*
X-9646Y222342D01*
X-9252D01*
Y222342D01*
X-9235Y222357D01*
X-8906Y222291D01*
D02*
G37*
G36*
X76741Y146436D02*
X76360Y146278D01*
X75689Y146190D01*
Y146185D01*
X75573Y146162D01*
X73130D01*
D01*
D01*
X73130Y146162D01*
X72999D01*
Y146162D01*
X67881D01*
Y140650D01*
X69097D01*
X69232Y139973D01*
X69220Y139883D01*
X69235D01*
Y131083D01*
X69220D01*
X69232Y130992D01*
X69097Y130315D01*
X67881D01*
Y127479D01*
X67857Y127363D01*
X67857D01*
X67859Y127361D01*
X67746Y126220D01*
X67413Y125122D01*
X66872Y124110D01*
X66153Y123233D01*
X66143Y123223D01*
D01*
X66143Y123223D01*
X60183Y117263D01*
X57793D01*
X57601Y117725D01*
X58168Y118291D01*
X58429Y118682D01*
X58521Y119143D01*
X58521Y119143D01*
Y124036D01*
X58536D01*
X58524Y124127D01*
X58659Y124804D01*
X59875D01*
Y124804D01*
X59875D01*
X59875Y124804D01*
X60007D01*
Y124804D01*
X65125D01*
Y130315D01*
X63908D01*
X63774Y130992D01*
X63786Y131083D01*
X63770D01*
Y139883D01*
X63786D01*
X63774Y139973D01*
X63908Y140650D01*
X65125D01*
Y143487D01*
X65148Y143603D01*
X65148D01*
X65144Y143608D01*
X65269Y144235D01*
X65613Y144750D01*
X65999Y145136D01*
X66120Y145229D01*
X66106Y145243D01*
X66106Y145243D01*
X67789Y146926D01*
X76643D01*
X76741Y146436D01*
D02*
G37*
G36*
X88556Y149123D02*
Y148407D01*
X88094Y148216D01*
X87328Y148982D01*
X86937Y149243D01*
X86476Y149335D01*
X86476Y149335D01*
X67290D01*
X66829Y149243D01*
X66673Y149138D01*
X66439Y148982D01*
X66439Y148982D01*
X64403Y146946D01*
X64403Y146946D01*
X64399Y146949D01*
X63862Y146537D01*
X63237Y146278D01*
X62566Y146190D01*
Y146185D01*
X62449Y146162D01*
X60007D01*
D01*
D01*
X60007Y146162D01*
X59875D01*
Y146162D01*
X54757D01*
Y140650D01*
X55974D01*
X56108Y139973D01*
X56096Y139883D01*
X56112D01*
Y131083D01*
X56096D01*
X56108Y130992D01*
X55974Y130315D01*
X54757D01*
Y124804D01*
X55974D01*
X56108Y124127D01*
X56096Y124036D01*
X56112D01*
Y119642D01*
X55308Y118838D01*
X44210D01*
X44019Y119300D01*
X45044Y120326D01*
X45044Y120326D01*
X45305Y120716D01*
X45305Y120716D01*
X45305Y120716D01*
X45397Y121177D01*
X45397Y121177D01*
Y124036D01*
X45413D01*
X45401Y124127D01*
X45536Y124804D01*
X46752D01*
Y124804D01*
X46752D01*
X46752Y124804D01*
X46883D01*
Y124804D01*
X52001D01*
Y130315D01*
X50785D01*
X50650Y130992D01*
X50662Y131083D01*
X50647D01*
Y139883D01*
X50662D01*
X50650Y139973D01*
X50785Y140650D01*
X52001D01*
Y146162D01*
X50785D01*
X50650Y146839D01*
X50662Y146930D01*
X50647D01*
Y147900D01*
X50555Y148361D01*
X50294Y148752D01*
X50294Y148752D01*
X48686Y150359D01*
X48296Y150620D01*
X47835Y150712D01*
X47835Y150712D01*
X42815D01*
Y151397D01*
X43107Y151440D01*
Y151440D01*
X43107D01*
X43107Y151450D01*
X50528D01*
X50528Y151440D01*
X50528D01*
Y151440D01*
X50820Y151397D01*
Y150099D01*
X55938D01*
Y151397D01*
X56231Y151440D01*
Y151440D01*
X56231D01*
X56231Y151450D01*
X63651D01*
X63651Y151440D01*
X63651D01*
Y151440D01*
X63944Y151397D01*
Y150099D01*
X69062D01*
Y151397D01*
X69354Y151440D01*
Y151440D01*
X69354D01*
X69354Y151450D01*
X76775D01*
X76775Y151440D01*
X76775D01*
Y151440D01*
X77067Y151397D01*
Y150099D01*
X82185D01*
Y151397D01*
X82477Y151440D01*
Y151440D01*
X82477D01*
X82477Y151450D01*
X86229D01*
X88556Y149123D01*
D02*
G37*
G36*
X96082Y106020D02*
X96835Y105870D01*
X96849Y105856D01*
D01*
D01*
X96850Y105855D01*
X96850Y105855D01*
X96882Y105855D01*
X97549Y105189D01*
X98103Y104635D01*
Y102875D01*
X97641Y102684D01*
X97052Y103273D01*
X96661Y103534D01*
X96200Y103626D01*
X96200Y103626D01*
X95095D01*
Y104390D01*
X88008D01*
Y103610D01*
X86440D01*
Y104375D01*
X82896D01*
Y100438D01*
X86440D01*
Y101202D01*
X88008D01*
Y100453D01*
X95095D01*
Y101218D01*
X95701D01*
X95745Y101174D01*
Y97045D01*
X95609Y97004D01*
X95133Y97099D01*
X95095Y97156D01*
Y99390D01*
X88008D01*
Y98606D01*
X87990Y98602D01*
Y98591D01*
X86538D01*
Y99355D01*
X79451D01*
Y96467D01*
X79391Y96161D01*
X79451Y95856D01*
Y95418D01*
X79539D01*
X79543Y95393D01*
X79979Y94742D01*
X80630Y94307D01*
X81398Y94154D01*
X82166Y94307D01*
X82554Y94566D01*
X82995Y94331D01*
Y90497D01*
X86538D01*
Y91261D01*
X87971D01*
Y91250D01*
X88008Y91243D01*
Y90453D01*
X94646D01*
X94963Y90067D01*
X94942Y89961D01*
X94978Y89777D01*
X94661Y89390D01*
X88008D01*
Y88650D01*
X86538D01*
Y89414D01*
X79451D01*
Y88650D01*
X77423D01*
X76992Y89082D01*
Y100506D01*
X76992Y100506D01*
X76900Y100966D01*
X76639Y101357D01*
X72236Y105760D01*
X72428Y106222D01*
X79353D01*
Y105457D01*
X86440D01*
Y106222D01*
X88008D01*
Y105453D01*
X95095D01*
Y106149D01*
X95536Y106385D01*
X96082Y106020D01*
D02*
G37*
G36*
X-100826Y106950D02*
X-100826D01*
X-100608Y106623D01*
X-100700Y106401D01*
X-101194Y105756D01*
X-101237Y105728D01*
X-101673Y105077D01*
X-101825Y104308D01*
Y101159D01*
X-101673Y100391D01*
X-101237Y99740D01*
X-100586Y99305D01*
X-99818Y99152D01*
X-99050Y99305D01*
X-98399Y99740D01*
X-97964Y100391D01*
X-97811Y101159D01*
Y104308D01*
X-97850Y104505D01*
Y106080D01*
X-97841Y106152D01*
X-97850D01*
Y106950D01*
X-97283D01*
Y106950D01*
X-96715D01*
Y105981D01*
X-96723D01*
X-96715Y105925D01*
Y104861D01*
X-96825Y104308D01*
Y101159D01*
X-96673Y100391D01*
X-96237Y99740D01*
X-95586Y99305D01*
X-94818Y99152D01*
X-94050Y99305D01*
X-93399Y99740D01*
X-92964Y100391D01*
X-92811Y101159D01*
Y104308D01*
X-92891Y104709D01*
X-92574Y105095D01*
X-61943D01*
X-61708Y104654D01*
X-61955Y104284D01*
X-62047Y103823D01*
X-62047Y103823D01*
Y101492D01*
X-62614D01*
Y97555D01*
X-62566D01*
Y97250D01*
X-62566D01*
Y93313D01*
X-62327D01*
X-62128Y93070D01*
X-62342Y92618D01*
X-63287D01*
Y87106D01*
X-58169D01*
Y90163D01*
X-57707Y90355D01*
X-56363Y89011D01*
X-56363Y89011D01*
X-55973Y88750D01*
X-55512Y88658D01*
D01*
D01*
D01*
X-55512Y88657D01*
Y88655D01*
Y88644D01*
X-55509Y88643D01*
X-55413Y88166D01*
Y87106D01*
X-54197D01*
X-54062Y86429D01*
X-54074Y86339D01*
X-54059D01*
Y83169D01*
X-54232D01*
Y83169D01*
X-59350D01*
Y80333D01*
X-59373Y80216D01*
X-59374D01*
X-59370Y80212D01*
X-59494Y79584D01*
X-59839Y79069D01*
X-60225Y78683D01*
X-60345Y78591D01*
X-60345Y78591D01*
X-60331Y78577D01*
X-60891Y78017D01*
X-61152Y77626D01*
X-61244Y77165D01*
D01*
D01*
D01*
X-61244Y77165D01*
D01*
X-61539Y76870D01*
X-61811D01*
Y72933D01*
X-60027D01*
X-59791Y72492D01*
X-59794Y72488D01*
X-59885Y72028D01*
X-59885Y72027D01*
Y71957D01*
X-59899D01*
X-59951Y71696D01*
X-60097Y71478D01*
X-60100Y71475D01*
X-60535Y70824D01*
X-60688Y70056D01*
Y66906D01*
X-60605Y66486D01*
X-60987Y66369D01*
X-61023Y66350D01*
X-61063Y66342D01*
X-61160Y66276D01*
X-61263Y66221D01*
X-61289Y66189D01*
X-61322Y66167D01*
X-61387Y66069D01*
X-61461Y65978D01*
X-61473Y65939D01*
X-61495Y65905D01*
X-61518Y65790D01*
X-61551Y65678D01*
X-61547Y65638D01*
X-61555Y65598D01*
X-61531Y59842D01*
Y58318D01*
X-61541Y58296D01*
Y58178D01*
X-61552Y58060D01*
X-61541Y58022D01*
Y57982D01*
X-61424Y57398D01*
X-61354Y57229D01*
X-61304Y57109D01*
X-61266Y57051D01*
X-61501Y56610D01*
X-76181D01*
X-76488Y56549D01*
X-76749Y56375D01*
X-77832Y55292D01*
X-78005Y55032D01*
X-78067Y54724D01*
Y52409D01*
X-78445Y50507D01*
X-83849D01*
X-84040Y50969D01*
X-83893Y51117D01*
X-83631Y51508D01*
X-83540Y51968D01*
Y61122D01*
X-82776D01*
Y64665D01*
Y68209D01*
X-86713D01*
Y67641D01*
X-87850D01*
Y67793D01*
X-92574D01*
Y61100D01*
X-87850D01*
Y65105D01*
X-87722Y65233D01*
X-86713D01*
Y64665D01*
Y61122D01*
X-85948D01*
Y52484D01*
X-90256D01*
X-90256Y52484D01*
X-90717Y52392D01*
X-91107Y52131D01*
X-91107Y52131D01*
X-91788Y51450D01*
X-92288D01*
X-92827Y51989D01*
X-93217Y52250D01*
X-93678Y52342D01*
X-93678Y52342D01*
X-107572D01*
X-107905Y52675D01*
Y60903D01*
X-103795D01*
Y61667D01*
X-100826D01*
Y60887D01*
X-97283D01*
Y62936D01*
X-97260Y63053D01*
X-97260D01*
X-97265Y63060D01*
X-97141Y63358D01*
X-97127Y63372D01*
X-97127Y63372D01*
X-97127D01*
X-97127Y63372D01*
X-95847Y64652D01*
X-95844Y64649D01*
X-95844Y64649D01*
X-95825Y64675D01*
X-95386Y65114D01*
X-95334Y65135D01*
X-93755D01*
Y69056D01*
X-93740D01*
Y69821D01*
X-92649D01*
X-92649Y69821D01*
X-92188Y69912D01*
X-91884Y70116D01*
X-87850D01*
Y76809D01*
X-92574D01*
Y72803D01*
X-92948Y72429D01*
X-92973Y72410D01*
X-92970Y72407D01*
X-92970Y72407D01*
X-93148Y72229D01*
X-93740D01*
Y72993D01*
X-97283D01*
Y72993D01*
X-97299D01*
Y73108D01*
X-97299D01*
Y77045D01*
X-98183D01*
X-98239Y77118D01*
X-98448Y77622D01*
X-98403Y77690D01*
X-98399Y77692D01*
X-97964Y78344D01*
X-97811Y79112D01*
Y82261D01*
X-97964Y83029D01*
X-98399Y83680D01*
X-98403Y83683D01*
X-98548Y83901D01*
X-98600Y84162D01*
X-98614D01*
Y84169D01*
X-98706Y84629D01*
X-98967Y85020D01*
X-98967Y85020D01*
X-100012Y86065D01*
X-100403Y86326D01*
X-100864Y86418D01*
X-100864Y86418D01*
X-114228D01*
Y86986D01*
Y90529D01*
X-114992D01*
Y91430D01*
X-114212D01*
Y91998D01*
X-111522D01*
X-111522Y91998D01*
X-111061Y92090D01*
X-110671Y92351D01*
X-108967Y94055D01*
X-108706Y94445D01*
X-108614Y94906D01*
X-108614Y94906D01*
Y99258D01*
X-108600D01*
X-108548Y99519D01*
X-108403Y99737D01*
X-108399Y99740D01*
X-107964Y100391D01*
X-107811Y101159D01*
Y104308D01*
X-107949Y105004D01*
X-107509Y105239D01*
X-107113Y104844D01*
Y104838D01*
Y104838D01*
X-107085Y104816D01*
X-106945Y104676D01*
X-106815Y104362D01*
X-106825Y104308D01*
Y101159D01*
X-106673Y100391D01*
X-106237Y99740D01*
X-105586Y99305D01*
X-104818Y99152D01*
X-104050Y99305D01*
X-103399Y99740D01*
X-102964Y100391D01*
X-102811Y101159D01*
Y104308D01*
X-102964Y105077D01*
X-103399Y105728D01*
X-104050Y106163D01*
X-104792Y106310D01*
X-105049Y106739D01*
X-105010Y106868D01*
X-103795D01*
Y107714D01*
X-100826D01*
Y106950D01*
D02*
G37*
G36*
X5555Y101966D02*
X6513Y101569D01*
X7335Y100938D01*
X7966Y100115D01*
X8363Y99158D01*
X8491Y98186D01*
X8442Y98130D01*
X8442D01*
X8533Y97436D01*
X8801Y96790D01*
X9227Y96235D01*
X9782Y95809D01*
X10428Y95541D01*
X11122Y95450D01*
X24304Y95470D01*
X24524Y95059D01*
X24371Y94291D01*
X24524Y93523D01*
X24959Y92872D01*
X25610Y92437D01*
X26378Y92284D01*
X27146Y92437D01*
X27797Y92872D01*
X28232Y93523D01*
X28302Y93875D01*
X34350D01*
X34350Y93875D01*
X34811Y93966D01*
X35001Y94093D01*
X35433Y94095D01*
X35433Y94095D01*
Y94095D01*
X35452Y94110D01*
X35817Y94037D01*
X36143Y93820D01*
X36360Y93494D01*
X36437Y93110D01*
X36417Y87697D01*
X36384D01*
X36514Y87044D01*
X36884Y86490D01*
X37438Y86121D01*
X38091Y85991D01*
Y85991D01*
X38149Y86039D01*
X38628Y85944D01*
X39084Y85639D01*
X39388Y85183D01*
X39496Y84646D01*
X39469Y57972D01*
X39469D01*
X39489Y57948D01*
X39394Y57473D01*
X39112Y57050D01*
X38688Y56767D01*
X38189Y56668D01*
X1476Y56693D01*
Y56693D01*
X1459Y56679D01*
X1131Y56744D01*
X838Y56940D01*
X642Y57233D01*
X573Y57579D01*
X591Y93307D01*
X3248Y102067D01*
X4528D01*
Y102067D01*
X4561Y102096D01*
X5555Y101966D01*
D02*
G37*
G36*
X47022Y100323D02*
X47141Y99724D01*
X47138Y99720D01*
X47138D01*
X47161Y99604D01*
Y97555D01*
X50705D01*
Y97555D01*
X50787D01*
Y97250D01*
X50787D01*
Y93313D01*
X54331D01*
Y94077D01*
X56791D01*
Y93313D01*
X57359D01*
Y92557D01*
X57359Y92557D01*
X57450Y92097D01*
X57711Y91706D01*
X57979Y91438D01*
D01*
X57966Y91426D01*
X58075Y91343D01*
X58250Y91167D01*
X58634Y90593D01*
X58776Y89877D01*
X58769Y89868D01*
X58769D01*
X58792Y89751D01*
Y86915D01*
X63560D01*
Y79695D01*
X63259Y78161D01*
X63259Y78161D01*
X63088Y78107D01*
X61809Y78104D01*
X61656Y78073D01*
X61504Y78042D01*
X61504Y78042D01*
X61504Y78042D01*
X61215Y77995D01*
X61215Y77995D01*
Y77995D01*
D01*
X60954Y78385D01*
X60968Y78399D01*
X60847Y78492D01*
X60461Y78878D01*
X60117Y79393D01*
X59992Y80021D01*
X59996Y80025D01*
X59996D01*
X59973Y80142D01*
Y82978D01*
X54855D01*
Y78995D01*
X54393Y78803D01*
X53506Y79690D01*
X53115Y79951D01*
X52655Y80043D01*
X52654Y80043D01*
X50105D01*
X49268Y80880D01*
Y86147D01*
X49283D01*
X49272Y86238D01*
X49406Y86915D01*
X50622D01*
Y92427D01*
X48180D01*
X48063Y92450D01*
Y92451D01*
X47268Y92555D01*
X46527Y92862D01*
X45891Y93350D01*
X45891Y93350D01*
X45891Y93350D01*
X45890D01*
X45657Y93583D01*
D01*
X45658D01*
D01*
D01*
D01*
X45658Y93583D01*
D01*
D01*
D01*
D01*
X45657Y93583D01*
D01*
X45657D01*
X45657Y93583D01*
X45607Y93634D01*
X45184Y94267D01*
X45024Y95070D01*
X45036Y95084D01*
X45036D01*
X45013Y95201D01*
Y97250D01*
X44965D01*
Y97555D01*
X44965D01*
Y100681D01*
X46782D01*
X47022Y100323D01*
D02*
G37*
G36*
X-44957Y103390D02*
X-44594Y103239D01*
Y102959D01*
X-44594D01*
Y98234D01*
X-38606D01*
Y97618D01*
X-38747Y97477D01*
X-38747Y97477D01*
X-38757Y97487D01*
X-38978Y97339D01*
X-39240Y97287D01*
Y97273D01*
X-39356Y97250D01*
X-44555D01*
Y96486D01*
X-47114D01*
Y97250D01*
X-50657D01*
Y93313D01*
X-47114D01*
Y94077D01*
X-44555D01*
Y93313D01*
X-43987D01*
Y92783D01*
X-43987Y92783D01*
X-43896Y92322D01*
X-43635Y91932D01*
X-43402Y91699D01*
X-43416Y91685D01*
X-43295Y91592D01*
X-42910Y91206D01*
X-42565Y90691D01*
X-42441Y90064D01*
X-42444Y90059D01*
X-42444D01*
X-42421Y89943D01*
Y87106D01*
X-37303D01*
Y92618D01*
X-39746D01*
X-39862Y92641D01*
Y92646D01*
X-40395Y92716D01*
X-40687Y93123D01*
X-40649Y93313D01*
X-37468D01*
Y95302D01*
X-37434Y95384D01*
X-37063Y95755D01*
X-37042Y95771D01*
X-37044Y95774D01*
X-36829Y95989D01*
X-36331Y95940D01*
X-36146Y95662D01*
Y79331D01*
X-36146Y79331D01*
X-36054Y78870D01*
X-35793Y78480D01*
X-35251Y77938D01*
X-35443Y77476D01*
X-37402D01*
X-37402Y77476D01*
X-37709Y77415D01*
X-37969Y77241D01*
X-37969Y77241D01*
X-38725Y76485D01*
X-39225Y76485D01*
X-39250Y76510D01*
X-39250Y76510D01*
D01*
X-39467Y76655D01*
X-39576Y76700D01*
X-39680Y76756D01*
X-39720Y76760D01*
X-39757Y76775D01*
X-39875D01*
X-39992Y76786D01*
X-40030Y76775D01*
X-40070D01*
X-40179Y76730D01*
X-40354Y76870D01*
Y76870D01*
X-40922D01*
Y77521D01*
X-40905D01*
X-40922Y77645D01*
Y78740D01*
X-40931Y78785D01*
X-40944Y78849D01*
X-40922Y78958D01*
X-40913D01*
X-41039Y79914D01*
X-41240Y80399D01*
Y83169D01*
X-46358D01*
Y78141D01*
X-46820Y77950D01*
X-49053Y80182D01*
X-49444Y80443D01*
X-49905Y80535D01*
X-49905Y80535D01*
X-51371D01*
X-51650Y80814D01*
Y86339D01*
X-51634D01*
X-51646Y86429D01*
X-51512Y87106D01*
X-50295D01*
Y92618D01*
X-55413D01*
Y92120D01*
X-55632Y92030D01*
X-56047Y92308D01*
Y93313D01*
X-55480D01*
Y97250D01*
X-55528D01*
Y97555D01*
X-55528D01*
Y101492D01*
X-59071D01*
Y101492D01*
X-59638D01*
Y103324D01*
X-59442Y103520D01*
X-54519D01*
X-54283Y103079D01*
X-54315Y103032D01*
X-54468Y102264D01*
X-54315Y101496D01*
X-53880Y100845D01*
X-53610Y100664D01*
Y98234D01*
X-46917D01*
Y102959D01*
X-50216D01*
X-50473Y103387D01*
X-50402Y103520D01*
X-45949D01*
X-44957Y103390D01*
D02*
G37*
G36*
X120470Y104837D02*
X120279Y104375D01*
X117640D01*
Y103626D01*
X116551D01*
Y104390D01*
X109465D01*
Y100453D01*
X116551D01*
Y101218D01*
X117640D01*
Y100438D01*
X124340D01*
Y99650D01*
X117666D01*
Y98886D01*
X117111D01*
Y98897D01*
X117027Y98886D01*
X116551D01*
Y99390D01*
X109465D01*
Y95453D01*
X116551D01*
Y96370D01*
X117093Y96478D01*
X117666D01*
Y95713D01*
X121776D01*
Y93952D01*
X121451Y93626D01*
X116551D01*
Y94390D01*
X109465D01*
Y90453D01*
X116551D01*
Y91218D01*
X121949D01*
X121950Y91218D01*
X122410Y91309D01*
X122801Y91570D01*
X123832Y92601D01*
X123832Y92601D01*
X123862Y92646D01*
X124340Y92501D01*
Y85514D01*
X123448Y84622D01*
X123448Y84622D01*
X123438Y84631D01*
X123217Y84483D01*
X122955Y84431D01*
Y84417D01*
X122839Y84394D01*
X117640D01*
Y83626D01*
X116551D01*
Y84390D01*
X109767D01*
Y85453D01*
X116551D01*
Y86218D01*
X117640D01*
Y85477D01*
X121184D01*
Y89414D01*
X117640D01*
Y88626D01*
X116551D01*
Y89390D01*
X109465D01*
Y88626D01*
X109075D01*
X108615Y88534D01*
X108192Y89166D01*
Y91338D01*
X108192Y91339D01*
X108101Y91799D01*
X107840Y92190D01*
X107840Y92190D01*
X106713Y93317D01*
X106322Y93578D01*
X105862Y93669D01*
X105861Y93669D01*
X98905D01*
X98669Y94110D01*
X98803Y94311D01*
X98956Y95079D01*
X98845Y95634D01*
X99199Y95987D01*
X99508Y95926D01*
X100276Y96079D01*
X100927Y96514D01*
X101362Y97165D01*
X101515Y97933D01*
X101362Y98701D01*
X100936Y99339D01*
X100936Y99359D01*
Y99359D01*
X100936D01*
D01*
D01*
D01*
D01*
D01*
D01*
D01*
D01*
X100935Y99361D01*
X100935D01*
D01*
D01*
D01*
X100913Y99383D01*
Y105217D01*
X100806Y105754D01*
X100501Y106210D01*
X99536Y107175D01*
X98869Y107842D01*
X98869Y107874D01*
X98869Y107874D01*
X98868Y107876D01*
X98868D01*
D01*
X98868D01*
Y107876D01*
X98854Y107890D01*
X98705Y108642D01*
X98607Y108788D01*
X98843Y109229D01*
X116078D01*
X120470Y104837D01*
D02*
G37*
%LPC*%
G36*
X-17224Y73365D02*
X-17992Y73213D01*
X-18644Y72777D01*
X-19079Y72126D01*
X-19231Y71358D01*
X-19082Y70608D01*
X-19192Y70056D01*
Y66906D01*
X-19039Y66138D01*
X-18604Y65487D01*
X-17953Y65052D01*
X-17185Y64899D01*
X-16417Y65052D01*
X-15766Y65487D01*
X-15331Y66138D01*
X-15178Y66906D01*
Y70056D01*
X-15327Y70806D01*
X-15217Y71358D01*
X-15370Y72126D01*
X-15805Y72777D01*
X-16456Y73213D01*
X-17224Y73365D01*
D02*
G37*
G36*
X-27264Y73562D02*
X-28032Y73409D01*
X-28683Y72974D01*
X-29118Y72323D01*
X-29271Y71555D01*
X-29118Y70787D01*
X-29063Y70705D01*
X-29192Y70056D01*
Y66906D01*
X-29039Y66138D01*
X-28604Y65487D01*
X-27953Y65052D01*
X-27185Y64899D01*
X-26417Y65052D01*
X-25766Y65487D01*
X-25331Y66138D01*
X-25178Y66906D01*
Y70056D01*
X-25331Y70824D01*
X-25386Y70906D01*
X-25257Y71555D01*
X-25409Y72323D01*
X-25845Y72974D01*
X-26496Y73409D01*
X-27264Y73562D01*
D02*
G37*
G36*
X5000Y20547D02*
X4024Y20418D01*
X3114Y20042D01*
X2332Y19442D01*
X1733Y18661D01*
X1356Y17751D01*
X1228Y16774D01*
Y14806D01*
X1356Y13830D01*
X1733Y12920D01*
X2332Y12139D01*
X3114Y11539D01*
X4024Y11162D01*
X5000Y11034D01*
X5976Y11162D01*
X6886Y11539D01*
X7667Y12139D01*
X8267Y12920D01*
X8644Y13830D01*
X8772Y14806D01*
Y16774D01*
X8644Y17751D01*
X8267Y18661D01*
X7667Y19442D01*
X6886Y20042D01*
X5976Y20418D01*
X5000Y20547D01*
D02*
G37*
G36*
X24940Y76679D02*
X21397D01*
Y73160D01*
X20825Y72777D01*
X20390Y72126D01*
X20237Y71358D01*
X20340Y70838D01*
X20331Y70824D01*
X20178Y70056D01*
Y66906D01*
X20331Y66138D01*
X20766Y65487D01*
X21417Y65052D01*
X22185Y64899D01*
X22953Y65052D01*
X23604Y65487D01*
X24039Y66138D01*
X24192Y66906D01*
Y70056D01*
X24089Y70576D01*
X24098Y70590D01*
X24251Y71358D01*
X24142Y71908D01*
X24281Y72117D01*
X24373Y72578D01*
X24373Y72578D01*
Y72742D01*
X24940D01*
Y76679D01*
D02*
G37*
G36*
X14901D02*
X11358D01*
Y73061D01*
X10785Y72679D01*
X10350Y72028D01*
X10198Y71260D01*
X10308Y70707D01*
X10178Y70056D01*
Y66906D01*
X10331Y66138D01*
X10766Y65487D01*
X11417Y65052D01*
X12185Y64899D01*
X12953Y65052D01*
X13604Y65487D01*
X14039Y66138D01*
X14192Y66906D01*
Y70056D01*
X14082Y70609D01*
X14212Y71260D01*
X14117Y71734D01*
X14242Y71921D01*
X14334Y72381D01*
X14334Y72381D01*
Y72742D01*
X14901D01*
Y76679D01*
D02*
G37*
G36*
X-1260Y20515D02*
X-8740D01*
Y11066D01*
X-1260D01*
Y20515D01*
D02*
G37*
%LPD*%
D10*
X128861Y29528D02*
G03*
X133230Y31337I0J6178D01*
G01*
X130762Y29528D02*
G03*
X133787Y30780I0J4277D01*
G01*
X133230Y27718D02*
G03*
X128861Y29528I-4369J-4369D01*
G01*
X133787Y28275D02*
G03*
X130762Y29528I-3024J-3024D01*
G01*
X131398Y64272D02*
G03*
X132548Y68313I-3053J3053D01*
G01*
X132398Y65272D02*
G03*
X133315Y68493I-2434J2434D01*
G01*
X133398Y66272D02*
G03*
X134081Y68673I-1814J1814D01*
G01*
X135039Y66339D02*
G03*
X132351Y65225I0J-3802D01*
G01*
X131299Y56299D02*
G03*
X132537Y60488I-3232J3232D01*
G01*
X132323Y57323D02*
G03*
X133307Y60653I-2569J2569D01*
G01*
X133347Y58347D02*
G03*
X134077Y60818I-1907J1907D01*
G01*
X135039Y58465D02*
G03*
X132351Y57351I0J-3802D01*
G01*
X129337Y53347D02*
G03*
X133230Y54959I0J5506D01*
G01*
X131237Y53347D02*
G03*
X133787Y54402I0J3605D01*
G01*
X133230Y51340D02*
G03*
X128386Y53347I-4844J-4844D01*
G01*
X133787Y51897D02*
G03*
X130287Y53347I-3500J-3500D01*
G01*
X132351Y48948D02*
G03*
X135039Y47835I2688J2688D01*
G01*
X133333Y45753D02*
G03*
X132547Y48752I-2958J827D01*
G01*
X134091Y45541D02*
G03*
X133499Y47800I-2228J623D01*
G01*
X37785Y54321D02*
G03*
X36811Y51968I2352J-2352D01*
G01*
X-89828Y33014D02*
G03*
X-85925Y31398I3903J3903D01*
G01*
X-88484Y31670D02*
G03*
X-85925Y30610I2558J2558D01*
G01*
X-88484Y28839D02*
G03*
X-90487Y33673I-6837J0D01*
G01*
X-87697Y28839D02*
G03*
X-89143Y32329I-4936J0D01*
G01*
X-114558Y93202D02*
G03*
X-115566Y92785I0J-1426D01*
G01*
Y93620D02*
G03*
X-114558Y93202I1008J1008D01*
G01*
X-116196Y91814D02*
G03*
X-116598Y92785I-1372J0D01*
G01*
X-115763D02*
G03*
X-116196Y91738I1046J-1046D01*
G01*
X-95511Y107296D02*
G03*
X-95929Y108304I-1426J0D01*
G01*
X-95094D02*
G03*
X-95511Y107296I1008J-1008D01*
G01*
X-94167Y107574D02*
G03*
X-95511Y108131I-1344J-1344D01*
G01*
X-94921Y108722D02*
G03*
X-94642Y108050I950J0D01*
G01*
X-97979Y110287D02*
G03*
X-98464Y109116I1171J-1171D01*
G01*
X-99054Y109706D02*
G03*
X-98209Y110056I0J1195D01*
G01*
X-99054Y107296D02*
G03*
X-99472Y108304I-1426J0D01*
G01*
X-98637D02*
G03*
X-99054Y107296I1008J-1008D01*
G01*
X-100480Y108919D02*
G03*
X-99472Y109336I0J1426D01*
G01*
Y108501D02*
G03*
X-100480Y108919I-1008J-1008D01*
G01*
X-94086Y71025D02*
G03*
X-95094Y70607I0J-1426D01*
G01*
Y71443D02*
G03*
X-94086Y71025I1008J1008D01*
G01*
X-95527Y69440D02*
G03*
X-95929Y70411I-1372J0D01*
G01*
X-95094D02*
G03*
X-95527Y69364I1046J-1046D01*
G01*
X-99070Y72686D02*
G03*
X-98637Y71639I1480J0D01*
G01*
X-99472D02*
G03*
X-99070Y72610I-970J970D01*
G01*
X-97979Y64224D02*
G03*
X-98464Y63053I1171J-1171D01*
G01*
X-99054Y63643D02*
G03*
X-98209Y63993I0J1195D01*
G01*
X-100442Y62871D02*
G03*
X-99472Y63273I0J1372D01*
G01*
Y62438D02*
G03*
X-100518Y62871I-1046J-1046D01*
G01*
X-113665Y109859D02*
G03*
X-114129Y108738I1121J-1121D01*
G01*
X-115114Y109722D02*
G03*
X-112874Y110649I0J3167D01*
G01*
X-112966Y106864D02*
G03*
X-115114Y107753I-2147J-2147D01*
G01*
X-114129Y108738D02*
G03*
X-113627Y107524I1716J0D01*
G01*
X89154Y39647D02*
G03*
X88196Y37331I2315J-2315D01*
G01*
X87810Y38302D02*
G03*
X87408Y37331I971J-971D01*
G01*
X85786D02*
G03*
X86794Y37749I0J1426D01*
G01*
Y36914D02*
G03*
X85786Y37331I-1008J-1008D01*
G01*
X-109110Y68749D02*
G03*
X-108676Y67703I1480J0D01*
G01*
X-109511D02*
G03*
X-109110Y68673I-970J970D01*
G01*
X83798Y74292D02*
G03*
X83380Y75300I-1426J0D01*
G01*
X84215D02*
G03*
X83798Y74292I1008J-1008D01*
G01*
X99657Y37446D02*
G03*
X100703Y37879I0J1479D01*
G01*
Y37044D02*
G03*
X99733Y37446I-970J-970D01*
G01*
X92886Y38675D02*
G03*
X92329Y37331I1344J-1344D01*
G01*
X91739Y37922D02*
G03*
X92411Y38200I0J950D01*
G01*
X92910Y36256D02*
G03*
X91739Y36741I-1171J-1171D01*
G01*
X92329Y37331D02*
G03*
X92679Y36486I1195J0D01*
G01*
X110986Y38567D02*
G03*
X110631Y37510I886J-886D01*
G01*
X110046Y38020D02*
G03*
X110718Y38299I0J950D01*
G01*
X111472Y37430D02*
G03*
X110464Y37012I0J-1426D01*
G01*
Y37847D02*
G03*
X111472Y37430I1008J1008D01*
G01*
X111217Y36354D02*
G03*
X110046Y36839I-1171J-1171D01*
G01*
X110636Y37430D02*
G03*
X110986Y36585I1195J0D01*
G01*
X109628Y37847D02*
G03*
X110986Y41126I-3278J3278D01*
G01*
X110185Y37290D02*
G03*
X110986Y39224I-1934J1934D01*
G01*
X-48059Y121987D02*
G03*
X-43959Y124113I0J5018D01*
G01*
X-46541Y121987D02*
G03*
X-43315Y123659I0J3947D01*
G01*
X-45022Y121987D02*
G03*
X-42672Y123206I0J2876D01*
G01*
X-43503Y121987D02*
G03*
X-42028Y122752I0J1805D01*
G01*
X-43345Y123595D02*
G03*
X-43804Y125278I-1702J440D01*
G01*
X-54826Y119844D02*
G03*
X-56146Y116656I3187J-3187D01*
G01*
X-56170Y118500D02*
G03*
X-56934Y116656I1843J-1843D01*
G01*
X-58213Y114280D02*
G03*
X-58909Y115960I-2376J0D01*
G01*
X-57517D02*
G03*
X-58213Y114280I1680J-1680D01*
G01*
X-49197Y121142D02*
G03*
X-48847Y121987I-845J845D01*
G01*
X-48256Y121396D02*
G03*
X-49428Y120911I0J-1657D01*
G01*
X-46437Y121987D02*
G03*
X-47445Y121569I0J-1426D01*
G01*
Y122404D02*
G03*
X-46437Y121987I1008J1008D01*
G01*
X53902Y99523D02*
G03*
X52894Y99106I0J-1426D01*
G01*
Y99941D02*
G03*
X53902Y99523I1008J1008D01*
G01*
X48343Y99720D02*
G03*
X47530Y101683I-2776J0D01*
G01*
X-60728Y97625D02*
G03*
X-61260Y98909I-1815J0D01*
G01*
X-60425D02*
G03*
X-60728Y98177I733J-733D01*
G01*
X-60843Y101146D02*
G03*
X-60425Y100138I1426J0D01*
G01*
X-61260D02*
G03*
X-60843Y101146I-1008J1008D01*
G01*
X-57299Y97901D02*
G03*
X-57717Y98909I-1426J0D01*
G01*
X-56882D02*
G03*
X-57299Y97901I1008J-1008D01*
G01*
X40725Y100892D02*
G03*
X40240Y99721I1171J-1171D01*
G01*
X39650Y100311D02*
G03*
X40495Y100661I0J1195D01*
G01*
X39650Y97901D02*
G03*
X39232Y98909I-1426J0D01*
G01*
X40067D02*
G03*
X39650Y97901I1008J-1008D01*
G01*
Y98736D02*
G03*
X36847Y97575I0J-3964D01*
G01*
X39650Y99524D02*
G03*
X38191Y98919I0J-2063D01*
G01*
X43241Y97785D02*
G03*
X42775Y98909I-1589J0D01*
G01*
X43611D02*
G03*
X43241Y98017I892J-892D01*
G01*
X85290Y79883D02*
G03*
X84282Y79465I0J-1426D01*
G01*
Y80300D02*
G03*
X85290Y79883I1008J1008D01*
G01*
X-90295Y72093D02*
G03*
X-92119Y71555I-418J-1943D01*
G01*
X-89484Y66360D02*
G03*
X-88221Y66437I588J751D01*
G01*
X-60430Y162825D02*
G03*
X-62478Y163541I-1768J-1768D01*
G01*
X-41732Y103937D02*
G03*
X-40537Y101540I3001J0D01*
G01*
X-41732Y102358D02*
G03*
X-41011Y100911I1812J0D01*
G01*
X-42083Y101432D02*
G03*
X-41732Y102278I-846J846D01*
G01*
X84471Y20483D02*
G03*
X83528Y22661I-2988J0D01*
G01*
X85414D02*
G03*
X84471Y20483I2045J-2179D01*
G01*
X93920Y30930D02*
G03*
X94894Y28577I3327J0D01*
G01*
X92945D02*
G03*
X93920Y30930I-2352J2352D01*
G01*
Y24276D02*
G03*
X92945Y26629I-3327J0D01*
G01*
X94894D02*
G03*
X93920Y24276I2352J-2352D01*
G01*
X97443Y19729D02*
G03*
X95091Y18755I0J-3327D01*
G01*
Y20703D02*
G03*
X97443Y19729I2352J2352D01*
G01*
X-53681Y71957D02*
G03*
X-53124Y70613I1901J0D01*
G01*
X-54238D02*
G03*
X-53681Y71957I-1344J1344D01*
G01*
X-58681D02*
G03*
X-58124Y70613I1901J0D01*
G01*
X-59238D02*
G03*
X-58681Y71957I-1344J1344D01*
G01*
X70440Y131083D02*
G03*
X71414Y128731I3327J0D01*
G01*
X69465D02*
G03*
X70440Y131083I-2352J2352D01*
G01*
X66994Y122372D02*
G03*
X69062Y127363I-4991J4991D01*
G01*
X68339Y123716D02*
G03*
X69849Y127363I-3647J3647D01*
G01*
X69683Y125060D02*
G03*
X70636Y127363I-2303J2303D01*
G01*
X62566Y131083D02*
G03*
X63540Y128731I3327J0D01*
G01*
X61591D02*
G03*
X62566Y131083I-2352J2352D01*
G01*
X44193Y139883D02*
G03*
X43219Y142235I-3327J0D01*
G01*
X45167D02*
G03*
X44193Y139883I2352J-2352D01*
G01*
X36319Y146930D02*
G03*
X37293Y144577I3327J0D01*
G01*
X35345D02*
G03*
X36319Y146930I-2352J2352D01*
G01*
Y139883D02*
G03*
X35345Y142235I-3327J0D01*
G01*
X37293D02*
G03*
X36319Y139883I2352J-2352D01*
G01*
X70440D02*
G03*
X69465Y142235I-3327J0D01*
G01*
X71414D02*
G03*
X70440Y139883I2352J-2352D01*
G01*
X64779Y145619D02*
G03*
X63944Y143603I2016J-2016D01*
G01*
X62566Y144981D02*
G03*
X65254Y146094I0J3802D01*
G01*
X62566Y139883D02*
G03*
X61591Y142235I-3327J0D01*
G01*
X63540D02*
G03*
X62566Y139883I2352J-2352D01*
G01*
X44193Y124036D02*
G03*
X43219Y126388I-3327J0D01*
G01*
X45167D02*
G03*
X44193Y124036I2352J-2352D01*
G01*
X44193Y131083D02*
G03*
X45167Y128731I3327J0D01*
G01*
X43219D02*
G03*
X44193Y131083I-2352J2352D01*
G01*
X36319Y131083D02*
G03*
X37293Y128731I3327J0D01*
G01*
X35345D02*
G03*
X36319Y131083I-2352J2352D01*
G01*
X23169Y72578D02*
G03*
X22872Y70440I1265J-1265D01*
G01*
X22433Y71842D02*
G03*
X22185Y70056I1057J-1057D01*
G01*
Y71594D02*
G03*
X22646Y70695I1109J0D01*
G01*
X21724D02*
G03*
X22185Y71594I-649J900D01*
G01*
X13129Y72381D02*
G03*
X12869Y70446I1138J-1138D01*
G01*
X12400Y71652D02*
G03*
X12185Y70056I938J-938D01*
G01*
X48681Y71957D02*
G03*
X49238Y70613I1901J0D01*
G01*
X48124D02*
G03*
X48681Y71957I-1344J1344D01*
G01*
X43124Y70613D02*
G03*
X44094Y72955I-2342J2342D01*
G01*
X81350Y125347D02*
G03*
X82185Y127363I-2016J2016D01*
G01*
X83563Y125985D02*
G03*
X80875Y124871I0J-3802D01*
G01*
X83563Y131083D02*
G03*
X84537Y128731I3327J0D01*
G01*
X82589D02*
G03*
X83563Y131083I-2352J2352D01*
G01*
X75689Y131083D02*
G03*
X76663Y128731I3327J0D01*
G01*
X74715D02*
G03*
X75689Y131083I-2352J2352D01*
G01*
X57316Y139883D02*
G03*
X56342Y142235I-3327J0D01*
G01*
X58291D02*
G03*
X57316Y139883I2352J-2352D01*
G01*
X49442Y146930D02*
G03*
X50417Y144577I3327J0D01*
G01*
X48468D02*
G03*
X49442Y146930I-2352J2352D01*
G01*
Y139883D02*
G03*
X48468Y142235I-3327J0D01*
G01*
X50417D02*
G03*
X49442Y139883I2352J-2352D01*
G01*
X83563D02*
G03*
X82589Y142235I-3327J0D01*
G01*
X84537D02*
G03*
X83563Y139883I2352J-2352D01*
G01*
X77902Y145619D02*
G03*
X77067Y143603I2016J-2016D01*
G01*
X75689Y144981D02*
G03*
X78377Y146094I0J3802D01*
G01*
X75689Y139883D02*
G03*
X74715Y142235I-3327J0D01*
G01*
X76663D02*
G03*
X75689Y139883I2352J-2352D01*
G01*
X57316Y124036D02*
G03*
X56342Y126388I-3327J0D01*
G01*
X58291D02*
G03*
X57316Y124036I2352J-2352D01*
G01*
X57316Y131083D02*
G03*
X58291Y128731I3327J0D01*
G01*
X56342D02*
G03*
X57316Y131083I-2352J2352D01*
G01*
X49442Y131083D02*
G03*
X50417Y128731I3327J0D01*
G01*
X48468D02*
G03*
X49442Y131083I-2352J2352D01*
G01*
X-59004Y78200D02*
G03*
X-58169Y80216I-2016J2016D01*
G01*
X-56791Y78839D02*
G03*
X-59480Y77725I0J-3802D01*
G01*
X-60728Y93386D02*
G03*
X-59754Y91033I3327J0D01*
G01*
X-61703D02*
G03*
X-60728Y93386I-2352J2352D01*
G01*
X-55512Y89862D02*
G03*
X-53981Y90656I0J1873D01*
G01*
Y89068D02*
G03*
X-55512Y89862I-1531J-1079D01*
G01*
X-52854Y86339D02*
G03*
X-53829Y88691I-3327J0D01*
G01*
X-51880D02*
G03*
X-52854Y86339I2352J-2352D01*
G01*
X41913Y78009D02*
G03*
X42748Y80025I-2016J2016D01*
G01*
X43957Y78658D02*
G03*
X41831Y77926I-314J-2544D01*
G01*
X39698Y94382D02*
G03*
X41164Y90842I5006J0D01*
G01*
X39698Y92481D02*
G03*
X40607Y90285I3105J0D01*
G01*
X39215Y90842D02*
G03*
X39698Y92007I-1165J1165D01*
G01*
X48063Y86147D02*
G03*
X47089Y88500I-3327J0D01*
G01*
X49038D02*
G03*
X48063Y86147I2352J-2352D01*
G01*
X45039Y92499D02*
G03*
X48063Y91246I3024J3024D01*
G01*
X46383Y91154D02*
G03*
X48063Y90458I1680J1680D01*
G01*
X46685Y89868D02*
G03*
X45990Y91548I-2376J0D01*
G01*
X-42126Y74645D02*
G03*
X-44541Y79056I-5235J0D01*
G01*
X-42126Y76082D02*
G03*
X-44117Y79719I-4316J0D01*
G01*
X-42126Y77521D02*
G03*
X-43693Y80382I-3397J0D01*
G01*
X-42126Y78958D02*
G03*
X-43269Y81046I-2478J0D01*
G01*
X-42551Y92551D02*
G03*
X-39862Y91437I2688J2688D01*
G01*
X-41240Y90059D02*
G03*
X-42075Y92075I-2851J0D01*
G01*
X60102Y77534D02*
G03*
X57414Y78647I-2688J-2688D01*
G01*
X58792Y80025D02*
G03*
X59627Y78009I2851J0D01*
G01*
X58831Y92290D02*
G03*
X61351Y91246I2520J2520D01*
G01*
X59973Y89868D02*
G03*
X59068Y92052I-3089J0D01*
G01*
X-11772Y74889D02*
G03*
X-12562Y76948I-2707J142D01*
G01*
X-19882Y80661D02*
G03*
X-20300Y81669I-1426J0D01*
G01*
X-19464D02*
G03*
X-19882Y80661I1008J-1008D01*
G01*
X-108034Y110204D02*
G03*
X-108519Y109033I1171J-1171D01*
G01*
X-109110Y109623D02*
G03*
X-108265Y109974I0J1195D01*
G01*
Y107699D02*
G03*
X-109110Y108049I-845J-845D01*
G01*
X-108519Y108639D02*
G03*
X-108034Y107468I1656J0D01*
G01*
X-103941Y108919D02*
G03*
X-105149Y108419I0J-1708D01*
G01*
Y109254D02*
G03*
X-104340Y108919I808J808D01*
G01*
X-84744Y61468D02*
G03*
X-85162Y62476I-1426J0D01*
G01*
X-84326D02*
G03*
X-84744Y61468I1008J-1008D01*
G01*
X-86367Y66437D02*
G03*
X-85359Y66855I0J1426D01*
G01*
Y66019D02*
G03*
X-86367Y66437I-1008J-1008D01*
G01*
X85306Y68056D02*
G03*
X84298Y67638I0J-1426D01*
G01*
Y68474D02*
G03*
X85306Y68056I1008J1008D01*
G01*
X80337D02*
G03*
X78704Y67379I0J-2309D01*
G01*
X-96699Y65504D02*
G03*
X-96118Y66907I-1403J1403D01*
G01*
X-95527Y66316D02*
G03*
X-96140Y66062I0J-867D01*
G01*
X-95527Y68726D02*
G03*
X-95109Y67718I1426J0D01*
G01*
X-95944D02*
G03*
X-95527Y68726I-1008J1008D01*
G01*
X-114574Y85214D02*
G03*
X-115582Y84796I0J-1426D01*
G01*
Y85632D02*
G03*
X-114574Y85214I1008J1008D01*
G01*
X-116196Y90183D02*
G03*
X-115779Y89175I1426J0D01*
G01*
X-116614D02*
G03*
X-116196Y90183I-1008J1008D01*
G01*
X82143Y32460D02*
G03*
X82699Y33804I-1344J1344D01*
G01*
X83290Y33213D02*
G03*
X82618Y32935I0J-950D01*
G01*
X85071Y37331D02*
G03*
X84101Y36929I0J-1372D01*
G01*
Y37765D02*
G03*
X85147Y37331I1046J1046D01*
G01*
X-105566Y72663D02*
G03*
X-105149Y71655I1426J0D01*
G01*
X-105984D02*
G03*
X-105566Y72663I-1008J1008D01*
G01*
X-109110Y69418D02*
G03*
X-109527Y70426I-1426J0D01*
G01*
X-108692D02*
G03*
X-109110Y69418I1008J-1008D01*
G01*
X-99070Y73454D02*
G03*
X-99488Y74462I-1426J0D01*
G01*
X-98653D02*
G03*
X-99070Y73454I1008J-1008D01*
G01*
X-99818Y78505D02*
G03*
X-98653Y75691I3980J0D01*
G01*
X-99818Y76604D02*
G03*
X-99209Y75134I2079J0D01*
G01*
X-105984Y75691D02*
G03*
X-104818Y78505I-2814J2814D01*
G01*
X-105427Y75134D02*
G03*
X-104818Y76604I-1470J1470D01*
G01*
X-105566Y73454D02*
G03*
X-105984Y74462I-1426J0D01*
G01*
X-105149D02*
G03*
X-105566Y73454I1008J-1008D01*
G01*
X-109978Y74207D02*
G03*
X-109700Y74879I-672J672D01*
G01*
X-109110Y74289D02*
G03*
X-110454Y73732I0J-1901D01*
G01*
X-109818Y78410D02*
G03*
X-108692Y75691I3845J0D01*
G01*
X-109818Y76509D02*
G03*
X-109249Y75134I1944J0D01*
G01*
X97168Y32476D02*
G03*
X96750Y33485I-1426J0D01*
G01*
X97585D02*
G03*
X97168Y32476I1008J-1008D01*
G01*
X98191Y38469D02*
G03*
X97939Y37582I669J-669D01*
G01*
X97365Y38036D02*
G03*
X98037Y38314I0J950D01*
G01*
X96947Y37863D02*
G03*
X98191Y40866I-3003J3003D01*
G01*
X97504Y37306D02*
G03*
X98191Y38965I-1659J1659D01*
G01*
X98790Y37446D02*
G03*
X97782Y37028I0J-1426D01*
G01*
Y37863D02*
G03*
X98790Y37446I1008J1008D01*
G01*
X85246Y72009D02*
G03*
X84200Y71575I0J-1479D01*
G01*
Y72411D02*
G03*
X85170Y72009I970J970D01*
G01*
X83798Y73577D02*
G03*
X84200Y72607I1372J0D01*
G01*
X83364D02*
G03*
X83798Y73653I-1046J1046D01*
G01*
X104567Y38314D02*
G03*
X105239Y38036I672J672D01*
G01*
X104648Y37445D02*
G03*
X104092Y38790I-1901J0D01*
G01*
X-109110Y61249D02*
G03*
X-109527Y62257I-1426J0D01*
G01*
X-108692D02*
G03*
X-109110Y61249I1008J-1008D01*
G01*
X-104141Y62871D02*
G03*
X-105149Y62454I0J-1426D01*
G01*
Y63289D02*
G03*
X-104141Y62871I1008J1008D01*
G01*
X100070Y27406D02*
G03*
X99062Y26988I0J-1426D01*
G01*
Y27824D02*
G03*
X100070Y27406I1008J1008D01*
G01*
X96825Y23863D02*
G03*
X97833Y24280I0J1426D01*
G01*
Y23445D02*
G03*
X96825Y23863I-1008J-1008D01*
G01*
X124300Y71534D02*
G03*
X122955Y72091I-1344J-1344D01*
G01*
X123546Y72682D02*
G03*
X123824Y72010I950J0D01*
G01*
X118118Y72933D02*
G03*
X118994Y73296I0J1240D01*
G01*
Y72461D02*
G03*
X117855Y72933I-1140J-1140D01*
G01*
X122955Y66853D02*
G03*
X122543Y67830I-1363J0D01*
G01*
X123367D02*
G03*
X122955Y66853I951J-977D01*
G01*
X118543Y67580D02*
G03*
X118822Y68253I-672J672D01*
G01*
X119360Y67664D02*
G03*
X118209Y67246I-128J-1441D01*
G01*
X115794Y67345D02*
G03*
X118994Y68670I0J4526D01*
G01*
X117695Y67345D02*
G03*
X119551Y68113I0J2625D01*
G01*
X-40796Y151969D02*
G03*
X-39788Y152386I0J1426D01*
G01*
Y151551D02*
G03*
X-40796Y151969I-1008J-1008D01*
G01*
X-37551D02*
G03*
X-38559Y151551I0J-1426D01*
G01*
Y152386D02*
G03*
X-37551Y151969I1008J1008D01*
G01*
X-58830Y162161D02*
G03*
X-57822Y162578I0J1426D01*
G01*
Y161743D02*
G03*
X-58830Y162161I-1008J-1008D01*
G01*
X-55863Y163505D02*
G03*
X-56420Y162161I1344J-1344D01*
G01*
X-57010Y162751D02*
G03*
X-56338Y163030I0J950D01*
G01*
X-55585Y158617D02*
G03*
X-56593Y158200I0J-1426D01*
G01*
Y159035D02*
G03*
X-55585Y158617I1008J1008D01*
G01*
X-54598D02*
G03*
X-53589Y159035I0J1426D01*
G01*
Y158200D02*
G03*
X-54598Y158617I-1008J-1008D01*
G01*
X-51352Y158617D02*
G03*
X-52361Y158200I0J-1426D01*
G01*
Y159035D02*
G03*
X-51352Y158617I1008J1008D01*
G01*
Y162161D02*
G03*
X-52361Y161743I0J-1426D01*
G01*
Y162578D02*
G03*
X-51352Y162161I1008J1008D01*
G01*
X-40523Y162161D02*
G03*
X-39514Y162578I0J1426D01*
G01*
Y161743D02*
G03*
X-40523Y162161I-1008J-1008D01*
G01*
X-37532Y161085D02*
G03*
X-38703Y161570I-1171J-1171D01*
G01*
X-38113Y162161D02*
G03*
X-37763Y161316I1195J0D01*
G01*
X-53544Y121126D02*
G03*
X-53194Y121971I-845J845D01*
G01*
X-52603Y121381D02*
G03*
X-53774Y120896I0J-1656D01*
G01*
X-52209Y119018D02*
G03*
X-50692Y119647I0J2145D01*
G01*
X-52406Y117002D02*
G03*
X-52824Y118010I-1426J0D01*
G01*
X-51989D02*
G03*
X-52406Y117002I1008J-1008D01*
G01*
X-41411Y162161D02*
G03*
X-42419Y161743I0J-1426D01*
G01*
Y162578D02*
G03*
X-41411Y162161I1008J1008D01*
G01*
X-43903Y163030D02*
G03*
X-43231Y162751I672J672D01*
G01*
X-43821Y162161D02*
G03*
X-44378Y163505I-1901J0D01*
G01*
X-41684Y151969D02*
G03*
X-42693Y151551I0J-1426D01*
G01*
Y152386D02*
G03*
X-41684Y151969I1008J1008D01*
G01*
X23169Y73088D02*
G03*
X22751Y74096I-1426J0D01*
G01*
X23586D02*
G03*
X23169Y73088I1008J-1008D01*
G01*
X13129D02*
G03*
X12712Y74096I-1426J0D01*
G01*
X13547D02*
G03*
X13129Y73088I1008J-1008D01*
G01*
X-52437Y74287D02*
G03*
X-53681Y71283I3004J-3004D01*
G01*
X-52994Y74844D02*
G03*
X-53681Y73184I1660J-1660D01*
G01*
X-49114Y75096D02*
G03*
X-49659Y76431I-1860J19D01*
G01*
X49630Y74287D02*
G03*
X48681Y71996I2291J-2291D01*
G01*
X-60039Y76524D02*
G03*
X-59622Y75516I1426J0D01*
G01*
X-60457D02*
G03*
X-60039Y76524I-1008J1008D01*
G01*
X-57852Y72856D02*
G03*
X-57087Y74705I-1848J1848D01*
G01*
X41929Y76524D02*
G03*
X42347Y75516I1426J0D01*
G01*
X41512D02*
G03*
X41929Y76524I-1008J1008D01*
G01*
X46409Y75934D02*
G03*
X46063Y75098I835J-835D01*
G01*
X45472Y75689D02*
G03*
X46654Y76178I0J1670D01*
G01*
X44603Y74033D02*
G03*
X44882Y74705I-672J672D01*
G01*
X45472Y74114D02*
G03*
X44128Y73557I0J-1901D01*
G01*
X-60728Y96744D02*
G03*
X-60377Y95896I1199J0D01*
G01*
X-61212D02*
G03*
X-60728Y97064I-1168J1168D01*
G01*
Y93498D02*
G03*
X-61212Y94667I-1652J0D01*
G01*
X-60377D02*
G03*
X-60728Y93819I848J-848D01*
G01*
X-57252Y93659D02*
G03*
X-57669Y94667I-1426J0D01*
G01*
X-56834D02*
G03*
X-57252Y93659I1008J-1008D01*
G01*
X-57299Y97019D02*
G03*
X-56834Y95896I1589J0D01*
G01*
X-57669D02*
G03*
X-57299Y96789I-893J893D01*
G01*
X39650Y97019D02*
G03*
X40115Y95896I1589J0D01*
G01*
X39280D02*
G03*
X39650Y96788I-893J893D01*
G01*
X39698Y93659D02*
G03*
X39280Y94667I-1426J0D01*
G01*
X40115D02*
G03*
X39698Y93659I1008J-1008D01*
G01*
X43241Y96904D02*
G03*
X43658Y95896I1426J0D01*
G01*
X42823D02*
G03*
X43241Y96904I-1008J1008D01*
G01*
X43831Y95084D02*
G03*
X44806Y92732I3327J0D01*
G01*
X43044Y95084D02*
G03*
X43462Y94076I1426J0D01*
G01*
X-42126Y76524D02*
G03*
X-41708Y75516I1426J0D01*
G01*
X-42544D02*
G03*
X-42126Y76524I-1008J1008D01*
G01*
X-46682Y76109D02*
G03*
X-45669Y75689I1013J1013D01*
G01*
X-46260Y75098D02*
G03*
X-46675Y76102I-1419J0D01*
G01*
X60039Y76524D02*
G03*
X60457Y75516I1426J0D01*
G01*
X59622D02*
G03*
X60039Y76524I-1008J1008D01*
G01*
X55315Y76178D02*
G03*
X56496Y75689I1181J1181D01*
G01*
X55905Y75098D02*
G03*
X55560Y75934I-1181J0D01*
G01*
X118024Y77422D02*
G03*
X118994Y77824I0J1372D01*
G01*
Y76989D02*
G03*
X117948Y77422I-1046J-1046D01*
G01*
X123824Y83295D02*
G03*
X123546Y82623I672J-672D01*
G01*
X122955Y83213D02*
G03*
X124300Y83770I0J1901D01*
G01*
X117977Y82422D02*
G03*
X118994Y82843I0J1439D01*
G01*
Y82008D02*
G03*
X117996Y82422I-999J-999D01*
G01*
X-42783Y93659D02*
G03*
X-43201Y94667I-1426J0D01*
G01*
X-42366D02*
G03*
X-42783Y93659I1008J-1008D01*
G01*
X-44209Y95281D02*
G03*
X-43201Y95699I0J1426D01*
G01*
Y94864D02*
G03*
X-44209Y95281I-1008J-1008D01*
G01*
X-38371Y96150D02*
G03*
X-38649Y95478I672J-672D01*
G01*
X-39240Y96069D02*
G03*
X-37896Y96626I0J1901D01*
G01*
X58563Y93659D02*
G03*
X58145Y94667I-1426J0D01*
G01*
X58981D02*
G03*
X58563Y93659I1008J-1008D01*
G01*
X57137Y95281D02*
G03*
X58145Y95699I0J1426D01*
G01*
Y94864D02*
G03*
X57137Y95281I-1008J-1008D01*
G01*
X63450Y93937D02*
G03*
X62106Y94494I-1344J-1344D01*
G01*
X62697Y95084D02*
G03*
X62975Y94412I950J0D01*
G01*
X118231Y97682D02*
G03*
X118971Y98044I0J937D01*
G01*
Y97320D02*
G03*
X118231Y97682I-740J-575D01*
G01*
X118011D02*
G03*
X119020Y98099I0J1426D01*
G01*
Y97264D02*
G03*
X118011Y97682I-1008J-1008D01*
G01*
X122980Y96059D02*
G03*
X122563Y97067I-1426J0D01*
G01*
X123398D02*
G03*
X122980Y96059I1008J-1008D01*
G01*
X117929Y87422D02*
G03*
X118994Y87863I0J1506D01*
G01*
Y87028D02*
G03*
X118043Y87422I-951J-951D01*
G01*
X122955Y104029D02*
G03*
X123373Y103021I1426J0D01*
G01*
X122538D02*
G03*
X122955Y104029I-1008J1008D01*
G01*
X118215Y102422D02*
G03*
X118951Y102775I0J943D01*
G01*
X118936Y102057D02*
G03*
X118215Y102422I-721J-529D01*
G01*
X118024D02*
G03*
X118994Y102824I0J1372D01*
G01*
Y101988D02*
G03*
X117948Y102422I-1046J-1046D01*
G01*
X-47460Y95281D02*
G03*
X-48468Y94864I0J-1426D01*
G01*
Y95699D02*
G03*
X-47460Y95281I1008J1008D01*
G01*
X53985Y95281D02*
G03*
X52977Y94864I0J-1426D01*
G01*
Y95699D02*
G03*
X53985Y95281I1008J1008D01*
G01*
X80256Y101537D02*
G03*
X80534Y102209I-672J672D01*
G01*
X81125Y101619D02*
G03*
X79780Y101062I0J-1901D01*
G01*
X86094Y102406D02*
G03*
X85085Y101988I0J-1426D01*
G01*
Y102824D02*
G03*
X86094Y102406I1008J1008D01*
G01*
X79699Y107426D02*
G03*
X80707Y107843I0J1426D01*
G01*
Y107008D02*
G03*
X79699Y107426I-1008J-1008D01*
G01*
X86094D02*
G03*
X85085Y107008I0J-1426D01*
G01*
Y107843D02*
G03*
X86094Y107426I1008J1008D01*
G01*
X86192Y97386D02*
G03*
X85184Y96969I0J-1426D01*
G01*
Y97804D02*
G03*
X86192Y97386I1008J1008D01*
G01*
X79879Y93809D02*
G03*
X81223Y93253I1344J1344D01*
G01*
X80633Y92662D02*
G03*
X80354Y93334I-950J0D01*
G01*
X86192Y92465D02*
G03*
X85184Y92048I0J-1426D01*
G01*
Y92883D02*
G03*
X86192Y92465I1008J1008D01*
G01*
X79797Y87445D02*
G03*
X80805Y87863I0J1426D01*
G01*
Y87028D02*
G03*
X79797Y87445I-1008J-1008D01*
G01*
X86192D02*
G03*
X85184Y87028I0J-1426D01*
G01*
Y87863D02*
G03*
X86192Y87445I1008J1008D01*
G01*
X104105Y27406D02*
G03*
X103097Y26988I0J-1426D01*
G01*
Y27824D02*
G03*
X104105Y27406I1008J1008D01*
G01*
X100860D02*
G03*
X101868Y27824I0J1426D01*
G01*
Y26988D02*
G03*
X100860Y27406I-1008J-1008D01*
G01*
X-109818Y99258D02*
G03*
X-110375Y100602I-1901J0D01*
G01*
X-109262D02*
G03*
X-109818Y99258I1344J-1344D01*
G01*
X-112174Y106072D02*
G03*
X-109818Y105096I2356J2356D01*
G01*
X-100375Y104865D02*
G03*
X-99054Y108054I-3188J3188D01*
G01*
X-99818Y104308D02*
G03*
X-99054Y106152I-1844J1844D01*
G01*
X-109818Y77211D02*
G03*
X-110375Y78555I-1901J0D01*
G01*
X-109262D02*
G03*
X-109818Y77211I1344J-1344D01*
G01*
X-99818D02*
G03*
X-100375Y78555I-1901J0D01*
G01*
X-99261D02*
G03*
X-99818Y77211I1344J-1344D01*
G01*
Y84162D02*
G03*
X-99261Y82818I1901J0D01*
G01*
X-100375D02*
G03*
X-99818Y84162I-1344J1344D01*
G01*
X-95511Y107882D02*
G03*
X-94261Y104865I4267J0D01*
G01*
X-95511Y105981D02*
G03*
X-94818Y104308I2366J0D01*
G01*
X-106258Y105692D02*
G03*
X-104818Y105096I1440J1440D01*
G01*
X-105606Y104308D02*
G03*
X-106123Y105557I-1765J0D01*
G01*
X-104818Y77211D02*
G03*
X-105375Y78555I-1901J0D01*
G01*
X-104262D02*
G03*
X-104818Y77211I1344J-1344D01*
G01*
X83366Y52047D02*
G03*
X84340Y49695I3327J0D01*
G01*
X82392D02*
G03*
X83366Y52047I-2352J2352D01*
G01*
Y53268D02*
G03*
X82392Y55620I-3327J0D01*
G01*
X84340D02*
G03*
X83366Y53268I2352J-2352D01*
G01*
X90235Y67066D02*
G03*
X87846Y68056I-2389J-2389D01*
G01*
X90792Y67623D02*
G03*
X89747Y68056I-1045J-1045D01*
G01*
X93073Y69870D02*
G03*
X93351Y69198I950J0D01*
G01*
X92794D02*
G03*
X93073Y69870I-672J672D01*
G01*
X95632Y64819D02*
G03*
X95354Y65491I-950J0D01*
G01*
X95910D02*
G03*
X95632Y64819I672J-672D01*
G01*
X98191D02*
G03*
X97913Y65491I-950J0D01*
G01*
X98469D02*
G03*
X98191Y64819I672J-672D01*
G01*
X100750Y69870D02*
G03*
X101028Y69198I950J0D01*
G01*
X100472D02*
G03*
X100750Y69870I-672J672D01*
G01*
X103309D02*
G03*
X103587Y69198I950J0D01*
G01*
X103031D02*
G03*
X103309Y69870I-672J672D01*
G01*
X105868D02*
G03*
X106147Y69198I950J0D01*
G01*
X105590D02*
G03*
X105868Y69870I-672J672D01*
G01*
X108427D02*
G03*
X108705Y69198I950J0D01*
G01*
X108149D02*
G03*
X108427Y69870I-672J672D01*
G01*
X110986D02*
G03*
X111265Y69198I950J0D01*
G01*
X110708D02*
G03*
X110986Y69870I-672J672D01*
G01*
X114496Y67345D02*
G03*
X113824Y67066I0J-950D01*
G01*
Y67623D02*
G03*
X114496Y67345I672J672D01*
G01*
X113545Y46248D02*
G03*
X113824Y45576I950J0D01*
G01*
X113267D02*
G03*
X113545Y46248I-672J672D01*
G01*
X110986Y41197D02*
G03*
X110708Y41869I-950J0D01*
G01*
X111265D02*
G03*
X110986Y41197I672J-672D01*
G01*
X108427Y46248D02*
G03*
X108705Y45576I950J0D01*
G01*
X108149D02*
G03*
X108427Y46248I-672J672D01*
G01*
X103309Y41197D02*
G03*
X103031Y41869I-950J0D01*
G01*
X103587D02*
G03*
X103309Y41197I672J-672D01*
G01*
X100750Y46248D02*
G03*
X101028Y45576I950J0D01*
G01*
X100472D02*
G03*
X100750Y46248I-672J672D01*
G01*
X98191Y41197D02*
G03*
X97913Y41869I-950J0D01*
G01*
X98469D02*
G03*
X98191Y41197I672J-672D01*
G01*
Y46248D02*
G03*
X98469Y45576I950J0D01*
G01*
X97913D02*
G03*
X98191Y46248I-672J672D01*
G01*
X95632Y41197D02*
G03*
X95354Y41869I-950J0D01*
G01*
X95910D02*
G03*
X95632Y41197I672J-672D01*
G01*
X93073Y46248D02*
G03*
X93351Y45576I950J0D01*
G01*
X92794D02*
G03*
X93073Y46248I-672J672D01*
G01*
X89034Y39526D02*
G03*
X90120Y42148I-2622J2622D01*
G01*
X90378Y40870D02*
G03*
X90908Y42148I-1277J1277D01*
G01*
X90514Y41197D02*
G03*
X90235Y41869I-950J0D01*
G01*
X90792D02*
G03*
X90514Y41197I672J-672D01*
G01*
X-44237Y126369D02*
G03*
X-44794Y127714I-1901J0D01*
G01*
X-43680D02*
G03*
X-44237Y126369I1344J-1344D01*
G01*
X109811Y75406D02*
G03*
X110646Y77422I-2016J2016D01*
G01*
X111433Y76635D02*
G03*
X110761Y76356I0J-951D01*
G01*
X116484Y77422D02*
G03*
X115140Y76865I0J-1901D01*
G01*
Y77979D02*
G03*
X116484Y77422I1344J1344D01*
G01*
Y82422D02*
G03*
X115140Y81865I0J-1901D01*
G01*
Y82979D02*
G03*
X116484Y82422I1344J1344D01*
G01*
X109532Y87422D02*
G03*
X110877Y87979I0J1901D01*
G01*
Y86865D02*
G03*
X109532Y87422I-1344J-1344D01*
G01*
X116484D02*
G03*
X115140Y86865I0J-1901D01*
G01*
Y87979D02*
G03*
X116484Y87422I1344J1344D01*
G01*
Y92422D02*
G03*
X115140Y91865I0J-1901D01*
G01*
Y92979D02*
G03*
X116484Y92422I1344J1344D01*
G01*
X117111Y97682D02*
G03*
X115140Y96865I0J-2788D01*
G01*
Y97979D02*
G03*
X115857Y97682I717J717D01*
G01*
X116484Y102422D02*
G03*
X115140Y101865I0J-1901D01*
G01*
Y102979D02*
G03*
X116484Y102422I1344J1344D01*
G01*
X95027D02*
G03*
X93683Y101865I0J-1901D01*
G01*
Y102979D02*
G03*
X95027Y102422I1344J1344D01*
G01*
X88038Y102406D02*
G03*
X89420Y102979I0J1955D01*
G01*
X89420Y101865D02*
G03*
X88114Y102406I-1306J-1306D01*
G01*
X87990Y97386D02*
G03*
X89420Y97979I0J2022D01*
G01*
Y96865D02*
G03*
X88161Y97386I-1259J-1259D01*
G01*
X95132Y92465D02*
G03*
X93683Y91865I0J-2049D01*
G01*
X93683Y92979D02*
G03*
X94923Y92465I1240J1240D01*
G01*
X88180D02*
G03*
X89420Y92979I0J1753D01*
G01*
X89420Y91865D02*
G03*
X87971Y92465I-1449J-1449D01*
G01*
X88133Y87445D02*
G03*
X89420Y87979I0J1820D01*
G01*
Y86865D02*
G03*
X88019Y87445I-1401J-1401D01*
G01*
X88780Y82422D02*
G03*
X89253Y82734I0J516D01*
G01*
Y82110D02*
G03*
X88780Y82422I-474J-204D01*
G01*
X87745Y83457D02*
G03*
X89637Y83132I1175J1175D01*
G01*
X88532Y82670D02*
G03*
X89977Y82422I897J897D01*
G01*
X89304Y78488D02*
G03*
X89977Y78209I672J672D01*
G01*
X89189Y77422D02*
G03*
X88354Y79438I-2851J0D01*
G01*
X88085Y107426D02*
G03*
X89420Y107979I0J1888D01*
G01*
Y106865D02*
G03*
X88066Y107426I-1354J-1354D01*
G01*
X-49727Y158617D02*
G03*
X-48068Y158021I1461J1461D01*
G01*
X-49131Y156959D02*
G03*
X-49727Y158617I-2057J197D01*
G01*
X-45939Y154830D02*
G03*
X-47955Y155665I-2016J-2016D01*
G01*
X-46774Y156846D02*
G03*
X-45939Y154830I2851J0D01*
G01*
X-48987Y156272D02*
G03*
X-52975Y158617I-3987J-2217D01*
G01*
X-48299Y156655D02*
G03*
X-51636Y158617I-3337J-1855D01*
G01*
X-47611Y157037D02*
G03*
X-50298Y158617I-2687J-1493D01*
G01*
X-45104Y163932D02*
G03*
X-47120Y163097I0J-2851D01*
G01*
Y164768D02*
G03*
X-45104Y163932I2016J2016D01*
G01*
X-49727Y162161D02*
G03*
X-49131Y163820I-1461J1461D01*
G01*
X-48068Y162757D02*
G03*
X-49727Y162161I-197J-2057D01*
G01*
X-52975Y162161D02*
G03*
X-48987Y164506I0J4562D01*
G01*
X-51636Y162161D02*
G03*
X-48299Y164124I0J3818D01*
G01*
X-50298Y162161D02*
G03*
X-47611Y163741I0J3074D01*
G01*
X96949Y96980D02*
G03*
X97506Y95635I1901J0D01*
G01*
X96392D02*
G03*
X96949Y96980I-1344J1344D01*
G01*
X99563Y90256D02*
G03*
X97506Y89404I0J-2909D01*
G01*
Y90517D02*
G03*
X98137Y90256I631J631D01*
G01*
X-41732Y101839D02*
G03*
X-42289Y103183I-1901J0D01*
G01*
X-41175D02*
G03*
X-41732Y101839I1344J-1344D01*
G01*
X-42289Y103183D02*
G03*
X-46009Y104724I-3720J-3720D01*
G01*
X-41732Y103740D02*
G03*
X-44109Y104724I-2376J-2376D01*
G01*
X-30447Y106530D02*
G03*
X-31496Y103998I2532J-2532D01*
G01*
X-31004Y107087D02*
G03*
X-31496Y105898I1188J-1188D01*
G01*
X-31069Y82939D02*
G03*
X-29724Y82382I1344J1344D01*
G01*
X-30512Y81595D02*
G03*
X-31069Y82939I-1901J0D01*
G01*
X-1741Y227559D02*
G03*
X-3085Y227002I0J-1901D01*
G01*
Y228116D02*
G03*
X-1741Y227559I1344J1344D01*
G01*
X-1860Y225197D02*
G03*
X-754Y225655I0J1565D01*
G01*
Y224542D02*
G03*
X-2335Y225197I-1582J-1582D01*
G01*
X23096Y114730D02*
G03*
X22539Y113386I1344J-1344D01*
G01*
X21752Y114173D02*
G03*
X23096Y114730I0J1901D01*
G01*
X26344Y110202D02*
G03*
X25787Y108858I1344J-1344D01*
G01*
X25000Y109646D02*
G03*
X26344Y110202I0J1901D01*
G01*
X28543Y109744D02*
G03*
X31789Y111089I0J4590D01*
G01*
X28543Y108957D02*
G03*
X30445Y109744I0J2689D01*
G01*
X-37238Y114238D02*
G03*
X-34231Y112992I3008J3008D01*
G01*
X-37795Y113681D02*
G03*
X-36132Y112992I1663J1663D01*
G01*
X-4134Y136668D02*
G03*
X-5675Y140388I-5261J0D01*
G01*
X-4134Y138569D02*
G03*
X-5118Y140945I-3360J0D01*
G01*
X10990Y141372D02*
G03*
X9843Y138602I2770J-2770D01*
G01*
X10433Y141929D02*
G03*
X9843Y140504I1426J-1426D01*
G01*
X10434Y146236D02*
G03*
X9877Y147580I-1901J0D01*
G01*
X10990D02*
G03*
X10434Y146236I1344J-1344D01*
G01*
X14336Y144817D02*
G03*
X12992Y145374I-1344J-1344D01*
G01*
X13779Y146161D02*
G03*
X14336Y144817I1901J0D01*
G01*
X16403Y150329D02*
G03*
X15059Y150886I-1344J-1344D01*
G01*
X15846Y151673D02*
G03*
X16403Y150329I1901J0D01*
G01*
X-52406Y115254D02*
G03*
X-51904Y114041I1715J0D01*
G01*
X-53017D02*
G03*
X-52406Y115517I-1476J1476D01*
G01*
X84404Y84055D02*
G03*
X83641Y83739I0J-1079D01*
G01*
Y84853D02*
G03*
X85567Y84055I1925J1925D01*
G01*
X83366Y56568D02*
G03*
X84021Y54986I2237J0D01*
G01*
X82908Y54986D02*
G03*
X83366Y56092I-1106J1106D01*
G01*
Y52766D02*
G03*
X82908Y53872I-1565J0D01*
G01*
X84021Y53872D02*
G03*
X83366Y52290I1582J-1582D01*
G01*
X100750Y45237D02*
G03*
X100231Y46490I-1773J0D01*
G01*
X101344D02*
G03*
X100750Y45056I1434J-1434D01*
G01*
X98985Y55807D02*
G03*
X100329Y56364I0J1901D01*
G01*
Y55250D02*
G03*
X98985Y55807I-1344J-1344D01*
G01*
X126212Y58760D02*
G03*
X124868Y58203I0J-1901D01*
G01*
Y59317D02*
G03*
X126212Y58760I1344J1344D01*
G01*
X122770Y60664D02*
G03*
X123327Y62008I-1344J1344D01*
G01*
X124114Y61221D02*
G03*
X122770Y60664I0J-1901D01*
G01*
X127491Y55807D02*
G03*
X126147Y55250I0J-1901D01*
G01*
Y56364D02*
G03*
X127491Y55807I1344J1344D01*
G01*
X108427Y52086D02*
G03*
X107809Y53577I-2109J0D01*
G01*
X108923D02*
G03*
X108427Y52380I1197J-1197D01*
G01*
X106465Y54134D02*
G03*
X107809Y54691I0J1901D01*
G01*
X107809Y53577D02*
G03*
X106465Y54134I-1344J-1344D01*
G01*
X126212Y49213D02*
G03*
X124868Y48656I0J-1901D01*
G01*
X124868Y49769D02*
G03*
X126212Y49213I1344J1344D01*
G01*
X80675Y64139D02*
G03*
X84158Y62697I3483J3483D01*
G01*
X80118Y63583D02*
G03*
X82257Y62697I2139J2139D01*
G01*
X115121Y57030D02*
G03*
X114272Y57382I-850J-850D01*
G01*
X115036Y57980D02*
G03*
X115369Y56782I1226J-304D01*
G01*
X112937Y59509D02*
G03*
X114272Y58957I1334J1334D01*
G01*
X113484Y58169D02*
G03*
X112923Y59523I-1915J0D01*
G01*
X103808Y51772D02*
G03*
X105152Y52328I0J1901D01*
G01*
Y51215D02*
G03*
X103808Y51772I-1344J-1344D01*
G01*
X102019Y49409D02*
G03*
X102888Y49769I0J1229D01*
G01*
Y48656D02*
G03*
X101069Y49409I-1819J-1819D01*
G01*
X103044Y27406D02*
G03*
X104758Y28116I0J2424D01*
G01*
X104758Y27002D02*
G03*
X103784Y27406I-975J-975D01*
G01*
X23169Y72578D02*
G03*
X22976Y71648I612J-612D01*
G01*
X22244Y72146D02*
G03*
X23084Y72494I0J1188D01*
G01*
X22185Y69600D02*
G03*
X21687Y70802I-1699J0D01*
G01*
X22801Y70802D02*
G03*
X22185Y69315I1487J-1487D01*
G01*
X-93538Y4100D02*
G03*
X-94095Y2756I1344J-1344D01*
G01*
X-94882Y3543D02*
G03*
X-93538Y4100I0J1901D01*
G01*
X81988Y4398D02*
G03*
X81431Y5742I-1901J0D01*
G01*
X82545D02*
G03*
X81988Y4398I1344J-1344D01*
G01*
X87106Y7610D02*
G03*
X87663Y6265I1901J0D01*
G01*
X86550D02*
G03*
X87106Y7610I-1344J1344D01*
G01*
X-94215Y7163D02*
G03*
X-94370Y6248I566J-566D01*
G01*
X-95079Y6693D02*
G03*
X-94407Y6971I0J950D01*
G01*
X-95635Y6462D02*
G03*
X-94215Y9891I-3429J3429D01*
G01*
X-95079Y5906D02*
G03*
X-94215Y7990I-2085J2085D01*
G01*
X84744Y12137D02*
G03*
X85301Y10793I1901J0D01*
G01*
X84187D02*
G03*
X84744Y12137I-1344J1344D01*
G01*
X-4170Y152989D02*
G03*
X-2657Y152362I1512J1512D01*
G01*
X-3445Y151575D02*
G03*
X-3932Y152751I-1663J0D01*
G01*
X-4698Y154626D02*
G03*
X-3116Y155281I0J2237D01*
G01*
Y154168D02*
G03*
X-4222Y154626I-1106J-1106D01*
G01*
X13254Y149837D02*
G03*
X11909Y150394I-1344J-1344D01*
G01*
X12697Y151181D02*
G03*
X13254Y149837I1901J0D01*
G01*
X65979Y65813D02*
G03*
X67323Y65256I1344J1344D01*
G01*
X66535Y64468D02*
G03*
X65979Y65813I-1901J0D01*
G01*
X79418Y68832D02*
G03*
X80337Y68056I919J156D01*
G01*
X-32579Y79232D02*
X-20768D01*
X-19882Y80118D02*
Y82283D01*
X-20768Y79232D02*
X-19882Y80118D01*
X-33367Y80020D02*
X-32579Y79232D01*
X-33268Y77658D02*
X-13271D01*
X-34942Y79331D02*
X-33268Y77658D01*
X-13271D02*
X-10493Y74879D01*
X69488Y73130D02*
Y97896D01*
Y73130D02*
X70669Y71949D01*
X64764Y67027D02*
X67323Y64468D01*
X64764Y67027D02*
Y92624D01*
X66339Y68996D02*
X70079Y65256D01*
X38091Y54626D02*
X69095D01*
X70079Y55610D01*
Y65256D01*
X66339Y68996D02*
Y96161D01*
X52476Y99523D02*
X62977D01*
X66339Y96161D01*
X62106Y95281D02*
X64764Y92624D01*
X109849Y37430D02*
X110494Y38075D01*
X119040Y68821D02*
X119412Y68449D01*
X62349Y105035D02*
X69488Y97896D01*
X49806Y105035D02*
X50492D01*
X49806D02*
X62349D01*
X47327Y101886D02*
X48933Y100279D01*
X41719Y101886D02*
X47327D01*
X39650Y99816D02*
X41719Y101886D01*
X48933Y99523D02*
Y100279D01*
X-45735Y154626D02*
X-3051D01*
X-47955Y156846D02*
X-45735Y154626D01*
X-43307Y151969D02*
X-39173D01*
X39764Y88950D02*
X40485Y89671D01*
X-4490Y158860D02*
Y200651D01*
X-57207Y162161D02*
X-52341Y167028D01*
X-45674D01*
X-42972Y164326D01*
X-37230D01*
X-34843Y161939D01*
X-43034Y162161D02*
X-38900D01*
X-44805Y163932D02*
X-43034Y162161D01*
X-47955Y163932D02*
X-44805D01*
X-49727Y162161D02*
X-47955Y163932D01*
X-52975Y162161D02*
X-49727D01*
X-59766Y162161D02*
X-57207D01*
X-62522Y164917D02*
X-59766Y162161D01*
X-49727Y158617D02*
X-47955Y156846D01*
X-52975Y158617D02*
X-49727D01*
X-57207Y158617D02*
X-52975D01*
X-90256Y51279D02*
X-85433D01*
X-91066Y34252D02*
Y50470D01*
X-85433Y51279D02*
X-84744Y51968D01*
X-91066Y50470D02*
X-90256Y51279D01*
X-84744Y51968D02*
Y62894D01*
X84471Y20483D02*
X87106Y17847D01*
Y5709D02*
Y17847D01*
X84471Y20483D02*
Y23666D01*
X81321Y21405D02*
X84744Y17982D01*
Y10236D02*
Y17982D01*
X81321Y21405D02*
Y31638D01*
X83487Y33804D01*
X86116Y3347D02*
X86713D01*
X85433D02*
X86713D01*
X84350Y4429D02*
X85433Y3347D01*
X84350Y4429D02*
Y7278D01*
X82967Y8662D02*
X84350Y7278D01*
X79921Y8662D02*
X82967D01*
X79331Y8071D02*
X79921Y8662D01*
X84350Y1772D02*
X85138D01*
X82874D02*
X85138D01*
X81988Y2657D02*
X82874Y1772D01*
X81988Y2657D02*
Y6299D01*
X-95177Y6201D02*
X-94215Y7163D01*
Y18406D01*
X-95057Y19248D02*
X-94215Y18406D01*
X-123493Y19248D02*
X-95057D01*
X-124530Y20285D02*
Y50099D01*
Y20285D02*
X-123493Y19248D01*
X-124530Y50099D02*
X-123055Y51575D01*
X-112303D01*
X-111275Y52603D01*
Y72911D01*
X-109110Y75076D01*
X-91066Y34252D02*
X-85925Y29111D01*
Y26870D02*
Y29111D01*
X-92641Y4997D02*
Y50099D01*
X-94882Y2756D02*
X-92641Y4997D01*
X-93678Y51137D02*
X-92641Y50099D01*
X-108071Y51137D02*
X-93678D01*
X-109110Y52176D02*
X-108071Y51137D01*
X-109110Y52176D02*
Y62871D01*
X-58013Y116656D02*
X-52698Y121971D01*
X-52406D01*
X-58213Y116656D02*
X-58013D01*
X-51911Y118428D02*
X-48352Y121987D01*
X-48060D01*
X-52406Y118428D02*
X-51911D01*
X-48075Y121971D02*
X-48060Y121987D01*
X-43631D01*
X-42072Y123546D01*
X-44237Y125711D02*
X-42072Y123546D01*
X-44237Y125711D02*
Y131026D01*
X111827Y97422D02*
X112087Y97682D01*
X118231D01*
X111827Y102422D02*
X118215D01*
X118231Y102406D01*
X61334Y114484D02*
X71260Y124410D01*
X80413D01*
X83563Y127560D01*
X62566Y143406D02*
X67290Y148131D01*
X75689Y143406D02*
X78839Y146556D01*
X122955Y72879D02*
X125121Y70713D01*
X119388Y87422D02*
X119412Y87445D01*
X119408Y82422D02*
X119412Y82426D01*
X111827Y82422D02*
X119408D01*
X119396Y77422D02*
X119412Y77406D01*
X119358Y72933D02*
X119412Y72879D01*
X90347Y87445D02*
X90370Y87422D01*
X90327Y92465D02*
X90370Y92422D01*
X90335Y97386D02*
X90370Y97422D01*
X90354Y102406D02*
X90370Y102422D01*
X90366Y107426D02*
X90370Y107422D01*
X102483Y27406D02*
X102877Y27800D01*
X98447Y27406D02*
X102483D01*
X101302Y37446D02*
X101318Y37461D01*
X97168Y37446D02*
X101302D01*
X98404Y23819D02*
X98447Y23863D01*
X93920Y27603D02*
Y35246D01*
X91834Y37331D02*
X93920Y35246D01*
X91542Y37331D02*
X91834D01*
X83487Y37347D02*
X83503Y37331D01*
X87408D01*
X36319Y127560D02*
X36319Y127560D01*
X36319Y127560D02*
Y143406D01*
X57316Y127560D02*
X57316Y127560D01*
X57316Y127560D02*
Y143406D01*
X83563Y127560D02*
X83563Y127560D01*
Y143406D01*
X75689Y127560D02*
X75689Y127560D01*
Y143406D01*
X70440Y127560D02*
Y143406D01*
X62566Y127560D02*
Y143406D01*
X49442Y127560D02*
X49442Y127560D01*
X49442Y127560D02*
Y143406D01*
X44193Y127560D02*
X44193Y127560D01*
X44193Y127560D02*
Y143406D01*
X-109110Y108544D02*
X-104818Y104252D01*
X-109110Y108544D02*
Y108836D01*
X-104818Y102734D02*
Y104252D01*
X-111522Y93202D02*
X-109818Y94906D01*
Y102734D01*
X-116181Y93202D02*
X-111522D01*
X-116196Y93186D02*
X-116181Y93202D01*
X-116196Y88757D02*
Y93186D01*
X-99818Y80686D02*
Y84169D01*
X-88221Y66437D02*
X-84744D01*
X-90212Y64446D02*
X-88221Y66437D01*
X-92649Y71025D02*
X-90212Y73462D01*
X-95511Y71025D02*
X-92649D01*
X-99070Y71041D02*
X-99054Y71025D01*
X-99070Y71041D02*
Y75076D01*
X-99818Y75824D02*
X-99070Y75076D01*
X-99818Y75824D02*
Y80686D01*
X-95527Y71009D02*
X-95511Y71025D01*
X-95527Y67104D02*
Y71009D01*
X-99054Y63148D02*
X-95527Y66676D01*
X-99054Y62856D02*
Y63148D01*
X-95527Y66676D02*
Y67104D01*
X-99070Y62871D02*
X-99054Y62856D01*
X-105566Y62871D02*
X-99070D01*
X-109110Y67104D02*
X-109094Y67088D01*
X-109110Y67104D02*
Y71041D01*
X-105566D02*
Y75076D01*
X-104818Y75824D01*
Y80686D01*
X-109818Y75785D02*
X-109110Y75076D01*
X-109818Y75785D02*
Y80686D01*
X58563Y92557D02*
X61449Y89671D01*
X58563Y92557D02*
Y95281D01*
X52559D02*
X58563D01*
X39650Y99524D02*
Y99816D01*
X43241Y94297D02*
Y95281D01*
X43193Y99524D02*
X43241Y99476D01*
Y95281D02*
Y99476D01*
X39650Y95329D02*
X39698Y95281D01*
X39650Y95329D02*
Y99524D01*
X39698Y90458D02*
X40485Y89671D01*
X39698Y90458D02*
Y95281D01*
X43930Y80222D02*
X43948Y80204D01*
X-42783Y92783D02*
X-39862Y89862D01*
X-42783Y92783D02*
Y95281D01*
X-48886D02*
X-42783D01*
X-57252Y91602D02*
X-55512Y89862D01*
X-52854D01*
X-57252Y91602D02*
Y95281D01*
X-57299Y95329D02*
X-57252Y95281D01*
X-57299Y95329D02*
Y99524D01*
X-60843Y99524D02*
X-60728Y99410D01*
X-94038Y111281D02*
X-90631Y107874D01*
X-105566Y108836D02*
X-105484Y108919D01*
X-99054D01*
X-99818Y102734D02*
X-99054Y103498D01*
Y108919D01*
X-95511Y103427D02*
X-94818Y102734D01*
X-95511Y103427D02*
Y108919D01*
X-99054Y109211D02*
X-96985Y111281D01*
X-99054Y108919D02*
Y109211D01*
X-96985Y111281D02*
X-94038D01*
X-95511Y108919D02*
X-92892Y106299D01*
X43307Y68855D02*
X43681Y68481D01*
X12185Y71437D02*
X13129Y72381D01*
Y74710D01*
X23169Y72578D02*
Y74710D01*
X22185Y71595D02*
X23169Y72578D01*
X-35925Y153051D02*
X-4232D01*
X-39173Y151969D02*
X-37008D01*
X-35925Y153051D01*
X-4232D02*
X-2756Y151575D01*
X83661Y84055D02*
X87146D01*
X88779Y82422D02*
X90370D01*
X87146Y84055D02*
X88779Y82422D01*
X79036Y94653D02*
X81223Y92465D01*
X79036Y94653D02*
Y100317D01*
X81125Y102406D01*
X84766Y87445D02*
X91528D01*
X84766Y97386D02*
X91516D01*
X84668Y107426D02*
X91547D01*
X78839Y146556D02*
X85824D01*
X86614Y145765D01*
Y112106D02*
X88287Y110433D01*
X86614Y112106D02*
Y145765D01*
X88287Y110433D02*
X116577D01*
X67290Y148131D02*
X86476D01*
X88189Y146418D01*
Y113583D02*
Y146418D01*
Y113583D02*
X89764Y112008D01*
X117229D01*
X122955Y102406D02*
Y104055D01*
X116577Y110433D02*
X122955Y104055D01*
X122980Y93453D02*
Y97682D01*
X121950Y92422D02*
X122980Y93453D01*
X111827Y92422D02*
X113008D01*
X121950D01*
X82874Y84842D02*
X83661Y84055D01*
X87910Y79883D02*
X90036Y77756D01*
X83865Y79883D02*
X87910D01*
X83798Y72009D02*
Y75914D01*
X83366Y48720D02*
Y56594D01*
X83881Y68056D02*
X86815D01*
X89310D01*
X86815D02*
X89802D01*
X90514Y67345D01*
X92263Y72009D02*
X93073Y71199D01*
Y67345D02*
Y71199D01*
X83798Y72009D02*
X92263D01*
X90514Y41006D02*
Y43723D01*
X87408Y37900D02*
X90514Y41006D01*
X95632Y40415D02*
Y43723D01*
X94302Y39086D02*
X95632Y40415D01*
X91542Y37331D02*
X93296Y39086D01*
X94302D01*
X98191Y38469D02*
Y43723D01*
X97168Y37446D02*
X98191Y38469D01*
X103309Y39572D02*
X105436Y37445D01*
X103309Y39572D02*
Y43723D01*
X93920Y19729D02*
X108705D01*
X117089Y28112D01*
X97168Y30391D02*
Y33902D01*
Y30391D02*
X97638Y29921D01*
X111614D01*
X112598Y30906D01*
Y34973D01*
X109849Y37430D02*
X110142D01*
X112598Y34973D01*
X93920Y24190D02*
X94248Y23863D01*
X98447D01*
X93920Y24190D02*
Y27603D01*
X102483Y27406D02*
X105162D01*
X-39240Y95281D02*
X-37402Y97120D01*
X-92892Y106299D02*
X-36320D01*
X110986Y38567D02*
Y43723D01*
X109849Y37430D02*
X110986Y38567D01*
X98191Y43723D02*
Y48781D01*
X93073Y43723D02*
Y49372D01*
X98191Y48781D02*
X98773Y49364D01*
X98819Y49409D02*
X103248D01*
X95472Y51772D02*
X105709D01*
X93073Y49372D02*
X95472Y51772D01*
X108427Y43723D02*
Y54035D01*
X86713Y3347D02*
X87697D01*
X122797Y29528D02*
X136024D01*
X121949Y30376D02*
X122797Y29528D01*
X121949Y30376D02*
Y50984D01*
X135827Y53347D02*
X136024Y53150D01*
X109394Y18154D02*
X118663Y27423D01*
X90650Y15059D02*
X92323Y16732D01*
X87697Y3347D02*
X88878D01*
X90650Y5118D01*
Y15059D01*
X85138Y1772D02*
X89530D01*
X92224Y4466D01*
X110047Y16579D02*
X120238Y26771D01*
X92224Y4466D02*
Y14272D01*
X93110Y15157D01*
X125121Y66779D02*
Y70713D01*
X113545Y67345D02*
X118307D01*
X119412Y68449D01*
X110986Y67345D02*
Y71715D01*
X112205Y72933D02*
X119358D01*
X110986Y71715D02*
X112205Y72933D01*
X108427Y67345D02*
Y74022D01*
X111827Y77422D01*
X113008D01*
X119396D01*
X100652Y67443D02*
X100750Y67345D01*
X113512Y37430D02*
X115514Y39431D01*
X110142Y37430D02*
X113512D01*
X77756Y61614D02*
X78248Y61122D01*
X79381Y68056D02*
X80337D01*
X77756Y66431D02*
X79381Y68056D01*
X77756Y61614D02*
Y66431D01*
X132087Y49213D02*
X136024Y45276D01*
X124311Y49213D02*
X132087D01*
X121949Y50984D02*
X122835Y51870D01*
X124606Y53347D02*
X135827D01*
X130807Y55807D02*
X136024Y61024D01*
X95632Y63620D02*
X97342Y61910D01*
X113878D01*
X121813Y56140D02*
X124606Y53347D01*
X120238Y26771D02*
Y61909D01*
X116120Y63801D02*
X117089Y62833D01*
X121813Y56140D02*
Y59707D01*
X124114Y62008D01*
X120238Y61909D02*
X120250D01*
X118663Y27423D02*
Y62561D01*
X117089Y28112D02*
Y62833D01*
X125591Y55807D02*
X130807D01*
X118663Y62561D02*
X122955Y66853D01*
Y68449D01*
X120250Y61909D02*
X125121Y66779D01*
X115514Y39431D02*
Y56637D01*
X130905Y63779D02*
X136024Y68898D01*
X124311Y58760D02*
X129331D01*
X130905Y60335D02*
Y63779D01*
X129331Y58760D02*
X130905Y60335D01*
X100750Y43723D02*
Y47010D01*
X95632Y63742D02*
Y67345D01*
X98191Y64309D02*
X98699Y63801D01*
X98191Y64309D02*
Y67345D01*
X98699Y63801D02*
X116120D01*
X80906Y62697D02*
X94586D01*
X80069Y63534D02*
X80906Y62697D01*
X94586D02*
X95632Y63742D01*
X78248Y61122D02*
X95866D01*
X96749Y60239D01*
X112208D02*
X114272Y58175D01*
Y58169D02*
Y58175D01*
X96749Y60239D02*
X112208D01*
X114127Y58024D02*
X115514Y56637D01*
X117229Y112008D02*
X125544Y103693D01*
X122955Y82426D02*
X125544Y85015D01*
Y103693D01*
X-59646Y111024D02*
X-58213Y112456D01*
X-92733Y114430D02*
X-89326Y111024D01*
X-59646D01*
X-58213Y112801D02*
Y116656D01*
Y112456D02*
Y112801D01*
X-56436Y111024D01*
X2991Y217951D02*
Y220918D01*
X2165Y217126D02*
X2991Y217951D01*
X-946Y217679D02*
Y220918D01*
Y217679D02*
X-394Y217126D01*
X-52406Y113823D02*
Y118428D01*
Y113823D02*
X-51968Y113386D01*
X101323Y18154D02*
X109394D01*
X96304Y16776D02*
X96378D01*
X97756Y18154D01*
X94434Y16732D02*
X96260D01*
X92323D02*
X94434D01*
X96260D02*
X96304Y16776D01*
X97756Y18154D02*
X101323D01*
X98408Y16579D02*
X110047D01*
X93110Y15157D02*
X96986D01*
X98408Y16579D01*
X-38900Y162161D02*
X-38608D01*
X-36417Y157480D02*
Y159970D01*
Y157480D02*
X-35138Y156201D01*
X-4921D01*
X-2915Y158207D01*
X-38608Y162161D02*
X-36417Y159970D01*
X-34843Y158169D02*
Y161939D01*
Y158169D02*
X-34449Y157776D01*
X-5574D01*
X-4490Y158860D01*
X-394Y217126D02*
X2165D01*
X-115822Y108738D02*
X-114786D01*
X-109093Y114430D01*
X-92733D01*
X-109818Y102734D02*
Y103716D01*
X-114840Y108738D02*
X-109818Y103716D01*
X-116196Y108738D02*
X-115822D01*
X-114840D01*
X-116196Y85214D02*
X-100864D01*
X-99818Y84169D01*
X52756Y74902D02*
Y75194D01*
X45472Y74997D02*
X47739Y77264D01*
X43681Y68481D02*
X44094Y68894D01*
Y73523D01*
X45472Y74902D01*
X41929D02*
Y78025D01*
X44126Y80222D01*
X48681Y68481D02*
Y74370D01*
X53681Y68481D02*
Y73976D01*
X52756Y74902D02*
X53681Y73976D01*
X56496Y74902D02*
Y74997D01*
X47739Y77264D02*
X50686D01*
X52756Y75194D01*
X52655Y78839D02*
X56496Y74997D01*
X49606Y78839D02*
X52655D01*
X48063Y80381D02*
X49606Y78839D01*
X48063Y80381D02*
Y89474D01*
Y89671D01*
Y89474D02*
X49114Y88424D01*
X43241Y94297D02*
X48063Y89474D01*
X60039Y74902D02*
Y77597D01*
X57414Y80222D02*
X60039Y77597D01*
X-58681Y68481D02*
Y72028D01*
X-56496Y74213D01*
Y74902D01*
Y75095D01*
X-54328Y77264D01*
X-53681Y68481D02*
Y74075D01*
X-52854Y74902D01*
X-48681Y68481D02*
Y74272D01*
X-42126Y74902D02*
Y78740D01*
X-43799Y80413D02*
X-42126Y78740D01*
X-45669Y74902D02*
Y75095D01*
X-49311Y74902D02*
Y76083D01*
X-54328Y77264D02*
X-50492D01*
X-49311Y76083D01*
X-49905Y79331D02*
X-45669Y75095D01*
X-51870Y79331D02*
X-49905D01*
X-52854Y80315D02*
X-51870Y79331D01*
X-52854Y80315D02*
Y89862D01*
X-60039Y74902D02*
Y77165D01*
X-56791Y80413D01*
X-60728Y89862D02*
Y99410D01*
X83865Y79883D02*
Y80175D01*
X47835Y149508D02*
X49442Y147900D01*
Y143406D02*
Y147900D01*
X35630Y147933D02*
X36319Y147244D01*
Y143406D02*
Y147244D01*
X-2915Y158207D02*
Y203309D01*
X-109110Y108836D02*
Y109128D01*
X-105382Y112856D01*
X-93385D01*
X-89978Y109449D01*
X-1870D01*
X-886Y110433D01*
Y145472D01*
X-1673Y146260D02*
X-886Y145472D01*
X-3543Y143701D02*
X-2461Y142618D01*
Y111909D02*
Y142618D01*
X-3347Y111024D02*
X-2461Y111909D01*
X-56436Y111024D02*
X-3347D01*
X-34942Y79331D02*
Y98036D01*
Y99213D01*
Y98036D02*
Y104921D01*
X-36320Y106299D02*
X-34942Y104921D01*
X-33367Y80020D02*
Y106201D01*
X-35039Y107874D02*
X-33367Y106201D01*
X-90631Y107874D02*
X-35039D01*
X-37402Y97120D02*
Y103543D01*
X-37795Y103937D02*
X-37402Y103543D01*
X9843Y98228D02*
Y141339D01*
X39751Y103461D02*
X61697D01*
X67913Y97244D01*
Y69691D02*
Y97244D01*
Y69691D02*
X71758Y65847D01*
Y57179D02*
Y65847D01*
Y57179D02*
X72736Y56201D01*
X78051D01*
X78642Y55610D01*
Y45807D02*
Y55610D01*
Y45807D02*
X81338Y43110D01*
X87561D01*
X88447Y43996D01*
Y52915D01*
X88878Y53346D01*
X102466D01*
X103253Y54134D01*
X108071D01*
X10434Y145275D02*
Y148137D01*
Y145275D02*
X12894Y142815D01*
Y139665D02*
Y142815D01*
X11417Y138189D02*
X12894Y139665D01*
X11417Y99803D02*
Y138189D01*
X39099Y105035D02*
X49806D01*
X12992Y146161D02*
X14820Y144334D01*
Y138976D02*
Y144334D01*
X12992Y137149D02*
X14820Y138976D01*
X12992Y101279D02*
Y137149D01*
X38446Y106610D02*
X63002D01*
X71063Y98549D01*
Y75000D02*
Y98549D01*
Y75000D02*
X73032Y73032D01*
Y69587D02*
Y73032D01*
X72244Y68799D02*
X73032Y69587D01*
X11909Y151181D02*
X16395Y146696D01*
Y137753D02*
Y146696D01*
X14567Y135925D02*
X16395Y137753D01*
X14567Y102756D02*
Y135925D01*
X37794Y108185D02*
X63654D01*
X72638Y99201D01*
Y76378D02*
Y99201D01*
Y76378D02*
X74606Y74410D01*
Y58760D02*
Y74410D01*
Y58760D02*
X75591Y57776D01*
X78937D01*
X80216Y56496D01*
Y46459D02*
Y56496D01*
Y46459D02*
X81991Y44685D01*
X85888D01*
X86872Y45669D01*
Y54687D01*
X87992Y55807D01*
X100787D01*
X16142Y134941D02*
X17969Y136769D01*
X16142Y103740D02*
Y134941D01*
X37142Y109760D02*
X64306D01*
X74213Y99853D01*
Y77165D02*
Y99853D01*
Y77165D02*
X76181Y75197D01*
Y60827D02*
Y75197D01*
Y60827D02*
X77461Y59547D01*
X94292D01*
X95276Y58562D01*
X110139D01*
X113545Y55155D01*
Y43723D02*
Y55155D01*
X30532Y103150D02*
X37142Y109760D01*
X16142Y103740D02*
X16732Y103150D01*
X31184Y101575D02*
X37794Y108185D01*
X14567Y102756D02*
X15748Y101575D01*
X31836Y100000D02*
X38446Y106610D01*
X12992Y101279D02*
X14272Y100000D01*
X32489Y98425D02*
X39099Y105035D01*
X11417Y99803D02*
X12795Y98425D01*
X33141Y96850D02*
X39751Y103461D01*
X9843Y98228D02*
X11220Y96850D01*
X33141D01*
X12795Y98425D02*
X32489D01*
X14272Y100000D02*
X31836D01*
X15748Y101575D02*
X31184D01*
X16732Y103150D02*
X30532D01*
X81179Y87402D02*
X81223Y87445D01*
X75787Y88583D02*
X76925Y87445D01*
X75787Y88583D02*
Y100506D01*
X64958Y111335D02*
X75787Y100506D01*
X36489Y111335D02*
X64958D01*
X29879Y104724D02*
X36489Y111335D01*
X18799Y104724D02*
X29879D01*
X17717Y105807D02*
X18799Y104724D01*
X17717Y105807D02*
Y134289D01*
X76925Y87445D02*
X81223D01*
X17969Y141936D02*
Y143461D01*
Y136769D02*
Y141936D01*
Y148763D01*
X15059Y151673D02*
X17969Y148763D01*
X17717Y134289D02*
X19544Y136116D01*
Y147989D01*
X21063Y149508D01*
X47835D01*
X71094Y107426D02*
X81125D01*
X65611Y112909D02*
X71094Y107426D01*
X35837Y112909D02*
X65611D01*
X29227Y106299D02*
X35837Y112909D01*
X20079Y106299D02*
X29227D01*
X19291Y107087D02*
X20079Y106299D01*
X19291Y133636D02*
X21119Y135464D01*
Y146513D01*
X22539Y147933D01*
X35630D01*
X19291Y107087D02*
Y133636D01*
X-60843Y99524D02*
Y103823D01*
X-59941Y104724D01*
X-42520D01*
X-41732Y103937D01*
Y101081D02*
X-41248Y100596D01*
X29657Y108957D02*
X35185Y114484D01*
X61334D01*
X70440Y125817D02*
Y127560D01*
X60682Y116059D02*
X70440Y125817D01*
X34532Y116059D02*
X60682D01*
X30875Y112402D02*
X34532Y116059D01*
X57316Y119143D02*
Y127560D01*
X55807Y117634D02*
X57316Y119143D01*
X33880Y117634D02*
X55807D01*
X30223Y113976D02*
X33880Y117634D01*
X25197Y112697D02*
X25394Y112894D01*
X29570Y115551D02*
X33819Y119799D01*
X28543Y108957D02*
X29657D01*
X28543Y112402D02*
X30875D01*
X25000Y108858D02*
X28543Y112402D01*
X26476Y113976D02*
X30223D01*
X25197Y112697D02*
X26476Y113976D01*
X23917Y115551D02*
X29570D01*
X21752Y113386D02*
X23917Y115551D01*
X22185Y68481D02*
Y71595D01*
X-37795Y113681D02*
X-37106Y112992D01*
X-4921D01*
X-4134Y113779D01*
Y139961D01*
X-5118Y140945D02*
X-4134Y139961D01*
X-3642Y204035D02*
X-2915Y203309D01*
X689Y225197D02*
X1022Y224864D01*
X-2915Y224644D02*
X-2362Y225197D01*
X-2915Y220918D02*
Y224644D01*
X1022Y220918D02*
Y224864D01*
X2991Y220918D02*
Y227127D01*
X2559Y227559D02*
X2991Y227127D01*
X-3642Y227559D02*
X2559D01*
X-5709Y201870D02*
X-4490Y200651D01*
X-2362Y225197D02*
X689D01*
X38795Y99524D02*
X39650D01*
X34350Y95079D02*
X38795Y99524D01*
X27165Y95079D02*
X34350D01*
X26378Y94291D02*
X27165Y95079D01*
X-31496Y83366D02*
X-29724Y81595D01*
X109075Y87422D02*
X113008D01*
X119388D01*
X105868Y74864D02*
X108563Y77559D01*
X105868Y67345D02*
Y74864D01*
X108563Y77559D02*
Y82681D01*
Y85925D01*
Y82681D02*
Y86910D01*
X109075Y87422D01*
X103309Y67345D02*
Y74766D01*
X106988Y78445D01*
Y84256D01*
Y86319D01*
Y84256D02*
Y91339D01*
X105862Y92465D02*
X106988Y91339D01*
X90370Y92422D02*
X91551D01*
X84766Y92465D02*
X105862D01*
X100750Y67345D02*
Y74864D01*
X105118Y79232D01*
Y89075D01*
X103937Y90256D02*
X105118Y89075D01*
X96949Y95079D02*
Y101673D01*
X96200Y102422D02*
X96949Y101673D01*
X91551Y102422D02*
X96200D01*
X84668Y102406D02*
X92701D01*
X96752Y90256D02*
X103937D01*
X35433Y51968D02*
X38091Y54626D01*
X-41732Y101081D02*
Y103937D01*
X-31496Y83366D02*
Y107185D01*
X44193Y121177D02*
Y127560D01*
X33819Y119799D02*
X42815D01*
X44193Y121177D01*
D11*
X34076Y151279D02*
G03*
X39421Y153493I0J7558D01*
G01*
X36928Y151279D02*
G03*
X40256Y152658I0J4707D01*
G01*
X43107Y152855D02*
G03*
X41091Y152020I0J-2851D01*
G01*
Y153690D02*
G03*
X43107Y152855I2016J2016D01*
G01*
X63651D02*
G03*
X65667Y153690I0J2851D01*
G01*
Y152020D02*
G03*
X63651Y152855I-2016J-2016D01*
G01*
X69354D02*
G03*
X67338Y152020I0J-2851D01*
G01*
Y153690D02*
G03*
X69354Y152855I2016J2016D01*
G01*
X56231D02*
G03*
X54214Y152020I0J-2851D01*
G01*
Y153690D02*
G03*
X56231Y152855I2016J2016D01*
G01*
X50528D02*
G03*
X52544Y153690I0J2851D01*
G01*
Y152020D02*
G03*
X50528Y152855I-2016J-2016D01*
G01*
X82477D02*
G03*
X80461Y152020I0J-2851D01*
G01*
Y153690D02*
G03*
X82477Y152855I2016J2016D01*
G01*
X76775D02*
G03*
X78791Y153690I0J2851D01*
G01*
Y152020D02*
G03*
X76775Y152855I-2016J-2016D01*
G01*
X-41017Y145401D02*
G03*
X-39764Y148425I-3024J3024D01*
G01*
X-39000Y147417D02*
G03*
X-38583Y148425I-1008J1008D01*
G01*
X-45943Y140475D02*
G03*
X-47119Y139593I0J-1225D01*
G01*
Y141357D02*
G03*
X-45943Y140475I1176J343D01*
G01*
X-48587Y145970D02*
G03*
X-39173Y147244I3870J6817D01*
G01*
X-49170Y144943D02*
G03*
X-40270Y146147I3659J6445D01*
G01*
X-49754Y143916D02*
G03*
X-41367Y145051I3448J6074D01*
G01*
X-50337Y142888D02*
G03*
X-42463Y143954I3237J5702D01*
G01*
X-50920Y141861D02*
G03*
X-43560Y142857I3026J5330D01*
G01*
X-51503Y140834D02*
G03*
X-44657Y141761I2815J4958D01*
G01*
X-52086Y139807D02*
G03*
X-45753Y140664I2604J4586D01*
G01*
X-44237Y135208D02*
G03*
X-43819Y134200I1426J0D01*
G01*
X-44654D02*
G03*
X-44237Y135208I-1008J1008D01*
G01*
X94552Y77422D02*
G03*
X93544Y77004I0J-1426D01*
G01*
Y77839D02*
G03*
X94552Y77422I1008J1008D01*
G01*
X99126Y86687D02*
G03*
X96900Y86368I-900J-1644D01*
G01*
X99693Y87723D02*
G03*
X98014Y87482I-679J-1240D01*
G01*
X99410Y87795D02*
G03*
X97561Y87030I0J-2614D01*
G01*
X97984Y87205D02*
G03*
X98992Y87622I0J1426D01*
G01*
Y86787D02*
G03*
X97984Y87205I-1008J-1008D01*
G01*
X99508Y99359D02*
G03*
X99926Y98351I1426J0D01*
G01*
X99090D02*
G03*
X99508Y99359I-1008J1008D01*
G01*
X93286Y114075D02*
G03*
X96433Y115378I0J4450D01*
G01*
X-39985Y142397D02*
G03*
X-39567Y143405I-1008J1008D01*
G01*
X-38976Y142815D02*
G03*
X-39985Y142397I0J-1426D01*
G01*
X97859Y106866D02*
G03*
X96850Y107283I-1008J-1008D01*
G01*
X97441Y107874D02*
G03*
X97859Y106866I1426J0D01*
G01*
X40256Y152855D02*
X53379D01*
X66503D01*
X79626D01*
X83865Y79883D02*
X83884Y79863D01*
X90036Y77756D02*
X90370Y77422D01*
X91551D01*
X93564D01*
X-34547Y151279D02*
X-5981D01*
X-37402Y148425D02*
X-34547Y151279D01*
X-39173Y148425D02*
X-37402D01*
X-39173Y147244D02*
Y148425D01*
X-50142Y140475D02*
X-45942D01*
X-39173Y147244D01*
X-5981Y151279D02*
X-3717Y149016D01*
X0D02*
X1722Y150738D01*
X-3717Y149016D02*
X0D01*
X79626Y152855D02*
X86810D01*
X89961Y149705D01*
Y115847D02*
Y149705D01*
Y115847D02*
X91732Y114075D01*
X95965D01*
X4528Y158965D02*
X9063Y154429D01*
X16535D01*
X19685Y151279D01*
X38681D01*
X40256Y152855D01*
X-44237Y138145D02*
X-38976Y143405D01*
X-44237Y131026D02*
Y138145D01*
X95965Y114075D02*
X96850Y114961D01*
X99508Y97933D02*
Y105217D01*
X98542Y106182D02*
X99508Y105217D01*
X98542Y106182D02*
X99311Y105413D01*
X96850Y107874D02*
X98542Y106182D01*
X97736Y87205D02*
X99410D01*
X96358Y85827D02*
X97736Y87205D01*
X96358Y78150D02*
Y85827D01*
X95631Y77422D02*
X96358Y78150D01*
X91551Y77422D02*
X95631D01*
D12*
X13780Y210433D02*
D03*
X7087D02*
D03*
X3385Y65332D02*
D03*
X-3308D02*
D03*
X3385Y72910D02*
D03*
X-3308D02*
D03*
X3248Y91929D02*
D03*
X-3445D02*
D03*
X3248Y80512D02*
D03*
X-3445D02*
D03*
D13*
X136024Y37402D02*
D03*
Y45276D02*
D03*
Y53150D02*
D03*
Y61024D02*
D03*
Y29528D02*
D03*
D14*
Y68898D02*
D03*
D15*
X39370Y15748D02*
D03*
X70866D02*
D03*
X-39370D02*
D03*
X-70866D02*
D03*
D16*
X6928Y220918D02*
D03*
X4959D02*
D03*
X2991D02*
D03*
X-946D02*
D03*
X-2915D02*
D03*
X-4883D02*
D03*
X-6852D02*
D03*
X1022D02*
D03*
D17*
X-9411D02*
D03*
X-12561D02*
D03*
X9487D02*
D03*
X12636D02*
D03*
D18*
X60630Y30118D02*
D03*
X49606D02*
D03*
X-60630D02*
D03*
X-49606D02*
D03*
D19*
X5000Y15790D02*
D03*
D20*
X-5000D02*
D03*
D21*
X91551Y107422D02*
D03*
Y77422D02*
D03*
Y82422D02*
D03*
Y87422D02*
D03*
Y92422D02*
D03*
Y97422D02*
D03*
Y102422D02*
D03*
X113008Y107422D02*
D03*
Y102422D02*
D03*
Y97422D02*
D03*
Y92422D02*
D03*
Y87422D02*
D03*
Y82422D02*
D03*
Y77422D02*
D03*
D22*
X-50142Y131026D02*
D03*
D23*
X-44237D02*
D03*
X-56048D02*
D03*
D24*
X-50142Y140475D02*
D03*
D25*
X90514Y43723D02*
D03*
X93073D02*
D03*
X95632D02*
D03*
X98191D02*
D03*
X100750D02*
D03*
X103309D02*
D03*
X105868D02*
D03*
X108427D02*
D03*
X110986D02*
D03*
X113545D02*
D03*
Y67345D02*
D03*
X110986D02*
D03*
X108427D02*
D03*
X105868D02*
D03*
X103309D02*
D03*
X100750D02*
D03*
X98191D02*
D03*
X95632D02*
D03*
X93073D02*
D03*
X90514D02*
D03*
D26*
X73917Y52657D02*
D03*
X83366Y56594D02*
D03*
Y48720D02*
D03*
X93920Y19729D02*
D03*
Y27603D02*
D03*
X84471Y23666D02*
D03*
D27*
X-104818Y80686D02*
D03*
X-104818Y102734D02*
D03*
X-94818D02*
D03*
X-99818Y80686D02*
D03*
X-109818D02*
D03*
X-99818Y102734D02*
D03*
X-109818D02*
D03*
X-94818Y80686D02*
D03*
X-27185Y46434D02*
D03*
X-22185D02*
D03*
X-27185Y68481D02*
D03*
X-12185Y46434D02*
D03*
Y68481D02*
D03*
X-22185D02*
D03*
X-17185Y46434D02*
D03*
Y68481D02*
D03*
X43681Y46434D02*
D03*
X48681D02*
D03*
X43681Y68481D02*
D03*
X58681Y46434D02*
D03*
Y68481D02*
D03*
X48681D02*
D03*
X53681Y46434D02*
D03*
Y68481D02*
D03*
X12185Y46434D02*
D03*
X17185D02*
D03*
X12185Y68481D02*
D03*
X27185Y46434D02*
D03*
Y68481D02*
D03*
X17185D02*
D03*
X22185Y46434D02*
D03*
Y68481D02*
D03*
X-58681Y46434D02*
D03*
X-53681D02*
D03*
X-58681Y68481D02*
D03*
X-43681Y46434D02*
D03*
Y68481D02*
D03*
X-53681D02*
D03*
X-48681Y46434D02*
D03*
Y68481D02*
D03*
D28*
X102483Y23863D02*
D03*
Y27406D02*
D03*
X-43307Y148425D02*
D03*
Y151969D02*
D03*
X-43034Y158617D02*
D03*
Y162161D02*
D03*
X-52406Y118428D02*
D03*
Y121971D02*
D03*
X-38900Y162161D02*
D03*
Y158617D02*
D03*
X-52975Y162161D02*
D03*
Y158617D02*
D03*
X-57207Y158617D02*
D03*
Y162161D02*
D03*
X-39173Y151969D02*
D03*
Y148425D02*
D03*
X98447Y23863D02*
D03*
Y27406D02*
D03*
X105436Y33902D02*
D03*
Y37445D02*
D03*
X97168Y37446D02*
D03*
Y33902D02*
D03*
X83487Y37347D02*
D03*
Y33804D02*
D03*
X-116196Y88757D02*
D03*
Y85214D02*
D03*
X-84744Y66437D02*
D03*
Y62894D02*
D03*
X-48060Y118444D02*
D03*
X-48060Y121987D02*
D03*
X109849Y37430D02*
D03*
X109849Y33886D02*
D03*
X91542Y37331D02*
D03*
X91542Y33788D02*
D03*
X101318Y33918D02*
D03*
X101318Y37461D02*
D03*
X87408Y37331D02*
D03*
X87408Y33788D02*
D03*
X-116181Y93202D02*
D03*
X-116181Y96745D02*
D03*
D29*
X84766Y87445D02*
D03*
X81223D02*
D03*
X84766Y92465D02*
D03*
X81223D02*
D03*
X84766Y97386D02*
D03*
X81223D02*
D03*
X84668Y107426D02*
D03*
X81125D02*
D03*
X84668Y102406D02*
D03*
X81125D02*
D03*
X49016Y95281D02*
D03*
X52559D02*
D03*
X-52429Y95281D02*
D03*
X-48886D02*
D03*
X119412Y102406D02*
D03*
X122955D02*
D03*
X119412Y87445D02*
D03*
X122955D02*
D03*
X122980Y97682D02*
D03*
X119437D02*
D03*
X62106Y95281D02*
D03*
X58563D02*
D03*
X-39240Y95281D02*
D03*
X-42783D02*
D03*
X119412Y82426D02*
D03*
X122955D02*
D03*
X119412Y77406D02*
D03*
X122955D02*
D03*
X56496Y74902D02*
D03*
X60039D02*
D03*
X-45669Y74902D02*
D03*
X-42126D02*
D03*
X43241Y95281D02*
D03*
X39698D02*
D03*
X-57252Y95281D02*
D03*
X-60795D02*
D03*
X45472Y74902D02*
D03*
X41929D02*
D03*
X-56496D02*
D03*
X-60039D02*
D03*
X52756D02*
D03*
X49213D02*
D03*
X-49311D02*
D03*
X-52854D02*
D03*
X13129Y74710D02*
D03*
X16673D02*
D03*
X26712D02*
D03*
X23169D02*
D03*
X119412Y68449D02*
D03*
X122955D02*
D03*
X119412Y72879D02*
D03*
X122955D02*
D03*
X-105566Y62871D02*
D03*
X-109110D02*
D03*
X83782Y71993D02*
D03*
X80239D02*
D03*
X-109110Y75076D02*
D03*
X-105566D02*
D03*
X-99070Y75076D02*
D03*
X-95527D02*
D03*
X-109110Y71041D02*
D03*
X-105566D02*
D03*
X-99070Y67104D02*
D03*
X-95527D02*
D03*
X80337Y68056D02*
D03*
X83881D02*
D03*
X-105566Y108836D02*
D03*
X-109110D02*
D03*
X-19882Y82283D02*
D03*
X-16339D02*
D03*
X83865Y79883D02*
D03*
X80321Y79883D02*
D03*
X43193Y99524D02*
D03*
X39650Y99524D02*
D03*
X-57299D02*
D03*
X-60843Y99524D02*
D03*
X48933Y99523D02*
D03*
X52476Y99523D02*
D03*
X-1461Y86205D02*
D03*
X2083Y86205D02*
D03*
X80255Y75914D02*
D03*
X83798Y75914D02*
D03*
X-109094Y67088D02*
D03*
X-105551Y67088D02*
D03*
X-99054Y62856D02*
D03*
X-95511Y62856D02*
D03*
X-99054Y71025D02*
D03*
X-95511Y71025D02*
D03*
X-99054Y108919D02*
D03*
X-95511Y108919D02*
D03*
D30*
X-10493Y74879D02*
D03*
Y81572D02*
D03*
X-58213Y123349D02*
D03*
Y116656D02*
D03*
X-42072Y123546D02*
D03*
Y116853D02*
D03*
X-116196Y102045D02*
D03*
Y108738D02*
D03*
D31*
X61351Y89671D02*
D03*
X53477D02*
D03*
X57414Y80222D02*
D03*
X-39862Y89862D02*
D03*
X-47736D02*
D03*
X-43799Y80413D02*
D03*
X48063Y89671D02*
D03*
X40189D02*
D03*
X44126Y80222D02*
D03*
X-52854Y89862D02*
D03*
X-60728D02*
D03*
X-56791Y80413D02*
D03*
X49442Y127560D02*
D03*
X57316D02*
D03*
X53379Y137008D02*
D03*
X75689Y143406D02*
D03*
X83563D02*
D03*
X79626Y152855D02*
D03*
X49442Y143406D02*
D03*
X57316D02*
D03*
X53379Y152855D02*
D03*
X75689Y127560D02*
D03*
X83563D02*
D03*
X79626Y137008D02*
D03*
X36319Y127560D02*
D03*
X44193D02*
D03*
X40256Y137008D02*
D03*
X62566Y143406D02*
D03*
X70440D02*
D03*
X66503Y152855D02*
D03*
X36319Y143406D02*
D03*
X44193D02*
D03*
X40256Y152855D02*
D03*
X62566Y127560D02*
D03*
X70440D02*
D03*
X66503Y137008D02*
D03*
D32*
X-50263Y100596D02*
D03*
X-41248D02*
D03*
D33*
X-62522Y164917D02*
D03*
Y155901D02*
D03*
X-90212Y64446D02*
D03*
Y73462D02*
D03*
D34*
X-47955Y163932D02*
D03*
Y156846D02*
D03*
D35*
X-13014Y38834D02*
D03*
Y27810D02*
D03*
X-4784Y47418D02*
D03*
Y58442D02*
D03*
X4334Y38984D02*
D03*
Y27960D02*
D03*
X-4353Y38932D02*
D03*
Y27909D02*
D03*
X4763Y58442D02*
D03*
Y47418D02*
D03*
X12998Y38984D02*
D03*
Y27960D02*
D03*
D36*
X-35433Y51968D02*
D03*
Y57874D02*
D03*
X35433D02*
D03*
Y51968D02*
D03*
D37*
X-85925Y43602D02*
D03*
Y26870D02*
D03*
D38*
X4528Y91535D02*
Y158965D01*
Y203150D01*
D39*
X-11379Y225702D02*
D03*
X11377D02*
D03*
D40*
X17065Y240190D02*
D03*
X-16990D02*
D03*
D41*
X-16970Y223733D02*
D03*
X17065D02*
D03*
D42*
X-38484Y79626D02*
D03*
X-44488Y89272D02*
D03*
X-94587Y89961D02*
D03*
X-94784Y95669D02*
D03*
X-104724Y95866D02*
D03*
X-94980Y54921D02*
D03*
X84449Y29921D02*
D03*
X128839Y45472D02*
D03*
X139764Y87795D02*
D03*
X131791Y88976D02*
D03*
X132283Y77559D02*
D03*
X139173Y77264D02*
D03*
X106693Y98130D02*
D03*
X107283Y106890D02*
D03*
X-56988Y85433D02*
D03*
X-26969Y121555D02*
D03*
X-10039Y120669D02*
D03*
X-9252Y141929D02*
D03*
X-27362Y143307D02*
D03*
X-12697Y174409D02*
D03*
X-29035Y175886D02*
D03*
X-11024Y185728D02*
D03*
X-31890Y186319D02*
D03*
X-12992Y162205D02*
D03*
X-28248Y162697D02*
D03*
X-80315Y122047D02*
D03*
X-80905Y142028D02*
D03*
X-98327Y120669D02*
D03*
X-115157Y120768D02*
D03*
X-112303Y135335D02*
D03*
X-98622Y143701D02*
D03*
X-73032Y160138D02*
D03*
X-45669Y174902D02*
D03*
X16929Y170571D02*
D03*
X17815Y186122D02*
D03*
X59153Y161122D02*
D03*
X43602D02*
D03*
X24705Y160925D02*
D03*
X74606Y160728D02*
D03*
X29232Y173031D02*
D03*
X113484Y135630D02*
D03*
X112697Y118012D02*
D03*
X97146Y119193D02*
D03*
X81004Y112402D02*
D03*
X75197D02*
D03*
X82480Y119193D02*
D03*
X74705D02*
D03*
X99606Y11122D02*
D03*
X116043Y11319D02*
D03*
X120669Y20374D02*
D03*
X115354Y4626D02*
D03*
X99016Y5413D02*
D03*
X89272Y23228D02*
D03*
X111909Y27264D02*
D03*
X108760Y24902D02*
D03*
X63976Y51870D02*
D03*
X56595Y85827D02*
D03*
X56693Y89665D02*
D03*
X-102264Y59449D02*
D03*
X-90650Y79429D02*
D03*
X-99902Y89272D02*
D03*
X-106398Y88976D02*
D03*
X-126969Y96063D02*
D03*
X-127165Y101673D02*
D03*
X-41535Y85433D02*
D03*
X-35236Y120669D02*
D03*
X-35531Y115945D02*
D03*
X-65158Y124803D02*
D03*
X-65256Y118602D02*
D03*
X-55610Y152165D02*
D03*
X72244Y68701D02*
D03*
X80315Y77756D02*
D03*
X81398Y96161D02*
D03*
X78543Y71949D02*
D03*
X78642Y68701D02*
D03*
X70669Y71949D02*
D03*
X67323Y64468D02*
D03*
X11909Y151181D02*
D03*
X-2559Y154724D02*
D03*
X-2657Y151575D02*
D03*
X-43307Y157382D02*
D03*
X84744Y10236D02*
D03*
X-95079Y5906D02*
D03*
X87106Y5709D02*
D03*
X81988Y6299D02*
D03*
X-94882Y2756D02*
D03*
X79331Y8071D02*
D03*
X12205Y71260D02*
D03*
X22244Y71358D02*
D03*
X-27264Y71555D02*
D03*
X-17224Y71358D02*
D03*
X-84449Y41142D02*
D03*
X-79528Y41240D02*
D03*
X-81890Y41142D02*
D03*
X-84449Y38878D02*
D03*
X-79429D02*
D03*
X-81791D02*
D03*
X-84449Y36319D02*
D03*
X-81791Y36417D02*
D03*
X-79429D02*
D03*
X4921Y15650D02*
D03*
X-5118Y15748D02*
D03*
X105905Y47047D02*
D03*
X105315Y32579D02*
D03*
Y27559D02*
D03*
X101279Y32283D02*
D03*
X109941D02*
D03*
X-52461Y102264D02*
D03*
X103445Y49213D02*
D03*
X105709Y51772D02*
D03*
X114272Y58169D02*
D03*
X80118Y63583D02*
D03*
X122638Y51968D02*
D03*
X124311Y49213D02*
D03*
X108366Y54134D02*
D03*
X125591Y55807D02*
D03*
X114469Y61319D02*
D03*
X124114Y62008D02*
D03*
X124311Y58760D02*
D03*
X100886Y55807D02*
D03*
X100787Y47047D02*
D03*
X83465Y54429D02*
D03*
X83268Y66142D02*
D03*
X83084Y84296D02*
D03*
X-52461Y113484D02*
D03*
X-38976Y157283D02*
D03*
X-4528Y96161D02*
D03*
X-4134Y87303D02*
D03*
X-3839Y84646D02*
D03*
X-1673Y96063D02*
D03*
X-1575Y88681D02*
D03*
X-48031Y86417D02*
D03*
X-54057Y97081D02*
D03*
X-45276Y86417D02*
D03*
X-102362Y66831D02*
D03*
X-102461Y69980D02*
D03*
X-102362Y74606D02*
D03*
X-95276Y76876D02*
D03*
X-94790Y85017D02*
D03*
X-116339Y99584D02*
D03*
X-122343Y101772D02*
D03*
X-121752Y96457D02*
D03*
X-95374Y59449D02*
D03*
X-104823Y54331D02*
D03*
X-87894Y54035D02*
D03*
X-62500Y151772D02*
D03*
X-46949Y148524D02*
D03*
X-59252Y130905D02*
D03*
X-59449Y126969D02*
D03*
X-47933Y115354D02*
D03*
X-41929Y114392D02*
D03*
X40157Y140453D02*
D03*
X53347D02*
D03*
X66535Y140748D02*
D03*
X79528Y140847D02*
D03*
X53248Y86122D02*
D03*
X46358Y95571D02*
D03*
X116831Y105610D02*
D03*
X122835Y89836D02*
D03*
X124609Y77264D02*
D03*
X70669Y52067D02*
D03*
X67126Y51870D02*
D03*
X77067Y80020D02*
D03*
X77559Y77461D02*
D03*
X87205Y31299D02*
D03*
X91043Y31496D02*
D03*
X88878Y27953D02*
D03*
X105512Y23720D02*
D03*
X136024Y37402D02*
D03*
X128543Y37303D02*
D03*
X-114862Y14370D02*
D03*
X-103248Y14272D02*
D03*
X-115059Y8465D02*
D03*
X-103543Y8071D02*
D03*
X-108563Y13976D02*
D03*
X-107972Y8169D02*
D03*
X17599Y232382D02*
D03*
X21850Y231890D02*
D03*
X-16339Y234842D02*
D03*
X-16437Y230709D02*
D03*
X15059Y151673D02*
D03*
X12992Y146161D02*
D03*
X-1673Y146260D02*
D03*
X-3543Y143701D02*
D03*
X10434Y148137D02*
D03*
X10433Y141929D02*
D03*
X-5118Y140945D02*
D03*
X-37795Y113681D02*
D03*
Y103937D02*
D03*
X96850Y107874D02*
D03*
X28543Y108957D02*
D03*
X25000Y108858D02*
D03*
X25197Y112697D02*
D03*
X21752Y113386D02*
D03*
X-3642Y204035D02*
D03*
X-5906Y201673D02*
D03*
X-197Y225098D02*
D03*
X-3642Y227559D02*
D03*
X26378Y94291D02*
D03*
X-29724Y81595D02*
D03*
X-31004Y107087D02*
D03*
X-41732Y103740D02*
D03*
X-43996Y40059D02*
D03*
X-46260D02*
D03*
X-43898Y37106D02*
D03*
X-48524Y40059D02*
D03*
X-46260Y37106D02*
D03*
X-48622D02*
D03*
X-41437D02*
D03*
X-39075D02*
D03*
X-41339Y40059D02*
D03*
X-39075D02*
D03*
X-38976Y143405D02*
D03*
X96949Y89961D02*
D03*
Y95079D02*
D03*
X96850Y114961D02*
D03*
X99508Y97933D02*
D03*
X99410Y87205D02*
D03*
X13681Y204823D02*
D03*
X15748Y206201D02*
D03*
X17323Y208071D02*
D03*
X19094Y205413D02*
D03*
X17028Y203839D02*
D03*
X13287Y202461D02*
D03*
X12894Y214961D02*
D03*
X15453Y214075D02*
D03*
X16142Y210630D02*
D03*
X-58071Y154823D02*
D03*
X-59646Y151870D02*
D03*
X-66437Y157480D02*
D03*
X-66831Y154232D02*
D03*
X-65453Y151870D02*
D03*
X-37992Y83858D02*
D03*
X-48819Y83760D02*
D03*
X-1575Y92421D02*
D03*
X-6594Y94095D02*
D03*
X-6693Y91732D02*
D03*
X-6299Y88681D02*
D03*
X-6102Y86024D02*
D03*
X-99902Y93701D02*
D03*
X-99213Y96752D02*
D03*
X-103937Y92421D02*
D03*
X-118701Y104921D02*
D03*
X-115748Y104724D02*
D03*
X135039Y82972D02*
D03*
X132185Y95866D02*
D03*
X138976Y101279D02*
D03*
X136516Y93701D02*
D03*
X131398Y101378D02*
D03*
X101575Y126969D02*
D03*
X99016Y134055D02*
D03*
X105905Y139862D02*
D03*
X107677Y129232D02*
D03*
X94784Y128150D02*
D03*
X95965Y139961D02*
D03*
X-13386Y216732D02*
D03*
X-13484Y213779D02*
D03*
Y211417D02*
D03*
X-13583Y208465D02*
D03*
X-12992Y204429D02*
D03*
X-10039Y203740D02*
D03*
X-12795Y230413D02*
D03*
X-12894Y234252D02*
D03*
X-9055Y233366D02*
D03*
X-9154Y230217D02*
D03*
X-7579Y226575D02*
D03*
X-5906Y232283D02*
D03*
X-6791Y236122D02*
D03*
X-10630Y237402D02*
D03*
X75886Y104724D02*
D03*
X78051Y102559D02*
D03*
X78445Y92323D02*
D03*
X100394Y81004D02*
D03*
X97146Y74114D02*
D03*
M02*
